<svg xmlns="http://www.w3.org/2000/svg" viewBox="0 0 877.17 222.35"><defs><style>.cls-1{fill:#773119;}</style></defs><g id="Capa_2" data-name="Capa 2"><g id="Layer_1" data-name="Layer 1"><rect class="cls-1" y="30.91" width="4.17" height="39.36"/><rect class="cls-1" x="6.94" y="30.91" width="1.83" height="39.36"/><rect class="cls-1" x="872.58" y="30.58" width="4.57" height="39.7"/><rect class="cls-1" y="29.99" width="877.17" height="1.19"/><rect class="cls-1" y="39.76" width="877.17" height="1.19"/><rect class="cls-1" y="49.54" width="877.17" height="1.19"/><rect class="cls-1" y="59.31" width="877.17" height="1.19"/><rect class="cls-1" y="69.08" width="877.17" height="1.19"/><path class="cls-1" d="M244.41,59.47c-1.4-2.56-5.66-2.91-9.51-.8-3,1.64-4.82,4.27-4.86,6.57h0l.48,36.47h1.43l-.44-33.41c1.91,1.45,5.34,1.38,8.5-.36C243.84,65.81,245.82,62,244.41,59.47Z"/><path class="cls-1" d="M125.88,53.36c-1.07-2-4.4-2.34-7.43-.72-2.34,1.25-3.81,3.29-3.86,5.08h0V77.89h-18V60.13c1.48,1.14,4.16,1.13,6.65-.2,3-1.62,4.61-4.56,3.54-6.57s-4.4-2.34-7.43-.72c-2.34,1.25-3.81,3.29-3.87,5.08h0V86.25H115.7V82h0V79.55h0V77.89h0V60.13c1.47,1.14,4.16,1.13,6.64-.2C125.37,58.31,127,55.37,125.88,53.36ZM114.58,82h-18V79.55h18Z"/><path class="cls-1" d="M335.21,11.51V5l0-3.18L311.07,9.79V9.73l0,.07-27.11,8.9v5.9h0v3.75h0v2.91h0v22c-2-1.54-5.57-1.51-8.9.26-4,2.16-6.18,6.1-4.74,8.8s5.89,3.13,9.95,1c3.13-1.67,5.1-4.4,5.18-6.8h0V30.76l24.16-8.06v22c-2-1.54-5.57-1.51-8.9.26-4.06,2.17-6.18,6.1-4.74,8.8s5.89,3.13,9.95,1c3.13-1.67,5.1-4.4,5.17-6.8h0V22.2l22.64-7.55V37.59c-2-1.53-5.57-1.51-8.9.27-4.05,2.16-6.17,6.1-4.74,8.79s5.89,3.13,9.95,1c3.13-1.67,5.1-4.4,5.18-6.8h0V13l0-1.49ZM285.42,27.86V24.1l24.16-8v3.88Zm25.65-8.42V15.55L333.71,8v4Z"/><path class="cls-1" d="M102.06,28.92c1.09,2-.52,5-3.6,6.67s-6.45,1.32-7.54-.73.52-5,3.59-6.67S101,26.87,102.06,28.92Z"/><rect class="cls-1" x="101.26" y="1.45" width="1.14" height="28.98"/><path class="cls-1" d="M151.29,40.26c-3.65,0-6.61,2-6.61,4.38S147.62,49,151.27,49s6.6-2,6.61-4.37S154.93,40.27,151.29,40.26Zm4.5,5.62c-.4,1.46-2.75,2.09-5.24,1.4s-4.18-2.41-3.78-3.87,2.74-2.08,5.23-1.4S156.19,44.42,155.79,45.88Z"/><path class="cls-1" d="M200.42,22.81a9.37,9.37,0,0,1-3.09-2.55,5,5,0,0,1-1-1.93h-.62V47.61c-1.65-1.29-4.66-1.27-7.45.22-3.39,1.81-5.16,5.1-4,7.36s4.93,2.62,8.32.81c2.63-1.4,4.28-3.69,4.34-5.7h0V23.13c1.48,1.88,5.1,2.88,6.35,5s.48,5.52.48,5.52C206.62,26.8,203.56,24.57,200.42,22.81Z"/><rect class="cls-1" x="866.7" y="158.05" width="10.46" height="39.36"/><rect class="cls-1" x="855.2" y="158.05" width="4.57" height="39.36"/><rect class="cls-1" x="0.01" y="157.72" width="4.58" height="39.69"/><rect class="cls-1" y="157.13" width="877.17" height="1.19"/><rect class="cls-1" y="176.68" width="877.17" height="1.19"/><rect class="cls-1" y="166.9" width="877.17" height="1.19"/><rect class="cls-1" y="186.45" width="877.17" height="1.19"/><rect class="cls-1" y="196.22" width="877.17" height="1.19"/><path class="cls-1" d="M247.32,156.08c-1.41-2.56-5.67-2.91-9.51-.8-3,1.64-4.82,4.27-4.86,6.57h0l.48,36.47h1.43l-.44-33.41c1.9,1.45,5.34,1.38,8.49-.36C246.75,162.42,248.72,158.63,247.32,156.08Z"/><path class="cls-1" d="M329.27,177.57c-1.08-2-4.4-2.34-7.43-.72-2.34,1.25-3.81,3.29-3.87,5.08h0V202.1h-18V184.34c1.47,1.14,4.16,1.13,6.64-.2,3-1.62,4.62-4.56,3.54-6.57s-4.4-2.34-7.43-.72c-2.34,1.25-3.81,3.29-3.86,5.08h0v28.53h20.28v-4.26h0v-2.45h0V202.1h0V184.34c1.48,1.14,4.16,1.13,6.65-.2C328.75,182.52,330.34,179.58,329.27,177.57ZM318,206.21h-18v-2.45h18Z"/><path class="cls-1" d="M171.05,169.14v-6.48l0-3.18-24.16,7.93v0l0,.07-27.11,8.9v5.89h0V186h0v2.9h0v22c-2-1.53-5.57-1.51-8.9.27-4.06,2.16-6.18,6.1-4.74,8.79s5.89,3.13,10,1c3.13-1.67,5.1-4.4,5.18-6.8h0V188.38l24.16-8v22c-2-1.54-5.57-1.52-8.9.26-4.06,2.16-6.18,6.1-4.74,8.79s5.89,3.13,9.94,1c3.14-1.67,5.11-4.4,5.18-6.8h0V179.83l22.64-7.55v22.94c-2-1.54-5.57-1.51-8.9.26-4.05,2.17-6.18,6.1-4.74,8.8s5.89,3.13,10,1c3.13-1.67,5.1-4.4,5.18-6.8h0V170.62l0-1.49Zm-49.79,16.35v-3.77l24.16-8.05v3.88Zm25.65-8.43v-3.89l22.64-7.55v4Z"/><path class="cls-1" d="M278.57,169.11c1.09,2-.52,5-3.6,6.67s-6.45,1.32-7.55-.73.53-5,3.6-6.67S277.48,167.06,278.57,169.11Z"/><rect class="cls-1" x="277.77" y="141.64" width="1.14" height="28.98"/><path class="cls-1" d="M203.58,168.83c-3.64,0-6.6,1.95-6.61,4.38s2.95,4.39,6.6,4.39,6.6-1.95,6.61-4.37S207.23,168.84,203.58,168.83Zm4.51,5.62c-.4,1.46-2.75,2.09-5.24,1.4s-4.18-2.41-3.78-3.87,2.74-2.08,5.23-1.4S208.49,173,208.09,174.45Z"/><path class="cls-1" d="M95.83,141.21a9.21,9.21,0,0,1-3.1-2.55,5,5,0,0,1-1-1.93h-.62V166c-1.66-1.29-4.67-1.27-7.45.22-3.4,1.81-5.17,5.1-4,7.36s4.93,2.62,8.32.81c2.63-1.4,4.28-3.69,4.34-5.7h0V141.53c1.48,1.88,5.1,2.88,6.34,5s.48,5.52.48,5.52C102,145.2,99,143,95.83,141.21Z"/><path class="cls-1" d="M44.38,63.71c2.47-2.23,4.27-5.18,4-8.63A10.34,10.34,0,0,0,39,45.94a9.19,9.19,0,0,0-1.05,0c-.87-2.35-1.7-4.71-2.41-7.13-.12-.38-.23-.76-.34-1.15a28.64,28.64,0,0,0,5.67-7.81c1.64-3.58,1.74-7.64,1.52-11.51-.12-2.24-.45-5.1-2.29-6.64-2.07-1.75-4.94-.61-6.95.64a10.43,10.43,0,0,0-4.54,6.31c-2,7-.29,14.36,1.64,21.18-1.71,1.74-3.5,3.42-5.12,5.24-2.74,3.08-6,7.14-5.54,11.52s4.59,9,8.49,10.73a14.11,14.11,0,0,0,11.58-.53A31.35,31.35,0,0,1,40.46,76a19.37,19.37,0,0,1-.87,4.71,11,11,0,0,1-1.14,2.43c-.17.26-.43.52-.58.8l-.19.16L37,84.2a10.3,10.3,0,0,1-6-1.45c2.6-1.43,5-3.66,4.68-6.59a4.52,4.52,0,0,0-3.22-3.85c-2-.51-4.19.59-5.79,1.64-3.38,2.21-5,6.39-2.39,9.91s8.12,4.14,12,2.7c7.94-3,9.72-10.91,8.89-18.54A32.63,32.63,0,0,0,44.38,63.71ZM40.47,51.53a9.15,9.15,0,0,1,2.88,8.53c-.58-1.81-1.25-3.59-2-5.36-.49-1.21-1-2.42-1.45-3.63ZM32.61,21.18A24.11,24.11,0,0,1,33.26,17,15.61,15.61,0,0,1,34,14.72c.09-.2.22-.42.34-.63a5.08,5.08,0,0,1,1.58,1,6.07,6.07,0,0,1,1,1.92,16.44,16.44,0,0,1,.74,5.22c.08,4.72-.61,8.88-3.2,12.75A41.19,41.19,0,0,1,32.61,21.18Zm.21,43.25a15.7,15.7,0,0,1-8-8.84c-1.32-4,1.18-7.83,3.62-10.77.8-1,1.65-1.89,2.53-2.8.56,1.82,1.21,3.61,1.88,5.39a12.74,12.74,0,0,0-5.42,5,6.43,6.43,0,0,0,4.56,9.4c1.07.16,2.36-.66,3.2-1.24.18-.13,2-1.64,1.21-1.76a5.9,5.9,0,0,1-4.73-7.36,3.07,3.07,0,0,1,1.84-2.33,158.33,158.33,0,0,1,5.79,15.95,5.47,5.47,0,0,1-.61.13A11.26,11.26,0,0,1,32.82,64.43Z"/><path class="cls-1" d="M39.33,161.89c-4.22-3.2-10.53-2-13.79,2.1-1.65,2.08-2.35,5.71-.67,8s4.46,1.75,6.59.37,4-4.21,2.07-6.63c-1.44-1.8-3.85-1.94-5.91-1.33a4.43,4.43,0,0,1,1.06-1.64c1.47-1.34,4.36-.61,6,.17C39,165,40.93,170.14,40,174.72a14.05,14.05,0,0,1-9.95,10.53,5.07,5.07,0,0,0-2.31,1.33c-.38.46-.39.86.36.63,5.55-1.74,11.14-5.06,13.88-10.39C44.53,171.85,44,165.43,39.33,161.89Z"/><path class="cls-1" d="M47.48,168a1.45,1.45,0,0,0,.89-.11,5.93,5.93,0,0,0,1.84-1,2.18,2.18,0,0,0,.86-1.59,1.25,1.25,0,0,0-.34-1,1,1,0,0,0-.47-.24c-.08-.42-1.31.14-1.46.21a5.89,5.89,0,0,0-1.24.78c-.2.17-.55.41-.6.69,0,0,0,.06,0,.08a1.34,1.34,0,0,0-.07.18,2.76,2.76,0,0,0,0,.95C46.93,167.34,47.08,167.81,47.48,168Z"/><path class="cls-1" d="M51.37,174.59c0-.45-.13-1.18-.61-1.39a1.42,1.42,0,0,0-1,.1,5.71,5.71,0,0,0-1.84,1,2.24,2.24,0,0,0-.89,1.83,4.08,4.08,0,0,0,.11.93,4.93,4.93,0,0,0,0,.55c.1.71.79.6,1.32.43a5.2,5.2,0,0,0,2.59-1.77A2.53,2.53,0,0,0,51.37,174.59Z"/><path class="cls-1" d="M842.22,58c-1.4-2.56-5.66-2.91-9.51-.8-3,1.64-4.82,4.27-4.86,6.57h0l.48,36.47h1.43l-.44-33.4c1.91,1.44,5.34,1.37,8.5-.37C841.65,64.36,843.63,60.58,842.22,58Z"/><path class="cls-1" d="M723.69,51.91c-1.07-2-4.4-2.33-7.42-.72-2.34,1.25-3.82,3.29-3.87,5.08h0V76.45h-18V58.68c1.48,1.14,4.17,1.13,6.65-.2,3-1.61,4.61-4.56,3.54-6.57s-4.4-2.33-7.43-.72c-2.34,1.25-3.81,3.29-3.87,5.08h0V84.8h20.27V80.55h0V78.1h0V76.45h0V58.68c1.47,1.14,4.16,1.13,6.64-.2C723.18,56.87,724.77,53.92,723.69,51.91Zm-11.3,28.64h-18V78.1h18Z"/><path class="cls-1" d="M699.87,27.47c1.09,2.05-.52,5-3.59,6.67s-6.46,1.32-7.55-.73.52-5,3.6-6.67S698.78,25.42,699.87,27.47Z"/><rect class="cls-1" x="699.08" width="1.14" height="28.98"/><path class="cls-1" d="M749.1,38.81c-3.65,0-6.61,2-6.61,4.38s3,4.39,6.59,4.4,6.6-2,6.61-4.38S752.74,38.82,749.1,38.81Zm4.5,5.62c-.4,1.46-2.74,2.09-5.23,1.41s-4.19-2.42-3.79-3.88,2.74-2.08,5.23-1.4S754,43,753.6,44.43Z"/><path class="cls-1" d="M798.24,21.37a9.33,9.33,0,0,1-3.1-2.56,5,5,0,0,1-1-1.93h-.62V46.16c-1.66-1.29-4.67-1.27-7.45.22-3.4,1.81-5.17,5.1-4,7.36s4.93,2.62,8.32.81c2.63-1.4,4.28-3.69,4.34-5.7h0V21.68c1.48,1.88,5.09,2.88,6.34,5s.48,5.51.48,5.51C804.43,25.35,801.37,23.13,798.24,21.37Z"/><path class="cls-1" d="M546.2,59c-1.4-2.55-5.66-2.91-9.51-.79-3,1.63-4.82,4.27-4.86,6.56h0l.48,36.48,1.43,0-.44-33.4c1.91,1.44,5.34,1.37,8.5-.37C545.63,65.31,547.61,61.52,546.2,59Z"/><path class="cls-1" d="M427.67,52.85c-1.07-2-4.4-2.33-7.42-.72-2.35,1.25-3.82,3.29-3.87,5.08h0V77.39h-18V59.62c1.48,1.15,4.17,1.13,6.65-.19,3-1.62,4.61-4.56,3.54-6.58s-4.4-2.33-7.43-.72c-2.34,1.25-3.81,3.29-3.87,5.08h0V85.74h0v0h20.26V81.49h0V79h0V77.39h0V59.62c1.47,1.15,4.16,1.13,6.64-.19C427.16,57.81,428.75,54.87,427.67,52.85Zm-11.3,28.64h-18V79h18Z"/><path class="cls-1" d="M637,11V4.53l0-3.18L612.87,9.28v0l0,.07-27.11,8.9v5.89h0v3.76h0v2.9h0v22c-2-1.53-5.57-1.51-8.9.27-4.05,2.16-6.17,6.1-4.74,8.79s5.89,3.13,9.95,1c3.13-1.67,5.1-4.4,5.18-6.8h0V30.25l24.15-8v22c-2-1.53-5.57-1.51-8.9.27-4.06,2.16-6.18,6.1-4.74,8.79s5.89,3.13,9.95,1c3.13-1.67,5.1-4.4,5.17-6.8h0V21.7l22.63-7.55V37.09c-2-1.54-5.57-1.51-8.89.26-4.06,2.17-6.18,6.1-4.75,8.8s5.9,3.13,9.95,1c3.14-1.67,5.11-4.4,5.18-6.8h0V12.49L637,11ZM587.22,27.36V23.59l24.15-8v3.88Zm25.65-8.43V15L635.5,7.49v4Z"/><path class="cls-1" d="M403.85,28.41c1.09,2.05-.52,5-3.59,6.68s-6.46,1.31-7.55-.74.52-5,3.6-6.67S402.76,26.37,403.85,28.41Z"/><rect class="cls-1" x="403.06" y="0.94" width="1.14" height="28.98"/><path class="cls-1" d="M453.08,39.76c-3.65,0-6.61,2-6.61,4.37s2.95,4.39,6.59,4.4,6.6-2,6.61-4.38S456.72,39.76,453.08,39.76Zm4.5,5.62c-.4,1.45-2.74,2.08-5.23,1.4s-4.19-2.42-3.79-3.87,2.74-2.09,5.23-1.41S458,43.92,457.58,45.38Z"/><path class="cls-1" d="M502.22,22.31a9.45,9.45,0,0,1-3.1-2.55,5,5,0,0,1-1-1.93h-.62V47.1c-1.66-1.29-4.67-1.27-7.45.22-3.4,1.81-5.17,5.11-4,7.36s4.93,2.62,8.32.81c2.63-1.4,4.28-3.68,4.34-5.69h0V22.62c1.48,1.88,5.09,2.89,6.34,5s.48,5.51.48,5.51C508.41,26.3,505.35,24.07,502.22,22.31Z"/><path class="cls-1" d="M810.68,154.54c-1.41-2.55-5.67-2.91-9.51-.79-3,1.63-4.82,4.27-4.86,6.56h0l.48,36.48,1.43,0-.44-33.4c1.9,1.44,5.34,1.37,8.49-.37C810.11,160.89,812.08,157.1,810.68,154.54Z"/><path class="cls-1" d="M734.41,167.6v-6.48l0-3.18-24.16,7.93v-.05l0,.07-27.11,8.9v5.9h0v3.75h0v2.91h0v22c-2-1.54-5.57-1.51-8.9.26-4.06,2.16-6.18,6.1-4.74,8.8s5.89,3.13,10,1c3.13-1.67,5.1-4.4,5.18-6.8h0V186.84l24.16-8.05v22c-2-1.54-5.57-1.51-8.9.26-4.06,2.17-6.18,6.1-4.74,8.8s5.89,3.13,10,1c3.13-1.67,5.1-4.4,5.17-6.8h0V178.29l22.64-7.55v22.94c-2-1.53-5.57-1.51-8.9.27-4,2.16-6.17,6.1-4.74,8.79s5.9,3.13,10,1c3.13-1.67,5.1-4.4,5.18-6.8h0V169.09l0-1.49ZM684.62,184v-3.76l24.16-8.06V176Zm25.65-8.42v-3.9l22.64-7.54v4Z"/><path class="cls-1" d="M841.93,167.57c1.09,2.05-.52,5-3.6,6.68s-6.45,1.31-7.54-.74.52-5,3.59-6.67S840.84,165.53,841.93,167.57Z"/><rect class="cls-1" x="841.13" y="140.1" width="1.14" height="28.98"/><path class="cls-1" d="M766.94,167.29c-3.64,0-6.6,2-6.6,4.38s2.95,4.39,6.59,4.4,6.6-2,6.61-4.38S770.59,167.3,766.94,167.29Zm4.51,5.62c-.4,1.46-2.75,2.09-5.23,1.41s-4.19-2.42-3.79-3.88,2.74-2.08,5.23-1.4S771.85,171.46,771.45,172.91Z"/><path class="cls-1" d="M659.19,139.68a9.45,9.45,0,0,1-3.1-2.55,5,5,0,0,1-1-1.93h-.62v29.27c-1.66-1.29-4.66-1.27-7.45.22-3.4,1.81-5.17,5.11-4,7.36s4.93,2.62,8.32.81c2.63-1.4,4.28-3.68,4.34-5.69h0V140c1.48,1.88,5.1,2.89,6.34,5s.49,5.51.49,5.51C665.38,143.67,662.32,141.44,659.19,139.68Z"/><path class="cls-1" d="M530.58,156.16c-1.4-2.56-5.66-2.91-9.51-.8-3,1.64-4.82,4.27-4.86,6.57h0l.48,36.47h1.43L517.67,165c1.91,1.45,5.34,1.37,8.5-.36C530,162.5,532,158.71,530.58,156.16Z"/><path class="cls-1" d="M612.53,177.65c-1.07-2-4.4-2.34-7.43-.72-2.34,1.25-3.81,3.29-3.86,5.08h0v20.17h-18V184.42c1.48,1.14,4.16,1.13,6.65-.2,3-1.62,4.61-4.56,3.54-6.57s-4.4-2.34-7.43-.72c-2.34,1.25-3.81,3.29-3.87,5.08h0v28.53h20.28v-4.26h0v-2.45h0v-1.66h0V184.42c1.48,1.14,4.17,1.13,6.65-.2C612,182.6,613.6,179.66,612.53,177.65Zm-11.3,28.64h-18v-2.45h18Z"/><path class="cls-1" d="M454.31,169.22v-6.49l0-3.17-24.15,7.93v-.05l-.05.07L403,176.4v5.9h0v3.76h0V189h0v22c-2-1.53-5.57-1.51-8.9.27-4.05,2.16-6.17,6.1-4.74,8.79s5.89,3.13,9.95,1c3.13-1.67,5.11-4.4,5.18-6.8h0V188.46l24.15-8.05v22c-2-1.53-5.57-1.51-8.9.27-4.06,2.16-6.18,6.1-4.74,8.79s5.89,3.13,9.95,1c3.13-1.67,5.1-4.4,5.18-6.8h0V179.91l22.64-7.55V195.3c-2-1.54-5.58-1.51-8.9.26-4.06,2.16-6.18,6.1-4.74,8.8s5.89,3.13,9.94,1c3.14-1.67,5.11-4.4,5.18-6.8h0V170.7l0-1.49Zm-49.78,16.35V181.8l24.15-8.05v3.88Zm25.65-8.43v-3.89l22.64-7.55v4Z"/><path class="cls-1" d="M561.83,169.19c1.09,2-.52,5-3.59,6.67s-6.46,1.32-7.55-.73.52-5,3.6-6.67S560.74,167.14,561.83,169.19Z"/><rect class="cls-1" x="561.04" y="141.72" width="1.14" height="28.98"/><path class="cls-1" d="M486.85,168.91c-3.65,0-6.61,2-6.61,4.38s2.95,4.39,6.59,4.39,6.61-2,6.61-4.37S490.49,168.92,486.85,168.91Zm4.5,5.62c-.4,1.46-2.74,2.09-5.23,1.4s-4.19-2.41-3.79-3.87,2.74-2.08,5.23-1.4S491.75,173.07,491.35,174.53Z"/><path class="cls-1" d="M379.09,141.29a9.55,9.55,0,0,1-3.1-2.55,5.17,5.17,0,0,1-1-1.93h-.62v29.28c-1.66-1.29-4.66-1.27-7.45.22-3.4,1.81-5.17,5.1-4,7.36s4.94,2.62,8.33.81c2.62-1.4,4.27-3.69,4.33-5.7h0V141.61c1.48,1.88,5.1,2.88,6.34,5s.49,5.52.49,5.52C385.28,145.28,382.22,143.05,379.09,141.29Z"/></g></g></svg>