<svg xmlns="http://www.w3.org/2000/svg" viewBox="0 0 3051.7 2000"><defs><style>.cls-1{fill:#fff;}.cls-2{fill:#ffebd2;}.cls-3{fill:#cc7b07;}.cls-4{fill:#713b1a;}.cls-5{fill:#ed9f3b;}.cls-6{fill:#673b0e;}.cls-7{fill:#985d2b;}.cls-8{fill:#c9965a;}.cls-9{fill:#b17853;}.cls-10{fill:#c87142;}.cls-11{fill:#914702;}.cls-12{fill:#b0470b;}.cls-13{fill:#fcb53b;}.cls-14{fill:#ffc591;}.cls-15{fill:#080002;}.cls-16{fill:#100517;}.cls-17{fill:#ffdaa1;}.cls-18{fill:#e56713;}.cls-19{fill:#242439;}.cls-20{fill:#956c3f;}.cls-21{fill:#241d26;}.cls-22{fill:#f8e7d6;}.cls-23{fill:#000001;}.cls-24{fill:#e4e4e4;}.cls-25,.cls-26{fill:none;}.cls-25{stroke:#000;stroke-miterlimit:10;}</style></defs><g id="Capa_2" data-name="Capa 2"><g id="Слой_1" data-name="Слой 1"><rect class="cls-1" width="3051.7" height="2000"/><path class="cls-2" d="M78.06,1501.7C-8,1327.93-37.38,854.66,329.5,766.61c345-82.81-57.54-374.32,414.57-605.35,172.43-84.38,466.75,75.62,612.68,11,243-107.57,577.08-178.72,779.48,38.31C2377.46,469.24,2607,62.88,2868.29,319c187.11,183.43,88,379.61,45.76,522-29.55,99.63,10.15,197.37,71.64,277.82,99.17,129.74,41.35,290.76-22,425.58Z"/><path class="cls-3" d="M2557.82,1325.56s14.89,6.35,33.65,13.83c21.59-38.2,202.82-263.18,415.3-298.23-69.41-9.25-141.44-3-206.45,23.76a369.77,369.77,0,0,0-37.5,17.79l-16.57,38.38-15.14-19C2653.23,1154.75,2591.09,1239.17,2557.82,1325.56Z"/><path class="cls-4" d="M2579.29,1277.76c-.82,1.57-1.6,3.1-2.37,4.6C2577.68,1280.85,2578.47,1279.33,2579.29,1277.76Z"/><path class="cls-5" d="M3006.77,1041.16c-16.76,116.27-222.39,305.65-365.3,319-15.07-4.76-33.25-14.16-50-20.82C2613.06,1301.19,2794.29,1076.21,3006.77,1041.16Z"/><path class="cls-3" d="M2611.08,1342.29s8.32,9.36,19,20.78c27.7-19.57,228.67-117,388.77-71.37-45.46-29.38-97.9-48.76-152.16-51.55a286.15,286.15,0,0,0-32.09.06l-28.55,3C2734.17,1254.38,2662.87,1292.89,2611.08,1342.29Z"/><path class="cls-4" d="M2641.88,1316l-3.18,2.44Z"/><path class="cls-5" d="M3018.83,1291.7c-10.74,12.72-28.19,28-50,43.71l-44.5-9.52,15.1,29.2c-75.77,47.26-182.25,89.2-253.34,63.44-9-8.31-46.58-45.27-56.08-55.46C2657.74,1343.5,2858.72,1246.05,3018.83,1291.7Z"/><path class="cls-5" d="M1932.75,885.46s-13.64,31.83,18.2,82.85c32.46,52,31.31,90.64,31.31,90.64l26.74,18.46s-1.14-58.51-29.21-99C1944.6,927.69,1932.75,885.46,1932.75,885.46Z"/><path class="cls-5" d="M1861.54,909.66s-2,25.45,31.43,57.24c34.1,32.35,42.1,60.73,42.1,60.73l22.17,14.32s-13.83-47.77-42.32-72.55C1879.34,938.38,1861.54,909.66,1861.54,909.66Z"/><path class="cls-5" d="M1992,937.31s24,13.27,44.65,74.79c16.86,50.14,7.89,78.2,18.41,108.9l-35.17-31c-4.21-22.11,8.62-38.29-4.46-84.49C2003.21,962.31,1992,937.31,1992,937.31Z"/><path class="cls-5" d="M2212.25,1107s12.52,24.46-4.62,87c-14,51-38.9,60.18-42.67,72l-13.57-23.64c11.68-20.67,27.37-19.94,42.27-65.59C2207.59,1133.94,2212.25,1107,2212.25,1107Z"/><path class="cls-5" d="M2048.25,971.27s19.95,42.89,26.38,70.88c9.22,39.78-4.47,63,2,104.29l25,24.72s15.12-45.6,1.78-94.23C2081.1,995.34,2048.25,971.27,2048.25,971.27Z"/><path class="cls-5" d="M2127.44,984.14a272.36,272.36,0,0,0,6.35,78.93c18.61,78.24-17,142.68-17,142.68l18.22,14.12s46.92-47.19,29.45-112.45C2145.88,1038.46,2127.44,984.14,2127.44,984.14Z"/><path class="cls-5" d="M2022.2,1095.5s-19.42-4.66-96.16,13.48c-49.17,11.65-36.59-8.78-82.13,10.44,36.13-.63,51.1,24.22,97.46,16a721.33,721.33,0,0,1,112.26-10.91Z"/><path class="cls-5" d="M1876.69,1162.05s34.62,35.22,103.1,23a390.4,390.4,0,0,1,127.57-1.31l-24.5-32.56s-30.79-17.73-100.77,1.84C1934,1166.43,1876.69,1162.05,1876.69,1162.05Z"/><path class="cls-5" d="M1924.77,1223.28s34.62,35.21,103.11,23a390.62,390.62,0,0,1,127.56-1.31l-24.5-32.56s-30.78-17.72-100.77,1.84C1982.09,1227.65,1924.77,1223.28,1924.77,1223.28Z"/><path class="cls-5" d="M1814.56,1040.89s24.13,17.62,67.12,8.26c43.59-9.52,77-3.46,77-3.46L1944.91,1034s-19.45-11.21-63.69,1.15C1850.79,1043.65,1814.56,1040.89,1814.56,1040.89Z"/><path class="cls-5" d="M1979.67,1065s-34.34.15-83.8,9.83c-31.22,6-75.12-8.51-75.12-8.51s37.08,41.7,83.45,29.77c53.17-13.71,107.3-12.07,107.3-12.07Z"/><path class="cls-5" d="M1948.76,1038.88s-32.89-41.27-81.19-45a258,258,0,0,1-82.83-21.4s31,42.91,75.75,41.58c41.27-1.11,72.53,22.89,72.53,22.89Z"/><path class="cls-5" d="M2161.22,1267.22l6.79-3.72c-23-41.93-120.62-175.72-232-235.79l-3.68,6.82C2042.16,1093.78,2138.53,1225.83,2161.22,1267.22Z"/><path class="cls-5" d="M1388,965.56q-24.43-65.22,29-141.5Q1435.92,915.28,1388,965.56Z"/><path class="cls-5" d="M1447.09,898.07q-13-62.15,45.63-123.46Q1497.3,859.44,1447.09,898.07Z"/><path class="cls-5" d="M1509.62,832.45q-3.55-60.21,60.12-109.64Q1562.33,803.2,1509.62,832.45Z"/><path class="cls-5" d="M1646.66,698.16q-20.36,65.13-69.14,80.15Q1585.32,727.75,1646.66,698.16Z"/><path class="cls-5" d="M1708.42,699.37Q1682,750,1639.65,755.14,1653.48,714.72,1708.42,699.37Z"/><path class="cls-5" d="M1667.43,765.93q27.35-32.79,84.19-27.48Q1708.78,776.26,1667.43,765.93Z"/><path class="cls-5" d="M1541,953q-78.4,51.79-143.51,25.27Q1449.5,931.29,1541,953Z"/><path class="cls-5" d="M1506.26,862.79q53.19-21.7,117.47,20.63Q1549,901.24,1506.26,862.79Z"/><path class="cls-5" d="M1659,841.4Q1593.9,857,1556.75,823.45,1603,804.54,1659,841.4Z"/><path class="cls-5" d="M1615,793.85q46.27-18.81,102.21,17.95Q1652.13,827.36,1615,793.85Z"/><path class="cls-5" d="M1345.33,1048.61c57.19-95.22,57.25-86,101.23-137.83q17.81-21,36.11-39.09a486.4,486.4,0,0,1,83.21-64.28q52-33.35,84.15-38.78l2.39-1.47a1.73,1.73,0,0,1,2.18-.48,3,3,0,0,1,2.28.68,5.56,5.56,0,0,1,.81,2.43,3,3,0,0,1-.68,2.28l-1.15,1.35a6.64,6.64,0,0,1-2.44.85l-.11.38-1.89.15q-31.26,6-81.77,38.1a477.11,477.11,0,0,0-81.83,64.24,507.75,507.75,0,0,0-35.89,38.18l-2.92,3.49q52.65-35,131.33-3.44-76.8,35.71-131.33,3.44c-42.9,51.15-41.7,40.44-97.43,133.29Z"/><path class="cls-5" d="M1651.57,1050.59l-75.78-6.17,46,34.91s-56.42,110.17-229.09,129.19c-18.33-5.48-42.49-14.26-62.89-22-22.85-8.69-41-16.07-41-16.07s16.26-275.05,423.47-228.74C1685.19,1008.87,1651.57,1050.59,1651.57,1050.59Z"/><path class="cls-3" d="M1712.31,941.7c-256.44,46.59-357.1,198.17-382.47,244.81-22.85-8.69-41-16.07-41-16.07s-15.91-78.55,49.45-144.38C1396,968,1521.43,920,1712.31,941.7Z"/><path class="cls-3" d="M1255.85,1194.19s-13.76,1.08-30.94,2c-7.06-36.71-92.33-267.65-254.43-353.67,58.57,11.37,115,36,160.29,75.26a316.88,316.88,0,0,1,25.46,24.56l3,35.5,17.4-11.28C1225.18,1030.31,1252.44,1115.38,1255.85,1194.19Z"/><path class="cls-4" d="M1251.49,1149.74c.23,1.49.45,2.94.67,4.37C1252,1152.68,1251.72,1151.23,1251.49,1149.74Z"/><path class="cls-5" d="M970.48,842.54c-18,98.46,96.6,307.27,208.39,356.91,13.47.25,30.7-2.4,46-3.24C1217.85,1159.5,1132.58,928.56,970.48,842.54Z"/><path class="cls-3" d="M1196.12,1193s-12.61,7.21-28.53,15.84c-23.21-31.76-208.12-213.17-401-222.18,60.83-15.5,125.64-17.42,186.32-.42a330.37,330.37,0,0,1,35.26,11.93l30.26,13.9C1093.3,1050.87,1157.45,1119.56,1196.12,1193Z"/><path class="cls-4" d="M1172,1152.69q1.34,2,2.59,3.85Q1173.33,1154.65,1172,1152.69Z"/><path class="cls-5" d="M766.6,986.67c31.62,79.93,190.17,265.41,318.84,262.41,12.92-5.82,67.93-32.54,82.15-40.23C1144.38,1177.09,959.47,995.68,766.6,986.67Z"/><path class="cls-6" d="M3022.38,1577.4c0,153.11-328,285.93-808.21,351.9h0q-57.4,7.89-117.61,14.47l-5.71.62q-7.17.78-14.37,1.53-34.5,3.63-69.81,6.79-29.62,2.67-59.8,5-10.53.82-21.12,1.6l-8.28.59-7,.5q-11.36.8-22.79,1.55c-116,7.63-237.29,11.68-362.18,11.68-826.68,0-1496.85-177.39-1496.85-396.23s670.17-396.23,1496.85-396.23S3022.38,1358.57,3022.38,1577.4Z"/><path d="M671.52,1460.49c56.66,8.37,92.41-70.28,136.1-24.62-86.37,88.87-121.44,126.6-121.44,126.6-10.35-10.15-37.74-40.6-45.49-52Z"/><path d="M724.35,1514.64c56.66,8.36,92.41-70.27,136.1-24.62C774.08,1578.89,739,1616.62,739,1616.62c-10.35-10.15-37.75-40.6-45.49-52Z"/><path class="cls-7" d="M265.49,1444.28l31.46-7.89L417.18,1368a115,115,0,0,1,110.28-1.53l154.93,101.15-52.64,70.77-147.51-80.19-131.23,99a303.46,303.46,0,0,1-72.41,40.29Z"/><path class="cls-8" d="M122.89,1539l6.35,35.52c9.68,54.21,60.95,92.34,118.11,87.84h0a307.61,307.61,0,0,0,161-60.6l131.23-99L687.08,1583l52.65-70.77L584.8,1411.12a115,115,0,0,0-110.29,1.52L354.28,1481Z"/><polygon class="cls-9" points="446.81 1242.4 429.12 1246.51 419.64 1214.29 442.31 1199.79 446.81 1242.4"/><path class="cls-10" d="M419.94,1206l-112.85,36.62s-37.85,11.14-33.15,76.85c31.3,11.88,67.31,8.37,162-64.21C427.65,1240.26,419.94,1206,419.94,1206Z"/><path class="cls-11" d="M454,1272h0a11.32,11.32,0,0,1-11.51-11.13l-1.5-90a11.32,11.32,0,0,1,11.13-11.51h0a11.32,11.32,0,0,1,11.51,11.13l1.5,90A11.33,11.33,0,0,1,454,1272Z"/><path class="cls-12" d="M485.84,1123.79a63.68,63.68,0,0,1-.82,11.06c-3.37,21.37-16.75,43.48-33.4,43.13-16.27-.34-29.32-21-33.16-41.9a68,68,0,0,1-1.14-11.15c0-.43,0-.87,0-1.3.14-23.38,15-42.37,33.54-42.68s34.14,18.32,34.95,41.81C485.83,1123.1,485.84,1123.44,485.84,1123.79Z"/><path class="cls-13" d="M485.84,1123.79a63.68,63.68,0,0,1-.82,11.06l-9.34-9.85-8.25,10.21a4.49,4.49,0,0,1-3.32,1.65H464a4.43,4.43,0,0,1-3.33-1.42l-9.31-10-8.5,10.25a4.45,4.45,0,0,1-6.71.16l-9.1-10-8.63,10.25a68,68,0,0,1-1.14-11.15c0-.43,0-.87,0-1.3l6.23-7.42a4.49,4.49,0,0,1,3.32-1.59,4.56,4.56,0,0,1,3.38,1.46l9.07,10,8.48-10.22a4.47,4.47,0,0,1,6.69-.19l9.25,10,8.22-10.16a4.46,4.46,0,0,1,6.68-.27l7.17,7.56C485.83,1123.1,485.84,1123.44,485.84,1123.79Z"/><path class="cls-14" d="M454.44,1230.15c.6-.51.86-.94,1.55-1.11a.35.35,0,0,0-.43-.26c-5.14-4.6-6.48-11.58-2.92-15l1.81-1.54c-2-3.89-2-8.28.32-10.68a7.16,7.16,0,0,1,3.55-2c-2.39-3.81-2.37-8.2.5-11.46,3.46-3.77,9.75-3.47,14,.6s5,10.11,1.9,13.8a6,6,0,0,1-3.2,1.87c4,4.51,4.76,10.54,1.9,13.8l-1.82,1.54c2.05,3.89,2,8.29-.32,10.68a6.78,6.78,0,0,1-3.2,1.88c2.22,3.11,2.2,7.51-.14,9.91-2.86,3.25-8.12,2.71-11.8-.42S451.92,1233.33,454.44,1230.15Z"/><path class="cls-14" d="M451.72,1196.2c-2.11,5.49-6.91,8.75-10.72,7.28s-5.18-7.1-3.06-12.59,6.91-8.76,10.72-7.29S453.84,1190.7,451.72,1196.2Z"/><polygon class="cls-14" points="220.69 1134.1 212 1177.52 287.68 1195.2 290.47 1149.61 220.69 1134.1"/><path class="cls-14" d="M155.88,1070c29.37,71,129.53,90.87,154.21,86.86,59.6-9.69,77.22-99.36,47.84-170.4s-90.25-92-146-68.91S126.51,999,155.88,1070Z"/><path d="M343.73,1018.45a9.81,9.81,0,1,0,9.24-10.34A9.79,9.79,0,0,0,343.73,1018.45Z"/><path d="M278,1045.18a10.35,10.35,0,1,0-.82-14.61A10.36,10.36,0,0,0,278,1045.18Z"/><path class="cls-1" d="M363.83,1093.74c1.39-2.35,0-5.68-2.29-5.36a167.28,167.28,0,0,1-24.33,1.76,166.67,166.67,0,0,1-24.26-2.43c-2.26-.38-3.77,2.91-2.45,5.3,4.07,7.34,12.53,18.52,26.42,18.71S359.57,1101,363.83,1093.74Z"/><path class="cls-9" d="M332.29,1039.46s15.66,7.37,24.59,10.58c5.65,8.6-9.1,22.37-19.67,21.88,7.38-9.59,7.62-17.46,7.62-17.46Z"/><path d="M214.91,985.05c35.63,14.4,144,8.34,116-23.5,34,13.88,63.85-3.5,50.21-24s-61.9-42-98.29-32.93c-34.4-16.71-91.28-23.78-141.31,36.86s-15.44,182.83,79.19,192.58c-6.65-9.49-18.81-25-22.33-42s19-20,19.5-40.14Z"/><path class="cls-14" d="M211.79,1042.63c15.51,9.29,21.92,27.11,14.31,39.8s-26.33,15.45-41.84,6.16-21.91-27.11-14.31-39.8S196.29,1033.34,211.79,1042.63Z"/><path class="cls-9" d="M208.31,1081.19a4,4,0,0,0,1.25-1.33c4.55-7.9,4.07-16.09-1.29-21.91s-14.56-7.89-21.58-4.58a4,4,0,1,0,3.37,7.15c3.85-1.81,9.29-.59,12.4,2.78s3.07,7.72.25,12.61a4,4,0,0,0,5.6,5.28Z"/><path d="M259.43,1031.21a5.43,5.43,0,0,1-1.89-.34,5.52,5.52,0,0,1-3.29-7.07c4.08-11.15,13.12-18.58,24.19-19.89a5.51,5.51,0,0,1,1.28,11c-2.56.3-11.24,2.11-15.12,12.72A5.51,5.51,0,0,1,259.43,1031.21Z"/><path d="M366.83,999.73a5.29,5.29,0,0,0-1.21-8.59c-10.17-5.16-21.39-4.47-30,1.87a5.29,5.29,0,1,0,6.26,8.53c2-1.47,9.29-5.88,19-1A5.28,5.28,0,0,0,366.83,999.73Z"/><path class="cls-4" d="M121.18,1556.47c-17.46-142.44-14.24-304.74,88.22-389.55l84.79,21.77c16.66,4.75,27.6,31.66,30.37,48.12l5.15,170.72,29.73,73.87Z"/><path class="cls-11" d="M518.5,1329.18h0a13.55,13.55,0,0,1-9.34-16.72l29.31-103.64a13.55,13.55,0,0,1,16.72-9.34h0a13.55,13.55,0,0,1,9.35,16.72l-29.32,103.63A13.55,13.55,0,0,1,518.5,1329.18Z"/><path class="cls-12" d="M606,1170.35a75.62,75.62,0,0,1-4.75,12.38c-11.23,23.33-34.19,44-53.13,37.91-18.52-6-26.35-34.18-23.55-59.44a83.36,83.36,0,0,1,2.53-13.17c.15-.5.29-1,.45-1.49,8.23-26.74,31.75-43.39,53.14-37.33s32.8,32.75,25.63,60C606.26,1169.55,606.15,1170,606,1170.35Z"/><path class="cls-13" d="M606,1170.35a75.62,75.62,0,0,1-4.75,12.38L594,1168.24l-13,8.84a5.31,5.31,0,0,1-4.36.75l-.09,0a5.33,5.33,0,0,1-3.33-2.78l-7.2-14.7-13.28,8.81A5.31,5.31,0,0,1,545,1167l-7-14.58-13.42,8.77a83.36,83.36,0,0,1,2.53-13.17c.15-.5.29-1,.45-1.49l9.7-6.34a5.31,5.31,0,0,1,4.35-.68,5.4,5.4,0,0,1,3.37,2.83l7,14.55,13.25-8.79a5.34,5.34,0,0,1,7.72,2.1l7.16,14.62L593,1156a5.33,5.33,0,0,1,7.74,2l5.61,11.13C606.26,1169.55,606.15,1170,606,1170.35Z"/><g id="c"><path class="cls-14" d="M484.09,1283.54l21.45-15s.56-32.27,25.65-34.35l-4.71,18.08s22.88-13.61,32.71-17.82c14.5-6.22,30.32,35.85,5.88,56.76-17.49,15-23.16,13.15-39.11,16.61-12.88,2.79-18,8.31-18,8.31Z"/></g><path class="cls-10" d="M195.51,1195.87c-45.45,52.18,11,185.49,130.58,232.18,30.8-27.09,24.32-82,24.32-82s-8.49-11.56-50.48-87.65C254.1,1175.31,215.56,1172.84,195.51,1195.87Z"/><path class="cls-10" d="M488.41,1270.38,362.2,1342s-52.16,17.49-36.11,86.09c35.06,7.27,99.78-15.72,187.5-108.35C502.33,1305.32,488.41,1270.38,488.41,1270.38Z"/><path class="cls-15" d="M501.13,1116.09a3.51,3.51,0,0,1-3.49-3.24c-1.52-19.82-9.19-33.62-22.78-41a43.36,43.36,0,0,0-19.89-5.27,3.5,3.5,0,0,1-.21-7c.45,0,45.74-.79,49.86,52.76a3.5,3.5,0,0,1-3.22,3.76Z"/><path class="cls-15" d="M510.25,1087.41a3.5,3.5,0,0,1-3.38-2.62c-7-27.21-29-28-29.91-28a3.5,3.5,0,0,1,.11-7c.28,0,28.18.74,36.58,33.26a3.5,3.5,0,0,1-2.52,4.26A3.32,3.32,0,0,1,510.25,1087.41Z"/><path class="cls-15" d="M617.28,1174.79a3.5,3.5,0,0,1-1.12-4.62c9.67-17.37,10.89-33.11,3.64-46.78A43.46,43.46,0,0,0,606.13,1108a3.5,3.5,0,1,1,3.68-6c.39.24,38.58,24.59,12.46,71.51a3.5,3.5,0,0,1-4.76,1.36Z"/><path class="cls-15" d="M640.72,1155.91a3.49,3.49,0,0,1-1.38-4.05c9.16-26.57-8.71-39.33-9.48-39.86a3.5,3.5,0,0,1,3.95-5.78c.23.16,23.1,16.17,12.15,47.92a3.5,3.5,0,0,1-4.45,2.17A3.09,3.09,0,0,1,640.72,1155.91Z"/><g id="с"><path id="с-2" data-name="с" class="cls-7" d="M2243,1599.32h0a20.15,20.15,0,0,1-20.15-20.14v-356.9h40.29v356.9A20.14,20.14,0,0,1,2243,1599.32Z"/><path id="с-3" data-name="с" class="cls-7" d="M2403.31,1599.32h0a20.14,20.14,0,0,1-20.14-20.14v-356.9h40.29v356.9A20.15,20.15,0,0,1,2403.31,1599.32Z"/><path id="с-4" data-name="с" class="cls-7" d="M2591.78,1599.32h0a20.14,20.14,0,0,1-20.14-20.14v-356.9h40.29v356.9A20.15,20.15,0,0,1,2591.78,1599.32Z"/><path id="с-5" data-name="с" class="cls-7" d="M2733.13,1599.32h0a20.15,20.15,0,0,1-20.15-20.14v-356.9h40.29v356.9A20.14,20.14,0,0,1,2733.13,1599.32Z"/><path id="с-6" data-name="с" class="cls-8" d="M2510.25,692.62v424.7a8.75,8.75,0,0,1-8.75,8.76H2238.18a48.1,48.1,0,0,0-48.11,48.1h0a48.1,48.1,0,0,0,48.11,48.1h320.18a48.1,48.1,0,0,0,48.1-48.1V692.62a48.11,48.11,0,0,0-48.1-48.11h0A48.11,48.11,0,0,0,2510.25,692.62Z"/><rect id="с-7" data-name="с" class="cls-8" x="2558.36" y="644.51" width="208.2" height="489.36"/><path id="с-8" data-name="с" class="cls-7" d="M2718.45,692.62v424.7a8.76,8.76,0,0,1-8.75,8.76H2446.37a48.09,48.09,0,0,0-48.1,48.1h0a48.09,48.09,0,0,0,48.1,48.1h320.18a48.1,48.1,0,0,0,48.11-48.1V692.62a48.11,48.11,0,0,0-48.11-48.11h0A48.11,48.11,0,0,0,2718.45,692.62Z"/></g><path class="cls-15" d="M2420.1,498.89c-31.89-32-40.63-103.87-11.41-136.61,23.62-26.45,101.72-31.14,101.72-31.14h0c20.17-16.66,63.25-4,89.65,15.88,8.45,6.37,29.45,22.69,37.17,52.77.77,3,11.42,47-13.26,74.11-19.56,21.48-53.89,23.91-52.55,33.76.68,5,9.58,7.64,8.54,10.95-1.18,3.73-11.46.42-18.57,5.35-12.58,8.72-7.09,37.59-7.52,37.61s-1.61-39.69-6.27-40.12c-2.41-.22-3.73,10.27-12.54,25.07-6.07,10.21-11.25,18.93-17.55,18.81-8.22-.16-9.13-15.23-22.56-25.08,0,0-12.55-7.71-33.85-7.52C2461.11,532.73,2431,509.81,2420.1,498.89Z"/><path class="cls-11" d="M2524.68,632c41,58.54-50.84,155.69-123.75,241.1-29.3,20.4-32.33-80.74-32.33-80.74l48.11-76.87S2477.67,615.76,2524.68,632Z"/><path class="cls-14" d="M2109.92,1357.61l-28,39.13s-25,31.85-54.77,16.89-16.58-62.78-16.58-62.78l34.22-45.06Z"/><path class="cls-15" d="M2011.76,1345.66a224.15,224.15,0,0,1-62.75-11.41c-18.27-6.23-66.06-24.35-76.78,8.35-1.61,4.87-.86,11.71,8.11,22.1,13.25,15.35,33.46,32.24,80.88,46.93,56.88,17.62,61.47,27.69,83.2,33.06,22.52,5.57,30-25.84,38.67-51.36h0c-4,5.38-15.81,18.65-58.11,10.91C2012.34,1401.93,2048.39,1362.23,2011.76,1345.66Z"/><path class="cls-14" d="M2346.84,1492.14v26.53s-1.8,40.44-34.73,45.6-50-41.43-50-41.43l1.21-41.8Z"/><path class="cls-14" d="M2524.81,560.41s6.27,57.45,8.27,78.64l77.35,2.28c-23.63-36.59-13-140.9-13-140.9Z"/><ellipse class="cls-14" cx="2513.45" cy="481.84" rx="98.23" ry="125.07" transform="translate(-23.44 144.53) rotate(-3.28)"/><path d="M2448.75,508.75a9.43,9.43,0,1,1-7.71-10.89A9.44,9.44,0,0,1,2448.75,508.75Z"/><path d="M2517.63,492.08a10.21,10.21,0,1,1-8.34-11.79A10.21,10.21,0,0,1,2517.63,492.08Z"/><path class="cls-15" d="M2525.91,482.21a3.53,3.53,0,0,1-2-1.14c-8.08-9.1-22-7.17-22.09-7.15a3.55,3.55,0,0,1-1.06-7c.72-.12,17.78-2.57,28.46,9.46a3.55,3.55,0,0,1-.3,5A3.51,3.51,0,0,1,2525.91,482.21Z"/><path class="cls-15" d="M2421.2,499.27a3.69,3.69,0,0,1-1.1-.38,3.56,3.56,0,0,1-1.42-4.82c7.29-13.38,21.36-13,22-12.95a3.55,3.55,0,0,1-.26,7.1,17.8,17.8,0,0,0-15.45,9.25A3.56,3.56,0,0,1,2421.2,499.27Z"/><path class="cls-9" d="M2465.8,513c-3.42,6.59-6.19,13.16-10,17.56a3.74,3.74,0,0,0,.26,5.13c5.86,5.63,18.7,7.85,26.42,8.7a1,1,0,0,0,.52-1.9c-8.73-4-13-7.55-15-9.62a4.46,4.46,0,0,1-1.15-3.88c.57-3.22,1.67-9.78,2.16-15.08A1.68,1.68,0,0,0,2465.8,513Z"/><path class="cls-14" d="M2587.33,484c-9.4,13.24-8.24,30.22,2.6,37.91s27.25,3.2,36.65-10.05,8.24-30.22-2.6-37.91S2596.73,470.7,2587.33,484Z"/><path class="cls-9" d="M2604.12,514.41a3.49,3.49,0,0,1-1.5-.64c-6.6-4.85-9.17-11.76-6.86-18.49,2.36-6.89,9.14-11.75,16.1-11.56a3.55,3.55,0,1,1-.19,7.1c-3.82-.11-7.85,2.87-9.19,6.76s.26,7.47,4.35,10.47a3.55,3.55,0,0,1-2.71,6.36Z"/><path class="cls-1" d="M2521.05,550.23c-.49-2.58-1.87-4.7-4.21-3.51a211.16,211.16,0,0,1-52.66,19.35c-2.55.61-2.29,3.16-.92,5.4,5.66,9.28,21,16.39,36.09,10.86S2522.85,559.84,2521.05,550.23Z"/><path class="cls-15" d="M2611.05,470.16c-62.73,10.07-165.6-26-182-55.44.27-41.38,56.69-79.12,97.06-72.13S2622.26,414.81,2611.05,470.16Z"/><path class="cls-15" d="M2584.76,1110.19l-319.53-13.65s-15.76-79.75-3.9-111.37,305.43-25.1,305.43-25.1Z"/><path class="cls-16" d="M2678.73,905.43c8.66,20,42.41,79.56,39.15,127.84-3.37,49.82-38.52,93.2-98,92.26,0,0-112.15-63.75-87.87-194.33C2532,931.2,2590.7,908.27,2678.73,905.43Z"/><path class="cls-16" d="M2628.72,1136.9l-281.46,26.55s-96.55-40.74-96-75.34,284.15-129.28,284.15-129.28C2701.74,910.32,2757.18,1116.76,2628.72,1136.9Z"/><path class="cls-16" d="M2251.26,1088.11l5.65,397s70.26,29.61,94.88.23c11.62-134.75,66.95-254.12,5.18-336.26C2274.24,1039.07,2251.26,1088.11,2251.26,1088.11Z"/><path class="cls-15" d="M2262,984.24,2027.78,1305.9s52.28,69.87,88.78,61.69c63-79.69,190.42-173.13,191.23-273.42C2308.88,959.85,2262,984.24,2262,984.24Z"/><path class="cls-12" d="M2602.38,609.78l-81.32,12.47c-36.32,50.41-73.12,93.6-73.19,123.06-.09,38.79,82.09,208.15,82.09,208.15,70,9.23,127.06.38,170.3-27.68C2666.5,830.27,2739,710,2676.44,645.54,2660.83,629.46,2613.77,629.84,2602.38,609.78Z"/><path class="cls-15" d="M2260,1517.94a223.86,223.86,0,0,1-57.68,27.21c-18.5,5.57-67.9,18.62-57.62,51.45,1.54,4.9,6.12,10,19.46,13.26,19.7,4.79,46,6.77,93.09-8.86,56.52-18.75,66.11-13.22,86.91-21.49,21.55-8.57,9.35-38.45,1.59-64.28h0c-.1,6.69-2,24.37-40.93,42.68C2293.24,1563.38,2299.47,1510.12,2260,1517.94Z"/><path class="cls-4" d="M2463.67,759.72c-28.11-21.55-69.8-37.79-115.27-20-112.69,44.17-86.76,182.84-2.63,219.63a117.41,117.41,0,0,0,25.66,7.88,87,87,0,0,1,56.55,36.87,147,147,0,0,0,64.25,53.06c73.48,31.49,127.94-11.79,161-84.59C2687.35,897.43,2685,819,2609.56,786a147,147,0,0,0-82.93-10.46A81.74,81.74,0,0,1,2463.67,759.72Z"/><polygon class="cls-10" points="2383.17 798.96 2346.18 886.01 2025.77 729.31 2047.96 677.08 2383.17 798.96"/><path class="cls-4" d="M2096.28,675.81l7.17,15.43a15.29,15.29,0,0,1,.21,12.41L2083,752.27a15.29,15.29,0,0,1-9.76,8.69l-15.3,4.49a15.26,15.26,0,0,1-11.77-1.33l-109-61.07a15.28,15.28,0,0,1-6.6-19.3l17.69-41.63a15.29,15.29,0,0,1,18.24-8.72l120.11,34.15A15.25,15.25,0,0,1,2096.28,675.81Z"/><path class="cls-10" d="M2455.25,819.39c27.3,11.6,39.52,44.36,27.27,73.17s-44.3,42.76-71.61,31.16-39.52-44.37-27.27-73.18S2427.94,807.78,2455.25,819.39Z"/><path class="cls-4" d="M2033,747.38l-9.67,15.14c-3,4.62-10.58,5.55-17,2.07h0c-6.47-3.47-9.32-10-6.37-14.66l9.68-15.14c2.94-4.62,10.58-5.55,17-2.07h0C2033.09,736.19,2035.94,742.76,2033,747.38Z"/><path class="cls-4" d="M1987.59,720.4l-9.67,15.15c-3,4.62-10.58,5.55-17.05,2.07h0c-6.46-3.48-9.31-10-6.36-14.66l9.67-15.15c3-4.62,10.58-5.54,17-2.07h0C1987.69,709.22,1990.54,715.78,1987.59,720.4Z"/><path class="cls-4" d="M2065.87,670l4.19-17.48c1.27-5.32-3.36-11.46-10.35-13.7h0c-7-2.24-13.69.26-15,5.59l-4.2,17.48c-1.27,5.33,3.36,11.46,10.35,13.7h0C2057.89,677.85,2064.59,675.34,2065.87,670Z"/><path class="cls-4" d="M2014.93,656.05l4.19-17.47c1.28-5.33-3.35-11.47-10.34-13.71h0c-7-2.24-13.69.26-15,5.59l-4.19,17.48c-1.27,5.33,3.36,11.47,10.35,13.71h0C2007,663.89,2013.66,661.38,2014.93,656.05Z"/><path class="cls-17" d="M2564.6,901.56a3.19,3.19,0,0,1-4.18,1.69l-561.7-238.67a3.18,3.18,0,0,1,2.49-5.86l561.7,238.67A3.18,3.18,0,0,1,2564.6,901.56Z"/><path class="cls-17" d="M2554.35,925.68a3.18,3.18,0,0,1-4.17,1.68L1988.47,688.69a3.18,3.18,0,0,1,2.49-5.86L2552.67,921.5A3.19,3.19,0,0,1,2554.35,925.68Z"/><path class="cls-17" d="M2544.1,949.8a3.18,3.18,0,0,1-4.17,1.68l-561.7-238.67a3.18,3.18,0,1,1,2.49-5.86l561.7,238.67A3.18,3.18,0,0,1,2544.1,949.8Z"/><path class="cls-10" d="M2614.88,869.68l-57,134h0a37,37,0,0,1-19.58-48.51l28-66a37,37,0,0,1,48.51-19.58Z"/><path class="cls-11" d="M2666.08,640.41c69.93,14.78,69.16,148.47,74.2,260.65-7.48,34.91-78.75-36.92-78.75-36.92l-17.33-89S2620.67,660.67,2666.08,640.41Z"/><path class="cls-14" d="M2365.06,871.77c19.06,5.12,48.42,10.05,50.36,0,3.12-16.15-11.86-17.43-11.05-29.75.72-10.92,29.61-6.23,49.72,37.11l7.73-.69,8.14,42.85-7.74-.54c-24.79,21.37-86.82,20.83-120.17-4.65C2308.29,890.29,2339.63,865,2365.06,871.77Z"/><path class="cls-14" d="M2158.67,810.83c-.37-1.41-.87-2.18-.6-3.45a.64.64,0,0,0-.78.5c-11.66,4.89-24.28,1.59-27.15-7l-1.11-4.22c-8.05.31-15.31-3.19-17.43-9a13.11,13.11,0,0,1-.45-7.41c-8.18,1-15.44-2.55-18.57-9.86-3.51-8.71,1.94-18.89,12.06-22.77s20.7-.34,24.34,7.74a11,11,0,0,1,.58,6.77c10.63-3.11,21.2.43,24.34,7.74l1.11,4.22c8-.32,15.31,3.19,17.43,9a12.5,12.5,0,0,1,.58,6.77c6.91-1.22,14.16,2.29,16.29,8,3.13,7.31-1.91,15.57-10,19.21S2161.94,817.5,2158.67,810.83Z"/><path class="cls-11" d="M2459.72,877.87s184.88-23,209.13-18.44,72.54,16.67,71.14,40-54.28,51.1-101.71,47.79S2466,923.89,2466,923.89Z"/><path class="cls-9" d="M1622.89,1567.07c23-38.46-106.37-61.29-154.41-66.3l-9.21,25S1585.83,1629.18,1622.89,1567.07Z"/><path class="cls-9" d="M1465.61,1483.4c2.17,8.28.21,20.11,8.36,21.86l-4.92,17.49-9.78,3c-25.59-9.71-38.91-43.08-39.89-46.46-2.54-8.75-4.28-12.71-3.22-13.64s8.55-4.69,12.66,7.94c5.16,15.84,16,2.5-2.86-28-4.72-7.63-3.77-23.95,3.36-19.52C1437.18,1430.93,1455.74,1445.72,1465.61,1483.4Z"/><polygon class="cls-14" points="1697.31 1478.89 1605.83 1471.5 1596.99 1381.45 1677.62 1338.5 1697.31 1478.89"/><path class="cls-14" d="M1535.3,1352.12a151.09,151.09,0,0,0,3.85,22.14c4.61,18,11.57,30.19,15.82,33.56,9.6,7.6,27.5,10.12,44.16,10.61a275.53,275.53,0,0,0,38.13-1.77s32-13.6,58.27-32.24c15-10.65,28.21-23,32.53-35.3,16-45.85-5.32-136-51.16-152s-100.77-7.63-120.7,36.65C1538,1274.27,1532.6,1324.61,1535.3,1352.12Z"/><path d="M1804.09,1321.81c35.07-27.07,26.56-55.78-.3-78.47s-25.1-39.22-30.74-64.15c-5.35-23.65-54.31-64-90.65-42.86-54.17,31.49-49.07-8.35-94.4,13.5-40.89,19.71-46.38,59-39.17,80.49,7,20.94,47.84,2.13,38.16,23-7.56,16.31,17.14,25.45,19.2,45.54,1.56,15.23,10.45,24.45,5.87,32.11-8.91,14.91-29.5,34.19-4.8,68.23,14.07,19.41,31.22,4.34,47.67,24,31.24,37.27,55,13.91,84.69-1.76s56.84-4.72,48.09-51.51C1787.38,1368.18,1778.1,1341.86,1804.09,1321.81Z"/><path class="cls-14" d="M1602.67,1286.87c-14.11,10.27-18.73,28-10.32,39.49s26.65,12.58,40.75,2.31,18.73-28,10.32-39.49S1616.77,1276.6,1602.67,1286.87Z"/><path class="cls-9" d="M1609.34,1323.63a3.72,3.72,0,0,1-1.31-1.16c-5.06-7.2-5.31-15.12-.65-21.18s13.31-8.84,20.34-6.26a3.81,3.81,0,0,1-2.62,7.16c-3.85-1.41-9,.24-11.67,3.75s-2.29,7.68.84,12.14a3.82,3.82,0,0,1-4.93,5.55Z"/><polygon class="cls-18" points="1627.5 1710.14 1546.29 1828.56 1452.03 1758.08 1576.88 1637.37 1627.5 1710.14"/><path class="cls-19" d="M1417.25,1651,1555,1767c75.94-74.7,224.7,2.18,224.7,2.18s55.34,119.74-81.6,135.37C1439.94,1934,1260.19,1676.86,1417.25,1651Z"/><path class="cls-9" d="M1447.27,1696c-40.64,18.84-53.57-111.74-53.57-160l29.39-7S1512.88,1665.6,1447.27,1696Z"/><path class="cls-9" d="M1380.34,1530.93c8,3,13.89,3.16,14.78,11.45l24-4,4-9.42c-7-26.46-38.82-43.16-42.07-44.48-8.45-3.44-12.21-5.58-13.24-4.63s-5.55,8,6.58,13.42c15.23,6.78.84,16.18-27.53-5.74-7.1-5.49-23.42-6.24-19.77,1.32C1331.09,1497.22,1343.88,1517.21,1380.34,1530.93Z"/><path class="cls-10" d="M1544.38,1503.25s1.82-13.09,2.52-17.13h0c31.71-20,58.92-31.64,130.9-40.7,31.49-4,67.5,10.33,88.17,49.59,56,106.42,43.6,207.24,40.29,304.81-114.85,32.91-213,31.86-268.12-48C1555.35,1706.73,1544.38,1503.25,1544.38,1503.25Z"/><path class="cls-14" d="M1477.92,1556.29c19.35-30.93,49.26-65.08,79.79-60.17s29.45,86.85,29.45,86.85-120.1,146.47-161.11,108.39S1448.78,1602.88,1477.92,1556.29Z"/><path class="cls-20" d="M1473.18,1551.82c28.68-40.69,87.6-113.14,132.65-80.32,43.53,31.71,26.42,130-64.4,179.75C1515.07,1624.88,1473.18,1551.82,1473.18,1551.82Z"/><path class="cls-21" d="M1341.76,1772.07c14.27-13.06,50.57-8,80.91,15.42s51.57,45.51,34.42,77.11C1411.44,1835.08,1341.76,1772.07,1341.76,1772.07Z"/><path class="cls-22" d="M1382.06,1854.5c38.56,23.31,65,25.11,71.81,15.36,13-18.51-3.39-41-39.12-70.94-39.23-32.88-65.89-39-80.54-19.62S1340.24,1829.23,1382.06,1854.5Z"/><path class="cls-15" d="M1404.08,1447.89a4,4,0,0,1-4-3.84l-1.63-42.83a4,4,0,0,1,8-.3l1.63,42.82a4,4,0,0,1-3.84,4.15Z"/><path class="cls-15" d="M1387.41,1445.93a4,4,0,0,1-3.89-3.09l-16-69a4,4,0,1,1,7.79-1.81l16,69a4,4,0,0,1-3.9,4.9Z"/><path class="cls-9" d="M791.65,1556.65c-23-38.47,106.7-62.65,154.74-67.65l8.88,26.29S828.71,1618.76,791.65,1556.65Z"/><path class="cls-9" d="M948.92,1473c-2.17,8.28-.2,20.12-8.35,21.86l4.92,17.49,9.78,3c25.59-9.71,38.9-43.08,39.88-46.45,2.55-8.76,4.28-12.72,3.23-13.65s-8.56-4.68-12.67,7.94c-5.16,15.85-16,2.51,2.86-28,4.72-7.63,3.78-23.94-3.36-19.52C977.35,1420.5,958.79,1435.29,948.92,1473Z"/><polygon class="cls-14" points="717.23 1468.46 808.71 1461.07 817.54 1371.03 736.92 1328.07 717.23 1468.46"/><path class="cls-14" d="M871.94,1333.6a151,151,0,0,1-1.47,22.43c-2.66,18.4-1.34,29.69-5.2,33.5-8.74,8.58-33.22,14.54-49.72,16.8a276.12,276.12,0,0,1-38.11,2.32s-33.23-10.12-61.37-25.86c-16.09-9-30.5-19.8-36.12-31.63-20.83-43.87-9.2-135.8,34.66-156.62s90-10,118.31,29.47C857.44,1258.15,871.69,1306,871.94,1333.6Z"/><polygon class="cls-23" points="787.04 1699.71 868.25 1818.13 962.51 1747.66 837.66 1626.94 787.04 1699.71"/><path class="cls-16" d="M997.29,1640.61l-137.79,116c-75.94-74.69-224.71,2.18-224.71,2.18s-55.34,119.75,81.6,135.38C974.59,1923.59,1154.34,1666.44,997.29,1640.61Z"/><path class="cls-9" d="M967.27,1685.61c40.64,18.85,53.57-111.73,53.57-160l-29.39-7S901.65,1655.18,967.27,1685.61Z"/><path class="cls-9" d="M1034.2,1520.51c-8,3-13.9,3.16-14.79,11.45l-24-4-4-9.42c7-26.45,38.82-43.16,42.07-44.48,8.45-3.44,12.2-5.58,13.24-4.63s5.54,8-6.59,13.43c-15.22,6.77-.83,16.17,27.54-5.75,7.1-5.48,23.42-6.23,19.76,1.32C1083.44,1486.8,1070.65,1506.79,1034.2,1520.51Z"/><path class="cls-12" d="M870.16,1492.82s-1.82-13.09-2.52-17.12h0c-31.71-20-58.93-31.65-130.9-40.71-31.49-4-67.51,10.33-88.17,49.6-56,106.41-43.61,207.23-40.3,304.8,114.86,32.91,213,31.86,268.13-48C859.19,1696.3,870.16,1492.82,870.16,1492.82Z"/><path class="cls-14" d="M936.62,1545.86c-19.35-30.93-49.27-65.08-79.8-60.17s-29.44,86.85-29.44,86.85S947.48,1719,988.49,1680.93,965.76,1592.45,936.62,1545.86Z"/><path class="cls-11" d="M953.13,1554.07c-28.68-40.69-99.37-125.82-144.42-93-43.53,31.71-9.47,148.35,81.34,198.14C916.41,1632.85,953.13,1554.07,953.13,1554.07Z"/><path class="cls-21" d="M1072.77,1761.64c-14.26-13.06-50.57-7.94-80.91,15.43s-51.57,45.51-34.42,77.1C1003.09,1824.65,1072.77,1761.64,1072.77,1761.64Z"/><path class="cls-22" d="M1032.47,1844.08c-38.55,23.3-65,25.1-71.81,15.35-13-18.5,3.4-41,39.12-70.94,39.23-32.88,65.89-39,80.54-19.62S1074.29,1818.8,1032.47,1844.08Z"/><path class="cls-15" d="M800.73,1157.26c-39,0-87.24-29.86-139.57,15.76-114.88,100.15,37.54,180.08,6.6,206-58.28-10.1-235.2,14.63-165.67,72.53-40.29,5-73.31,106.93,22.07,63-14.78,29.37-29.37,123,81.28,62.77,36.95,85.6,129,2.32,134.46-89.4,1.54-25.6.26-59-20.36-79.86,53.67-12,80.3-51.35,73-130.53C866.09,1294.31,919.42,1157.13,800.73,1157.26Z"/><path class="cls-14" d="M798,1275.9c15.12,8.71,21.6,25.8,14.47,38.17s-25.16,15.34-40.27,6.64-21.6-25.8-14.48-38.17S782.88,1267.2,798,1275.9Z"/><path class="cls-9" d="M795.28,1313.17a3.7,3.7,0,0,0,1.18-1.3c4.27-7.7,3.67-15.59-1.6-21.12s-14.19-7.37-20.9-4.06a3.81,3.81,0,1,0,3.37,6.84c3.68-1.81,8.95-.72,12,2.48s3.1,7.4.46,12.16a3.82,3.82,0,0,0,5.49,5Z"/><path class="cls-24" d="M727.81,1409.06h0a6.84,6.84,0,0,0-2.18-9.43L679,1370.53a6.84,6.84,0,0,0-9.43,2.18h0a6.85,6.85,0,0,0,2.18,9.43l46.63,29.1A6.85,6.85,0,0,0,727.81,1409.06Z"/><path class="cls-15" d="M1008.1,1434.36h-.29a4.49,4.49,0,0,1-4.2-4.78l3.57-55.54a4.5,4.5,0,0,1,9,.57l-3.57,55.55A4.51,4.51,0,0,1,1008.1,1434.36Z"/><path class="cls-15" d="M1025.15,1439.92a4.5,4.5,0,0,1-3.73-7l58.72-87.68a4.5,4.5,0,1,1,7.48,5l-58.72,87.68A4.51,4.51,0,0,1,1025.15,1439.92Z"/><path class="cls-15" d="M1046.59,1460.55a4.5,4.5,0,0,1-2.08-8.49l52.77-27.38a4.5,4.5,0,1,1,4.14,8L1048.65,1460A4.39,4.39,0,0,1,1046.59,1460.55Z"/><g id="c-2" data-name="c"><path class="cls-12" d="M1241,317.45c5.1-31.34,10.93-64.85,30.6-69.23s8,10.21,18.22,17.49,16,25.5,16,25.5Z"/><path class="cls-12" d="M1254.87,316.72c-33.51-35-72.13-50.28-90.35-39.35s6.56,20.4-2.19,29.88-8.74,26.23,4.38,24.77S1254.87,316.72,1254.87,316.72Z"/><path d="M1349.64,585.47c37.49-13.06,117.16-53.29,79.42-107.53s-53.78-31.52-39.27-96.74-31.4-117.16-75.86-104.64-56.16,48.27-110.39,38.6-99.93,40.63-80,84.91,28.46,65.59,9.07,89.77-105.82,49.5-70.53,108.32,51.79,55.42,39,85.23,15.6,64.22,65.59,60.11,95.42-22.49,114.35-78.06S1349.64,585.47,1349.64,585.47Z"/><path class="cls-14" d="M1243,1191.09c4.74-19.72,15.35-40.25,28.15-57.38-9.55-53.59-24.26-154.09-9.95-199.78,3.87-12.34,106.92-28.4,101.76,69.13-4.24,79.93-12.79,142-28.29,165.93-5,14.12-70.48,172.69-70.48,172.69l-42.25-13.09C1246.83,1262.05,1232.06,1236.41,1243,1191.09Z"/><path class="cls-14" d="M1075.58,1070a147.63,147.63,0,0,1,36.39-10.44c7-53.25,22.4-148,47.06-187.83,6.8-11,110.62-1,81.45,92.19s-46.34,151.73-80.31,160.47c-20.2,5.2-189.32,53.84-189.32,53.84l-17-41C1021.74,1116.37,1033,1089,1075.58,1070Z"/><path class="cls-14" d="M1319.28,585.25c2.83,53.28,61.08,62.23,143.23,78.91,26.62-1.49-12-59.18-12-59.18S1316.71,542.37,1319.28,585.25Z"/><path class="cls-14" d="M1482.24,475.47s-40,112.82-39.47,131.24,3.92,55.42,21.27,57.08,37.81-38.63,40.84-74,8.23-106.61,8.23-106.61Z"/><path class="cls-14" d="M1535.94,466.8c-9,5.71-23.67,7.89-22.62,18.18l-31.16-7.8c1.73-33.9,37.48-64.08,41.09-66.52,9.37-6.34,13.38-9.89,14.88-9s8.79,8.32-4.56,18c-16.74,12.12,3.13,19.85,32-14,7.21-8.48,26.83-13.57,24.32-3.46C1587.08,413.29,1576.68,440.83,1535.94,466.8Z"/><path class="cls-14" d="M1208.88,613.87c-15.82,62.31-81.71,30.44-163.18,10.68-23.47-12.64,36-48.49,36-48.49S1222.23,576.4,1208.88,613.87Z"/><path class="cls-14" d="M1107.89,445.32S1096.28,564.47,1088,580.9s-27.07,48.53-43.47,42.67-14.12-57.19-1.87-90.5,34.05-93.86,34.05-93.86Z"/><path class="cls-14" d="M1062.94,414.69c5.68,9,18.09,17.18,12.78,26.06l31.52,6.15c12.81-31.43-6.75-73.93-9-77.67-5.8-9.71-7.92-14.63-9.66-14.46s-11.48,3.8-3.5,18.21c10,18.07-11.25,16.64-23-26.25-2.93-10.74-18.54-23.66-20.56-13.45C1039.34,344.53,1037.08,373.88,1062.94,414.69Z"/><g id="c-3" data-name="c"><path id="c-4" data-name="c" class="cls-23" d="M1199,758.94c-47,34.18-39.16,63.85-62.11,113.44-17.3,37.4-90.16,121.2-90.16,121.2s140.59,94.13,236.49,42.87c85.73-45.82,153.72,8.86,153.72,8.86s-.29-159-77.47-286.37Z"/></g><path id="c-5" data-name="c" class="cls-13" d="M1176.36,585.68c.06.63,4.2,20-1,55.83-5.39,36.82,7.73,111.75,23.63,117.43h160.47c20.66-16.25-12.73-188.09-14.71-188.42C1285.93,560.81,1228.47,567.67,1176.36,585.68Z"/><ellipse class="cls-14" cx="1264.77" cy="439.19" rx="85.79" ry="105.8"/><path d="M1175.24,448.88c47.36-6.05,91.4-32.44,116.27-66.55,16.06,39.86,61,66.55,61,66.55s33.7-76.24-27.58-117.38C1266.49,292.27,1127,319.08,1175.24,448.88Z"/><path d="M1239.87,470.08A9.12,9.12,0,1,1,1249,461,9.12,9.12,0,0,1,1239.87,470.08Z"/><path d="M1319.14,470.6a9.12,9.12,0,1,1,9.11-9.11A9.11,9.11,0,0,1,1319.14,470.6Z"/><path d="M1335.2,453.27a4.38,4.38,0,0,1-3.77-2.14c-2.25-3.8-5-6.08-8.11-6.77-5.4-1.19-10.75,2.41-10.81,2.45a4.38,4.38,0,0,1-5-7.19c.34-.24,8.43-5.81,17.61-3.83,5.63,1.21,10.29,4.87,13.84,10.87a4.37,4.37,0,0,1-1.53,6A4.31,4.31,0,0,1,1335.2,453.27Z"/><path d="M1222.57,453.19a4.38,4.38,0,0,1-3.42-7.12c5.76-7.18,12.13-11.09,18.94-11.62a21.38,21.38,0,0,1,15.07,5,4.38,4.38,0,0,1-5.88,6.49,12.62,12.62,0,0,0-8.63-2.71c-4.26.37-8.52,3.18-12.66,8.36A4.38,4.38,0,0,1,1222.57,453.19Z"/><path class="cls-14" d="M1191.79,438.57c9.83,12.45,10.32,28.45,1.1,35.73s-24.68,3.1-34.51-9.35-10.32-28.45-1.1-35.74S1182,426.12,1191.79,438.57Z"/><path class="cls-9" d="M1183.17,465.46a2.87,2.87,0,0,1-1.14-.23,2.91,2.91,0,0,1-1.55-3.82c2.08-4.94,2.13-8.91.14-11.8-3.08-4.47-10.33-5.85-15.6-5.68a2.92,2.92,0,1,1-.2-5.83c7.08-.24,16.2,1.79,20.61,8.2,2.19,3.19,4,8.8.43,17.38A2.93,2.93,0,0,1,1183.17,465.46Z"/><path class="cls-1" d="M1252.79,509.25c-1.08-2.05.52-4.65,2.58-4.17a147.85,147.85,0,0,0,45,4c2.12-.1,3.23,2.73,1.8,4.57-4.38,5.63-13.16,14-26,12.84S1256.11,515.58,1252.79,509.25Z"/><path class="cls-9" d="M1287.3,470.35s3.84,10.69,9,17.54c-4.11,5.49-17,5.49-17,5.49l9.33-7.68S1285.66,475.83,1287.3,470.35Z"/><path class="cls-14" d="M1291.9,533.72l3.21,33.07s-14.23,33.52-68,5.51L1223,528.21Z"/><path class="cls-23" d="M971.59,1157.86c18.83,1.19,24.45,13.64,24.45,13.64-28.86,35.57,11,91.25-38.37,103.15-26.34-94.49-38.17-133.5-38.17-133.5,11.24-3.08,38.37-8.82,49.41-9.62l.47,5.18Z"/><path class="cls-1" d="M943,1272.72,908.1,1150.57a5.92,5.92,0,0,1,4.07-7.32l8.67-2.48L959,1274.31l-8.67,2.48A5.93,5.93,0,0,1,943,1272.72Z"/><path class="cls-23" d="M1247.58,1332.09c12.64-14,25.88-10.68,25.88-10.68,9.93,44.71,78.33,48.09,57,94.17-90.39-38.09-128.3-53.07-128.3-53.07,4.57-10.72,16.94-35.54,23.17-44.69l4.35,2.86Z"/><path class="cls-1" d="M1319.82,1425.85l-117.4-48.55a5.93,5.93,0,0,1-3.22-7.74l3.45-8.34L1331,1414.31l-3.44,8.33A5.93,5.93,0,0,1,1319.82,1425.85Z"/><path class="cls-15" d="M1565.87,499.12a4,4,0,0,1-1.13-7.84h0c.19-.06,19.93-6.09,42.68-25.41,21-17.81,48.89-50.91,62.8-107.45a4,4,0,0,1,7.77,1.91c-14.47,58.84-43.74,93.35-65.74,111.93-24,20.26-44.39,26.44-45.24,26.69A4.09,4.09,0,0,1,1565.87,499.12Z"/><path class="cls-15" d="M1587.44,514.61a4,4,0,0,1-1.26-7.79c.66-.22,66.42-22.67,90.07-71.31a4,4,0,0,1,7.2,3.49c-25.14,51.71-91.91,74.46-94.74,75.41A4,4,0,0,1,1587.44,514.61Z"/><path class="cls-15" d="M1024.13,426.68a4,4,0,0,1-2.7-1.05c-29.29-26.73-38.82-59.09-41.66-81.54-3.06-24.28.74-42.09.91-42.83a4,4,0,0,1,7.81,1.71h0c0,.17-3.69,17.43-.74,40.41,3.92,30.58,17.07,56.27,39.08,76.34a4,4,0,0,1-2.7,7Z"/><path class="cls-15" d="M1008.7,434.39a4,4,0,0,1-1.18-.17C968.76,422.29,950,387.44,949.22,386a4,4,0,1,1,7.07-3.73h0c.18.33,18.08,33.41,53.58,44.34a4,4,0,0,1-1.17,7.82Z"/></g><path class="cls-15" d="M2036.19,261.91a5.44,5.44,0,0,0-6.09-4.73,5.51,5.51,0,0,0-4.51,3.78l-25.3,72.49a25.24,25.24,0,0,0-9.41,0c-9.43,1.79-16.21,7.87-14.88,13.62s9.61,8.74,19.14,6.68,16.21-7.87,14.88-13.62h0l20.15-57.72c1.67,4.2,12.24,30.15,8.93,39.1a5.65,5.65,0,0,0,3.86,6.64,5.47,5.47,0,0,0,6.71-3.83v0C2053.72,312.46,2037.47,271.46,2036.19,261.91Z"/><path class="cls-6" d="M386.92,415.66a5.45,5.45,0,0,0-8.25,6.73l32.58,69.53a25,25,0,0,0-6.74,6.55c-5.5,7.88-6.1,17-1.12,20.14s13-.47,18.35-8.61,6.1-16.95,1.12-20.13h0l-25.95-55.36c4.14,1.83,29.84,13,33.73,21.71a5.64,5.64,0,0,0,7.4,2,5.46,5.46,0,0,0,2.11-7.43v0C434.79,439.55,394.5,421.6,386.92,415.66Z"/><path class="cls-15" d="M855.9,585.7a5.45,5.45,0,0,0-10.44-2.11l-33.13,69.26a25.06,25.06,0,0,0-9.35-1.06c-9.58.73-17,6-16.29,11.89s8.59,9.74,18.29,8.74,17-6,16.28-11.89h0l26.39-55.15c1.21,4.36,8.85,31.32,4.57,39.85a5.64,5.64,0,0,0,3.11,7,5.47,5.47,0,0,0,7.09-3.07v0C867.75,637.88,856.11,595.34,855.9,585.7Z"/><path class="cls-15" d="M585.11,751a5.45,5.45,0,0,0-8.7,6.13L604,828.78a25.11,25.11,0,0,0-7.19,6.06c-6,7.47-7.28,16.49-2.54,20s13,.45,18.91-7.29,7.28-16.48,2.54-20h0l-22-57c4,2.12,28.85,15.07,32.12,24a5.64,5.64,0,0,0,7.23,2.56,5.47,5.47,0,0,0,2.64-7.26v0C631.18,778.2,592.26,757.46,585.11,751Z"/><path class="cls-15" d="M1871.63,509.67h0V430.2a5.47,5.47,0,0,0-4-5.28l-53-14.21h-4.88l-1,.77-.57.77a4.31,4.31,0,0,0-.48,1h0a5,5,0,0,0,0,.77,3.75,3.75,0,0,0,0,.67v76.78a25.28,25.28,0,0,0-8.89,3.07c-8.32,4.8-12.72,12.77-9.57,17.76s12,5.09,20.27,0,12.72-12.76,9.57-17.76h0V439.8l42.06,11.32v54.71a25.42,25.42,0,0,0-8.89,3.07c-8.32,4.8-12.71,12.77-9.56,17.76s12,5.09,20.27,0S1874.49,514.66,1871.63,509.67Z"/><path class="cls-15" d="M2908.73,605.84h0L2938.18,532a5.46,5.46,0,0,0-1.77-6.39l-43.93-32.83-1.33-.53-.71-.28h0l-.71-.29-1.16-.46L2888,491l-1.17.36-.82.5a5,5,0,0,0-.8.72h0a4.76,4.76,0,0,0-.28.71,4.35,4.35,0,0,0-.25.63l-28.46,71.31a25,25,0,0,0-9.4-.44c-9.51,1.37-16.54,7.14-15.46,13s9.21,9.15,18.82,7.51,16.55-7.14,15.46-13h0l20.28-50.81,34.88,26.11-20.28,50.81a25.2,25.2,0,0,0-9.4-.44c-9.5,1.37-16.54,7.14-15.46,12.95s9.22,9.15,18.83,7.51S2909.54,611.54,2908.73,605.84Z"/><path class="cls-6" d="M2374.08,190.73h0L2341,141.62a4.06,4.06,0,0,0-4.68-1.59l-38.65,13.29-.88.6-.48.31h0l-.47.32-.77.52-.41.28-.27.87,0,.72a4.29,4.29,0,0,0,.11.79h0a3.55,3.55,0,0,0,.32.47,3.07,3.07,0,0,0,.28.42l32,47.45a18.67,18.67,0,0,0-4.21,5.6c-3.14,6.43-2.54,13.19,1.49,15s9.5-1.84,12.52-8.45,2.54-13.18-1.49-15h0l-22.79-33.81,30.71-10.53L2366,192.7a18.54,18.54,0,0,0-4.22,5.6c-3.14,6.43-2.54,13.19,1.49,15s9.51-1.84,12.53-8.45S2377.93,192.62,2374.08,190.73Z"/><path class="cls-15" d="M765.8,450.21h0l-38.94-69.28a5.46,5.46,0,0,0-6.08-2.63l-53.14,13.57-1.25.7-.67.37h0l-.66.38-1.09.61-.58.33-.46,1.14-.12,1a5.52,5.52,0,0,0,.05,1.07h0a6.38,6.38,0,0,0,.38.67,6.65,6.65,0,0,0,.33.58l37.62,66.94a25.32,25.32,0,0,0-6.25,7c-4.9,8.26-4.83,17.36.37,20.17s12.91-1.43,17.67-9.94,4.83-17.35-.37-20.16h0L685.81,415,728,404.28,754.84,452a25.15,25.15,0,0,0-6.25,7c-4.9,8.26-4.83,17.36.37,20.17s12.91-1.42,17.66-9.93S770.75,453.16,765.8,450.21Z"/><path class="cls-6" d="M359.42,718.81h0l10.86-78.73A5.49,5.49,0,0,0,367,634.3L316.49,613l-1.42-.2-.76-.1h0l-.76-.11-1.23-.17-.66-.09-1.06.63-.67.68a5.34,5.34,0,0,0-.6.89h0a5,5,0,0,0-.11.76c0,.22-.07.44-.09.67L298.64,692a25.33,25.33,0,0,0-9.22,1.83c-8.9,3.62-14.34,10.91-11.9,16.29s11.15,6.67,20.08,2.76,14.34-10.91,11.9-16.28h0l7.47-54.2,40.12,17-7.47,54.19a25.33,25.33,0,0,0-9.22,1.83c-8.9,3.62-14.34,10.91-11.9,16.29s11.15,6.67,20.08,2.76S361.58,724.14,359.42,718.81Z"/><path class="cls-5" d="M2069.39,1936.61q-21.21-86.73,58.35-175.72Q2138.08,1879.87,2069.39,1936.61Z"/><path class="cls-5" d="M2154.91,1859.66q-7.15-81.06,76.8-150.23Q2224.68,1818.09,2154.91,1859.66Z"/><path class="cls-5" d="M2244.45,1785.62q4.62-77.17,93.16-130.44Q2316,1756.36,2244.45,1785.62Z"/><path class="cls-5" d="M2439.25,1635.45q-35.79,79.83-100.16,91.55Q2356.69,1663.8,2439.25,1635.45Z"/><path class="cls-5" d="M2517.68,1646.35q-41.32,60.45-96,60.57Q2445.42,1657.57,2517.68,1646.35Z"/><path class="cls-5" d="M2455.42,1724.87q39.78-37.61,111.33-22.22Q2506.48,1744.29,2455.42,1724.87Z"/><path class="cls-5" d="M2235.57,1823.73q71-19.56,146.41,44.07Q2284.12,1879.15,2235.57,1823.73Z"/><path class="cls-5" d="M2433.19,1819.65q-85.16,9.94-127.38-38.34Q2367.57,1764.24,2433.19,1819.65Z"/><path class="cls-5" d="M2384.46,1752.47q61.74-16.93,127.38,38.33Q2426.64,1800.73,2384.46,1752.47Z"/><path class="cls-5" d="M2154.2,1886.36q72.35-36.57,167.71,15.52Q2218.73,1935.71,2154.2,1886.36Z"/><path class="cls-5" d="M2090.24,1943.57q68.13-43.93,168.42-2.11Q2159.57,1985.89,2090.24,1943.57Z"/><path class="cls-5" d="M2442.44,1728.3a3.81,3.81,0,0,1-1.22,2.8l-1.67,1.54a8.39,8.39,0,0,1-3.23.72l-.2.46-2.43-.09q-40.7,2.89-109.86,36.11a610.66,610.66,0,0,0-113.91,69.36,652.14,652.14,0,0,0-51.46,43.16l-4.26,4c-31,29.17-45.84,40.48-63.36,58q-7.17.78-14.37,1.53c23.47-25.11,38.53-35.51,75.83-70.16q25.85-24,51.9-44.28a623.49,623.49,0,0,1,115.66-69.21q71.29-34.55,113-36.61l3.27-1.5a2.22,2.22,0,0,1,2.84-.28,3.86,3.86,0,0,1,2.8,1.21A7.15,7.15,0,0,1,2442.44,1728.3Z"/><path class="cls-5" d="M1910.48,1960.4q-11.36.8-22.79,1.55-33.86-45.26-25.91-122.2Q1915.06,1901.24,1910.48,1960.4Z"/><path class="cls-5" d="M1917.21,1879.87q-45.11-51.54-22.42-140.19Q1944.11,1816.92,1917.21,1879.87Z"/><path class="cls-5" d="M1946.61,1664q27.09,72.59-6.2,120Q1912.18,1733.26,1946.61,1664Z"/><path class="cls-5" d="M2002.84,1622.09q11.54,63.83-22.84,97.9Q1964.25,1674.12,2002.84,1622.09Z"/><path class="cls-5" d="M2012.42,1710.33q1.69-48.45,56.37-83.27Q2056.7,1690.81,2012.42,1710.33Z"/><path class="cls-5" d="M1935.32,1909.41q32.58-56.51,119.71-63.29Q2000.4,1914.16,1935.32,1909.41Z"/><path class="cls-5" d="M2057.37,1783.91q-47.5,59.25-104.16,55.07Q1981.53,1789.8,2057.37,1783.91Z"/><path class="cls-5" d="M1984.85,1771.87q28.39-49.09,104.16-55.07Q2041.48,1776.07,1984.85,1771.87Z"/><path class="cls-5" d="M2007.25,1725.1a7.38,7.38,0,0,1-1.59,2.46l.16.42-1.59,1.45q-23.85,27.13-46.8,91.1a541.32,541.32,0,0,0-28.66,114.59q-1.77,12.06-3,24.19l-8.28.59q1.2-13.28,2.9-26.09a552.52,552.52,0,0,1,29.86-115.58q23.46-66.13,48.47-93.37l1.13-3a2,2,0,0,1,1.62-2,3.36,3.36,0,0,1,2.51-1,6.24,6.24,0,0,1,2.43,1.61,3.38,3.38,0,0,1,1,2.52Z"/><path class="cls-5" d="M2038.36,1905q-14.38,27.94-31.7,47.73-29.62,2.67-59.8,5Q1977.58,1922.37,2038.36,1905Z"/><rect class="cls-25" x="2488.85" y="476.52" width="45.1" height="27.4" rx="5.11" transform="translate(-46.92 539.48) rotate(-12.15)"/><rect class="cls-25" x="2410.27" y="495.73" width="45.1" height="27.4" rx="5.11" transform="translate(-52.73 523.36) rotate(-12.15)"/><path class="cls-25" d="M2455.06,505.6a39.78,39.78,0,0,1,21.77-9.67,37.84,37.84,0,0,1,12.92.89"/><path class="cls-26" d="M2536,483.91l27.52-5.38"/><path class="cls-25" d="M2533.48,485.65a239.88,239.88,0,0,1,80.91-15.36"/></g></g></svg>