<svg xmlns="http://www.w3.org/2000/svg" viewBox="0 0 898.74 209.87"><defs><style>.cls-1{fill:#f5f5f5;}.cls-2{fill:#e0e0e0;}.cls-3{fill:#fafafa;}.cls-4{fill:#ebebeb;}.cls-5{fill:#fff;}.cls-6{fill:#85491a;}.cls-7{fill:#263238;}.cls-8{fill:#eb996e;}.cls-9{fill:#a1512c;}.cls-10{fill:#455a64;}.cls-11{fill:#ffbe9d;}</style></defs><g id="Capa_2" data-name="Capa 2"><g id="Background_Complete" data-name="Background Complete"><path class="cls-1" d="M734.25,177.29c-25.91-11.06-28.35-29.17-23.72-45.1.77-2.65.79-5.5,3.9-7.7s9.51-3.49,14.14-2.11c3.85,1.15,5.1,3.55,6.95,5.57,2.45,2.7,6.48,5,11.47,6.65,3.27,1.07,7.45,1.83,11.08,1.09,5-1,6.24-4.17,6.79-6.83q1.53-7.43,3.08-14.84c.55-2.66,1.13-5.37,3.37-7.8s6.48-4.57,11.79-5,11.37,1.35,11.89,4c.22,1.1-.48,2.2-.57,3.31s.69,2.38,2.76,2.8a11.65,11.65,0,0,0,6.22-.9,60.48,60.48,0,0,0,15.05-8.88c4.3-3.25,8.52-6.58,14.24-9.23a48.49,48.49,0,0,1,21.07-4.41c7.81.2,15.57,3,16.71,6.81s-4.15,7.41-9.67,10.18A150.4,150.4,0,0,1,833,115.33c-1.84.51-3.83,1-4.7,2-1.57,1.71,1.47,3.64,4.91,4.41,3.9.88,8.33.9,12.5,1.37s8.55,1.62,9.72,3.66c1.62,2.83-3.64,5.43-8.61,7a174.35,174.35,0,0,1-32.59,7.05c-4.14.5-8.48.91-12,2.11s-6,3.48-4.45,5.45,6.39,2.84,10.65,2.68,8.24-1.07,12.39-1.6c7.75-1,17.32-.22,21.4,3.18,2.68,2.24,2.32,5.14.19,7.52s-5.82,4.34-9.67,6.13a157.59,157.59,0,0,1-47.88,13c-17.93,2-34.12,2-50.62-2"/><path class="cls-2" d="M744.88,167.71c6.59-7.81,15.25-16.08,24.92-24.58l7.21-6.28c2.38-2,4.74-4.09,7.29-6a179.1,179.1,0,0,1,16-10.66c5.42-3.27,10.8-6.28,15.88-9.07s9.94-5.35,14.56-7.58a223.05,223.05,0,0,1,23.39-9.76c2.93-1,5.26-1.81,6.86-2.32l1.82-.58a4.31,4.31,0,0,1,.64-.18,4.69,4.69,0,0,1-.58.22l-1.77.62c-1.55.54-3.85,1.34-6.74,2.4a231.41,231.41,0,0,0-23.12,9.85c-4.58,2.24-9.38,4.81-14.44,7.6s-10.4,5.82-15.79,9.09a182.25,182.25,0,0,0-15.88,10.63c-2.53,1.92-4.86,3.95-7.24,6l-7.2,6.28c-9.67,8.49-18.34,16.73-24.95,24.51"/><path class="cls-2" d="M784.59,130.82c-.07,0-.16-.41-.28-1.16s-.23-1.83-.32-3.17c-.18-2.68-.18-6.39-.14-10.48a104.51,104.51,0,0,0-.34-10.46c-.13-1.34-.25-2.42-.36-3.17s-.12-1.16,0-1.16.22.4.44,1.14a24.31,24.31,0,0,1,.67,3.17,63.32,63.32,0,0,1,.64,10.48c-.06,4-.11,7.68-.15,10.47v3.18C784.7,130.41,784.66,130.82,784.59,130.82Z"/><path class="cls-2" d="M855.7,128.13s-1,0-2.81,0-4.42,0-7.65,0c-6.46,0-15.38.15-25.21.53s-18.7.93-25.08,1.41c-3.2.23-5.78.45-7.57.59a26.49,26.49,0,0,1-2.79.18s.95-.16,2.72-.37,4.33-.47,7.52-.75c6.38-.57,15.26-1.16,25.12-1.55s18.82-.48,25.3-.39c3.24,0,5.85.11,7.66.19A26,26,0,0,1,855.7,128.13Z"/><path class="cls-2" d="M745.88,167.13s-.17-.15-.39-.44l-.92-1.3c-.79-1.12-1.84-2.77-3.09-4.81-2.5-4.09-5.6-9.79-8.84-16.1s-6.22-12-8.55-16.11l-2.78-4.86-.74-1.33c-.16-.3-.23-.46-.19-.47a2,2,0,0,1,.38.44c.25.35.56.78.92,1.3.79,1.13,1.85,2.77,3.1,4.82,2.5,4.08,5.59,9.78,8.83,16.09s6.23,12,8.55,16.12l2.78,4.85.74,1.33C745.84,167,745.91,167.13,745.88,167.13Z"/><path class="cls-2" d="M841.73,157.41a9.49,9.49,0,0,1-1,.13l-2.79.3-10.27,1c-8.67.89-20.61,2.18-33.8,3.62S768.73,165.19,760,166c-4.35.4-7.88.71-10.33.89l-2.82.21a7.34,7.34,0,0,1-1,0,6.81,6.81,0,0,1,1-.14l2.79-.29,10.26-1c8.67-.89,20.61-2.19,33.81-3.62s25.17-2.68,33.88-3.48c4.35-.4,7.88-.71,10.33-.9l2.82-.2A5.8,5.8,0,0,1,841.73,157.41Z"/><rect class="cls-3" x="739.04" y="0.21" width="159.34" height="69.76"/><path class="cls-2" d="M898.38,70s0-.45,0-1.3,0-2.1,0-3.73c0-3.28,0-8.07-.09-14.16-.05-12.19-.11-29.61-.19-50.57l.36.18L739.05.42h0l.43-.21c0,25.38,0,49.26-.06,69.76l-.37-.18,115.24.09,32.51.05,8.6,0h.08l-8.53,0-32.42,0L739,70.15h-.38V70c0-20.5,0-44.38,0-69.76V0h.44L898.37,0h.37V.21c-.08,21-.14,38.46-.19,50.68,0,6.08-.07,10.85-.09,14.12,0,1.61,0,2.86,0,3.7S898.38,70,898.38,70Z"/><path class="cls-2" d="M800.13,38.66c0,.1-8.38.18-18.73.18s-18.73-.08-18.73-.18,8.39-.18,18.73-.18S800.13,38.56,800.13,38.66Z"/><path class="cls-2" d="M867.65,43.2c0,.1-23,.18-51.46.18s-51.46-.08-51.46-.18,23-.18,51.46-.18S867.65,43.1,867.65,43.2Z"/><rect class="cls-2" x="762.95" y="50.9" width="6.71" height="2.85"/><rect class="cls-2" x="779.47" y="50.9" width="6.71" height="2.85"/><rect class="cls-2" x="796.3" y="50.77" width="6.71" height="2.85"/><rect class="cls-2" x="812.52" y="50.9" width="6.71" height="2.85"/><rect class="cls-2" x="829.04" y="50.9" width="6.71" height="2.85"/><rect class="cls-2" x="845.57" y="50.9" width="6.71" height="2.85"/><rect class="cls-4" x="862.09" y="50.9" width="6.71" height="2.85"/><rect class="cls-4" x="762.95" y="56.96" width="6.71" height="2.85"/><rect class="cls-2" x="779.47" y="56.96" width="6.71" height="2.85"/><rect class="cls-4" x="795.99" y="56.96" width="6.71" height="2.85"/><rect class="cls-2" x="812.52" y="56.96" width="6.71" height="2.85"/><rect class="cls-2" x="829.04" y="56.96" width="6.71" height="2.85"/><rect class="cls-2" x="845.87" y="56.83" width="6.71" height="2.85"/><rect class="cls-2" x="862.09" y="56.96" width="6.71" height="2.85"/><rect class="cls-2" x="762.95" y="40.68" width="6.71" height="3.29"/><rect class="cls-2" x="779.78" y="40.53" width="6.71" height="3.29"/><rect class="cls-2" x="795.99" y="40.68" width="6.71" height="3.29"/><rect class="cls-4" x="812.52" y="40.68" width="6.71" height="3.29"/><rect class="cls-2" x="829.04" y="40.68" width="6.71" height="3.29"/><rect class="cls-2" x="845.57" y="40.68" width="6.71" height="3.29"/><rect class="cls-2" x="862.09" y="40.68" width="6.71" height="3.29"/><rect class="cls-2" x="762.95" y="47.67" width="6.71" height="3.29"/><rect class="cls-2" x="779.47" y="47.67" width="6.71" height="3.29"/><rect class="cls-2" x="795.99" y="47.67" width="6.71" height="3.29"/><rect class="cls-2" x="812.82" y="47.52" width="6.71" height="3.29"/><rect class="cls-2" x="829.04" y="47.67" width="6.71" height="3.29"/><rect class="cls-4" x="845.57" y="47.67" width="6.71" height="3.29"/><rect class="cls-2" x="862.09" y="47.67" width="6.71" height="3.29"/><rect class="cls-2" x="762.95" y="54.65" width="6.71" height="3.29"/><rect class="cls-4" x="779.47" y="54.65" width="6.71" height="3.29"/><rect class="cls-2" x="795.99" y="54.65" width="6.71" height="3.29"/><rect class="cls-2" x="812.52" y="54.65" width="6.71" height="3.29"/><rect class="cls-2" x="829.04" y="54.65" width="6.71" height="3.29"/><rect class="cls-2" x="845.87" y="54.5" width="6.71" height="3.29"/><rect class="cls-2" x="862.09" y="54.65" width="6.71" height="3.29"/><path class="cls-4" d="M55.31,58.05S40.41,61.1,57.6,77.11,86.53,101,86.53,101s3.09,3.72-3.14,4.39S63.3,105.13,60.71,109s3.28,7.78,15.16,11,37.4,10.62,39.7,11.29,4.58,2.39.48,3.19S81,137.32,83.8,144.7s38.77,13.46,42.67,14.17,4.88,1.52,4.62,2.6-10.79,1.27-19.55,2-18.63,2.43-16.32,6.62,23.88,12.75,75.26,14.62l23.92.08,12.48-10.39c24-23.05,21.06-36.85,15.27-40.05s-13.81.15-19.72,3.51-11.8,7.77-13.75,7.32-2.8-1.31-1.92-3.36,9.68-20.72-1.2-25.82-30.68,7.11-34.19,8.44-5.17-.56-5.09-1.89,1.1-16.24,2.05-23S146.21,88.25,138,87.25c-7.94-1-13.7,5.49-18.12,7.81s-9-1-9-1-7-9.22-24.77-25.06S55,58.12,55,58.12"/><path class="cls-2" d="M195.78,187.65c-12.95-11.66-35.28-32.59-54.63-50.51S104.25,103,91.41,91.33L76.19,77.49l-4.14-3.77c-.45-.42-.8-.75-1.06-1l-.33-.34s.14.1.4.32l1.12,1c1,.87,2.42,2.13,4.26,3.73,3.69,3.25,9,8,15.43,13.79,12.95,11.66,30.58,27.85,49.93,45.76s41.61,38.86,54.44,50.56"/><path class="cls-2" d="M80,110.74a15.07,15.07,0,0,1,1.68.21c1.07.16,2.6.42,4.48.73,3.77.65,8.92,1.6,14.58,2.71l14.45,2.86,4.38.85a12.83,12.83,0,0,1,1.59.35,15.7,15.7,0,0,1-1.68-.21c-1.07-.16-2.6-.41-4.48-.74-3.75-.66-8.88-1.65-14.53-2.76L86,111.94l-4.39-.85A11.28,11.28,0,0,1,80,110.74Z"/><path class="cls-2" d="M122.74,117.66c-.2,0,3.23-5.5,7.65-12.21s8.16-12.13,8.36-12.09-3.23,5.5-7.66,12.21S122.93,117.69,122.74,117.66Z"/><path class="cls-2" d="M150,145.84a5.82,5.82,0,0,1,.94-.76l2.73-2c2.3-1.68,5.46-4,8.75-6.66s6.15-5.09,8.17-6.87l2.4-2.1a5.42,5.42,0,0,1,.95-.75c.05,0-.21.3-.7.82s-1.24,1.26-2.19,2.16c-1.91,1.82-4.68,4.29-8,6.94s-6.54,5-9,6.62c-1.21.82-2.21,1.48-2.92,1.93A6.45,6.45,0,0,1,150,145.84Z"/><path class="cls-2" d="M108.61,143.9a12.33,12.33,0,0,1,1.64,0l4.43.12c3.74.12,8.9.3,14.6.53s10.86.46,14.58.65l4.42.24a11.12,11.12,0,0,1,1.61.14s-.59,0-1.64,0l-4.43-.12c-3.74-.11-8.9-.3-14.6-.53s-10.85-.46-14.58-.65l-4.42-.24A15.23,15.23,0,0,1,108.61,143.9Z"/><path class="cls-2" d="M126.44,170.33a18.67,18.67,0,0,1,2.09,0l5.68.14c4.79.14,11.41.35,18.72.61s13.93.52,18.71.72l5.67.27c1.33.07,2.07.12,2.07.14a18.76,18.76,0,0,1-2.09,0l-5.68-.14c-4.8-.14-11.42-.35-18.73-.61s-13.92-.52-18.71-.72l-5.66-.27C127.17,170.4,126.43,170.35,126.44,170.33Z"/><path class="cls-2" d="M178.14,172a6.62,6.62,0,0,1,1.13-1l3.28-2.6c2.77-2.19,6.57-5.22,10.57-8.64s7.49-6.54,10-8.82l2.94-2.7a8.23,8.23,0,0,1,1.16-1,5.92,5.92,0,0,1-.9,1c-.62.66-1.55,1.6-2.74,2.76-2.37,2.31-5.78,5.47-9.8,8.89s-7.89,6.43-10.77,8.59c-1.44,1.08-2.63,1.94-3.48,2.53A11.41,11.41,0,0,1,178.14,172Z"/></g><g id="Speech_Bubble" data-name="Speech Bubble"><ellipse class="cls-5" cx="729.02" cy="31.11" rx="57.39" ry="24.19"/><path class="cls-6" d="M726.13,38.64c-1.07-.22-1.79-.7-1.77-1.24l.28-6.76c0-.42.51-.82,1.32-1.07a6.79,6.79,0,0,1,2.8-.2,22.34,22.34,0,0,0,7.82-.45c2.26-.56,3.84-1.43,4.35-2.38s0-2-1.5-3a14.8,14.8,0,0,0-6.5-1.9c-5.12-.38-10.92,1.15-12.67,3.35-.56.71-2.38,1.09-4,.85s-2.57-1-2-1.72c2.75-3.46,11.65-5.77,19.85-5.15a24.06,24.06,0,0,1,10.7,3.07c2.43,1.55,3.31,3.39,2.42,5.06s-3.58,3.2-7.37,4.13a35.74,35.74,0,0,1-8.83,1l-.21,5.21c0,.75-1.49,1.35-3.25,1.34A7.2,7.2,0,0,1,726.13,38.64Z"/><path class="cls-6" d="M730.41,41.52c0,.61-1.15,1.11-2.59,1.12s-2.63-.49-2.64-1.1,1.15-1.12,2.6-1.12S730.4,40.9,730.41,41.52Z"/><path class="cls-7" d="M671.52,50.16s.62,0,1.65.17a10.49,10.49,0,0,1,3.62,1.16A2.92,2.92,0,0,1,678,52.71a1.31,1.31,0,0,1-.4,1.49c-.94,1-3.42,1.88-6.37,1.9s-5.45-.9-6.41-1.88a1.33,1.33,0,0,1-.42-1.49,2.81,2.81,0,0,1,1.22-1.22,10.29,10.29,0,0,1,3.6-1.17c1-.15,1.66-.16,1.66-.18h-.45c-.15,0-.33,0-.54,0l-.73.07a11,11,0,0,0-3.84,1.16A3.17,3.17,0,0,0,664,52.69a1.4,1.4,0,0,0,.4,1.61A6.27,6.27,0,0,0,667,55.7a14.3,14.3,0,0,0,4.27.62,14.47,14.47,0,0,0,4.25-.63,6,6,0,0,0,2.57-1.41,1.39,1.39,0,0,0,.39-1.61,3.24,3.24,0,0,0-1.38-1.27,10.87,10.87,0,0,0-3.85-1.15c-.27,0-.52-.06-.73-.07l-.54,0Z"/><path class="cls-7" d="M654.64,35.16s.39,0,1,.15a5.86,5.86,0,0,1,2.23.84c.71.47,1.15,1.22.5,1.93a6.47,6.47,0,0,1-7.87,0c-.65-.71-.22-1.46.47-1.93a5.89,5.89,0,0,1,2.23-.85c.64-.11,1-.12,1-.15a4.59,4.59,0,0,0-1.1.05,6.26,6.26,0,0,0-2.46.84,2.21,2.21,0,0,0-.88,1,1.11,1.11,0,0,0,.26,1.18,7.16,7.16,0,0,0,8.78,0,1.13,1.13,0,0,0,.23-1.19,2.19,2.19,0,0,0-.88-.94,6.48,6.48,0,0,0-2.48-.83A4.51,4.51,0,0,0,654.64,35.16Z"/><path class="cls-7" d="M672.22,34.51a3.93,3.93,0,0,0-.06-.39c0-.27-.12-.65-.22-1.16-.05-.25-.1-.53-.16-.84a9.06,9.06,0,0,1,0-1c0-.37,0-.77,0-1.2a2,2,0,0,1,.11-.66c.06-.23.13-.46.19-.7.38-1.92,1.69-4.24,4.14-6.77a37.74,37.74,0,0,1,12.11-7.67l2.19-.92c.78-.29,1.61-.57,2.42-.86l1.24-.42c.42-.15.83-.3,1.29-.42l2.74-.77c.46-.13.92-.27,1.39-.39l1.49-.34,3-.68c1-.22,2.13-.38,3.21-.58L709,8.43l.82-.14.85-.11c2.29-.28,4.59-.63,7-.78,1.21-.09,2.42-.22,3.66-.28L725.13,7c.63,0,1.26,0,1.9-.06H729c1.28,0,2.58,0,3.88,0,2.59.14,5.24.2,7.84.48l2,.18,1,.1,1,.13,3.9.53c1.28.2,2.53.45,3.81.68.63.12,1.29.22,1.9.36l1.84.43c2.52.53,4.8,1.25,7.17,1.93L766.55,13l.83.29.77.33,1.54.65,1.54.66,1.4.72,1.4.73.7.36.62.39,2.48,1.58L780,20.34a18.34,18.34,0,0,1,5.43,7.39,11.27,11.27,0,0,1-.39,7.74l-1,1.87-1.35,1.8-.34.45-.44.43-.87.86-.88.86-1,.82-1.05.81-.53.4-.61.38-2.42,1.52a60.18,60.18,0,0,1-5.64,2.69l-1.49.63c-.49.21-1.06.38-1.59.57-1.08.37-2.12.76-3.22,1.11l-3.4,1-.84.24c-.29.08-.6.14-.89.21l-1.78.4c-2.31.58-4.82,1-7.22,1.39-1.23.19-2.48.33-3.71.49l-1.84.24c-.62.07-1.25.1-1.87.16l-3.72.31c-1.23.08-2.47.1-3.7.16-2.45.14-4.88.07-7.26.07h-.89l-.88,0-1.76-.08c-1.16-.07-2.32-.1-3.45-.18L716,54.7l-1.65-.15-1.59-.21-3.14-.43c-.52-.06-1-.15-1.51-.24l-1.47-.27c-1-.18-1.95-.34-2.88-.53l-2.7-.63a70.74,70.74,0,0,1-16.64-6c-.5-.27-1-.52-1.5-.78l-1.27-.81-1.23-.78c-.2-.13-.41-.25-.59-.38l-.5-.39-1.88-1.48c-.56-.48-1-1-1.42-1.4l-.64-.65a3.65,3.65,0,0,1-.53-.62L674,37.85c-.24-.35-.51-.68-.68-1L673,36c-.23-.49-.41-.87-.54-1.13a4.11,4.11,0,0,0-.2-.39s0,.13.15.39.27.64.49,1.14l.37.84c.17.31.42.63.66,1l.8,1.15a3.69,3.69,0,0,0,.53.63l.63.65c.45.45.85.93,1.41,1.41l1.86,1.49.5.4c.17.13.39.25.58.38l1.23.78,1.27.82,1.5.79a70.84,70.84,0,0,0,16.68,6l2.72.63c.94.19,1.92.36,2.9.54l1.48.28c.49.09,1,.18,1.52.24l3.15.43,1.6.22,1.66.15,3.37.31c1.14.08,2.31.12,3.48.18l1.76.08c.3,0,.6,0,.89,0h.9c2.4,0,4.85.07,7.32-.07,1.23-.06,2.49-.08,3.73-.16L741.1,55c.63-.05,1.27-.09,1.89-.16l1.86-.24c1.24-.16,2.51-.3,3.75-.49,2.41-.44,4.95-.81,7.28-1.4l1.79-.4.9-.21.85-.24,3.44-1c1.11-.35,2.16-.74,3.25-1.11.53-.2,1.11-.37,1.6-.58l1.5-.63a61.58,61.58,0,0,0,5.7-2.72l2.45-1.53.61-.38.54-.41,1.06-.82,1.06-.82.88-.87.88-.87.45-.43.34-.45,1.37-1.83,1-1.88a11.41,11.41,0,0,0,.4-7.81,18.68,18.68,0,0,0-5.48-7.46l-2.15-1.7L775.78,17l-.63-.39-.71-.37L773,15.46l-1.41-.73-1.56-.66-1.55-.66c-.26-.11-.51-.23-.78-.33l-.84-.3-3.35-1.18c-2.39-.68-4.7-1.41-7.24-1.94l-1.86-.43c-.61-.15-1.28-.25-1.91-.37-1.3-.23-2.56-.48-3.85-.68l-3.93-.53-1-.14-1-.09-2-.18c-2.63-.29-5.3-.35-7.92-.49-1.31,0-2.62,0-3.91,0H727c-.65,0-1.29,0-1.92.07l-3.8.14c-1.25.07-2.47.2-3.69.29-2.46.15-4.77.5-7.08.79l-.86.11-.83.14-1.64.29c-1.08.2-2.19.37-3.22.59l-3,.69-1.49.34-1.4.39-2.75.78c-.47.13-.88.27-1.3.42l-1.24.44c-.82.29-1.66.56-2.44.86l-2.2.92c-5.74,2.47-9.64,5.2-12.11,7.74s-3.73,4.88-4.07,6.81c-.07.24-.13.48-.18.7a1.76,1.76,0,0,0-.1.67c0,.42,0,.83,0,1.2s0,.71,0,1,.14.59.2.85c.12.5.21.89.27,1.15A3.23,3.23,0,0,0,672.22,34.51Z"/></g><g id="Desk"><path class="cls-7" d="M888,186.88c0,.11-195.66.2-437,.2s-437-.09-437-.2,195.62-.21,437-.21S888,186.76,888,186.88Z"/></g><g id="Character_2" data-name="Character 2"><path class="cls-7" d="M722.82,96.24c-3.58-7.34-17-13.28-32.22-14.32,5.24-3.45,6.37-8.3,2.84-12.24s-11.57-6.82-20.32-7.28c3.93-3.23,4.6-7.36,1.75-10.85s-9.14-6.26-16.53-7.28c-4.55-.63-9.56-.65-13.55-1.88-4.38-1.35-6.57-3.84-9.72-5.85-8-5.11-23.63-6.95-35.52-4.18l-10.73,11,33.7,53.1c3.47,5.47,7.15,11.12,15,15.39,8.56,4.67,21.27,7.13,34,7.89,12.36.73,25.56-.12,35.79-3.59C719.94,111.83,726.4,103.57,722.82,96.24Z"/><path class="cls-7" d="M689.15,85.5a45.89,45.89,0,0,0,6-.33,36.86,36.86,0,0,0,6.45-1.4,22.41,22.41,0,0,0,6.58-3.28,7.51,7.51,0,0,0,3.26-5.34c.14-2-.81-4.25-3-6.29s-5.88-3.84-10.43-5.08a58,58,0,0,0-15.6-1.84h-.57l.25-.25c2.83-2.76,3.47-6.17,1.54-9.31s-6.6-5.79-12.18-7.28a41.44,41.44,0,0,0-4.33-.93,44.76,44.76,0,0,0-4.51-.52c-3-.22-6.2-.07-9-.72a9.84,9.84,0,0,1-3.4-1.44A12.74,12.74,0,0,1,648,39.64a19,19,0,0,0-3.93-3.47,35.4,35.4,0,0,0-11-4.56,56.31,56.31,0,0,0-11.54-1.51,63.42,63.42,0,0,0-9,.38,52.53,52.53,0,0,0-5.45.89c-.62.12-1.06.24-1.37.3a3.36,3.36,0,0,1-.47.1l.44-.13c.3-.07.73-.2,1.34-.33a47.56,47.56,0,0,1,5.45-1,63.35,63.35,0,0,1,9.11-.44A56.92,56.92,0,0,1,633.3,31.4,36.29,36.29,0,0,1,644.55,36a19.5,19.5,0,0,1,4,3.51,9.5,9.5,0,0,0,5.2,3.15c2.62.6,5.75.47,8.86.68,1.56.1,3.11.28,4.63.53a41.21,41.21,0,0,1,4.45,1c5.72,1.53,10.57,4.19,12.52,7.47s1.31,6.72-1.6,9.56l-.31-.24a58.6,58.6,0,0,1,15.93,1.9c4.65,1.27,8.38,3.12,10.64,5.21s3.22,4.36,3,6.44a7.77,7.77,0,0,1-3.42,5.45,23.09,23.09,0,0,1-6.76,3.3,37.43,37.43,0,0,1-6.58,1.37,37,37,0,0,1-4.46.27l-1.16,0Z"/><path class="cls-6" d="M553.92,186.29a17.38,17.38,0,0,0,7.59-7.06,140.81,140.81,0,0,0,12.55-23.58l-16-18.26Z"/><polygon class="cls-6" points="710.85 101.18 655.79 96.03 553.32 111.35 555.42 150.64 573.05 191.09 715.67 191.09 721.19 140.49 710.85 101.18"/><path class="cls-6" d="M710.85,101.1s23.61,2.13,33.4,7.8,105.83,51.52,110.34,64.77l-77.23-2.83-56.17-30.43Z"/><path class="cls-7" d="M720,136a4.18,4.18,0,0,1-.47-1.1,25.58,25.58,0,0,1-.88-3,33.85,33.85,0,0,1-.85-10.13,26.47,26.47,0,0,1,1-5.57,19.59,19.59,0,0,1,2-4.46l.55-.89c.21-.28.42-.53.6-.78a9.67,9.67,0,0,1,1.06-1.22,7.51,7.51,0,0,1,1.08-1,5.82,5.82,0,0,1-.84,1,11.08,11.08,0,0,0-.93,1.24l-.55.77c-.16.29-.32.58-.5.89a21.26,21.26,0,0,0-1.84,4.44,29.19,29.19,0,0,0-1,5.54,39.2,39.2,0,0,0,.65,10.1c.22,1.29.48,2.33.65,3A3.53,3.53,0,0,1,720,136Z"/><path class="cls-7" d="M558.18,156.89a2.92,2.92,0,0,1,.45.83l1,2.28,3.13,7.53c1.23,2.94,2.39,5.59,3.28,7.51l1.08,2.26c.26.54.39.83.34.84a3.42,3.42,0,0,1-.6-.8,26,26,0,0,1-1.3-2.25c-1-1.9-2.24-4.55-3.48-7.49s-2.24-5.62-2.93-7.56c-.34-1-.6-1.75-.77-2.29S558.13,156.9,558.18,156.89Z"/><path class="cls-3" d="M658.78,146.57c-.19,0-1-2-1.79-4.54s-1.28-4.59-1.09-4.6,1,2,1.78,4.54S659,146.56,658.78,146.57Z"/><path class="cls-3" d="M605.69,154.6c-.18,0,1.07-1.74,2.79-3.81a23.39,23.39,0,0,1,3.44-3.68c.18,0-1.07,1.74-2.79,3.81A23.94,23.94,0,0,1,605.69,154.6Z"/><path class="cls-3" d="M641.93,170.67c-.17.05-2.54-1.78-6-3.84s-6.61-3.57-6.46-3.64a13,13,0,0,1,2.24.91,52.51,52.51,0,0,1,4.76,2.52,39.17,39.17,0,0,1,4.09,2.79C641.52,170.16,642,170.65,641.93,170.67Z"/><path class="cls-3" d="M687.14,159.25a30.72,30.72,0,0,1-4.64,2.18,38.83,38.83,0,0,1-5.09,1.92,29.55,29.55,0,0,1,4.64-2.18A37.69,37.69,0,0,1,687.14,159.25Z"/><path class="cls-3" d="M589.84,177.59c-.08.09-4-.76-8.69-1.88s-8.47-2.11-8.38-2.19,4,.76,8.69,1.88S589.92,177.51,589.84,177.59Z"/><path class="cls-3" d="M701.94,136a19.64,19.64,0,0,1-3.74,1.8,24.44,24.44,0,0,1-4.18,1.53,20.12,20.12,0,0,1,3.73-1.79A26,26,0,0,1,701.94,136Z"/><path class="cls-3" d="M691.77,116.35c-.18,0,.68-1.66,1.93-3.65a17.7,17.7,0,0,1,2.6-3.56c.18,0-.68,1.67-1.93,3.66A16.72,16.72,0,0,1,691.77,116.35Z"/><path class="cls-3" d="M639.67,129.93c0,.09-3.17.17-7.08.17s-7.08-.08-7.08-.17,3.17-.17,7.08-.17S639.67,129.84,639.67,129.93Z"/><path class="cls-3" d="M568.88,152.93c-.18,0,1.33-1.93,3.36-4.22a31,31,0,0,1,4-4.09c.18,0-1.33,1.93-3.36,4.22A30.28,30.28,0,0,1,568.88,152.93Z"/><path class="cls-3" d="M735.31,138.53a11.31,11.31,0,0,1-1.77-3.29c-.79-1.84-1.28-3.34-1.09-3.36a11.31,11.31,0,0,1,1.77,3.29C735,137,735.5,138.51,735.31,138.53Z"/><path class="cls-3" d="M752.94,121.61c-.06.09-3.66-.39-8.05-1.07s-7.89-1.3-7.83-1.39,3.66.39,8,1.06S753,121.52,752.94,121.61Z"/><path class="cls-3" d="M762.06,140.47c-.19,0,0-1.27.52-2.8a7.05,7.05,0,0,1,1.2-2.74c.19,0,0,1.26-.52,2.79A7.23,7.23,0,0,1,762.06,140.47Z"/><path class="cls-3" d="M803.4,149.58c-.15.06-3.69-1.75-7.91-4a81.91,81.91,0,0,1-7.39-4.27c.14-.06,3.68,1.75,7.91,4A81.91,81.91,0,0,1,803.4,149.58Z"/><path class="cls-3" d="M772.75,158.48a59.63,59.63,0,0,1-6.2-3.79,47.07,47.07,0,0,1-5.66-4,59.15,59.15,0,0,1,6.21,3.79A45.4,45.4,0,0,1,772.75,158.48Z"/><path class="cls-3" d="M810.84,161.13c-.11.09-3.39-.81-7.65-1.67s-7.87-1.38-7.82-1.47a52.24,52.24,0,0,1,8.09,1.15A43.07,43.07,0,0,1,810.84,161.13Z"/><path class="cls-3" d="M609.5,182c-.2,0-.35-1.53-.35-3.43s.15-3.44.35-3.44.34,1.54.34,3.44S609.69,182,609.5,182Z"/><path class="cls-3" d="M706.38,169.59a24.37,24.37,0,0,1-4.12-1.94,18.25,18.25,0,0,1-3.6-2.18,25.88,25.88,0,0,1,4.12,1.95A19.17,19.17,0,0,1,706.38,169.59Z"/><path class="cls-3" d="M711.22,151c-.19,0-.35-1.38-.36-3.09s.14-3.09.34-3.09.35,1.38.35,3.09S711.41,151,711.22,151Z"/><path class="cls-3" d="M656.44,165.48a13,13,0,0,1-1.85-3.56c-.83-2-1.35-3.61-1.16-3.63a12.91,12.91,0,0,1,1.84,3.56C656.1,163.84,656.62,165.46,656.44,165.48Z"/><path class="cls-3" d="M587.12,162.65c-.1.08-3.32-.78-7.19-1.92a65.42,65.42,0,0,1-6.84-2.21c.1-.08,3.32.78,7.2,1.92A65.67,65.67,0,0,1,587.12,162.65Z"/><path class="cls-3" d="M603.21,130.77c.08,0-.12.61-.66,1.54a19.58,19.58,0,0,1-2.73,3.54,27.15,27.15,0,0,1-3.81,3.3,9.54,9.54,0,0,1-2,1.23A10.1,10.1,0,0,1,595.6,139a41.16,41.16,0,0,0,3.59-3.31,33.33,33.33,0,0,0,2.89-3.47A7.52,7.52,0,0,1,603.21,130.77Z"/><path class="cls-3" d="M677.59,122.53a31.55,31.55,0,0,0-4.24-2.89,52.13,52.13,0,0,0-5.58-2.27,19.5,19.5,0,0,1,6.09,2C676.72,120.9,677.75,122.51,677.59,122.53Z"/><path class="cls-3" d="M688.83,101.22a27,27,0,0,1-4.44,1,32.92,32.92,0,0,1-4.69.7,28.28,28.28,0,0,1,4.44-1A34.71,34.71,0,0,1,688.83,101.22Z"/><path class="cls-8" d="M657.35,91S676,84.56,667.3,70.62C663,63.69,651.83,53.3,642.14,44.94c-8.73-7.52-28.83-14.81-49.93-9.74,0,0-47.74,9.35-32.75,27.12l44,47.84c7,7.57,24.74,11.18,40.6,8.24h0c16.41-3,24.77-12,18.77-20Z"/><path class="cls-7" d="M644.25,58.65c.94.86.22,2-1.6,2.46s-4,.19-5-.67-.22-2,1.59-2.45S643.32,57.79,644.25,58.65Z"/><path class="cls-7" d="M645.3,54.07c-.2.32-3.7,0-7.34.88s-5.43,2.4-6,2.28c-.3,0-.26-.55.5-1.24A10.39,10.39,0,0,1,637,53.9a19.34,19.34,0,0,1,6.11-.43C644.64,53.63,645.41,53.93,645.3,54.07Z"/><path class="cls-7" d="M609.81,66.41c.93.86.21,2-1.6,2.45s-4.05.2-5-.66-.22-2,1.6-2.45S608.87,65.55,609.81,66.41Z"/><path class="cls-7" d="M611.71,62.35c-.21.32-3.7,0-7.34.87s-5.43,2.41-6,2.28c-.29,0-.25-.54.51-1.23a10.49,10.49,0,0,1,4.57-2.1,19.56,19.56,0,0,1,6.11-.42C611.05,61.9,611.82,62.2,611.71,62.35Z"/><path class="cls-7" d="M635.27,72c-.12-.1,2-.83,5.4-1.94.89-.27,1.68-.57,1.53-.92s-1-.78-2-1.2L634,65.11c-8.75-4-15.56-7.44-15.23-7.61s7.7,3,16.44,7l6.12,2.86c.87.44,2.06.88,2.26,1.68.09.4-.35.81-.87,1a9,9,0,0,1-1.47.48A43.34,43.34,0,0,1,635.27,72Z"/><path class="cls-9" d="M657.35,91a141.84,141.84,0,0,1-40,3.82s17.44,7.3,42.7-.21Z"/><path class="cls-9" d="M639.8,78.48c.16-.69-.63-1.41-1.9-1.73a6.8,6.8,0,0,0-4,.23c-.44-.66-2-1-3.36-1a5.63,5.63,0,0,0-3.28,1.17c-1.32,1.16-.69,2.75,1.33,3.63a12.8,12.8,0,0,0,7.61.39c2.39-.64,3.86-2,3.76-3.31"/><path class="cls-7" d="M639.66,81.23c-.6.14-2.24-1.87-6.9-2.61s-8.83.33-9.09.06.65-.58,2.47-1a21.74,21.74,0,0,1,7.51-.16,10.58,10.58,0,0,1,5.51,2.23C640,80.6,640,81.19,639.66,81.23Z"/><path class="cls-7" d="M592.78,61.52c-.18-.57,3.62-1.3,7.51-2.67S606.94,56,608,56.29c.48.14.39.74-.46,1.57a13.42,13.42,0,0,1-4.85,2.64,26.49,26.49,0,0,1-6.72,1.34C594.07,62,592.88,61.78,592.78,61.52Z"/><path class="cls-7" d="M626.92,52.19c.21-.56,3.13-.78,6.13-1.52s5.21-1.68,6.24-1.41c.47.14.5.64-.2,1.3a9.69,9.69,0,0,1-4.25,1.92,18.47,18.47,0,0,1-5.71.44C627.63,52.78,626.85,52.46,626.92,52.19Z"/><path class="cls-7" d="M601,108.21c-1.86-1.53-4-3.06-4.48-4.82s.6-3.52.44-5.29c-.41-4.44-8.39-7.66-15.13-10.65s-13.35-7.36-10.11-11.52,14.06-5.65,16.74-9.75c2.19-3.36-2.09-7.08-.18-10.48,2.18-3.86,11.13-5.64,16.48-8.68,6.64-3.76,11.39-9.82,5.25-13.78l-4.3-.54c-2.64-2.16-8.8-2.77-13.69-2a35.42,35.42,0,0,0-12.09,4.54c-3.37,1.91-6.54,4-10.81,5.36-7.3,2.4-18,3.11-21.27,7.11-2.7,3.33,1.47,7.52-2.49,10.53-3.2,2.43-10.29,2.92-14.07,5.14-2.9,1.7-3.32,4.16-2.2,6.3s3.58,4,6,5.92c-10.63,2-21.71,4.11-29.19,8.3S496,95,503.74,99.11c3.45,1.82,9,3.73,7.16,6-.71.88-2.39,1.47-3.89,2.07-9.78,3.92-14.18,10.78-10.74,16.74s14.54,10.67,27.07,11.5,25.8-2.26,32.37-7.55c-1.36,2.88,3.16,5.83,8.79,6.92s12,.73,17.87.11c6.7-.69,13.51-1.77,18.53-4.05,6.13-2.79,8.75-7.1,8.24-11.18S605.28,111.72,601,108.21Z"/><path class="cls-7" d="M609.94,39.14c2.51,2.81-3.77,8.91-8.37,11S591.35,54.07,589.45,57c-2.89,4.46,4.21,9.42,1.07,13.84-2.22,3.11-9.23,5.4-8.89,8.69.42,4,11.17,5.8,14.06,9.55,2.46,3.19.68,6.3,3.09,9.5,1.51,2,4.86,4,7.73,5.63,6.25,3.48,10.83,8.12,9.18,12.83a21.78,21.78,0,0,1-15.86,14.29L571.61,113l-2.19-29.28-1.76-14.65,10.87-3.91,4.08-14.44Z"/><path class="cls-8" d="M542.78,96l-38.4,60.48s-16.76,35.12,21.49,34.35,32-10.33,32-10.33l.38-72.23s7-6.09,6.95-10.77c-.06-5.21,2.5-20.15,2.5-20.15s9.61-13.57,6.26-14.17c-6.39-1.15-17.14,13.81-17.14,13.81s3.06,2.82-2.18,10.51S542.78,96,542.78,96Z"/><path class="cls-10" d="M605.63,33.24l.33.19a4,4,0,0,1,.81.6,5.28,5.28,0,0,1,1.45,2.65A6.63,6.63,0,0,1,607.8,41c-.74,1.71-3.18,3.34-6.2,4.86s-6.88,3-10.26,4.81a15.27,15.27,0,0,0-4.23,3.2c-1.07,1.21-1.83,2.54-3.07,3.83a9.94,9.94,0,0,1-2.41,1.83,17.81,17.81,0,0,1-3.52,1.4c-2.6.78-5.52,1.3-8,2.19-5.1,1.73-8.36,4.65-10.09,7.73s-2,6.3-2.49,9.35-1,6-3,8.72a19.79,19.79,0,0,1-9.23,6.57,30.3,30.3,0,0,1-6.69,1.61,64.59,64.59,0,0,1-6.81.38,61.07,61.07,0,0,0-6.12.32,20,20,0,0,0-4.88,1.12,4.93,4.93,0,0,0-2.53,1.9c-.4.69-.56,1.35-.86,1.93a4.55,4.55,0,0,1-3.12,2.22,6.27,6.27,0,0,1-1.43.17l-.5,0a8,8,0,0,0,1.87-.2,4.28,4.28,0,0,0,2.92-2.19c.27-.57.41-1.23.81-1.94a4.89,4.89,0,0,1,2.6-2,20,20,0,0,1,5-1.19c1.93-.24,4-.3,6.19-.35a61.71,61.71,0,0,0,6.71-.4A29.25,29.25,0,0,0,545,95.27a19.21,19.21,0,0,0,9-6.44c1.88-2.64,2.47-5.6,2.89-8.64s.67-6.26,2.49-9.42a15.7,15.7,0,0,1,3.86-4.46,21.82,21.82,0,0,1,6.51-3.46c2.6-.91,5.53-1.43,8.06-2.19a16.41,16.41,0,0,0,3.39-1.33,10.13,10.13,0,0,0,2.31-1.75c1.22-1.26,2-2.58,3.09-3.82a16.11,16.11,0,0,1,4.36-3.27c3.46-1.88,7.31-3.27,10.34-4.79a26.34,26.34,0,0,0,3.93-2.31,6.23,6.23,0,0,0,2.78-6.7,5.25,5.25,0,0,0-1.32-2.63A10.79,10.79,0,0,0,605.63,33.24Z"/><path class="cls-10" d="M605.63,33.24a.91.91,0,0,1,.18.13l.44.4a1.53,1.53,0,0,1,.15,1.72c-.78,1.52-3.95,3.18-8.06,4.92-2.07.87-4.3,1.86-6.86,2.81a55.54,55.54,0,0,0-7.61,3.31A11,11,0,0,0,581,48.79a10.82,10.82,0,0,0-1.56,2.7,10.73,10.73,0,0,1-1.71,2.84,10.4,10.4,0,0,1-3.81,2.44,31.53,31.53,0,0,1-5.41,1.53c-1.89.4-3.79.72-5.64,1s-3.68.63-5.37,1a28.77,28.77,0,0,0-4.67,1.38,9.48,9.48,0,0,0-5.14,4.14c-.86,1.5-1.32,3-2,4.26-1.37,2.63-4.51,4.44-7.3,5.11a14.73,14.73,0,0,1-3.42.43c-.4,0-.71,0-.92,0l-.31,0s.43,0,1.23,0a14.69,14.69,0,0,0,3.3-.48c2.66-.68,5.67-2.47,7-5.05.68-1.29,1.11-2.74,2-4.28a9.62,9.62,0,0,1,5.29-4.3,28.19,28.19,0,0,1,4.79-1.43c1.73-.4,3.57-.72,5.42-1s3.75-.64,5.59-1a30.44,30.44,0,0,0,5.25-1.48,9.76,9.76,0,0,0,3.62-2.32,10.28,10.28,0,0,0,1.67-2.78,11.41,11.41,0,0,1,1.62-2.74,11.42,11.42,0,0,1,3-2.34A56.58,56.58,0,0,1,591.12,43c2.58-.94,4.81-1.91,6.9-2.77,4.13-1.72,7.29-3.33,8.12-4.77a1.52,1.52,0,0,0,0-1.67l-.38-.4C605.66,33.3,605.62,33.25,605.63,33.24Z"/><path class="cls-10" d="M591.3,68.76a1.36,1.36,0,0,1,0,.78,4.18,4.18,0,0,1-1.45,2.1,16.46,16.46,0,0,1-4.75,2.64A23.62,23.62,0,0,0,579,77.74c-3.58,2.9-5.4,7.17-3.11,11.56a10.2,10.2,0,0,0,1.06,1.62,11.22,11.22,0,0,0,1.45,1.6c1.09,1,2.4,2.08,3.73,3.14,2.64,2.08,5.42,4.39,5.94,7.08a4.18,4.18,0,0,1-1.4,3.87,18,18,0,0,1-4.7,3c-1.79.88-3.67,1.68-5.4,2.51s-3.33,1.68-4.79,2.56a24.53,24.53,0,0,0-6.65,5.49,7,7,0,0,0,.16,9.9,14.07,14.07,0,0,0,3.89,2.88,26.48,26.48,0,0,0,4.78,1.82l-.37-.08-1.05-.27c-.44-.13-1-.31-1.6-.52s-1.28-.5-2-.86a14.32,14.32,0,0,1-4-2.9,7.88,7.88,0,0,1-2.26-4.52,7.77,7.77,0,0,1,1.91-5.55,24.52,24.52,0,0,1,6.7-5.59,53.82,53.82,0,0,1,4.82-2.59c1.74-.84,3.61-1.64,5.38-2.52a17.6,17.6,0,0,0,4.56-3,4,4,0,0,0,1.33-3.69,7.88,7.88,0,0,0-2.11-3.66,34.15,34.15,0,0,0-3.72-3.28c-1.32-1-2.64-2.09-3.74-3.16A12,12,0,0,1,576.33,91a11.15,11.15,0,0,1-1.08-1.66c-2.3-4.48-.39-8.83,3.31-11.77a24.15,24.15,0,0,1,6.31-3.48,17,17,0,0,0,4.75-2.55,4.61,4.61,0,0,0,1.55-2A4.25,4.25,0,0,0,591.3,68.76Z"/><polygon class="cls-5" points="573.63 209.39 691.37 204.52 590.08 190.05 481.81 191.4 573.63 209.39"/><path class="cls-7" d="M573.63,209.39l-1.68-.31-4.89-.94-18.59-3.6-66.77-13-1.31-.26h1.41l108.27-1.38h.11l7.89,1.12,93.39,13.37,1.6.22-1.66.07-85.2,3.46-24,1-6.35.24-1.63.06h-.55l.56,0,1.64-.08,6.36-.28,24-1,85.11-3.58-.06.3-93.41-13.33-7.9-1.13h.11l-108.27,1.32.1-.27,66.62,13.11,18.55,3.68,4.88,1C573.07,209.26,573.63,209.39,573.63,209.39Z"/><polygon class="cls-2" points="691.37 204.52 804.63 200.43 696.62 190.43 594.25 190.43 691.37 204.52"/><path class="cls-7" d="M691.37,204.52l-1.77-.23-5.18-.73-19.69-2.82-70.56-10.17-1.95-.28h2l102.37,0h.07l9.73.9,98.27,9.11,2.3.22-2.33.08-82,2.9-23.09.79-6.09.2-1.56,0h-.53l.54,0,1.56-.07,6.1-.24,23.09-.88,82-3,0,.3-98.29-9.08-9.73-.9h.06l-102.37,0,.09-.29,70.44,10.29,19.66,2.89,5.17.77Z"/><path class="cls-5" d="M691.37,204.52s2.66-12,23.08-11.05,47.52,7.7,69.79,7.7l23.91-.91-51-5.14S630.61,182,630.61,182.45s-42.57-4.61-41.05,7.74Z"/><path class="cls-7" d="M691.37,204.52l-1.83-.24-5.4-.75-20.59-2.86-74.07-10.34-.2,0v-.1a4.6,4.6,0,0,1,.92-3.44,9.63,9.63,0,0,1,4.36-2.83c4-1.47,9.11-2,14.13-2.21s10.26-.06,15.48.23c2.63.12,5.2.38,7.87.41,2.64.22,5.28.47,7.94.72,21.29,2,43.83,4.35,67.2,6.73l52.74,5.42,48.31,4.88,2.16.22-2.2.08-23.92.9h0a190.12,190.12,0,0,1-23-1.74c-7.17-.91-13.84-1.95-20.13-2.89s-12.19-1.8-17.74-2.39c-2.77-.3-5.45-.53-8-.67a43.51,43.51,0,0,0-7.34.09,24.14,24.14,0,0,0-10.28,3.21,15.7,15.7,0,0,0-4.39,4,12.56,12.56,0,0,0-1.56,2.7c-.14.31-.22.54-.28.7a1.78,1.78,0,0,1-.09.24,4.47,4.47,0,0,1,.28-1,11.66,11.66,0,0,1,1.49-2.72,15.19,15.19,0,0,1,4.35-4,24.32,24.32,0,0,1,10.41-3.29,44.83,44.83,0,0,1,7.46-.12c2.59.15,5.29.37,8.07.67,5.57.58,11.49,1.42,17.78,2.35s13,2,20.13,2.87a189.27,189.27,0,0,0,22.9,1.7h0l23.91-.91,0,.3-48.32-4.86L707,190.14c-23.37-2.38-45.91-4.69-67.18-6.74-2.66-.25-5.3-.51-7.92-.72l-1-.07h-.26c0-.06,0-.11,0-.12s.54,0,.22.05a.57.57,0,0,1-.21.1h-.12a5,5,0,0,1-.57,0c-.68,0-1.34-.07-2-.12l-3.92-.24c-5.19-.29-10.34-.43-15.35-.23s-10,.73-13.81,2.13a9.26,9.26,0,0,0-4.17,2.7,4.37,4.37,0,0,0-.9,3.32l-.21-.13,73.79,10.47,20.62,2.94,5.44.78Z"/><rect class="cls-7" x="547.64" y="194.59" width="62.22" height="2.71" rx="0.97"/><rect class="cls-7" x="543.83" y="195.43" width="5.36" height="1.22" rx="0.43"/><polygon class="cls-7" points="607.58 194.62 615.05 195.56 615.05 195.95 607.58 197.28 607.58 194.62"/><path class="cls-7" d="M547.64,196c-.1,0-.17,0-.17-.08v-.35c0-1,1.93-1.79,4.3-1.79h19.16c.1,0,.17,0,.17.08s-.07.08-.17.08H551.77c-2.19,0-4,.73-4,1.63V196C547.8,196,547.73,196,547.64,196Z"/><path class="cls-5" d="M576.13,205.36c2.13,0,77.84-2.91,77.84-2.91"/><path class="cls-7" d="M654,202.45a4.07,4.07,0,0,1-.78.07l-2.26.11-8.34.37-27.52,1.08-27.54,1-8.34.25-2.27.06h-.79s.27,0,.79-.06l2.26-.12,8.34-.36L615,203.74l27.52-1,8.35-.26,2.27-.05Z"/><path class="cls-5" d="M563.63,202.84c2.13,0,77.84-2.9,77.84-2.9"/><path class="cls-7" d="M641.47,199.94a7.31,7.31,0,0,1-.78.06l-2.26.12-8.34.36-27.52,1.08-27.54,1-8.34.26-2.27,0a4.32,4.32,0,0,1-.79,0l.79-.06,2.26-.12,8.34-.36,27.52-1.08,27.52-1,8.35-.25,2.27-.06A5.93,5.93,0,0,1,641.47,199.94Z"/><path class="cls-8" d="M801.1,169.08l-76.71,6.16s-40.1-3.73-45.21-3.3c-10,.85-34.07,11.51-34.07,11.51-1.59,5,12.41,2.12,12.41,2.12s.11,1.14,4,2.11c3.37.85,10.09-.73,10.09-.73s-1.71,1.1,3.65,2.21,12.57-.83,12.57-.83,1.21,2,6.59,2c5.22,0,18.34-2,18.34-2,17.88,4.81,28.21,1,28.21,1l61.89,2.59,54-1.34s12.53-12.26-11.63-26.13Z"/><path class="cls-9" d="M696.68,176.93s-.63,0-1.78.07l-4.86.08-7.21.07a25.33,25.33,0,0,0-4.1.19,9.46,9.46,0,0,0-1.85.5l-1.78.73c-4.79,2-9.16,3.74-12.34,5L659,185.06a10.84,10.84,0,0,1-1.45.51,10.17,10.17,0,0,1,1.28-.61l3.65-1.57c3.1-1.31,7.42-3.11,12.22-5.08l1.78-.73a9.86,9.86,0,0,1,2.06-.55,12.94,12.94,0,0,1,2.24-.19H690l4.86,0A13.81,13.81,0,0,1,696.68,176.93Z"/><path class="cls-9" d="M701.83,180.39a9.19,9.19,0,0,1-1.21.14l-3.35.26c-2.84.2-6.78.47-11.21.74l.18,0-1,.38c-3.72,1.44-7.11,2.73-9.58,3.65-1.24.46-2.25.83-3,1.07a7.16,7.16,0,0,1-1.14.36,5.07,5.07,0,0,1,1-.46c.66-.28,1.62-.68,2.82-1.16,2.39-1,5.73-2.29,9.45-3.73l1-.37.08,0h.1c4.42-.26,8.38-.49,11.23-.63l3.38-.16A9.13,9.13,0,0,1,701.83,180.39Z"/><path class="cls-9" d="M713.62,184.29s-1.53.15-4,.29-6,.31-9.77.48l.14,0h0c-3.31.95-6.34,1.8-8.54,2.4s-3.59,1-3.64.91a32.21,32.21,0,0,1,3.39-1.11c2.14-.66,5.12-1.54,8.44-2.49h0l.07,0h.08c3.82-.16,7.28-.3,9.78-.38S713.62,184.24,713.62,184.29Z"/></g><g id="Character_1" data-name="Character 1"><path class="cls-7" d="M240.29,24c-48.93-4.25-53.47,18.14-53.15,24.57s4.67,12.11,9.14,18.13,1.63,14.22-2.13,20.36c-4.41,7.19-18.43,13.78-13.42,20.86,3.94,5.57,18.46,8.29,20.24,14.13,1.41,4.63-5.95,8.65-8.66,13.12-5.12,8.43,6.62,16.88,17.65,23.71,4.55,2.82,10.07,5.88,17.26,5.93,9.94.07,15.85-5.38,20.34-9.87C260,142.53,278.5,131.69,301,123.68"/><path class="cls-10" d="M210.21,57.53a15.26,15.26,0,0,1-3,.55,40.76,40.76,0,0,1-7.75.12,34.47,34.47,0,0,1-7.29-1.33,9.72,9.72,0,0,1-2.53-1c.07,0,1,.33,2.77.79a41.79,41.79,0,0,0,7.16,1.2,48,48,0,0,0,7.55,0C209,57.67,210.17,57.47,210.21,57.53Z"/><path class="cls-10" d="M195.53,114.5a19,19,0,0,1-2.74-1.87,14.92,14.92,0,0,1-4.53-5.89,9.63,9.63,0,0,1,1.15-9.33,23.66,23.66,0,0,1,5-5c2-1.63,4.36-3.24,6.49-5,4.28-3.43,6.85-7.15,7.73-10.63a13.33,13.33,0,0,0,.5-5,15.42,15.42,0,0,0-1-4.32,19.58,19.58,0,0,0-3.8-6A19.39,19.39,0,0,0,202.83,60c-.35-.35-.53-.54-.5-.55A6.1,6.1,0,0,1,203,60a18,18,0,0,1,1.61,1.52,19.35,19.35,0,0,1,4,6,15.31,15.31,0,0,1,1.06,4.36,13.28,13.28,0,0,1-.43,5c-.86,3.53-3.45,7.31-7.78,10.78-2.16,1.73-4.47,3.34-6.51,5A23.89,23.89,0,0,0,190,97.51a9.62,9.62,0,0,0-1.28,9.18,14.88,14.88,0,0,0,4.29,5.87C194.53,113.84,195.6,114.47,195.53,114.5Z"/><path class="cls-6" d="M357.25,90.05s24.53,0,41.23,18.11c12.39,13.43,47.71,59.16,42.14,72a14.69,14.69,0,0,1-13.91,9.38c-15.5.15-26.35-.29-26.35-.29l-19.82-23.19L361.42,133S330.62,93.19,357.25,90.05Z"/><path class="cls-6" d="M387.93,188.54l-6.15-21L357.25,90.05l-30.5-1.15-57.32,5.76s-33.82,2.77-51.17,9c0,0,5.15,42.43,5.44,46.85.64,9.66,12.53,18.32,24.49,26l3.14,2-1.62,12.16Z"/><path class="cls-6" d="M244.54,97.69s-24.12,2.65-39.62,12.79C192.4,118.66,134,155.1,134,155.1s-30,8.5-35.58,17.28.08,16.55,13.09,16.55,46.63-4.51,46.63-4.51l65.34-37.86,1.48,6.52L239.94,120Z"/><path class="cls-7" d="M355,123.51s.12.14.29.4.4.7.68,1.18l2.46,4.35c2.1,3.67,5.09,8.72,8.46,14.29s6.45,10.57,8.7,14.25l2.61,4.32.68,1.18c.15.28.22.42.2.42s-.14-.13-.33-.39l-.81-1.16c-.69-1.06-1.65-2.51-2.82-4.29-2.35-3.63-5.52-8.66-8.89-14.23s-6.29-10.64-8.27-14.32c-1-1.85-1.77-3.34-2.25-4.38l-.56-1.2C355,123.66,355,123.51,355,123.51Z"/><path class="cls-7" d="M332.43,165.68a16.45,16.45,0,0,1-1.68.19c-.55.06-1.23.12-2,.16s-1.69.11-2.69.12c-2,.07-4.38.06-7-.06s-5.5-.38-8.45-.79-5.65-1-8-1.55-4.43-1.2-6.07-1.79c-.84-.27-1.53-.56-2.16-.81s-1.15-.46-1.56-.66a7.28,7.28,0,0,1-1.24-.61c.09,0,1.92.79,5.24,1.88,1.65.55,3.71,1.13,6.06,1.7s5.06,1.08,8,1.5,5.73.66,8.33.81,4.95.17,6.93.14C330,165.84,332.41,165.61,332.43,165.68Z"/><path class="cls-7" d="M228.32,124.92s0,.14-.13.39-.31.64-.52,1.08-.52,1-.8,1.71-.65,1.43-.94,2.28a39.15,39.15,0,0,0-1.74,6,34.26,34.26,0,0,0,.24,14.81,39.8,39.8,0,0,0,1.95,6c.31.85.7,1.6,1,2.27s.6,1.24.85,1.71l.56,1.07c.12.25.17.38.14.39a1.46,1.46,0,0,1-.28-.37l-.68-1.06c-.29-.46-.63-1-1-1.69s-.77-1.42-1.11-2.27a35.06,35.06,0,0,1-2.1-6,32.44,32.44,0,0,1-.25-14.88,35.39,35.39,0,0,1,1.9-6c.32-.85.73-1.61,1-2.27s.64-1.24.92-1.71l.64-1.06A1.61,1.61,0,0,1,228.32,124.92Z"/><path class="cls-7" d="M362.54,92.91c.06.06-2.05.52-4.93,1.66a23.51,23.51,0,0,0-8.71,5.6,8.74,8.74,0,0,0-2.44,7,17.83,17.83,0,0,0,.84,3,2.55,2.55,0,0,1-.54-.76,7.19,7.19,0,0,1-.79-2.19,8.28,8.28,0,0,1,2.3-7.17,23.09,23.09,0,0,1,9-5.66,36.36,36.36,0,0,1,3.74-1.15A10.22,10.22,0,0,1,362.54,92.91Z"/><path class="cls-3" d="M359.39,132.37a3.72,3.72,0,0,1-.69.67,10.35,10.35,0,0,1-2.92,1.62,26.58,26.58,0,0,1-6.19,1.47,42.92,42.92,0,0,1-9.06.09A95.92,95.92,0,0,1,330,134.6c-3.67-.72-7.54-1.56-11.82-2.08a55,55,0,0,0-6.65-.41,46.7,46.7,0,0,0-6.87.57,73.24,73.24,0,0,0-13,3.52c-4.17,1.47-8.14,3-12.38,4.23a54.83,54.83,0,0,1-13.21,2.23,40.69,40.69,0,0,1-6.51-.32,46.66,46.66,0,0,1-5.72-1.14c-3.53-.92-6.53-2-9.33-2.92a55.1,55.1,0,0,0-14.37-3.11,34.85,34.85,0,0,0-5.75.16,2.09,2.09,0,0,1,.37-.07c.24,0,.6-.09,1.09-.13a30.24,30.24,0,0,1,4.32-.1,54.76,54.76,0,0,1,14.61,3c2.82.91,5.83,2,9.32,2.87a45.87,45.87,0,0,0,5.62,1.1,38.33,38.33,0,0,0,6.31.29,53.53,53.53,0,0,0,12.91-2.2c4.19-1.18,8.13-2.73,12.32-4.22a74.47,74.47,0,0,1,13.21-3.56,47.7,47.7,0,0,1,7.07-.57,53.25,53.25,0,0,1,6.8.43c4.35.53,8.23,1.39,11.88,2.12A95.33,95.33,0,0,0,340.62,136a42.2,42.2,0,0,0,8.88,0,26.36,26.36,0,0,0,6.12-1.39,11.82,11.82,0,0,0,3-1.54C359.14,132.6,359.36,132.36,359.39,132.37Z"/><path class="cls-3" d="M410.31,122.52s-.07.1-.26.26a6.19,6.19,0,0,1-1,.7,17.13,17.13,0,0,1-4.92,1.89,42,42,0,0,1-8.91,1,106.41,106.41,0,0,1-11.14-.52c-3.9-.32-7.62-.64-11-.64a48.08,48.08,0,0,0-8.83.74,22,22,0,0,0-5.17,1.57c-1.05.49-1.51.83-1.57.81s.09-.1.31-.26a9.27,9.27,0,0,1,1.08-.65,20.3,20.3,0,0,1,5.17-1.7,46.58,46.58,0,0,1,9-.83c3.47,0,7.22.29,11.12.62s7.62.6,11,.54a43.24,43.24,0,0,0,8.73-1,18.83,18.83,0,0,0,4.92-1.75C409.85,122.86,410.24,122.5,410.31,122.52Z"/><path class="cls-3" d="M421.26,139.13s-.06.1-.22.28a6.8,6.8,0,0,1-.8.77,17.37,17.37,0,0,1-4,2.49,31.68,31.68,0,0,1-3.45,1.38,39.71,39.71,0,0,1-4.48,1.16A45.22,45.22,0,0,1,397,146c-4.08-.21-7.82-.76-11.24-1.13a69.25,69.25,0,0,0-9.17-.53,34.73,34.73,0,0,0-6.08.59c-1.37.27-2.07.5-2.1.47a1.8,1.8,0,0,1,.48-.19c.32-.11.83-.25,1.51-.41a32.2,32.2,0,0,1,6.17-.71,68.8,68.8,0,0,1,9.33.46c3.45.36,7.17.89,11.17,1.11a45.86,45.86,0,0,0,11.07-.7,42,42,0,0,0,4.4-1.11,29.79,29.79,0,0,0,3.42-1.31,20.4,20.4,0,0,0,4.07-2.38C420.83,139.49,421.2,139.11,421.26,139.13Z"/><path class="cls-3" d="M228.25,159.78a19.35,19.35,0,0,0,5.2-1.41c1.48-.62,3-1.52,4.91-2.53a40.12,40.12,0,0,1,7.31-2.94,50.12,50.12,0,0,1,10.67-1.9,46.2,46.2,0,0,1,6.34,0,47.09,47.09,0,0,1,6.47.92c4.26.87,8.33,2.18,12.84,3.19a47.57,47.57,0,0,0,7.12,1.08,36.79,36.79,0,0,0,3.79,0c1.27-.07,2.53-.19,3.78-.37,5-.75,9.33-2.2,13.76-3.34a117.54,117.54,0,0,1,13.35-2.65,145.46,145.46,0,0,1,24.06-1.37A135.7,135.7,0,0,1,364,149.86c1.87.25,3.27.52,4.23.69l1.08.21.36.08-.38-.05-1.11-.17c-1-.16-2.38-.4-4.25-.63a146.26,146.26,0,0,0-39.92.19,117.09,117.09,0,0,0-13.22,2.64c-4.39,1.13-8.73,2.61-13.88,3.38-1.28.18-2.59.31-3.91.38a36.69,36.69,0,0,1-3.93-.06,49.08,49.08,0,0,1-7.32-1.1c-4.56-1-8.61-2.34-12.81-3.21a45,45,0,0,0-6.31-.91,45.54,45.54,0,0,0-6.18,0,49.48,49.48,0,0,0-10.5,1.83,40.47,40.47,0,0,0-7.27,2.86c-1.9,1-3.5,1.88-5,2.5a17.63,17.63,0,0,1-3.85,1.12A11,11,0,0,1,228.25,159.78Z"/><path class="cls-3" d="M212.15,152.52a6.14,6.14,0,0,0-2.18-.58,16.13,16.13,0,0,0-2.93,0c-1.14.08-2.43.24-3.91.34a21,21,0,0,1-9.73-1.63,19.18,19.18,0,0,1-4.07-2.35,18.18,18.18,0,0,1-3-3c-1.7-2.11-3-4.18-4.87-5.88a17.47,17.47,0,0,0-6.86-3.72,24.08,24.08,0,0,0-3.58-.77,23,23,0,0,0-2.93-.15c-1.62,0-2.48.22-2.5.18a3.34,3.34,0,0,1,.61-.13,14.13,14.13,0,0,1,1.88-.19,21.77,21.77,0,0,1,3,.1,22.3,22.3,0,0,1,3.74.75,17.88,17.88,0,0,1,7.18,3.77,44.64,44.64,0,0,1,4.95,5.91,16.68,16.68,0,0,0,6.82,5.21,20.58,20.58,0,0,0,4.62,1.39,21.77,21.77,0,0,0,4.63.25,40.27,40.27,0,0,1,7-.26,5.71,5.71,0,0,1,1.7.44C212,152.42,212.17,152.51,212.15,152.52Z"/><path class="cls-3" d="M224.8,132.67a1.86,1.86,0,0,1-.44.1A11.77,11.77,0,0,1,223,133a21.16,21.16,0,0,1-5.1-.2,26,26,0,0,1-6.53-1.94,41.81,41.81,0,0,1-6-3.57,35,35,0,0,0-6.07-3.43,25.29,25.29,0,0,0-6.54-1.67,20.89,20.89,0,0,0-4.92,0c-1.14.15-1.72.33-1.76.29a2.16,2.16,0,0,1,.41-.13,11.62,11.62,0,0,1,1.27-.29,19.84,19.84,0,0,1,5.11-.11,25.74,25.74,0,0,1,6.83,1.66,34.22,34.22,0,0,1,6.22,3.47,44.31,44.31,0,0,0,5.88,3.54,25.36,25.36,0,0,0,6.25,1.94,21.69,21.69,0,0,0,4.91.31C224.15,132.76,224.77,132.63,224.8,132.67Z"/><path class="cls-11" d="M287.36,34.77c-15.46-17.65-60.88-7.16-60.88-7.16C205.06,31.59,202,43.78,207,52.1c5.5,9.24,12.93,20.41,20,26.75,14.19,12.75,36,10.62,36,10.62l7.28,9.08c6.38,7.94,24.35,11.72,40,8.41h0c15.14-3.22,22.52-11.93,16.68-19.69Z"/><path class="cls-7" d="M219.57,61.13c.61.93,2.67,1.43,4.6,1.13s3-1.3,2.39-2.23-2.67-1.44-4.59-1.14S219,60.2,219.57,61.13Z"/><path class="cls-7" d="M216.38,58.8c.6.14,2.48-1.32,6.18-2s7.09-.26,7.32-.57c.13-.13-.61-.46-2.11-.67a19.15,19.15,0,0,0-6.06.17A11.07,11.07,0,0,0,217,57.6C216.18,58.25,216.1,58.73,216.38,58.8Z"/><path class="cls-7" d="M254.16,55.52c.61.93,2.67,1.43,4.59,1.13s3-1.3,2.4-2.23-2.67-1.44-4.6-1.14S253.55,54.59,254.16,55.52Z"/><path class="cls-7" d="M252.71,52c.59.14,2.48-1.32,6.18-2s7.09-.26,7.32-.57c.13-.13-.6-.46-2.11-.67a19.22,19.22,0,0,0-6.07.17,11.19,11.19,0,0,0-4.71,1.88C252.51,51.43,252.43,51.91,252.71,52Z"/><path class="cls-7" d="M250.38,68.41A50.34,50.34,0,0,0,244,69a4.08,4.08,0,0,1-2.34-.09c-.48-.3-.46-.89-.41-1.53,0-1.33.08-2.71.12-4.16.08-5.91-.23-10.69-.7-10.69s-.92,4.79-1,10.69c0,1.45,0,2.84,0,4.16,0,.61-.12,1.34.89,2a4.1,4.1,0,0,0,2.06.41,11.54,11.54,0,0,0,1.68-.19A46,46,0,0,0,250.38,68.41Z"/><path class="cls-8" d="M262.92,89.47s18.44-2.79,32.31-11.57c0,0-2.13,11-29.86,14.75Z"/><path class="cls-8" d="M256.67,74.53c-1.1-.43-1.6-1.21-1.22-1.88a3.85,3.85,0,0,1,3-1.26c-.64-.61-.18-1.42.87-1.86a8,8,0,0,1,3.88-.36c2.55.34,4.41,1.66,4.32,3s-2,2.57-4.55,3a12.85,12.85,0,0,1-7.28-1"/><path class="cls-7" d="M262.2,67.66c-.61.09.87,2.12-1.51,4.21s-6.81,2.66-6.63,2.95c0,.14,1.24.22,3.06-.1a12.14,12.14,0,0,0,5.62-2.35c1.45-1.27,1.48-2.62,1-3.48S262.47,67.59,262.2,67.66Z"/><path class="cls-7" d="M247.08,49.31c.74.44,4.25-.5,8.78-1.05s8.47-.6,8.72-1.17c.09-.26-.87-.63-2.64-.86a29.89,29.89,0,0,0-7.05.07,22.85,22.85,0,0,0-6.28,1.62C247.26,48.55,246.75,49.1,247.08,49.31Z"/><path class="cls-7" d="M211.31,52.88c1,.31,3.18-.61,6.23-1.21s5.86-.77,6.13-1.33c.1-.27-.62-.61-2-.8a17.77,17.77,0,0,0-5.6.26,10.18,10.18,0,0,0-4.36,1.79C210.9,52.23,210.87,52.73,211.31,52.88Z"/><path class="cls-7" d="M268.46,56.73c0,.24-.39.43-.84.42s-.82-.2-.81-.44.39-.42.85-.41S268.47,56.5,268.46,56.73Z"/><path class="cls-7" d="M357.25,90.05s-2.69-14.37-24.56-24.26S340.46,52.07,321.44,39A81.31,81.31,0,0,0,299.18,28a41.8,41.8,0,0,1-4.48-1.71c-3.71-1.66-6.95-3.6-11-5.05a32.55,32.55,0,0,0-10.36-1.91h0a53.25,53.25,0,0,0-7-1c-10.68-.81-21.26,1.36-31.2,3.48-9.63,2.06-35.49,1.56-27.3,14.94h0c1.7-2.22,8.32-4.07,13.51-1.88,3.62,1.53,5.45,2.88,6.32,5.22,1.16,3.12,3,6.58,10.43,7.38a26.21,26.21,0,0,0,5.53,0c6.23-.71,11.24-5.48,23.12-4.34,0,0,11.58,1.81,12.26,5.49s-3.35,10.53,3.78,13.79,8.33,3.16,8.13,6a13.78,13.78,0,0,1-.12,1.42c-.91,4.45-2.42,23.8,36.59,20.51l13.11-.41,16.69.21Z"/><path class="cls-7" d="M275.37,21.26c1.71-4.06,5.52-8,11.61-10.74a47.57,47.57,0,0,1,22.65-3.65c8.09.68,15.43,3.78,17.34,7.81s-2.41,8.72-10.08,10.19c-5.8,1.11-12.25.38-18.45.31s-13.47.93-15.66,3.87"/><path class="cls-6" d="M300.16,24.16c-.16-.82-1.55-1.45-3-1.78s-3.14-.41-4.7-.65a18,18,0,0,1-5.94-1.91c-1.33-.74-2.31-1.63-3.62-2.38A10.19,10.19,0,0,0,277.8,16a6.58,6.58,0,0,0-3.93,1.12,1.42,1.42,0,0,0-.19,2.28,130.59,130.59,0,0,0,15.76,5.84,22,22,0,0,0,6.37,1C298.07,26.24,300.39,25.3,300.16,24.16Z"/><path class="cls-7" d="M372.39,92.25s0-.19.08-.56a10.23,10.23,0,0,0,.26-1.59,10.84,10.84,0,0,0-1.24-5.81c-1.2-2.39-3.56-5.17-7.73-7.67S353.68,72,347.35,70s-12.43-4-16.85-6.5a21,21,0,0,1-5.25-3.88,7.58,7.58,0,0,1-2.08-4A6.08,6.08,0,0,1,325.6,50a10.87,10.87,0,0,1,2-1.27,7.18,7.18,0,0,1,.83-.37A17.7,17.7,0,0,0,325.83,50a5.93,5.93,0,0,0-2.17,5.64,7.6,7.6,0,0,0,2.11,3.85A20.7,20.7,0,0,0,331,63.3c4.37,2.42,10.4,4.41,16.75,6.42s12.36,4.1,16.53,6.69,6.56,5.39,7.72,7.82a10.22,10.22,0,0,1,1,5.88,8.14,8.14,0,0,1-.39,1.59A2.24,2.24,0,0,1,372.39,92.25Z"/><path class="cls-10" d="M288.11,24.79a2.64,2.64,0,0,1-.45.51c-.31.33-.81.8-1.5,1.4a39.71,39.71,0,0,1-6.86,4.71A66.82,66.82,0,0,1,266,36.9a73.49,73.49,0,0,1-9.21,2.18,42.59,42.59,0,0,1-10.86.51,22.27,22.27,0,0,1-5.16-1.11,15.77,15.77,0,0,1-3.81-2,48.6,48.6,0,0,1-5-4.47,21.41,21.41,0,0,0-2.5-2,18,18,0,0,0-3-1.58,30.17,30.17,0,0,0-7-1.75,38.6,38.6,0,0,0-11.26.15c-2.57.45-3.8.91-3.85.87a7.8,7.8,0,0,1,.91-.31c.3-.1.69-.21,1.17-.32s1-.26,1.68-.37a38.16,38.16,0,0,1,11.47-.26,31.36,31.36,0,0,1,7.24,1.76A18.31,18.31,0,0,1,230,29.88a21.71,21.71,0,0,1,2.58,2,52.27,52.27,0,0,0,5,4.42,15.27,15.27,0,0,0,3.66,1.87,20.58,20.58,0,0,0,4.89,1.06,41.52,41.52,0,0,0,10.52-.5,73.38,73.38,0,0,0,9.09-2.13,68,68,0,0,0,13.23-5.38,45.39,45.39,0,0,0,7-4.61c.73-.59,1.26-1.05,1.6-1.37A5.47,5.47,0,0,1,288.11,24.79Z"/><path class="cls-10" d="M292,26.14s.15.32.28.93a10.74,10.74,0,0,1,.07,1.11,7.11,7.11,0,0,1-.21,1.47c-.45,2.16-2.35,5.16-6.6,7.75a30.73,30.73,0,0,1-7,3.09c-2.44.77-4.82,1.26-6.79,1.69s-3.55.77-4.63,1-1.66.41-1.69.39a9.25,9.25,0,0,1,1.57-.51c1.05-.3,2.61-.69,4.56-1.14s4.28-1,6.64-1.73a31.14,31.14,0,0,0,6.77-3c4.15-2.52,6.08-5.44,6.65-7.55A11.9,11.9,0,0,0,292,26.14Z"/><path class="cls-10" d="M335.58,88.87s0-.2,0-.58a9.38,9.38,0,0,0,.06-1.63A13.08,13.08,0,0,0,334,80.75a21.36,21.36,0,0,0-2.89-3.86,28.72,28.72,0,0,0-4.93-4,42.35,42.35,0,0,0-7.21-3.72c-2.8-1.14-6-2.16-8.95-3.4a32.25,32.25,0,0,1-4.12-2,13.63,13.63,0,0,1-3-2.39,11.22,11.22,0,0,1-2.55-5.14c-.39-1.68-.56-3.28-.86-4.76a11.89,11.89,0,0,0-1.56-4,12.82,12.82,0,0,0-6.1-5,27.12,27.12,0,0,0-3.72-1.12,10.53,10.53,0,0,1,1.07.19,17.72,17.72,0,0,1,2.82.82,13.33,13.33,0,0,1,6.4,5A12.19,12.19,0,0,1,300,51.42c.33,1.49.52,3.09.92,4.75a11.27,11.27,0,0,0,2.54,5,19.07,19.07,0,0,0,6.93,4.28c2.94,1.22,6.1,2.25,8.93,3.4a41.58,41.58,0,0,1,7.3,3.8,28.11,28.11,0,0,1,4.94,4.09,20.52,20.52,0,0,1,2.84,3.91,12.08,12.08,0,0,1,1.48,6,7.43,7.43,0,0,1-.19,1.64A2.49,2.49,0,0,1,335.58,88.87Z"/><path class="cls-10" d="M325.49,12.32A39.85,39.85,0,0,0,319.15,11a44.13,44.13,0,0,0-16.1,1.11,31.28,31.28,0,0,0-11.76,5.83,26.7,26.7,0,0,0-2.44,2.25A6,6,0,0,1,288,21s.16-.33.61-.9a16.94,16.94,0,0,1,2.26-2.33,29.55,29.55,0,0,1,11.85-6,43.64,43.64,0,0,1,16.55-1,28.81,28.81,0,0,1,4.71,1c.53.16.89.32,1.14.41A1.31,1.31,0,0,1,325.49,12.32Z"/><path class="cls-10" d="M323.26,20.57c-.07.05-1.58-.52-4.32-1.11a48,48,0,0,0-11.33-1,44.89,44.89,0,0,0-11,1.65c-2.6.74-4,1.39-4.05,1.34a3.36,3.36,0,0,1,.91-.48,26.08,26.08,0,0,1,2.89-1.08,42.57,42.57,0,0,1,11.25-1.78,45.53,45.53,0,0,1,11.56,1.14,28.87,28.87,0,0,1,3.1.91A4.79,4.79,0,0,1,323.26,20.57Z"/><polygon class="cls-5" points="236.74 209.87 119 204.84 220.3 189.88 326.86 189.96 236.74 209.87"/><path class="cls-7" d="M236.74,209.87s.56-.14,1.64-.38l4.78-1.08,18.2-4.07,65.38-14.51.11.28-106.55-.06h.09l-9,1.33L119.09,205l-.06-.31,85.09,3.71,24.06,1.07,6.37.29,1.64.08.55,0h-.55l-1.63-.06-6.35-.25-24.05-1L119,205l-1.66-.07,1.6-.24L211.19,191l9-1.33h.1l106.56.11h1.39l-1.28.28-65.53,14.41-18.25,4-4.8,1Z"/><polygon class="cls-2" points="119 204.84 5.74 200.61 113.75 190.27 216.12 190.27 119 204.84"/><path class="cls-7" d="M119,204.84s.6-.11,1.77-.29l5.17-.8,19.65-3L216,190.13l.08.29-102.37,0h.07l-9.73.93L5.8,200.76l0-.3,82,3.12,23.08.91,6.1.25,1.57.07.53,0h-.52l-1.57,0-6.09-.21-23.08-.82-82-3-2.34-.08,2.3-.22L104,191l9.73-.93h.06l102.37,0h2l-1.95.29-70.56,10.52L126,203.84l-5.18.76C119.61,204.77,119,204.84,119,204.84Z"/><path class="cls-5" d="M119,204.84s-2.65-12.45-23.07-11.43-47.52,8-69.79,8l-23.92-.94,51-5.31S179.77,181.59,179.77,182s42.56-4.77,41,8Z"/><path class="cls-7" d="M119,204.84l1.88-.29,5.44-.81,20.63-3,73.79-10.82-.21.13a4.71,4.71,0,0,0-.9-3.43,9.18,9.18,0,0,0-4.17-2.79c-3.84-1.46-8.85-2-13.81-2.21s-10.16-.06-15.36.24l-3.91.25-2,.13c-.18,0-.32,0-.58,0h-.12a.34.34,0,0,1-.2-.1c0-.07-.1-.09,0,0s.18,0,.17,0h-.26l-1,.07c-2.62.22-5.26.49-7.92.75-21.27,2.12-43.82,4.51-67.18,7l-52.74,5.59-48.32,5,0-.31,23.91.95h0A183.16,183.16,0,0,0,49,199.46c7.14-.93,13.82-2,20.12-3s12.22-1.84,17.79-2.44c2.78-.3,5.47-.54,8.07-.68a43.7,43.7,0,0,1,7.45.11,23.78,23.78,0,0,1,10.42,3.41,15.7,15.7,0,0,1,4.35,4.14,12.87,12.87,0,0,1,1.49,2.81,4.34,4.34,0,0,1,.27,1l-.09-.25c0-.16-.14-.41-.27-.73a13.84,13.84,0,0,0-1.57-2.79,15.79,15.79,0,0,0-4.39-4.09,23.56,23.56,0,0,0-10.28-3.32,42.42,42.42,0,0,0-7.34-.1q-3.87.24-8,.7c-5.54.61-11.44,1.49-17.73,2.47s-13,2.05-20.13,3a185.91,185.91,0,0,1-23,1.8h0L2.2,200.59,0,200.5l2.16-.22,48.31-5.05,52.74-5.6c23.36-2.46,45.91-4.84,67.19-7,2.67-.26,5.3-.52,7.95-.74,2.67,0,5.24-.3,7.87-.43,5.22-.3,10.41-.45,15.48-.24s10.13.77,14.12,2.28a9.6,9.6,0,0,1,4.36,2.94,4.81,4.81,0,0,1,.93,3.55v.1l-.2,0-74.07,10.7-20.6,3-5.4.77Z"/><path class="cls-5" d="M234.25,205.71c-2.14,0-77.85-3-77.85-3"/><path class="cls-7" d="M156.4,202.7h.8l2.27.05,8.35.27,27.52,1,27.51,1.11,8.34.38,2.27.12a6.13,6.13,0,0,1,.79.07h-.79l-2.27-.05-8.34-.27-27.54-1-27.52-1.11-8.34-.38-2.26-.12A6.13,6.13,0,0,1,156.4,202.7Z"/><path class="cls-5" d="M246.75,203.11c-2.14,0-77.85-3-77.85-3"/><path class="cls-7" d="M168.9,200.1h.8l2.27.05,8.35.27,27.52,1,27.51,1.11,8.34.38L246,203a4.44,4.44,0,0,1,.79.07H246l-2.27-.05-8.34-.27-27.54-1-27.52-1.12-8.34-.37-2.26-.12C169.17,200.13,168.9,200.11,168.9,200.1Z"/><path class="cls-5" d="M266.6,200.1c-2.14,0-81.45-2.39-81.45-2.39"/><path class="cls-7" d="M185.15,197.71a5.32,5.32,0,0,1,.83,0l2.38,0,8.73.2,28.79.8,28.79.9,8.73.31,2.37.1.83.06a6.61,6.61,0,0,1-.83,0l-2.37,0-8.73-.2-28.81-.79-28.8-.9-8.72-.31-2.37-.11A7.45,7.45,0,0,1,185.15,197.71Z"/><path class="cls-5" d="M283.66,196.81c-2.13,0-82.26-1.5-82.26-1.5"/><path class="cls-7" d="M201.4,195.31a7.62,7.62,0,0,1,.83,0h2.4l8.82.11,29.08.48,29.09.58,8.81.22,2.4.07a7.54,7.54,0,0,1,.83.05,5.22,5.22,0,0,1-.83,0h-2.4l-8.81-.1-29.1-.48-29.08-.59-8.82-.21-2.39-.08A7.54,7.54,0,0,1,201.4,195.31Z"/><path class="cls-5" d="M298.88,193.08l-81.24-.16"/><path class="cls-7" d="M217.64,192.92c0-.1,18.19-.14,40.62-.1s40.62.17,40.62.26-18.19.14-40.62.09S217.64,193,217.64,192.92Z"/><path class="cls-7" d="M100.09,190.3a11.34,11.34,0,0,1,1.6-.24c1-.12,2.58-.24,4.51-.27a46.88,46.88,0,0,1,14.31,2c5,1.61,8.17,3.93,9.68,5.7a8.62,8.62,0,0,1,1.45,2.18c.22.53.28.83.24.83a19.58,19.58,0,0,0-2.13-2.9,22.72,22.72,0,0,0-9.61-5.51A47.75,47.75,0,0,0,106.2,190C102.41,190,100.12,190.37,100.09,190.3Z"/><path class="cls-7" d="M112.54,188.63a11.32,11.32,0,0,1,1.59-.24,44.29,44.29,0,0,1,4.51-.26,47.11,47.11,0,0,1,14.31,2c5,1.62,8.17,3.93,9.68,5.71a8.61,8.61,0,0,1,1.45,2.17c.23.53.29.83.25.83a19.94,19.94,0,0,0-2.14-2.9,22.93,22.93,0,0,0-9.61-5.51,48,48,0,0,0-13.94-2.05C114.86,188.36,112.56,188.7,112.54,188.63Z"/><path class="cls-7" d="M125.43,187.47a11.23,11.23,0,0,1,1.56-.25c1-.13,2.53-.28,4.42-.36a49.77,49.77,0,0,1,6.65.16,34.72,34.72,0,0,1,7.57,1.53c4.91,1.62,8,3.91,9.48,5.66a8.39,8.39,0,0,1,1.42,2.15c.22.52.28.81.24.82a20.85,20.85,0,0,0-2.1-2.87,22.59,22.59,0,0,0-9.42-5.47,41.42,41.42,0,0,0-13.81-1.73C127.71,187.21,125.45,187.54,125.43,187.47Z"/><path class="cls-7" d="M139.17,186a13.74,13.74,0,0,1,1.51-.25c1-.13,2.44-.3,4.26-.41a40.57,40.57,0,0,1,6.45.1,31.92,31.92,0,0,1,7.24,1.6c4.68,1.62,7.59,3.86,9,5.56a8.75,8.75,0,0,1,1.35,2.09c.21.5.27.79.23.79a23.26,23.26,0,0,0-2-2.78,22.11,22.11,0,0,0-8.95-5.37,31.14,31.14,0,0,0-7-1.57,41.45,41.45,0,0,0-6.27-.17C141.39,185.79,139.2,186.1,139.17,186Z"/><path class="cls-7" d="M153.32,184.91a12.25,12.25,0,0,1,1.43-.25c.94-.14,2.29-.34,4-.53a31.64,31.64,0,0,1,6.18-.11,26.7,26.7,0,0,1,6.84,1.64,19.85,19.85,0,0,1,8.41,5.42,8.74,8.74,0,0,1,1.26,2c.19.49.25.76.21.77a23.2,23.2,0,0,0-1.92-2.67,21.34,21.34,0,0,0-8.37-5.24,26.82,26.82,0,0,0-6.55-1.61,31.69,31.69,0,0,0-6,0C155.45,184.7,153.35,185,153.32,184.91Z"/><path class="cls-11" d="M146.85,166c3.59.31,7.24-.16,10.88-.25s7.78.38,9.65,2c1.42,1.19,1.15,2.74,0,4a19,19,0,0,1-5,3.31"/><path class="cls-7" d="M172.35,180.1l-56.46-36.6a2.23,2.23,0,0,0-1.8-.11l-4.6,1.82c-.56.22-.66.63-.22.91l56.46,36.6a2.23,2.23,0,0,0,1.8.11l4.6-1.81C172.69,180.79,172.79,180.39,172.35,180.1Z"/><path class="cls-7" d="M114.59,144.33l-4.29-2.78a1,1,0,0,0-.81-.05l-2.07.82c-.25.1-.29.28-.1.41l4.29,2.78a1,1,0,0,0,.81.05l2.07-.82C114.74,144.65,114.78,144.46,114.59,144.33Z"/><polygon class="cls-7" points="164.46 181.84 173.73 185.44 174.69 185.07 171.97 180.1 164.46 181.84"/><path class="cls-7" d="M128.5,160.46a.32.32,0,0,1-.14,0l-17.87-11.59c-2.19-1.42-2-3.33.34-4.27l.86-.34a.26.26,0,0,1,.23,0c.06,0,0,.09,0,.12l-.86.33c-2.22.88-2.35,2.69-.28,4l17.88,11.59c.05,0,0,.09,0,.12Z"/><path class="cls-11" d="M138.69,162.31s-5.8-2.5-10.16-2.2-18.87,8.22-19.45,12.92-4.35,7.5,2.32,9.4,17.13,5,24.1,4c0,0,12.28.71,13.67-1,0,0,10.78,1.74,11.58-2,0,0,7.73-.61,7.26-3S138.69,162.31,138.69,162.31Z"/><path class="cls-8" d="M160.75,183.46c-.13.07-6.85-3.1-15-7.09s-14.67-7.28-14.54-7.35,6.86,3.11,15,7.1S160.89,183.39,160.75,183.46Z"/><path class="cls-8" d="M149.17,185.45a9.33,9.33,0,0,1-1.26-.25c-.8-.18-1.91-.47-3.25-.87a91.33,91.33,0,0,1-9.78-3.61c-3.59-1.56-6.67-3.06-8.88-4.15l-2.6-1.3a4.21,4.21,0,0,1-.9-.51,5.92,5.92,0,0,1,1.08.41c.66.28,1.6.7,2.75,1.22,2.3,1.05,5.43,2.52,9,4.06s7,2.83,9.59,3.67S149.22,185.39,149.17,185.45Z"/><path class="cls-8" d="M135.84,186.15a21.91,21.91,0,0,1-3.29-.7c-2-.5-4.6-1.29-7.36-2.26s-5.15-1.92-6.79-2.67a13.11,13.11,0,0,1-2.5-1.28c.07,0,1.1.41,2.81,1.09s4.13,1.62,6.87,2.58,5.31,1.77,7.2,2.32S135.88,186.1,135.84,186.15Z"/><path class="cls-11" d="M410.88,164.51a83,83,0,0,0-27.62-1.7c-15.83,1.56-49,5.56-60.48,6.23s-59.92,6.15-59.92,6.15l5.1,14.56,158.09-.17C428.94,180.8,434.28,169.91,410.88,164.51Z"/><path class="cls-11" d="M257.35,189.75H268l17.09-17c-2.19-.19-47.84-3.61-50.53-3.23l-11,19.68S256.37,189.75,257.35,189.75Z"/><path class="cls-11" d="M226.13,189.5a3.2,3.2,0,0,0,.76.09c3.77.21,21.18-.33,21.18-.33.8-1.14-.71-4.56-2.87-4.76s-20.7.44-20.7.44-2.92.19-3.65,2.67C220.4,189.15,226.13,189.5,226.13,189.5Z"/><path class="cls-11" d="M220.25,184.49a2.31,2.31,0,0,0,.76.09c3.77.21,20.23.12,20.94-.9s-.47-4-2.64-4.18-20.7.43-20.7.43-2.91.19-3.64,2.68C214.52,184.14,220.25,184.49,220.25,184.49Z"/><path class="cls-11" d="M217.33,179.6a3.2,3.2,0,0,0,.76.09c3.77.21,20.23.12,20.94-.9s-.47-4-2.64-4.19-20.69.44-20.69.44-2.92.19-3.65,2.67C211.6,179.25,217.33,179.6,217.33,179.6Z"/><path class="cls-11" d="M214.59,174.73a2.31,2.31,0,0,0,.76.09c3.77.21,20.23.12,20.94-.9s-.47-4-2.64-4.18-20.7.43-20.7.43-2.91.19-3.64,2.68C208.86,174.38,214.59,174.73,214.59,174.73Z"/><path class="cls-8" d="M240.38,184.46a63.36,63.36,0,0,1-8,.37,60.19,60.19,0,0,1-7.93-.14,62.42,62.42,0,0,1,8-.38A58.76,58.76,0,0,1,240.38,184.46Z"/><path class="cls-8" d="M240.47,179.55c0,.14-5.09.34-11.39.44s-11.42.07-11.43-.08,5.09-.34,11.4-.44S240.46,179.4,240.47,179.55Z"/><path class="cls-8" d="M239.69,174.56c0,.14-5.09.34-11.39.44s-11.42.07-11.43-.08,5.09-.34,11.4-.44S239.68,174.41,239.69,174.56Z"/><path class="cls-11" d="M266.11,171.47s-31.07-7-33-6-4.94,4.25-4.94,4.25Z"/></g></g></svg>