<svg xmlns="http://www.w3.org/2000/svg" xmlns:xlink="http://www.w3.org/1999/xlink" viewBox="0 0 9034.3 2112.31"><defs><style>.cls-1{fill:none;}.cls-2{isolation:isolate;}.cls-3{clip-path:url(#clip-path);}.cls-4{fill:#e49a30;}.cls-5{fill:#a59f8b;}.cls-14,.cls-6{fill:#3a3a3e;}.cls-13,.cls-7{fill:#f5f5f5;}.cls-8{fill:#e6a035;}.cls-9{fill:#a5581b;}.cls-10{fill:#a14700;}.cls-11{fill:#90673b;}.cls-12{fill:#b6874c;}.cls-13,.cls-20{mix-blend-mode:multiply;}.cls-14{opacity:0.5;}.cls-15{fill:#fdfeff;}.cls-16,.cls-20{fill:#926640;}.cls-17{fill:#453e3d;}.cls-18{fill:#fff;}.cls-19{fill:#cc6b1f;opacity:0.6;}.cls-20{opacity:0.3;}.cls-21{fill:#c6dae2;}</style><clipPath id="clip-path" transform="translate(82.26 28.05)"><polyline class="cls-1" points="8891.74 0 8891.74 2046 0 2046 0 0"/></clipPath></defs><g class="cls-2"><g id="Capa_2" data-name="Capa 2"><g id="Layer_1" data-name="Layer 1"><g class="cls-3"><path class="cls-4" d="M4426.37,1583.84,4009,1705.71l-516.62-935.3,352.78-103c35.66-10.41,76.18,2.17,90.5,28.1Z" transform="translate(82.26 28.05)"/><polygon class="cls-5" points="4557.73 1577.09 3758.63 1680.09 3559.46 863.19 4358.56 760.19 4557.73 1577.09"/><polygon class="cls-6" points="4158.14 875.66 3801.29 921.65 3799.87 915.83 4156.72 869.83 4158.14 875.66"/><polygon class="cls-6" points="4229.5 851.22 3722.72 916.54 3721.3 910.72 4228.08 845.4 4229.5 851.22"/><polygon class="cls-6" points="4302.04 920.19 3687.21 999.44 3685.79 993.62 4300.62 914.37 4302.04 920.19"/><polygon class="cls-6" points="4308.87 948.21 3694.04 1027.46 3692.62 1021.63 4307.45 942.38 4308.87 948.21"/><polygon class="cls-6" points="4322.53 1004.24 3707.7 1083.49 3706.28 1077.66 4321.12 998.41 4322.53 1004.24"/><polygon class="cls-6" points="4329.37 1032.25 3714.53 1111.5 3713.11 1105.68 4327.95 1026.43 4329.37 1032.25"/><polygon class="cls-6" points="4336.2 1060.27 3721.36 1139.52 3719.94 1133.69 4334.78 1054.44 4336.2 1060.27"/><polygon class="cls-6" points="4366.24 1183.49 3751.41 1262.74 3749.99 1256.92 4364.82 1177.67 4366.24 1183.49"/><polygon class="cls-6" points="4373.32 1212.54 3758.49 1291.79 3757.07 1285.97 4371.9 1206.72 4373.32 1212.54"/><polygon class="cls-6" points="4380.41 1241.59 3765.57 1320.84 3764.15 1315.02 4378.99 1235.77 4380.41 1241.59"/><polygon class="cls-6" points="4387.49 1270.64 3772.66 1349.89 3771.24 1344.07 4386.07 1264.82 4387.49 1270.64"/><polygon class="cls-6" points="4394.57 1299.69 3779.74 1378.94 3778.32 1373.12 4393.15 1293.87 4394.57 1299.69"/><polygon class="cls-6" points="4401.66 1328.74 3786.82 1407.99 3785.4 1402.17 4400.24 1322.92 4401.66 1328.74"/><polygon class="cls-6" points="4408.74 1357.8 3793.91 1437.04 3792.49 1431.22 4407.32 1351.97 4408.74 1357.8"/><polygon class="cls-7" points="4533.8 1542.11 3748.96 1692.29 3458.56 889.97 4243.39 739.79 4533.8 1542.11"/><polygon class="cls-6" points="4056.63 866.79 3706.16 933.85 3704.09 928.13 4054.56 861.07 4056.63 866.79"/><polygon class="cls-6" points="4125.01 838.19 3627.28 933.43 3625.21 927.71 4122.94 832.47 4125.01 838.19"/><polygon class="cls-6" points="4205.07 902.62 3601.21 1018.16 3599.14 1012.44 4203 896.9 4205.07 902.62"/><polygon class="cls-6" points="4215.03 930.13 3611.17 1045.68 3609.1 1039.96 4212.96 924.41 4215.03 930.13"/><polygon class="cls-6" points="4234.95 985.16 3631.09 1100.71 3629.01 1094.99 4232.88 979.44 4234.95 985.16"/><polygon class="cls-6" points="4244.91 1012.68 3641.05 1128.23 3638.97 1122.51 4242.84 1006.96 4244.91 1012.68"/><polygon class="cls-6" points="4254.86 1040.19 3651.01 1155.74 3648.93 1150.02 4252.8 1034.47 4254.86 1040.19"/><polygon class="cls-6" points="4298.67 1161.22 3694.81 1276.77 3692.74 1271.04 4296.6 1155.5 4298.67 1161.22"/><polygon class="cls-6" points="4309 1189.75 3705.14 1305.3 3703.07 1299.58 4306.93 1184.03 4309 1189.75"/><polygon class="cls-6" points="4319.32 1218.28 3715.46 1333.83 3713.39 1328.11 4317.26 1212.56 4319.32 1218.28"/><polygon class="cls-6" points="4329.65 1246.81 3725.79 1362.36 3723.72 1356.64 4327.58 1241.09 4329.65 1246.81"/><polygon class="cls-6" points="4339.98 1275.35 3736.12 1390.89 3734.05 1385.17 4337.91 1269.63 4339.98 1275.35"/><polygon class="cls-6" points="4350.31 1303.88 3746.45 1419.43 3744.38 1413.7 4348.24 1298.16 4350.31 1303.88"/><polygon class="cls-6" points="4360.64 1332.41 3756.77 1447.96 3754.7 1442.24 4358.56 1326.69 4360.64 1332.41"/><path class="cls-8" d="M4268,1630.08l-840.21,245.34-490-887.19,706-316.67c39.67-17.8,91.84-5.31,109.21,26.14Z" transform="translate(82.26 28.05)"/><path class="cls-9" d="M3156.67,1732l-119.86-1.58c-41.61-54.84-72.15-102.51-72.15-102.51,135.38-22.69,249.62-13.38,344.81,13.23l52.45,92.64,11.23-71.34c235.9,92.56,333.09,288.49,333.09,288.49s-416.9-32.28-505.28-62.17c-34.13-11.54-77.13-53.06-117.06-99.68C3115.85,1767,3156.67,1732,3156.67,1732Z" transform="translate(82.26 28.05)"/><path class="cls-10" d="M2964.66,1627.91s535.25,163.77,741.58,323c0,0-416.9-32.28-505.28-62.17-34.13-11.54-77.13-53.06-117.06-99.68,31.95-22.12,72.77-57.08,72.77-57.08l-119.86-1.58C2995.2,1675.58,2964.66,1627.91,2964.66,1627.91Z" transform="translate(82.26 28.05)"/><path class="cls-9" d="M2981.74,1889.51c72.07-31.91,144.78-49,215.15-55.8,20.62,18.65,45.94,40.57,45.94,40.57l2.67-43.7c270-8.94,493.69,122.58,493.69,122.58-156.37,71.66-289.76,91.41-399,85-6.47-15.29-15.63-38.1-15.63-38.1l-19.31,35.11a603.61,603.61,0,0,1-138.51-32.35c10.22-18.21,21-39,21-39l-58.19,24C3032,1944.48,2981.74,1889.51,2981.74,1889.51Z" transform="translate(82.26 28.05)"/><path class="cls-10" d="M3340.17,2038.17c-6.47-15.29-15.63-38.1-15.63-38.1l-19.31,35.11a603.61,603.61,0,0,1-138.51-32.35c10.22-18.21,21-39,21-39l-58.19,24c-97.5-43.35-147.78-98.32-147.78-98.32,314.56-26.42,757.45,63.65,757.45,63.65C3582.82,2024.82,3449.43,2044.57,3340.17,2038.17Z" transform="translate(82.26 28.05)"/><path class="cls-11" d="M4557,710.36l96.62-51.59c-9.55-62.24-22.47-114-22.47-114-128.55,38.28-214.45,93.84-271.06,155.51L4390.84,798,4325,744.42c-119.15,174.58-43,375.37-43,375.37S4596.88,918.46,4645.32,857c18.71-23.74,20.86-75.69,16.46-130.53C4618.13,721.78,4557,710.36,4557,710.36Z" transform="translate(82.26 28.05)"/><path class="cls-12" d="M4631.19,544.78s-307.06,358.37-349.12,575c0,0,314.81-201.33,363.25-262.83,18.71-23.74,20.86-75.69,16.46-130.53-43.65-4.65-104.74-16.07-104.74-16.07l96.62-51.59C4644.11,596.53,4631.19,544.78,4631.19,544.78Z" transform="translate(82.26 28.05)"/><path class="cls-11" d="M4825.05,765.69c-84.19,4.19-157.12,20.76-220,44.73-2,23.88-5.3,52.41-5.3,52.41l-36.88-34.57c-227.56,106-305.83,307.29-305.83,307.29,184.58-7.11,309.19-47,393.32-98-6.85-15.2-17.48-37.67-17.48-37.67l43.64,20.57c38.05-26.84,66.36-55.94,87.43-84.55-22.81-10.58-48.13-23.07-48.13-23.07l66.59-4.79C4827.63,831.68,4825.05,765.69,4825.05,765.69Z" transform="translate(82.26 28.05)"/><path class="cls-12" d="M4650.37,1037.51c-6.85-15.2-17.48-37.67-17.48-37.67l43.64,20.57c38.05-26.84,66.36-55.94,87.43-84.55-22.81-10.58-48.13-23.07-48.13-23.07l66.59-4.79c45.21-76.32,42.63-142.31,42.63-142.31-277.85,110.44-568,369.86-568,369.86C4441.63,1128.44,4566.24,1088.6,4650.37,1037.51Z" transform="translate(82.26 28.05)"/><path class="cls-10" d="M5596.16,1021h58.73s-21.16-7.49-34-7H4181.55c-75.31-.49-136.81,87.4-136.81,87.4v55.76c0,48.51,61,87.84,136.29,87.84l1422.54-.31Z" transform="translate(82.26 28.05)"/><path class="cls-8" d="M4165.74,1157V1101c0-48.62,61.23-88,136.76-88h-31c-75.53,0-136.76,39.42-136.76,88V1157c0,48.62,61.23,88,136.76,88h30.59C4226.75,1244.85,4165.74,1205.49,4165.74,1157Z" transform="translate(82.26 28.05)"/><path class="cls-8" d="M4502.74,1157V1101c0-48.62,61.23-88,136.76-88h-31c-75.53,0-136.76,39.42-136.76,88V1157c0,48.62,61.23,88,136.76,88h30.58C4563.75,1244.85,4502.74,1205.49,4502.74,1157Z" transform="translate(82.26 28.05)"/><path class="cls-9" d="M4780.09,1014c-72,0-130.35,37.6-130.35,84v63c0,46.38,58.36,84,130.35,84h895.65v-14H5672l-227.79-13.9-46-116.42s88.86-64.33,94.66-66S5672,1028,5672,1028l3.7,0v-14Z" transform="translate(82.26 28.05)"/><path class="cls-7" d="M5618.33,1129.08c0-68.08,54.59-101.08,54.59-101.08H4798.55c-66.17,0-119.81,34.57-119.81,77.21v48.58c0,42.64,53.64,77.21,119.81,77.21h874.37S5618.33,1214.81,5618.33,1129.08Z" transform="translate(82.26 28.05)"/><path class="cls-13" d="M4678.74,1105.2v48.56a51.76,51.76,0,0,0,3.49,18.51c29.49-46.49,86-91.27,193.56-105.67,251.14-33.62,796.89-38.6,796.89-38.6H4798.52C4732.37,1028,4678.74,1062.56,4678.74,1105.2Z" transform="translate(82.26 28.05)"/><path d="M5576.53,1484h62.23s-23.95-9.47-38.42-9H3971.22c-85.23-.47-154.48,109.53-154.48,109.53v70.28c0,60.86,69.21,110.19,154.59,110.19l1613.6-.39Z" transform="translate(82.26 28.05)"/><path class="cls-6" d="M4648.36,1475c-81.53,0-147.62,47-147.62,105.07v78.86c0,58,66.09,105.07,147.62,105.07H5662.74v-18h-4.19l-257.72-17.4-52.09-145.66s100.54-80.49,107.1-82.57,202.71-8.37,202.71-8.37l4.19,0v-17Z" transform="translate(82.26 28.05)"/><path class="cls-7" d="M5596.77,1618.48c0-85.18,61.76-126.48,61.76-126.48H4669.29c-74.86,0-135.55,43.26-135.55,96.61v60.78c0,53.35,60.69,96.61,135.55,96.61h989.24S5596.77,1725.74,5596.77,1618.48Z" transform="translate(82.26 28.05)"/><path class="cls-13" d="M4533.74,1588.63v60.78a70.54,70.54,0,0,0,4,23.17c33.37-58.19,97.32-114.24,219.07-132.27C5041,1498.23,5658.69,1492,5658.69,1492H4669.31C4594.44,1492,4533.74,1535.26,4533.74,1588.63Z" transform="translate(82.26 28.05)"/><path class="cls-11" d="M3763.22,1252h-65.08s24-7.49,38.45-7H5366.34c85.27-.49,154.4,86.8,154.4,86.8v55.76c0,48.29-69.12,87.44-154.39,87.44l-1611.52-.31Z" transform="translate(82.26 28.05)"/><path class="cls-12" d="M4688.12,1245c81.53,0,147.62,37.44,147.62,83.62v62.76c0,46.18-66.09,83.62-147.62,83.62H3673.74v-15H3678l258.4-13.84,52.23-115.84s-100.81-64-107.38-65.66S3678,1258,3678,1258l-4.21,0v-13Z" transform="translate(82.26 28.05)"/><path class="cls-7" d="M3737.89,1359.59c0-67.75-61.92-100.59-61.92-100.59h991.87c75.06,0,135.9,34.4,135.9,76.84v48.33c0,42.43-60.84,76.83-135.9,76.83H3676S3737.89,1444.89,3737.89,1359.59Z" transform="translate(82.26 28.05)"/><path class="cls-13" d="M4803.74,1335.67v48.23a45.72,45.72,0,0,1-3.95,18.39c-33.38-46.18-97.36-90.65-219.15-105C4296.28,1264,3678.36,1259,3678.36,1259h989.77C4743,1259,4803.74,1293.33,4803.74,1335.67Z" transform="translate(82.26 28.05)"/><path class="cls-14" d="M5221.74,1387.72v-55.44c0-48.2-69.22-87.28-154.62-87.28h155c85.39,0,154.62,39.08,154.62,87.28v55.44c0,48.2-69.23,87.28-154.62,87.28l-152.95,0C5153.62,1474.35,5221.74,1435.53,5221.74,1387.72Z" transform="translate(82.26 28.05)"/><path class="cls-8" d="M3637.84,1773H3570s25.83-8,41.44-8H5368.38c91.92,0,166.36,97.52,166.36,97.52v61.84c0,53.92-74.6,97.64-166.63,97.64l-1739.32-.35Z" transform="translate(82.26 28.05)"/><path class="cls-4" d="M4637.56,1765c87.92,0,159.18,41.83,159.18,93.43v70.14c0,51.6-71.26,93.43-159.18,93.43H3543.74v-16h4.52L3826,1990.59l56.13-129s-108.34-71.3-115.4-73.14-218.44-7.42-218.44-7.42l-4.52,0v-16Z" transform="translate(82.26 28.05)"/><path class="cls-7" d="M3616.26,1893c0-75.46-66.54-112-66.54-112h1066c80.66,0,146.05,38.32,146.05,85.58v53.84c0,47.26-65.39,85.58-146.05,85.58h-1066S3616.26,1988.06,3616.26,1893Z" transform="translate(82.26 28.05)"/><path d="M3675.46,1949l14.93,24.21c1.23,2,0,4.35-2.75,5.25l-78,25.42c-5.65,1.84-11.1-2.82-7.7-6.57l30.18-34.19S3656,1966.25,3675.46,1949Z" transform="translate(82.26 28.05)"/><path d="M3774.55,1949l14.93,24.21c1.23,2,0,4.35-2.75,5.25l-78,25.42c-5.65,1.84-11.1-2.82-7.7-6.57l30.18-34.19S3755.08,1966.25,3774.55,1949Z" transform="translate(82.26 28.05)"/><path d="M5447.49,1222.73,5432.56,1247c-1.24,2,0,4.35,2.75,5.25l78,25.42c5.64,1.84,11.1-2.82,7.7-6.58l-30.19-34.19S5467,1240,5447.49,1222.73Z" transform="translate(82.26 28.05)"/><path d="M5346.42,1219.85l-14.93,24.22c-1.24,2,0,4.35,2.74,5.24l78,25.42c5.64,1.84,11.09-2.81,7.69-6.57L5389.74,1234S5365.88,1237.15,5346.42,1219.85Z" transform="translate(82.26 28.05)"/><path class="cls-13" d="M4761.74,1866.66v53.89a52.74,52.74,0,0,1-4.26,20.55c-36-51.6-105-101.29-236.25-117.27-306.54-37.3-972.68-42.83-972.68-42.83h1067C4696.29,1781,4761.74,1819.35,4761.74,1866.66Z" transform="translate(82.26 28.05)"/><path d="M3943,1281.27l8.29,37.82,17.53-50.42s-24.56-8.67-25.64-5.51S3943,1281.27,3943,1281.27Z" transform="translate(82.26 28.05)"/><polygon class="cls-15" points="4164.66 1390.72 4172.24 1456.1 4092.89 1453.35 4102.04 1395.45 4164.66 1390.72"/><path class="cls-16" d="M4015.43,1394.93l4.36-27.53,62.61-4.73,2.63,22.64C4072.58,1394.33,4050.19,1403.68,4015.43,1394.93Z" transform="translate(82.26 28.05)"/><path class="cls-16" d="M3966.78,1318.62c4.77,7.17,2.24,15.24-5.65,18s-18.17-.79-22.94-8-2.24-15.24,5.66-18S3962,1311.44,3966.78,1318.62Z" transform="translate(82.26 28.05)"/><path class="cls-15" d="M3955.27,1323.87a55.69,55.69,0,0,0-1.6-5.56,45.47,45.47,0,0,1-1.41-23.73c5.52-26.75,35.12-48.08,72-51.79,49.65-5,93.39,21.74,96.48,57.14a24.24,24.24,0,0,1,16.39-1.69c10.33,2.8,14.8,12.67,10,22.06s-17.08,14.72-27.41,11.93a18.94,18.94,0,0,1-3.94-1.57c-1.59,30.31-33.51,55.13-74.27,56.52-19.93.68-38.47-4.37-52.87-13.22C3969,1363.5,3959.14,1341.3,3955.27,1323.87Z" transform="translate(82.26 28.05)"/><path class="cls-16" d="M4017.07,1304.11c-.16,3.53-.2,7-.45,10.35s-.79,6.83-2.62,9.16c-1.85,1.88-3.31,3.09-3.36,5.4s1.59,4.43,3.7,5.71c4.33,2.65,9.95,2.9,14.59,2.07-4.74-.61-9.28-1.8-11.93-4-1.22-1.12-2-2.37-1.75-3.54s.75-1.56,2.9-3.72a11.1,11.1,0,0,0,2.29-5.64,20.63,20.63,0,0,0,0-5.44A28.7,28.7,0,0,0,4017.07,1304.11Z" transform="translate(82.26 28.05)"/><path class="cls-17" d="M4045.2,1308.77c.19,3,3.66,5.27,7.74,5.13s7.24-2.66,7-5.63-3.66-5.26-7.74-5.12S4045,1305.8,4045.2,1308.77Z" transform="translate(82.26 28.05)"/><path class="cls-17" d="M3981.91,1314c.19,3,3.65,5.26,7.74,5.13s7.23-2.66,7-5.63-3.65-5.26-7.74-5.13S3981.72,1311,3981.91,1314Z" transform="translate(82.26 28.05)"/><path class="cls-16" d="M4057.61,1345.21a53.65,53.65,0,0,1-6.11,3.37,61.1,61.1,0,0,1-20.95,6,53.58,53.58,0,0,1-14.91-.8,66.85,66.85,0,0,1-13.88-4.58,47.22,47.22,0,0,0,13.44,5.62,47.83,47.83,0,0,0,15.58,1.16,51.7,51.7,0,0,0,14.82-3.65A44.46,44.46,0,0,0,4057.61,1345.21Z" transform="translate(82.26 28.05)"/><path d="M4035.91,1296.62a100.93,100.93,0,0,1,10.82-1.89,51.38,51.38,0,0,1,10.28-.16,45.37,45.37,0,0,1,9.89,1.9c2.46.56,8.44,3.12,10,3.61a20.52,20.52,0,0,0-7.76-6.51,29.67,29.67,0,0,0-11.47-3.21,33.7,33.7,0,0,0-12.17,1.18A23.79,23.79,0,0,0,4035.91,1296.62Z" transform="translate(82.26 28.05)"/><path d="M4003.31,1299.29a27.15,27.15,0,0,0-10.77-3.63,33.94,33.94,0,0,0-12.25.56,26.39,26.39,0,0,0-10.39,4.76,17.09,17.09,0,0,0-5.88,7.5c1.42-.72,6.59-4.07,8.85-5a41.69,41.69,0,0,1,9.19-3.27,50.57,50.57,0,0,1,10.13-1.28A103.49,103.49,0,0,1,4003.31,1299.29Z" transform="translate(82.26 28.05)"/><path class="cls-12" d="M4038.71,1669.82s16.55,81.61-91.91,95.83-243.41,10-243.41,10l-18.78,187.48-56.62,2.1S3482.2,1704.72,3684,1664l181.35.65,74.68-3.88s75.56-13.57,76.45-11S4036.93,1671.11,4038.71,1669.82Z" transform="translate(82.26 28.05)"/><path class="cls-11" d="M4138.38,1669.82s16.55,81.61-91.91,95.83-243.4,10-243.4,10l-18.78,187.48-56.62,2.1s-145.8-260.49,56-301.21l181.36.65,74.67-3.88s75.57-13.58,76.46-11S4136.6,1671.11,4138.38,1669.82Z" transform="translate(82.26 28.05)"/><path class="cls-9" d="M4001.77,1402.45s-74.67,6.9-93.64,18.1-110.23,175.81-110.23,175.81l75.86,64.64,161.2.86s120.91,47.4,196.77,2.59,36.74-200.81-7.12-234.42-122.08-32.75-122.08-32.75S4031.41,1433.48,4001.77,1402.45Z" transform="translate(82.26 28.05)"/><path class="cls-18" d="M4146.38,1483.85a171.11,171.11,0,0,0-5.47,27.22c-.64,4.56-.92,9.15-1.28,13.73-.19,4.59-.34,9.19-.25,13.79a133.57,133.57,0,0,0,3.11,27.51c2.12,9.06,5.21,18.15,11,26.34-3.89-8.73-5.83-17.71-7.23-26.72a204.54,204.54,0,0,1-2-27.18c-.25-9.09.05-18.19.45-27.3S4145.71,1493,4146.38,1483.85Z" transform="translate(82.26 28.05)"/><path class="cls-18" d="M3923,1477.82c-3.41,13.35-7,26.65-10.7,39.93s-7.63,26.51-12,39.65a384.27,384.27,0,0,1-15.09,39,163.72,163.72,0,0,1-10.08,18.83,72.47,72.47,0,0,1-14.32,17.29c6.86-4.66,11.91-10.56,16.46-16.51a138.69,138.69,0,0,0,11.52-18.68c3.35-6.37,6.23-12.86,9-19.38s5-13.11,7.28-19.72,4.2-13.26,6-19.92,3.53-13.35,5-20.06A374.25,374.25,0,0,0,3923,1477.82Z" transform="translate(82.26 28.05)"/><path class="cls-15" d="M3885.42,1623.27c.48-2.73,29-5.77,39.44-6.17,7.93-.29,60.53-1.57,78.41-2.16l-1.31,3.35.27,14.77,2.94,9.78c-15.69.73-54.06,1.82-62.05,3-10.67,1.53-29.19,7.38-29.19,7.38s-7.69-1.27,2.09-4.34a48.86,48.86,0,0,0,15.7-8.18c1.34-1.09-.11-3-1.09-2.85-26.64,5.08-29.38,5.92-29.38,5.92s-31.3-.13-.17-5.25c18.66-3.06,25.34-4.85,27-6.37.7-.65-.56-2.85-1.7-2.9-16.16-.73-45.18,3.44-37.23.7,6.48-2.22,26.89-4.67,34.83-5.59a1.29,1.29,0,0,0-.89-2.34C3907.7,1621.06,3885,1625.81,3885.42,1623.27Z" transform="translate(82.26 28.05)"/><path class="cls-18" d="M4164.61,1590.18c-6.56,1.16-13,2.49-19.61,3.49s-13.17,2-19.73,3q-19.83,2.63-39.76,4.63c-13.32,1.27-26.64,2.44-40,3.38s-26.85,1.78-40,2.32l-1.78.07-.39,1.12a60.72,60.72,0,0,0-2.43,9.66,56.19,56.19,0,0,0-.78,9.76,46.41,46.41,0,0,0,1.16,9.78,36.48,36.48,0,0,0,3.9,9.42l.16.26.28.14,14.64,7.15q7.32,3.57,14.72,7.06c-4.59-2.68-9.22-5.3-13.88-7.91l-13.95-7.83.44.4a33.8,33.8,0,0,1-3.07-9.06,46.11,46.11,0,0,1-.63-9.38,64.83,64.83,0,0,1,1.18-9.38,57.9,57.9,0,0,1,2.59-9.18l-2.16,1.19c7-.14,13.56-.46,20.33-.82s13.46-.75,20.17-1.27c13.43-1,26.83-2.22,40.16-3.77s26.59-3.46,39.73-5.71c6.54-1.22,13.1-2.39,19.54-3.87C4151.9,1593.47,4158.27,1591.82,4164.61,1590.18Z" transform="translate(82.26 28.05)"/><path d="M3548.22,1513h291.49l82.83,147H4063c3.8,0,6.88,2.24,6.88,5h0c0,2.76-3.08,5-6.88,5h-418Z" transform="translate(82.26 28.05)"/><path class="cls-7" d="M3692.78,1597.31c1.73,6.26,9.22,10.44,16.75,9.34s12.23-7.05,10.51-13.3-9.22-10.44-16.74-9.34S3691.06,1591.06,3692.78,1597.31Z" transform="translate(82.26 28.05)"/><path d="M3941.42,1245.49s-24.89.58,1.23-14.72,96.27-33.26,141.23-16c0,0,9-13.9,22-10.58s-8.45,12.88-8.45,12.88,16.6-.39,21.67,5.53c3.74,4.37-6.42,4.56-12,4.37,9.45,1.17,45.67,17.8,27.49,70.9-6.46-1-43.28-39.85-43.28-39.85s-84.2,34-75.88,7c0,0-87.23,39.59-74.85,6.89C3940.58,1271.88,3906.84,1273.68,3941.42,1245.49Z" transform="translate(82.26 28.05)"/><path d="M4134.66,1298.2a20.9,20.9,0,0,0-14.47,2.54c-7.5,4.33-6.67,19.53-6.67,19.53s-35.79,16.78-32-54.23c4-75.54,29.86,6.06,29.86,6.06Z" transform="translate(82.26 28.05)"/><rect class="cls-7" x="5258.74" y="1943" width="740" height="30" transform="translate(11339.74 3944.05) rotate(180)"/><path class="cls-7" d="M5977.79,1712.48,5989,1750c4.31,14.39-8.33,28.59-28.16,31.63L5299.8,1883.08c-20.27,3.11-40.05-6.65-43.55-21.51l-5.81-24.65c-2.64-11.2,4.82-22.39,18.56-27.82l198-78.29a46.75,46.75,0,0,1,13.53-3.07L5934,1692.11l3.26-.31C5956.11,1690,5973.74,1699,5977.79,1712.48Z" transform="translate(82.26 28.05)"/><path class="cls-10" d="M5309.2,1824s-94.41,50-25.66,132.43l-4.1,21.26-121.09,6-110.82-16.41L5027,1833l265.77-57.45Z" transform="translate(82.26 28.05)"/><rect class="cls-9" x="5014.74" y="1956" width="1063" height="66" rx="12.81" transform="translate(11174.74 4006.05) rotate(180)"/><path class="cls-9" d="M6054,1703.86l-755.51,129.53a49.49,49.49,0,0,1-18.32-.34c-29.74-6.21-130.52-21.69-215.33,30.94-20,12.43-50.95,5.82-58.15-12.58l-13.52-34.56c-4.38-11.19,1.95-23.14,15.52-29.31,109.69-49.91,589.91-258.93,906.05-243,29.81,1.5,56.69,13.58,71.87,32.29L6069,1678.3C6077.16,1688.32,6069.61,1701.19,6054,1703.86Z" transform="translate(82.26 28.05)"/><ellipse class="cls-9" cx="5246" cy="1932.05" rx="45" ry="33"/><path class="cls-9" d="M5255.26,435.62s85-10.43,113.52,58.62l-35.2,38.31s-73.83-20.62-74.12-22.64S5255.26,435.62,5255.26,435.62Z" transform="translate(82.26 28.05)"/><path class="cls-9" d="M5118.45,466.72s-24.79,27.11-37.43,37.86c-31.82,27-35.91,18.56-55.69,41.81-21.34,25.11.25,40.83,12.53,48.06s-8.27,34,14.6,49c29.94,19.64,57.63,1.12,78.22,12.12s25.1,27.31,73.91,24.23,48.34-119.13,48.34-119.13-40-61.52-41.54-62S5118.45,466.72,5118.45,466.72Z" transform="translate(82.26 28.05)"/><path class="cls-9" d="M5368.78,494.24s2.91,21.3,12.6,33.56c24.37,30.86,37.5,20.75,51,46.27,14.57,27.55-10.65,40.08-24.56,45.54s-.55,34.52-26.85,46.18c-34.42,15.26-56.91-6.67-79.95,1.36S5269.38,690.6,5222.2,681s-17.12-123.57-17.12-123.57,54.95-55.07,56.64-55.36S5368.78,494.24,5368.78,494.24Z" transform="translate(82.26 28.05)"/><path class="cls-15" d="M5245.45,631.23s-81.46-10.89-118.93-10,22.7,71.74,22.7,71.74l61.19,1s37.51-30.46,35-34,.12-26.78.12-26.78Z" transform="translate(82.26 28.05)"/><path class="cls-15" d="M5172.81,575.14l-21.49,47.43s18.71,28.12,76,16c0,0-6.53-9.82,2.23-30C5238.52,587.84,5172.81,575.14,5172.81,575.14Z" transform="translate(82.26 28.05)"/><path class="cls-19" d="M5172.81,575.14l-10.08,22.16c6,16.19,25.5,27.21,62.27,30.64,0-4.82,1-11.26,4.55-19.43C5238.52,587.84,5172.81,575.14,5172.81,575.14Z" transform="translate(82.26 28.05)"/><path class="cls-16" d="M5303.89,540.42c-4.65,7.7-1.55,16.14,6.92,18.84s19.11-1.34,23.76-9,1.55-16.14-6.92-18.84S5308.54,532.72,5303.89,540.42Z" transform="translate(82.26 28.05)"/><path class="cls-15" d="M5306.26,575.39a94.31,94.31,0,0,0,10.05-29.75c.34-2,.84-3.95,1.38-5.91a47.72,47.72,0,0,0,.23-25.07c-7.25-28.06-39.6-49.72-78.66-52.59-52.63-3.86-97.34,25.56-98.71,63a25.71,25.71,0,0,0-17.37-1.32c-10.74,3.24-14.93,13.78-9.36,23.54s18.8,15.05,29.54,11.81a19.23,19.23,0,0,0,4.07-1.76c3.3,31.92,38.28,57.2,81.34,57.51C5261.09,615.07,5292.91,600.82,5306.26,575.39Z" transform="translate(82.26 28.05)"/><path class="cls-16" d="M5250.07,526.53a30.59,30.59,0,0,0-2.86,11,22.55,22.55,0,0,0,.27,5.72,12.07,12.07,0,0,0,2.71,5.84c2,1.82,3,2.43,3.27,3.89.36,1.26-.45,2.63-1.71,3.85-2.72,2.46-7.47,3.81-12.44,4.54,4.94.71,10.82.26,15.2-2.64,2.14-1.4,3.79-3.63,3.55-6.06s-1.8-3.64-3.82-5.55a11.79,11.79,0,0,1-2.22-4.45,33.92,33.92,0,0,1-1-5.2C5250.57,533.88,5250.38,530.25,5250.07,526.53Z" transform="translate(82.26 28.05)"/><path class="cls-17" d="M5220.66,532.25c-.05,3.14-3.58,5.65-7.89,5.62s-7.77-2.6-7.73-5.74,3.57-5.65,7.89-5.62S5220.7,529.11,5220.66,532.25Z" transform="translate(82.26 28.05)"/><path class="cls-17" d="M5287.69,535.94c0,3.14-3.58,5.65-7.89,5.62s-7.78-2.6-7.73-5.74,3.57-5.65,7.88-5.62S5287.73,532.8,5287.69,535.94Z" transform="translate(82.26 28.05)"/><path class="cls-20" d="M5219.29,575.43s11.17-2.91,21.68,2.1c0,0,11.37-5.17,20.32-.23,0,0-4.16,12.3-22.82,11.47S5219.29,575.43,5219.29,575.43Z" transform="translate(82.26 28.05)"/><path class="cls-16" d="M5209.51,571a58.14,58.14,0,0,0,6.63,3.39,61.72,61.72,0,0,0,7.1,2.74,63,63,0,0,0,15.31,3,56.09,56.09,0,0,0,15.69-1.26,68.82,68.82,0,0,0,14.38-5.22,51.8,51.8,0,0,1-6.49,3.62,53.28,53.28,0,0,1-7.38,2.68,50.51,50.51,0,0,1-8,1.51,56.5,56.5,0,0,1-8.33.16,55.35,55.35,0,0,1-15.83-3.44A48.22,48.22,0,0,1,5209.51,571Z" transform="translate(82.26 28.05)"/><path class="cls-9" d="M5229.81,519.17a107.06,107.06,0,0,0-11.51-1.69,54.46,54.46,0,0,0-10.85.12,47.6,47.6,0,0,0-10.33,2.29c-2.56.65-8.74,3.52-10.35,4.09a20.94,20.94,0,0,1,7.84-7.1,30.83,30.83,0,0,1,11.92-3.7,35.75,35.75,0,0,1,12.89.9A25.81,25.81,0,0,1,5229.81,519.17Z" transform="translate(82.26 28.05)"/><path class="cls-9" d="M5264.34,521.07a28.09,28.09,0,0,1,11.16-4.14,36,36,0,0,1,12.95.25,28.49,28.49,0,0,1,11.21,4.73,18.62,18.62,0,0,1,6.59,7.74c-1.52-.71-7.16-4.1-9.59-5a44.72,44.72,0,0,0-9.86-3.18,53.53,53.53,0,0,0-10.75-1.08A109.58,109.58,0,0,0,5264.34,521.07Z" transform="translate(82.26 28.05)"/><path class="cls-4" d="M5104.16,921.41s-24,82.21,85,101.73,246.59,21.5,246.59,21.5l2.55,191.49,57.38,4.77s171.23-258-30.35-308.85l-184.45-7.81-75.58-7.43s-75.63-17.32-76.76-14.74S5105.86,922.81,5104.16,921.41Z" transform="translate(82.26 28.05)"/><path class="cls-8" d="M5002.16,917.2s-24,82.2,85,101.72,246.59,21.51,246.59,21.51l2.55,191.48,57.38,4.78s171.23-258-30.35-308.86L5178.87,920l-75.58-7.43s-75.63-17.33-76.76-14.74S5003.86,918.59,5002.16,917.2Z" transform="translate(82.26 28.05)"/><path class="cls-7" d="M5366.92,1045.92c-3.14-.42-6.29-.81-9.39-1.34s-6.16-1.13-9.2-1.79c-1.52-.35-3.05-.72-4.54-1.12,1.57-.24,3.09-.57,4.61-1a41,41,0,0,0,15.47-7.65,37.38,37.38,0,0,0,5.52-5.43l-3.12,2.47c-1.12.76-2.16,1.57-3.33,2.28a49.25,49.25,0,0,1-7.25,3.91,52.77,52.77,0,0,1-8.09,2.76,41.53,41.53,0,0,1-8.57,1.25l-5.1.14,4.52,1.53a77.69,77.69,0,0,0,9.27,2.35c3.12.64,6.3,1.09,9.48,1.48s6.38.7,9.59.88,6.42.28,9.63.27C5373.24,1046.62,5370.07,1046.33,5366.92,1045.92Z" transform="translate(82.26 28.05)"/><path class="cls-15" d="M5337.81,747.07s7.42,134.32,28.19,155.35l-114.26-18.88V737.36Z" transform="translate(82.26 28.05)"/><path class="cls-11" d="M5289.15,765.41s-15.9,33.81-18.79,51.76c-7.19,44.6.61,76.05,13.31,101.44,17.8,35.6-127.61,22.65-130.58,21.57S5025.49,904,5025.49,904l-23.75-50.17V765.41l6.68-40.46Z" transform="translate(82.26 28.05)"/><path class="cls-15" d="M4941.12,725l91.5,22.66s-15.83,106.44-10.88,121.55c4.23,12.91,70.59,38.58,112.64,53a57.09,57.09,0,0,0,21.68,2.86c23.95-1.44,66.41-4.13,73.07-4.47,10.47-.52,39.25,0,40.17,2.68.86,2.48-22.48-.25-37.61,2-2.13.31-1,2.38-.5,2.39,8,.22,28.7.87,35.5,2.51,8.34,2-21.15.42-37.08,2.55-1.12.15-2,2.45-1.2,3,1.9,1.37,8.83,2.56,27.86,4,31.75,2.36.69,5.22.69,5.22s-2.85-.59-30.14-3.31a1.61,1.61,0,0,0-.61,2.93,53.62,53.62,0,0,0,16.94,6.75c10.22,2.19,2.79,4.13,2.79,4.13s-19.35-4.2-30.19-4.79c-8.12-.44-46.4,1.83-62.1,2.48l-1.2-2c-21.28-.45-191-3.65-207.37-80.15C4928.26,792.2,4941.12,725,4941.12,725Z" transform="translate(82.26 28.05)"/><path d="M5606.2,801H5314.71l-82.84,147h-140.5c-3.8,0-6.87,2.24-6.87,5h0c0,2.76,3.07,5,6.87,5h418Z" transform="translate(82.26 28.05)"/><path class="cls-7" d="M5461.63,884.91c-1.72,6.26-9.22,10.44-16.74,9.34s-12.23-7-10.51-13.3,9.21-10.44,16.74-9.34S5463.35,878.66,5461.63,884.91Z" transform="translate(82.26 28.05)"/><path class="cls-11" d="M5245.45,631.26s-55.38,47-118.93-10c0,0-69.43-4.11-120.62,22.32s-81.84,85.8-81.84,85.8,92.73,34,115.73,35.6h257.44s39.33-2.16,77.16-16.18C5374.39,748.82,5367.87,654.45,5245.45,631.26Z" transform="translate(82.26 28.05)"/><path d="M5073.64,711.85c-2.39,5.83-4.54,11.7-6.67,17.59-4,11.54-7.66,22.54-10.35,34.36a118.28,118.28,0,0,1-15.64-.88c-26.73-3.46-44.3-8.91-68.1-16-35.67-11.82-30.86-10.67-48.82-17.12,20.88,9.6,32.13,13.93,47.33,19.46,20.85,7,40.79,13.53,68.85,17.12,12.26,1.22,15.79,1,20.44.57,1.81-8.66,3.89-17.53,9.58-37l5.3-17.79,5.46-17.79C5078.37,700.19,5076,706,5073.64,711.85Z" transform="translate(82.26 28.05)"/><path d="M5276.75,680.77q5.44,10.35,9.87,20.82a143.63,143.63,0,0,1,7.16,21.19,73.85,73.85,0,0,1,2.35,21.56c-.37,7.21-15.06,41.11-19.38,47.82,6.1-5.95,22.09-40.14,23.17-47.6,1.24-7.49.39-15-1.34-22.4a95,95,0,0,0-8.37-21.47A104.78,104.78,0,0,0,5276.75,680.77Z" transform="translate(82.26 28.05)"/><path class="cls-9" d="M5140.55,525.05s95.12-16.68,140.56-63.67c0,0,.79-42.8-86.53-33.09C5109.74,437.72,5089.88,497.75,5140.55,525.05Z" transform="translate(82.26 28.05)"/><rect class="cls-21" x="3187" y="2048.05" width="2995" height="28" rx="11.53"/><polygon class="cls-4" points="3168.88 1114.23 3740.92 876.34 3818.24 987.7 3232.91 1212.85 3168.88 1114.23"/><path d="M3731.18,304.33c8-5.24,13.81-12.19,13-20.29-1.17-11.2-15-20.78-30.31-21.51-1.12,0-2.26,0-3.4,0-2.83-5.53-5.5-11.1-7.81-16.79-.37-.89-.73-1.79-1.1-2.69,7.24-5.51,13.92-11.32,18.37-18.38,5.29-8.42,5.63-18,4.92-27.09-.41-5.26-1.48-12-7.41-15.62-6.72-4.12-16-1.43-22.5,1.51-7.74,3.5-12.21,8.55-14.69,14.84-6.48,16.45-1,33.78,5.29,49.83-5.54,4.1-11.31,8.06-16.56,12.34-8.86,7.24-19.36,16.78-17.93,27.11s14.85,21.15,27.48,25.22c12.1,3.91,25.75,2.7,37.48-1.24a54.68,54.68,0,0,1,2.53,21.55,34.2,34.2,0,0,1-2.85,11.08,22.76,22.76,0,0,1-3.68,5.73c-.53.6-1.39,1.23-1.86,1.87l-.62.39c-.5.07-1.21.18-2.18.35a43.72,43.72,0,0,1-19.39-3.4c8.4-3.37,16.07-8.62,15.12-15.51-.57-4.13-4.78-8-10.41-9.07-6.42-1.2-13.55,1.4-18.74,3.87-10.93,5.2-16.26,15-7.72,23.3,8.38,8.11,26.26,9.75,38.65,6.37,25.69-7,31.45-25.67,28.79-43.64A62.09,62.09,0,0,0,3731.18,304.33Zm-12.66-28.65c7.66,5.24,11.53,12.78,9.33,20.07-1.88-4.26-4-8.45-6.33-12.61l-4.67-8.53C3717.42,275,3718,275.31,3718.52,275.68Zm-25.44-71.4a44.8,44.8,0,0,1,2.1-9.75,30.75,30.75,0,0,1,2.38-5.45,14.92,14.92,0,0,1,1.1-1.49c1.59.7,3.66,1,5.1,2.26a13.83,13.83,0,0,1,3.26,4.52c1.9,3.94,2.28,8.14,2.37,12.28.26,11.11-1.95,20.91-10.36,30C3695.07,226.08,3692,215.11,3693.08,204.28Zm.7,101.76c-11.35-3.38-22.13-12.34-26-20.81-4.3-9.3,3.81-18.41,11.69-25.33,2.58-2.27,5.35-4.45,8.18-6.58,1.84,4.27,3.91,8.48,6.1,12.67-7.46,2.78-14,7-17.54,11.76-6.58,8.95.63,20.63,14.74,22.13,3.48.37,7.64-1.57,10.37-2.94.57-.29,6.57-3.86,3.92-4.14-10.79-1.15-18.57-9.55-15.32-17.32,1.26-3,3-4.76,5.95-5.47,6.68,12.42,14,24.68,18.74,37.52-.63.12-1.27.23-2,.31A48.94,48.94,0,0,1,3693.78,306Z" transform="translate(82.26 28.05)"/><path d="M4822.62,177.08c-4.75-2.5-12.64-3.34-18.17-4.69l-20.32-5-40.63-9.94c-3.19-.78-14.93,3.59-14.93,6.27l-.06,34.87c0,7.47.31,15,.29,22.52a30.92,30.92,0,0,0-11.43-1.73c-9.06.35-20,4.68-24.49,10.52-4.34,5.61-2.44,13.13,3.51,17.73,5.79,4.48,13.65,5.19,21.41,3.33,8.35-2,16.94-6,21.78-11.48,6.06-6.84,4.46-15.68,4.47-23.44l0-21.06c7.63,2.22,15.59,4,23.2,6,3.36.89,39.7,9.93,39.41,10.65s.64.94,2,.78l-1.11,20.22c-11.6.68-23.16,3.55-31.9,9-10.68,6.65-9.15,18.26,2.66,23.74,11.34,5.26,25.4.53,34.26-5.54,10.82-7.42,11.92-17.81,10.29-27.89q.8-14.66,1.61-29.3.42-7.78.86-15.56C4825.49,183.77,4826.87,179.3,4822.62,177.08Zm-116.9,49.52h0l-.12,0Q4702.67,226.56,4705.72,226.6Zm15,18.19a17.44,17.44,0,0,1-13-8.35,10.53,10.53,0,0,1-1.36-7.38,5.47,5.47,0,0,1,.46-1.61c.35-.43.43-.71.24-.85a9.37,9.37,0,0,1,1.2.14,27.58,27.58,0,0,1,16.89,8.38c.49.51,1.64.56,3.09.31C4727.83,239.26,4726.64,245.4,4720.73,244.79Zm85.38,10c-.73,1.63-2,3-2.88,4.58-1.56,1-1.61,1.38-.15,1.12q2.25-.13-.69.09a25.43,25.43,0,0,1-9.18-2c-5.83-2.69-9.67-7.65-9.33-12.71a6.65,6.65,0,0,1,1-3.58c1.16-1.46,2.85-1.6,5.6-2a69.07,69.07,0,0,1,17.18-.23C4808.32,245,4808.25,250,4806.11,254.8Z" transform="translate(82.26 28.05)"/><path d="M4277.43,429.38c-7.55-3.62-17-3.69-24.13-8-6.13-3.7-10.17-8.93-14-13.91-1.69-2.2-16.17,3.83-15.48,6.5a206,206,0,0,1,5.92,70.89,38.88,38.88,0,0,0-14.45-.83c-9.18,1.25-20.16,5.42-25.25,11.32-5.9,6.85,1.63,13,9.24,16.88,9,4.57,17.75,5.79,27.69,2,9.49-3.63,14.17-8.57,15.75-16.2a181.63,181.63,0,0,0,3.38-30.68,205.18,205.18,0,0,0-2.11-36.71c4.79,1.61,9.94,2.45,15,4.13,17.79,5.89,19.66,21.55,17.48,33.87-.31,1.75,15-2.16,15.58-5.46C4294.24,451,4293,436.82,4277.43,429.38Zm-50.73,76.14a16.61,16.61,0,0,1-1.13,3.36c0,.12-.12.23-.17.35-2.09-.74-9.8-3.07-10.63-3.48a33.3,33.3,0,0,1-8.22-5.38c-2.25-2.16-3.76-4.84-2.74-7.57A5.47,5.47,0,0,1,4205,491l.36-.06a18.09,18.09,0,0,1,4,0c7.1.44,13.09,3,19,5.7a1.11,1.11,0,0,0,0,.19C4227.84,499.72,4227.44,502.65,4226.7,505.52Z" transform="translate(82.26 28.05)"/><path d="M3332.06,603.56c-7,.42-14.33-5-16.43-9.49-1.77-3.81.15-14.68,6.78-16a30.87,30.87,0,0,0,9.57-3.7c.61-.38,4.45-2.77,2.19-3.21-6.53-1.27-13-3.17-16.7-7.59-2.56-3.09-2.66-6.77-1.55-10.2,1.28-3.92,4.21-7.26,6.06-11a26.28,26.28,0,0,0,2.7-12.62c-.29-8-5.22-14.09-14.11-18.79-4.39-2.33-9.2-4.18-13.81-6.27-4.94-2.23-9.2-4-15.19-3.5-2.21.19-16.72,6.07-13.22,7.11,11.43,3.41,18.3,11.88,18.56,20.75.14,5-1.6,9.94-4.09,14.54a63.88,63.88,0,0,1-5.74,8.55c-1.12,1.45-3.89,3.63-4.18,5.28-.75,4.15,9.17,9.08,13,11.32a42.46,42.46,0,0,0,14.09,4.71,24.62,24.62,0,0,0-5.29,2.66c-9.7,5.48-17,13.87-12.84,23.07,5.21,11.46,23.94,13.33,38.06,11.54a29,29,0,0,0,11-3.9C3332,606.14,3335.92,603.33,3332.06,603.56Z" transform="translate(82.26 28.05)"/><path d="M1936.5,203.82c-.12-10.95-.67-21.88-1.71-32.78q-.88-9.27-2.22-18.49c-.6-4.12-.28-10.28-5.47-11.09-4.84-.76-10.95,1.25-15.74,2q-9,1.44-18,3.08-18.48,3.36-36.8,7.53c-2,.46-9.75,3.78-9,6.63q4,14.88,7.67,29.83c1.56,6.37,3.53,12.92,4.92,19.51-10.15,1.19-21.93,7.69-23.75,17.55-.91,4.9.84,10.47,5,13.36,5,3.45,11.3,1.68,16.3-.85,5.54-2.8,10.83-7,13.48-12.71,3.07-6.64,2-14.34.51-21.24-3.35-16-7.53-31.8-11.74-47.57,7.84-1.69,15.69-3.28,23.58-4.72q8-1.49,16.08-2.79c5.1-.84,11.31-2.78,16.49-2.49s4.73,7.53,5.28,11.43q1.17,8.25,2,16.54c1,9.71,1.49,19.44,1.68,29.18a7,7,0,0,0-1,1.15,37.51,37.51,0,0,0-12.44,7.26c-5.66,4.86-13,15.93-3.21,20.62,8.06,3.85,18.78-2.06,24.59-7.53C1939.82,220.86,1940.82,211.62,1936.5,203.82Zm-77.65,30.81c-2.82,2.64-7.16-.38-9-3.1a12.6,12.6,0,0,1-1.92-10,10.12,10.12,0,0,1,1-2.55c.14-.26.85-1.1,1.18-1.59.56-.1,1.54-.39,1.83-.42a17,17,0,0,1,4.1.12,8.77,8.77,0,0,0,5.2-1.46c.27,1.79.47,3.58.58,5.36C1862,224.9,1862,231.67,1858.85,234.63Zm68.86-12.56c-.41,2.61-1.84,4.23-2.81,6.51l-.24.06c-.86-.38-2.89.05-3.92-.23-5-1.32-6.86-5.55-4.91-10.17.43-1,2.05-4.38,3-5,1.84-1.15,5.06,0,6.85.77a2.67,2.67,0,0,0,1.3.07A16.57,16.57,0,0,1,1927.71,222.07Z" transform="translate(82.26 28.05)"/><path d="M2322,212.84a47,47,0,0,0-40.13-6.61,67,67,0,0,0-20.68,10c-5.19,3.68-11.5,8.22-12.67,14.87-1,5.81-.42,12.5.29,18.35,1,8.27,9.12,12.26,16.58,13.71,16,3.1,34.8.51,48.33-8.79,6.78-4.66,12.7-11.29,14.55-19.5C2330,227.15,2328.33,218,2322,212.84Zm-15.52,41.57c-7.9,3-18.42,3-26.77,2.19-6.92-.68-16.46-3.16-19-10.51-1.82-5.31-1.66-13.21-1.1-18.78.65-6.37,5.4-10.16,11-12.73,12.87-5.84,28.76-3.23,40.08,4.76C2321,227.63,2319.68,249.38,2306.48,254.41Z" transform="translate(82.26 28.05)"/><path d="M1622.05,929.4c5.81-5.24,10-12.19,9.42-20.3-.85-11.19-10.92-20.78-22-21.5a22.61,22.61,0,0,0-2.47,0c-2.06-5.52-4-11.1-5.68-16.78-.26-.89-.53-1.79-.79-2.7,5.26-5.5,10.12-11.32,13.35-18.38,3.85-8.41,4.1-18,3.58-27.08-.3-5.26-1.08-12-5.39-15.62-4.88-4.13-11.62-1.43-16.36,1.51-5.63,3.49-8.88,8.55-10.68,14.84-4.71,16.45-.69,33.77,3.85,49.83-4,4.1-8.23,8.06-12,12.34-6.45,7.24-14.08,16.78-13,27.1s10.8,21.16,20,25.23c8.8,3.9,18.72,2.7,27.25-1.24a74,74,0,0,1,1.84,21.54,44.89,44.89,0,0,1-2.07,11.08,25.13,25.13,0,0,1-2.67,5.73c-.39.6-1,1.24-1.36,1.87l-.45.4-1.58.34a24.18,24.18,0,0,1-14.1-3.4c6.1-3.36,11.68-8.62,11-15.51a10.59,10.59,0,0,0-7.57-9.06c-4.66-1.2-9.85,1.4-13.62,3.87-8,5.19-11.83,15-5.61,23.29,6.08,8.12,19.09,9.75,28.09,6.37,18.68-7,22.87-25.66,20.94-43.63A84,84,0,0,0,1622.05,929.4Zm-9.21-28.66c5.56,5.25,8.38,12.78,6.78,20.07-1.37-4.25-2.94-8.45-4.6-12.6-1.13-2.85-2.27-5.69-3.4-8.53C1612,900,1612.45,900.37,1612.84,900.74Zm-18.5-71.39a59.7,59.7,0,0,1,1.53-9.76,38.22,38.22,0,0,1,1.73-5.44,14.51,14.51,0,0,1,.8-1.49c1.15.7,2.66,1,3.71,2.25a14.81,14.81,0,0,1,2.37,4.52,38.68,38.68,0,0,1,1.72,12.28c.19,11.12-1.42,20.91-7.53,30C1595.79,851.15,1593.54,840.18,1594.34,829.35Zm.51,101.76c-8.25-3.38-16.09-12.34-18.93-20.81-3.13-9.3,2.77-18.42,8.49-25.33,1.89-2.28,3.89-4.45,5.95-6.59,1.34,4.28,2.85,8.49,4.44,12.68-5.43,2.77-10.19,7-12.75,11.76-4.79,8.94.45,20.62,10.72,22.12,2.53.37,5.55-1.57,7.53-2.93.42-.29,4.78-3.86,2.85-4.14-7.84-1.15-13.5-9.55-11.13-17.32.91-3,2.21-4.76,4.32-5.47,4.85,12.42,10.16,24.68,13.63,37.52a12.46,12.46,0,0,1-1.43.3A26.29,26.29,0,0,1,1594.85,931.11Z" transform="translate(82.26 28.05)"/><path d="M1125.22,349.77q-14.17.62-28.35,1,1.45-12.69,2.5-25.43,7.92-.09,15.83-.16c2.73,0,6-2.21,8-3.9.92-.77,3.55-3.26.82-3.24q-12.06.08-24.1.25.81-11,1.32-22.11c.1-2-11.17,2.28-11.32,5.46q-.39,8.43-1,16.84-16.37.28-32.72.73,2.51-11.74,4.71-23.56c.39-2.07-4.45.14-5,.4-1.75.82-5.89,2.8-6.31,5.06q-1.73,9.22-3.64,18.41-8.38.25-16.78.55c-2.77.1-6,2.17-8,3.9-.87.73-3.59,3.35-.82,3.25q12.08-.45,24.15-.79-2.7,12.52-5.74,25-6.24,0-12.49-.11c-2.71,0-6,2.24-8,3.9-1,.8-3.53,3.21-.82,3.25q9.78.12,19.55.12-2.88,11.37-6,22.65a3.49,3.49,0,0,0-1.49,2.22l-.09,3.45c-.07,2.47,10.58-2.89,11.32-5.46Q1044,370,1047,358.55q19.2-.07,38.38-.57-1.77,15.09-4.11,30.11c-.26,1.66,10.8-2.12,11.32-5.46q1.95-12.45,3.49-25,10.18-.32,20.36-.75c2.78-.12,5.95-2.17,8-3.9C1125.26,352.3,1128,349.65,1125.22,349.77Zm-76.45,1.65q3.17-12.59,6-25.26,16.88-.42,33.75-.69-1,12.79-2.37,25.55Q1067.45,351.43,1048.77,351.42Z" transform="translate(82.26 28.05)"/><path d="M2416.43,694.67q.89-31.57,1.79-63.14c.06-2.1-11.24,2.31-11.32,5.46q-.6,20.71-1.18,41.44c-.24,8.26-.22,16.6-.43,24.92-12.2-2.3-26.73,3.83-31.88,15.31-2.84,6.33-1.89,14.09,3.93,18.38s13.43,3.63,19.83.83c6.71-2.94,13.12-7.82,16.3-14.58C2417.46,714.82,2416.17,703.8,2416.43,694.67Z" transform="translate(82.26 28.05)"/><path d="M2564.69,1072.34q-3.78-29.44-7.55-58.9a1.22,1.22,0,0,0-1.21-.33c-46.74,3-93.75,6.45-139.12,18.79-2.14.58-9.58,3.62-9,6.63a404.34,404.34,0,0,1,6.65,47.37,24.29,24.29,0,0,0-8.27,2.34c-4.33,2.11-9.86,5.65-11.23,10.64-1.18,4.3,1.59,8.12,5.63,9.45,4.82,1.6,10.12-.81,14.18-3.27s7.72-5.9,9.65-10.43c2.4-5.61,1.6-12,1.07-17.91-.74-8.26-1.75-16.5-3-24.7q29.88-5.94,60.06-10a244.6,244.6,0,0,1,4.57,33.47c-9,2.48-17.77,9.38-19.83,18.08-1.12,4.71-1.06,11,5,10.65a37.09,37.09,0,0,0,16.34-5.23c4.91-3,9.06-6.86,10-12.72,1.06-6.46.06-13.54-.45-20a245.82,245.82,0,0,0-3.43-25.8q26.42-3.26,53-5.11h0q2.49,19.49,5,39a44.48,44.48,0,0,0-13.55,7.58c-4.62,3.75-12.28,13-5.43,18.39,5.88,4.59,15.81-1.33,20.57-5a27.26,27.26,0,0,0,10.59-22.37A.5.5,0,0,0,2564.69,1072.34Zm-77.14,17.81c-.16,1.68-.45,4.81-1.73,6.22.26-.56-3,.46-3.23.47-1.89.1-2.82.24-3.89-1.32s-.59-4.89-.24-6.7c.9-4.6,2.77-7.41,7.75-7.19a5.94,5.94,0,0,0,1.31-.13A59.48,59.48,0,0,1,2487.55,1090.15Zm-75.35,11.42a4.44,4.44,0,0,1-.6-.16,6.81,6.81,0,0,1-5.44-5.65,3.83,3.83,0,0,1,.13-2.34l.45-.86a39.35,39.35,0,0,0,5.19.71,5.9,5.9,0,0,0,2.72-.32,24.34,24.34,0,0,1-.64,4.39C2413.74,1098.43,2412.35,1100.53,2412.2,1101.57Zm9.51-54.76q-.86-5.34-1.85-10.66a491.2,491.2,0,0,1,58.91-10.23s0,.09,0,.13c.92,3.39,1.76,6.8,2.55,10.23Q2451.38,1040.65,2421.71,1046.81Zm71.94-12.25q-1.05-5-2.3-10,7.33-.74,14.69-1.35c7.95-.68,15.91-1.26,23.87-1.81l11.46-.76c2.51-.16,3.38-.75,4.77,1.28.92,1.35.67,5.24.88,6.91v0Q2520.25,1031,2493.65,1034.56Zm57.74,55.64a20.76,20.76,0,0,1-2.68,4.24l-1.05.16a6.64,6.64,0,0,1-2.21-.66c-3.57-2-3.22-6.64-1.5-9.74,2.13-3.84,5.77-4.55,9.76-4.68A25,25,0,0,1,2551.39,1090.2Z" transform="translate(82.26 28.05)"/><path d="M1148,801.7l-17.28.55a24.28,24.28,0,0,0-5.14-10.26c-10.4-11.34-24.73-15.73-39.81-15.74-13.68,0-29.2,8.78-35.52,21.11a30.5,30.5,0,0,0-2.32,6c-3.39-.28-6.77-.66-10.15-1.17-2.52-.38-5.56,1.57-7.54,2.94-.41.28-4.77,3.85-2.85,4.14a174.38,174.38,0,0,0,19.6,1.73,24.52,24.52,0,0,0,1,6.53c2.27,7.69,10.87,10.78,17.83,13,14.53,4.63,31.29,4.39,45.29-1.91,6.89-3.09,14.3-7.73,18-14.56a16.87,16.87,0,0,0,1.75-5l8.32-.26c2.77-.09,6-2.18,8-3.9C1148.09,804.21,1150.79,801.62,1148,801.7Zm-87.53-7.44c3-7.15,7.94-10.79,15.69-10.86,14.42-.12,28.25,4.27,38.16,15.09a28.18,28.18,0,0,1,2.88,4.18l-24.64.78c-11.41.36-22.86.86-34.26.52A28,28,0,0,1,1060.5,794.26Zm58.2,23.43c-2.75,6.38-9.19,7.6-15.47,8.38a62.92,62.92,0,0,1-22.91-1.4c-6.67-1.66-16.65-4.4-20-11a16,16,0,0,1-1-2.5c7.5-.05,15-.32,22.52-.55l37.88-1.19A14.5,14.5,0,0,1,1118.7,817.69Z" transform="translate(82.26 28.05)"/><path d="M2749.79,595.56c-2.4,1-5.1,2.55-6.67,4.68-3.93,5.3-5.48,13.55-10.58,17.79s-15.12.72-19.15-3.61a16.48,16.48,0,0,1-1.34-1.66,23.49,23.49,0,0,0,6-2.52c4.47-2.59,11.56-8.11,8-14.1s-10.59-4.44-15.63-1.65c-5.8,3.21-11.36,8.47-12,15.38-1.19,13,13.76,18.79,24.58,16.23a40.52,40.52,0,0,0,15.63-7.77q-6.57,29-11.25,58.41c-.33,2.07,4.42-.12,5-.4,1.7-.8,6-2.83,6.32-5.06q6.06-38.22,15.36-75.81C2754.55,593.59,2750.15,595.4,2749.79,595.56Z" transform="translate(82.26 28.05)"/><path d="M2974.73,1089.7c-1.26-1.15-6.7,2.33-7.54,2.94,1.66-1.22-1.52-.67-2.52-.85a15.12,15.12,0,0,1-3.29-1,18.64,18.64,0,0,1-7-5.56c-3.41-4.13-5.51-9.14-8.42-13.61a25.56,25.56,0,0,0-10.78-9.72c-4.72-2.16-10-3-13.67-7-1.87-2-12,3.87-11.26,6.5a281.43,281.43,0,0,1,9.78,68.42c-12.47-.69-30.07,9.69-24.42,24.08,5.12,13,24.47,13.22,32.61,3.14,4.11-5.09,2.91-14.22,3.08-20.4q.38-12.72-.44-25.43A280.29,280.29,0,0,0,2925,1069l1.07.53c6.85,3.63,9.88,10.82,13.67,17.13,3.35,5.57,7.84,10.92,14.56,12.2,6.32,1.2,12.56-1.32,17.6-5C2972.9,1093.1,2976.22,1091.07,2974.73,1089.7Z" transform="translate(82.26 28.05)"/><path d="M3008.28,775.06c-4.44,2.38-11.35,7.55-11.17,13.37-5.8-3.13-11-7.54-16.71-10.78-6.87-3.89-14.4-7-22.32-7.67-13.11-1.17-27.34,4.13-36.24,13.93-3.85,4.25-7.06,10.47-4.33,16.23,2.8,5.92,9.21,5.58,14.36,3.25,5-2.25,12.13-6.94,9.56-13.35-2.11-5.28-7.52-5.88-12.57-5a13.47,13.47,0,0,1,1.43-2.57c2.61-3.74,6.31-4.81,10.68-5.31,8.74-1,17.44,1.66,25.19,5.52,8,4,14.7,10.18,22.74,13.94,12.54,5.85,31.61-2.09,32.46-17C3021.87,770.71,3014,772,3008.28,775.06Zm-73.85,23,.16-.06S2934.52,798,2934.43,798Z" transform="translate(82.26 28.05)"/><path d="M2011.82,1869.6c-.12-10.94-.67-21.88-1.71-32.78q-.88-9.27-2.22-18.48c-.6-4.13-.28-10.29-5.47-11.1-4.84-.75-11,1.25-15.74,2q-9,1.44-18,3.07-18.48,3.38-36.8,7.54c-2,.45-9.75,3.78-9,6.62q4,14.88,7.66,29.84c1.57,6.37,3.54,12.92,4.93,19.5-10.15,1.19-21.93,7.7-23.75,17.55-.91,4.91.84,10.48,5,13.37,5,3.45,11.29,1.68,16.3-.85,5.54-2.8,10.83-7,13.48-12.71,3.07-6.65,2-14.34.51-21.24-3.36-16-7.53-31.81-11.74-47.57q11.76-2.54,23.58-4.73,8-1.47,16.08-2.79c5.1-.83,11.31-2.77,16.49-2.49s4.73,7.53,5.28,11.44q1.17,8.24,2,16.54c1,9.7,1.49,19.44,1.68,29.18a6.63,6.63,0,0,0-1,1.15,37.34,37.34,0,0,0-12.44,7.26c-5.66,4.85-13,15.92-3.21,20.61,8.06,3.86,18.78-2.06,24.58-7.52C2015.14,1886.65,2016.14,1877.41,2011.82,1869.6Zm-77.65,30.82c-2.82,2.63-7.16-.38-9-3.1a12.61,12.61,0,0,1-1.92-10,10.19,10.19,0,0,1,1-2.56c.13-.25.85-1.09,1.18-1.58.56-.1,1.54-.39,1.83-.43a17.58,17.58,0,0,1,4.1.13,8.92,8.92,0,0,0,5.2-1.46c.27,1.79.47,3.58.58,5.36C1937.33,1890.69,1937.32,1897.46,1934.17,1900.42Zm68.86-12.56c-.41,2.61-1.84,4.22-2.81,6.5l-.24.06c-.86-.37-2.89.06-3.92-.22-5-1.32-6.86-5.55-4.91-10.17.42-1,2-4.38,3-5,1.84-1.15,5.06,0,6.85.77a2.54,2.54,0,0,0,1.3.08A16.57,16.57,0,0,1,2003,1887.86Z" transform="translate(82.26 28.05)"/><path d="M2762.23,1938.42c-4.13-11.49-18.44-15.34-28.95-18.23-6.13-1.69-12.37-3.22-18.13-6-4.45-2.12-10.59-5.86-12.41-11l-.54-4.11c-.18-1.44-11.11,3.27-11.29,6a11.76,11.76,0,0,0,.58,4.56q3.3,24.91,7.88,49.63c1.51,8.07,3.4,16.1,4.76,24.2a16.13,16.13,0,0,0-8.35.29c-6.62,2-13.77,7-15.34,14.14s2.84,12.87,9,15.54a20.19,20.19,0,0,0,21.29-3.56c3.58-3.13,4.76-7.79,5.5-12.31,1-6,.43-12-.46-18.06-1-6.66-2.55-13.22-3.87-19.83-.07-.39-.15-.79-.23-1.18q-1.24-6.48-2.4-13c1.9.52,3.77,1,5.43,1.46,5.56,1.63,23.94,4.67,21.66,13-.56,2,4.56-.19,5-.4,1.92-.9,5.67-2.74,6.31-5.06,2.38-8.65-11.64-11.23-17.32-13-7.33-2.27-20.33-3.4-23.47-11.61a.51.51,0,0,0-.33-.29c-.43-2.66-.84-5.31-1.25-8a99.71,99.71,0,0,0,12.34,4.19c11.59,3.27,28.6,6.09,33.27,19.07C2751.62,1946.72,2763.28,1941.35,2762.23,1938.42Zm-65.65,66.1a12,12,0,0,1-5-9.46,39.51,39.51,0,0,1,1.08-4.73l.61,0a18.31,18.31,0,0,1,3,.72c3.27,1,6.2,3,9.19,4.67a43.81,43.81,0,0,1-.18,5,41.77,41.77,0,0,1-1.11,7.21A20.63,20.63,0,0,1,2696.58,2004.52Z" transform="translate(82.26 28.05)"/><path d="M2397.32,1878.62a47,47,0,0,0-40.13-6.6,67,67,0,0,0-20.68,9.94c-5.19,3.69-11.5,8.23-12.67,14.87-1,5.82-.42,12.5.29,18.36,1,8.27,9.12,12.26,16.57,13.7,16,3.1,34.81.52,48.34-8.78,6.78-4.67,12.7-11.29,14.55-19.5C2405.31,1892.93,2403.65,1883.75,2397.32,1878.62Zm-15.52,41.58c-7.9,3-18.42,3-26.77,2.18-6.92-.68-16.46-3.15-19-10.51-1.82-5.3-1.66-13.2-1.1-18.77.65-6.38,5.4-10.17,11.05-12.73,12.87-5.84,28.76-3.24,40.08,4.75C2396.32,1893.42,2395,1915.16,2381.8,1920.2Z" transform="translate(82.26 28.05)"/><path d="M2922.75,1481.73a493.79,493.79,0,0,0-7.2-57.72c-.23-1.28-11.89,3-11.26,6.5,4,21.49,7,43.57,7.72,65.49-9.73-.68-20.43,5.51-24.7,14.15-3,6-1.86,13.68,4.85,16.51,5.93,2.5,12.66-.16,17.79-3.26C2925.38,1514.1,2923.79,1497.57,2922.75,1481.73Zm-23.29,21.34-.06,0C2898.7,1503.19,2898.73,1503.17,2899.46,1503.07Zm10.08,14.12a16,16,0,0,1-1.84,3l-.25.28-.84,0c-2.22-.63-3.93-.51-5.92-2-4.21-3.12-4.48-9-2.18-13.42a10.25,10.25,0,0,0,1.07-2l1.38-.19,2.26.09a15.23,15.23,0,0,1,7.74,3.5,1.8,1.8,0,0,0,1.07.38A27.4,27.4,0,0,1,2909.54,1517.19Z" transform="translate(82.26 28.05)"/><path d="M2608.64,1472.07c-5.49-3.62-12.38-3.7-17.54-8-4.46-3.7-7.39-8.94-10.18-13.91-1.23-2.2-11.76,3.83-11.26,6.5a280.85,280.85,0,0,1,4.31,70.88,20.94,20.94,0,0,0-10.51-.82c-6.67,1.25-14.66,5.41-18.35,11.32-4.3,6.85,1.18,13,6.71,16.87,6.55,4.58,12.91,5.8,20.14,2,6.89-3.63,10.3-8.57,11.45-16.2a248.1,248.1,0,0,0,2.45-30.68,281.2,281.2,0,0,0-1.53-36.71c3.48,1.61,7.23,2.45,10.93,4.13,12.94,5.89,14.3,21.55,12.71,33.87-.23,1.75,10.9-2.16,11.32-5.46C2620.86,1493.68,2620,1479.51,2608.64,1472.07Zm-36.88,76.14a21.39,21.39,0,0,1-.82,3.36c0,.12-.09.23-.13.35-1.51-.74-7.12-3.07-7.73-3.49a24.86,24.86,0,0,1-6-5.37c-1.64-2.16-2.74-4.84-2-7.58a6.36,6.36,0,0,1,.85-1.78l.26,0a9.59,9.59,0,0,1,2.93,0c5.16.44,9.52,3,13.78,5.7,0,.06,0,.12,0,.18C2572.59,1542.41,2572.3,1545.34,2571.76,1548.21Z" transform="translate(82.26 28.05)"/><path d="M2202.79,1291.13c-3.46-2.5-9.19-3.34-13.21-4.69l-14.78-5-29.54-9.94c-2.32-.78-10.86,3.6-10.86,6.27l0,34.87c0,7.47.22,15,.21,22.52a17,17,0,0,0-8.31-1.72c-6.59.34-14.52,4.68-17.8,10.51-3.16,5.62-1.78,13.13,2.55,17.74s9.92,5.19,15.56,3.32c6.08-2,12.32-6,15.84-11.47,4.41-6.85,3.24-15.69,3.25-23.45l0-21.06c5.55,2.22,11.33,4,16.87,6,2.45.88,28.87,9.92,28.65,10.65s.47.93,1.42.78l-.81,20.21c-8.43.68-16.83,3.55-23.19,9-7.76,6.64-6.65,18.25,1.94,23.73,8.24,5.26,18.46.53,24.9-5.54,7.88-7.41,8.67-17.8,7.48-27.89q.58-14.65,1.18-29.3.3-7.79.62-15.56C2204.87,1297.83,2205.87,1293.36,2202.79,1291.13Zm-85,49.52h0l-.09,0C2116.3,1340.63,2116.31,1340.63,2117.79,1340.65Zm10.91,18.19c-4.36-.62-7.86-4.45-9.47-8.35a14,14,0,0,1-1-7.38,6.9,6.9,0,0,1,.34-1.61c.25-.43.31-.71.17-.85a6.45,6.45,0,0,1,.88.14c5.2.81,9.32,4.18,12.27,8.38.36.51,1.19.56,2.25.31C2133.86,1353.31,2133,1359.46,2128.7,1358.84Zm62.08,10c-.53,1.64-1.49,3-2.09,4.58-1.14,1-1.18,1.38-.11,1.12,1.09-.08.92,0-.5.1a14.44,14.44,0,0,1-6.68-2.06,14.58,14.58,0,0,1-6.78-12.7,8.52,8.52,0,0,1,.7-3.59c.84-1.46,2.07-1.6,4.07-2a36.64,36.64,0,0,1,12.49-.24A35.74,35.74,0,0,1,2190.78,1368.85Z" transform="translate(82.26 28.05)"/><path d="M1200.54,2015.56q-14.18.62-28.35,1,1.45-12.69,2.5-25.43c5.28-.06,10.55-.13,15.83-.16,2.73,0,6-2.21,8-3.9.92-.78,3.55-3.26.82-3.25q-12.06.07-24.1.25.81-11,1.32-22.1c.1-2-11.17,2.28-11.32,5.46q-.39,8.43-1,16.84-16.36.29-32.73.73,2.51-11.76,4.72-23.57c.39-2.06-4.45.14-5,.4-1.75.83-5.89,2.81-6.31,5.06q-1.73,9.24-3.64,18.42c-5.59.17-11.19.34-16.78.55-2.77.1-6,2.17-8,3.9-.87.73-3.59,3.34-.82,3.24q12.07-.43,24.15-.78-2.7,12.52-5.74,25-6.25,0-12.49-.11c-2.71,0-6,2.24-8,3.9-1,.8-3.53,3.21-.82,3.24,6.52.09,13,.12,19.55.13q-2.88,11.36-6,22.65a3.49,3.49,0,0,0-1.49,2.22l-.09,3.45c-.07,2.46,10.58-2.89,11.32-5.46q3.27-11.4,6.23-22.87,19.2-.09,38.38-.58-1.77,15.09-4.11,30.12c-.26,1.66,10.8-2.12,11.32-5.46q2-12.45,3.49-25,10.17-.33,20.36-.75c2.78-.12,6-2.17,8-3.9C1200.58,2018.09,1203.31,2015.44,1200.54,2015.56Zm-76.45,1.65q3.15-12.59,6-25.26,16.88-.43,33.75-.69-1,12.79-2.37,25.55Q1142.77,2017.2,1124.09,2017.21Z" transform="translate(82.26 28.05)"/><path d="M1515.43,2078.12c.16-1.9-11,2.21-11.32,5.46" transform="translate(82.26 28.05)"/><path d="M3112.62,1921.73c-2.63-1-4.42-3.42-6.56-5.24-.51-.43-1-.83-1.56-1.24" transform="translate(82.26 28.05)"/><path d="M-70.33,1124.65q7.76-1.47,15.53-2.79c4.93-.83,10.92-2.77,15.93-2.49s4.56,7.53,5.09,11.44q1.14,8.24,1.92,16.54c.92,9.7,1.44,19.44,1.63,29.18a6.76,6.76,0,0,0-1,1.15,35.77,35.77,0,0,0-12,7.26c-5.47,4.85-12.59,15.92-3.11,20.61,7.79,3.86,18.14-2.06,23.75-7.52,6.54-6.38,7.51-15.62,3.34-23.43-.12-10.94-.65-21.88-1.65-32.78q-.86-9.27-2.15-18.48c-.57-4.13-.27-10.29-5.28-11.1-4.68-.75-10.58,1.25-15.2,2q-8.7,1.44-17.37,3.07m-21.37,80.86c3-6.65,1.89-14.34.49-21.24m54,15.91c-.4,2.61-1.78,4.22-2.72,6.5l-.23.06c-.83-.37-2.79.06-3.78-.22-4.78-1.32-6.62-5.55-4.74-10.17.41-1,2-4.38,2.89-5,1.78-1.15,4.89,0,6.61.77a2.43,2.43,0,0,0,1.27.08A17.33,17.33,0,0,1-27.73,1192.86Z" transform="translate(82.26 28.05)"/><path d="M261.64,777.07c-5.49-3.62-12.38-3.7-17.54-8-4.46-3.7-7.39-8.94-10.18-13.91-1.23-2.2-11.76,3.83-11.26,6.5A280.85,280.85,0,0,1,227,832.56a20.94,20.94,0,0,0-10.51-.82c-6.67,1.25-14.66,5.41-18.35,11.32-4.3,6.85,1.18,13,6.71,16.87,6.55,4.58,12.91,5.8,20.14,2,6.89-3.63,10.3-8.57,11.45-16.2a248.1,248.1,0,0,0,2.45-30.68,281.2,281.2,0,0,0-1.53-36.71c3.48,1.61,7.23,2.45,10.93,4.13,12.94,5.89,14.3,21.55,12.71,33.87-.23,1.75,10.9-2.16,11.32-5.46C273.86,798.68,273,784.51,261.64,777.07Zm-36.88,76.14a21.39,21.39,0,0,1-.82,3.36c0,.12-.09.23-.13.35-1.51-.74-7.12-3.07-7.73-3.49a24.86,24.86,0,0,1-6-5.37c-1.64-2.16-2.74-4.84-2-7.58a6.36,6.36,0,0,1,.85-1.78l.26-.05a9.59,9.59,0,0,1,2.93,0c5.16.44,9.52,3,13.78,5.7,0,.06,0,.12,0,.18C225.59,847.41,225.3,850.34,224.76,853.21Z" transform="translate(82.26 28.05)"/><path d="M444.25,1665.46q.87-31.57,1.73-63.15c.06-2.09-10.85,2.32-10.93,5.46l-1.14,41.44c-.23,8.26-.21,16.61-.42,24.92-11.78-2.29-25.81,3.83-30.78,15.31-2.75,6.34-1.82,14.09,3.79,18.39s13,3.63,19.15.83c6.48-2.94,12.67-7.82,15.75-14.58C445.25,1685.6,444,1674.59,444.25,1665.46Z" transform="translate(82.26 28.05)"/><path d="M215.87,2060.94c-.16,1.67-.45,4.81-1.73,6.22.25-.56-3,.45-3.23.47-1.89.1-2.82.23-3.89-1.32s-.59-4.89-.24-6.7c.9-4.6,2.76-7.41,7.75-7.2a5.42,5.42,0,0,0,1.31-.12A59.47,59.47,0,0,1,215.87,2060.94Zm-75.35,11.42-.61-.16a6.83,6.83,0,0,1-5.43-5.65,3.83,3.83,0,0,1,.13-2.34l.45-.86a41.1,41.1,0,0,0,5.19.71,5.92,5.92,0,0,0,2.72-.33,24.32,24.32,0,0,1-.64,4.4C142.06,2069.21,140.67,2071.32,140.52,2072.36ZM279.7,2061a20.55,20.55,0,0,1-2.67,4.24l-1,.16a6.37,6.37,0,0,1-2.21-.67c-3.57-2-3.22-6.63-1.5-9.73,2.13-3.84,5.77-4.55,9.76-4.69A24.88,24.88,0,0,1,279.7,2061Z" transform="translate(82.26 28.05)"/><path d="M1289.35,1612.49l-17.29.54a24.2,24.2,0,0,0-5.13-10.26c-10.4-11.34-24.73-15.72-39.81-15.73-13.68,0-29.2,8.78-35.52,21.1a30.59,30.59,0,0,0-2.32,6.06c-3.39-.28-6.77-.66-10.15-1.17-2.52-.38-5.56,1.57-7.54,2.93-.42.29-4.78,3.85-2.85,4.14a174.4,174.4,0,0,0,19.6,1.74,24.06,24.06,0,0,0,1,6.52c2.27,7.69,10.87,10.79,17.83,13,14.52,4.63,31.29,4.4,45.29-1.9,6.89-3.1,14.3-7.73,18-14.56a17,17,0,0,0,1.75-5l8.32-.26c2.77-.09,6-2.18,8-3.9C1289.41,1615,1292.11,1612.4,1289.35,1612.49Zm-87.53-7.44c3-7.15,7.94-10.79,15.69-10.86,14.42-.13,28.25,4.27,38.16,15.08a28.8,28.8,0,0,1,2.88,4.19l-24.64.77c-11.41.36-22.86.87-34.26.53A28,28,0,0,1,1201.82,1605.05Zm58.2,23.43c-2.75,6.38-9.19,7.6-15.47,8.38a62.91,62.91,0,0,1-22.91-1.41c-6.67-1.65-16.65-4.39-20-11a16,16,0,0,1-1-2.5c7.5,0,15-.32,22.52-.56l37.88-1.19A14.52,14.52,0,0,1,1260,1628.48Z" transform="translate(82.26 28.05)"/><path d="M478.1,1566.35c-2.39,1-5.09,2.54-6.67,4.68-3.92,5.29-5.47,13.55-10.57,17.79s-15.12.72-19.15-3.61a15.2,15.2,0,0,1-1.34-1.66,24,24,0,0,0,6-2.52c4.47-2.59,11.56-8.11,8-14.1s-10.59-4.44-15.63-1.65c-5.8,3.2-11.37,8.47-12,15.38-1.19,13,13.76,18.79,24.58,16.23a40.87,40.87,0,0,0,15.63-7.77q-6.57,29-11.25,58.41c-.33,2.06,4.42-.13,5-.4,1.7-.8,6-2.83,6.31-5.06q6.08-38.22,15.37-75.81C482.86,1564.38,478.47,1566.19,478.1,1566.35Z" transform="translate(82.26 28.05)"/><path d="M736.6,1745.84c-4.44,2.38-11.35,7.56-11.17,13.38-5.8-3.13-11-7.55-16.71-10.78-6.87-3.89-14.4-7-22.32-7.67-13.11-1.18-27.34,4.13-36.24,13.93-3.85,4.25-7.06,10.47-4.33,16.23,2.8,5.92,9.21,5.58,14.36,3.24,4.95-2.24,12.13-6.93,9.56-13.34-2.12-5.28-7.52-5.89-12.57-5a14.41,14.41,0,0,1,1.42-2.58c2.62-3.74,6.32-4.8,10.69-5.3,8.74-1,17.44,1.66,25.19,5.52,8,4,14.7,10.18,22.74,13.94,12.54,5.85,31.6-2.1,32.46-17C750.19,1741.5,742.36,1742.76,736.6,1745.84Zm-73.86,23,.17-.06S662.84,1768.81,662.74,1768.81Z" transform="translate(82.26 28.05)"/><path d="M775.66,1248.88l1.62-34.7c0-.85-.52-.81-1.25-.84a247.64,247.64,0,0,0-47.28,2.34c-6.4,1-13.45,2-18.1,7.1-4.26,4.64-4,14-4.52,19.9-.8,8.64-1,17.63-2,26.42-8,.64-16.18,5.81-20.69,11.58-3,3.88-5.19,10.18-2.12,14.7,2.76,4.06,8.33,3.88,12.5,2.61,13.59-4.15,18.43-15.75,20.64-28.7,1.29-7.56,1.77-15.23,2.31-22.87.07-1.08.16-2.16.24-3.25l47.68-7.44a4.86,4.86,0,0,0,.55-.11c-.13,2.71-.25,5.41-.38,8.12l-.54,11.57c-.06,1.24.36,6.25-.11,8.66-6.84,3.33-13.79,6.64-18.29,13.1-4.28,6.14-4,17.15,5.3,18.24,7.12.83,15.55-5.38,18.94-11.27,4.87-8.46,5.54-19.94,5.71-29.46a.41.41,0,0,0-.15-.34C775.7,1252.34,775.58,1250.46,775.66,1248.88ZM700,1287.17a16.53,16.53,0,0,1-2.2,4.48v0a7.84,7.84,0,0,1-2-.39c-3.5-1.21-4.84-4.76-4.51-8.23.69-7.09,4.22-8.26,10.37-5.77a2.52,2.52,0,0,0,1.11.15A65.78,65.78,0,0,1,700,1287.17Zm62.94-11a71.68,71.68,0,0,1-1.8,7.77,21.37,21.37,0,0,1-1.75,3.42,4.69,4.69,0,0,1-2.49-1.4,9.89,9.89,0,0,1-2.55-4.92c-1.15-6.42,3.86-10.46,9-12.79l.75-.33Q763.72,1272.07,763,1276.18Zm2.95-55.73-.3,6.28c-2.63-1-4.42-3.42-6.56-5.24-.51-.43-1-.83-1.56-1.24C760.31,1220.28,763.11,1220.33,765.92,1220.45Zm-25.23,1.9a25,25,0,0,0,2.91,2.58,39.33,39.33,0,0,1,5.76,4.45c.92.87,1.81,1.76,2.75,2.54-.9.14-8.66,2.21-9.21,1.44-1.68-2.36-4.15-3.2-6.27-5q-1.93-1.68-3.81-3.42c-.49-.45-2.88-3.31-3.43-3.25,2.55-.28,6-1.26,8.54-.88A5.59,5.59,0,0,1,740.69,1222.35Zm-23.26,15.36c.07-.77.12-1.55.2-2.32.21-2.08.76-4.36,1.17-6.61q3.81,3.67,7.85,7.12l-6.26,1A13.8,13.8,0,0,0,717.43,1237.71Zm47.75-7.83.31-.28v.24Z" transform="translate(82.26 28.05)"/><path d="M626.66-12.17c5.92,4.37,13.43,3.63,19.82.83,6.72-2.94,13.13-7.82,16.31-14.58" transform="translate(82.26 28.05)"/><path d="M389.17,214.93c-4.93-3.82-11.45-2.93-16.78-.54-6.23,2.78-11.81,7.27-14.87,13.45-3.69,7.46-2.95,15.95-2.48,24q.76,13.34,1.54,26.66l-44.77,14.63c-.38.12-.78.26-1.18.41q-2.6-18.33-5.18-36.67a48,48,0,0,0,19.91-11.16c6.14-5.69,12.57-19,.65-22.59-9.08-2.71-20.21,3.83-26.33,10.06-6.69,6.8-9.7,16.59-6.43,25.74a.5.5,0,0,0,.36.29q4,28.34,8,56.67c.29,2,8.66-3.12,9.23-3.58,2-1.65,7.29-1.1,9.87-1.13,3.55-.05,7.11.13,10.66,0a65.08,65.08,0,0,0,22.69-5.27c5.28-2.24,13.95-5.67,14.92-12.18.53-3.6-.31-7.71-.52-11.33q-.39-6.81-.79-13.62c-.39-6.62-.79-13.24-1.16-19.86,10-1.53,20.16-8.46,24.46-17C393.63,226.59,394.38,219,389.17,214.93Zm-35.23,86.68c-9.09,3-18.1,2-27.45,2.5a39.25,39.25,0,0,0-13.9,3.33l-1.35-9.57,43.69-14.28c.61-.2,1.26-.43,1.91-.69.23,3.91.47,7.83.68,11.74a21,21,0,0,1,0,5.14c-.08.39,0,.56.1.6A31.11,31.11,0,0,1,353.94,301.61Z" transform="translate(82.26 28.05)"/><path d="M8655.51-14.29c8.06,3.85,18.78-2.06,24.59-7.53m-96.62.36c-.91,4.91.84,10.47,5,13.36,5,3.45,11.3,1.68,16.3-.84,5.54-2.81,10.83-7,13.48-12.71m-9.49-6.4c.25,3.9.25,10.66-2.91,13.62-2.82,2.64-7.16-.37-9-3.1a12.6,12.6,0,0,1-1.92-10m79.82.53c-.41,2.62-1.84,4.23-2.81,6.51l-.24.06c-.86-.37-2.89.05-3.92-.22" transform="translate(82.26 28.05)"/><path d="M8369.1,680.34c5.81-5.24,10-12.19,9.42-20.29-.85-11.2-10.92-20.78-22-21.51a20.38,20.38,0,0,0-2.47,0c-2.06-5.53-4-11.1-5.68-16.79-.26-.89-.53-1.79-.79-2.69,5.26-5.51,10.12-11.32,13.35-18.38,3.85-8.42,4.1-18,3.58-27.09-.3-5.26-1.08-12-5.39-15.62-4.88-4.12-11.62-1.43-16.36,1.51-5.63,3.5-8.88,8.55-10.68,14.84-4.71,16.45-.69,33.78,3.85,49.83-4,4.1-8.23,8.06-12,12.34-6.45,7.24-14.08,16.78-13,27.11s10.8,21.15,20,25.22c8.8,3.91,18.72,2.7,27.25-1.24a74.09,74.09,0,0,1,1.84,21.55,44.89,44.89,0,0,1-2.07,11.08,25.33,25.33,0,0,1-2.67,5.73c-.39.6-1,1.23-1.36,1.87l-.45.39c-.37.07-.88.18-1.58.35a24.25,24.25,0,0,1-14.1-3.4c6.1-3.37,11.68-8.62,11-15.51a10.61,10.61,0,0,0-7.57-9.07c-4.66-1.2-9.85,1.4-13.62,3.87-8,5.2-11.83,15-5.61,23.3,6.08,8.11,19.09,9.74,28.09,6.37,18.68-7,22.87-25.67,20.93-43.64A82.34,82.34,0,0,0,8369.1,680.34Zm-9.21-28.65c5.56,5.24,8.38,12.78,6.78,20.06-1.37-4.25-2.94-8.44-4.6-12.6-1.13-2.85-2.27-5.69-3.4-8.53C8359.09,651,8359.5,651.32,8359.89,651.69Zm-18.5-71.4a59.41,59.41,0,0,1,1.53-9.75,38.35,38.35,0,0,1,1.73-5.45,15.63,15.63,0,0,1,.8-1.49c1.15.7,2.66,1,3.71,2.26a14.81,14.81,0,0,1,2.37,4.52,38.64,38.64,0,0,1,1.72,12.28c.19,11.11-1.42,20.91-7.53,30C8342.84,602.09,8340.59,591.12,8341.39,580.29Zm.51,101.76c-8.25-3.38-16.09-12.34-18.93-20.81-3.13-9.3,2.77-18.41,8.49-25.33,1.89-2.27,3.89-4.45,6-6.58,1.34,4.27,2.85,8.48,4.44,12.67-5.43,2.78-10.19,7-12.75,11.76-4.79,9,.45,20.63,10.72,22.13,2.53.37,5.55-1.57,7.53-2.94.42-.29,4.78-3.86,2.85-4.14-7.84-1.15-13.5-9.55-11.13-17.32.91-3,2.21-4.76,4.32-5.47,4.85,12.42,10.16,24.68,13.63,37.52-.46.12-.93.23-1.43.31A26.4,26.4,0,0,1,8341.9,682.05Z" transform="translate(82.26 28.05)"/><path d="M7872.27,100.72q-14.18.6-28.35,1,1.45-12.69,2.5-25.42c5.28-.06,10.56-.13,15.83-.16,2.73,0,6-2.22,8-3.91.92-.77,3.55-3.26.82-3.24q-12.06.07-24.1.25.81-11,1.32-22.1c.1-2-11.17,2.28-11.32,5.46-.26,5.61-.59,11.23-1,16.83q-16.37.28-32.72.73,2.51-11.74,4.71-23.56c.39-2.06-4.45.14-5,.4-1.75.82-5.89,2.8-6.31,5.06q-1.72,9.23-3.64,18.41c-5.59.18-11.18.35-16.78.55-2.77.1-6,2.18-8,3.9-.87.73-3.59,3.35-.82,3.25q12.07-.44,24.15-.79-2.7,12.54-5.74,25-6.24,0-12.49-.11c-2.71,0-6,2.24-8,3.91-1,.8-3.53,3.21-.82,3.24q9.78.12,19.55.13-2.88,11.35-6,22.65a3.45,3.45,0,0,0-1.49,2.22l-.09,3.44c-.07,2.47,10.58-2.88,11.32-5.46Q7791,121,7794,109.49q19.2-.08,38.38-.57-1.77,15.09-4.11,30.12c-.26,1.65,10.8-2.13,11.32-5.46q2-12.47,3.49-25,10.18-.31,20.36-.75c2.78-.12,6-2.16,8-3.9C7872.31,103.24,7875.05,100.6,7872.27,100.72Zm-76.45,1.64q3.17-12.58,6-25.25,16.88-.44,33.75-.7-1,12.8-2.37,25.56Q7814.5,102.36,7795.82,102.36Z" transform="translate(82.26 28.05)"/><path d="M8207,223.72c-9-2.27-19.13,2.78-25.89,9.27q3-34.86,6.1-69.71c.17-1.9-11,2.21-11.32,5.46q-4.4,50.13-8.77,100.26c-.32,2.92-.56,5.78-.75,8.51-.14,2,11.05-2.26,11.32-5.46,0-.27,0-.55.08-.82l.27-.05c12.42-2.71,25-9.65,33.11-19.59C8217.93,243.22,8220.44,227.14,8207,223.72ZM8178,267.79l.06-.69c1.06-10.39,2.92-22,9.55-30.44,1.42-1.82,2.94-3.11,5.27-2.23a10,10,0,0,1,4.92,4.23c3,5.3.48,13.16-2.23,18.09-2.4,4.35-6.23,6.54-10.81,8C8183.64,265.15,8178.14,266.36,8178,267.79Z" transform="translate(82.26 28.05)"/><path d="M8886.9,715.09c-4.93-3.83-11.45-2.93-16.78-.55-6.23,2.79-11.81,7.27-14.87,13.45-3.69,7.47-3,16-2.48,24q.76,13.32,1.55,26.65l-44.78,14.64c-.38.12-.78.26-1.18.41q-2.6-18.35-5.18-36.67a48.14,48.14,0,0,0,19.91-11.16c6.14-5.69,12.57-19,.65-22.6-9.08-2.7-20.2,3.84-26.33,10.07-6.69,6.8-9.7,16.58-6.43,25.74a.52.52,0,0,0,.36.29q4,28.33,8,56.66c.29,2,8.67-3.12,9.23-3.58,2-1.64,7.3-1.09,9.87-1.13,3.55-.05,7.11.13,10.66,0a65.09,65.09,0,0,0,22.69-5.28c5.28-2.24,13.95-5.66,14.92-12.17.53-3.6-.31-7.72-.52-11.33q-.39-6.81-.79-13.62c-.39-6.62-.79-13.24-1.16-19.87,10-1.53,20.16-8.46,24.46-17C8891.36,726.75,8892.11,719.13,8886.9,715.09Zm-35.23,86.68c-9.09,3-18.1,2-27.45,2.49a39,39,0,0,0-13.9,3.34L8809,798l43.69-14.27c.61-.2,1.26-.44,1.91-.69.23,3.91.47,7.82.68,11.74a20.56,20.56,0,0,1,0,5.14c-.08.39,0,.56.1.6A31.11,31.11,0,0,1,8851.67,801.77Z" transform="translate(82.26 28.05)"/><path d="M8786.64,389.66a.65.65,0,0,0,0-.2,1.71,1.71,0,0,0,0-.32q-3.09-28.8-6.19-57.61c-.07-.67-2.21-.14-2.27-.12a427.2,427.2,0,0,1-57.3,9.61c-2.57.25-10.36,3.54-10,6.82a271.62,271.62,0,0,1,0,55.5c-9.36-.28-19.93,4.75-23.61,13-1.81,4.07-1.3,9.55,1.68,13,4,4.56,10.1,3.5,15.06,1.34,5.91-2.56,11.36-6.76,14.15-12.68,3.32-7.05,3.57-15.73,4.27-23.38a271.09,271.09,0,0,0,1.11-27.18q23.73-6.84,47.4-14l3.93,36.49a34.35,34.35,0,0,0-15.24,8c-4.71,4.33-8.08,13.11-2.4,18.23,6.3,5.68,16.68-.65,21.87-4.93a25.34,25.34,0,0,0,7.7-10C8788.14,397.51,8786.87,393.57,8786.64,389.66Zm-61.49-27.5c-.58.16-1.2.37-1.82.61q-.19-7.9-.79-15.79a440.36,440.36,0,0,0,46.68-8.32c.37,3.41.73,6.82,1.1,10.23Q8747.76,355.64,8725.15,362.16Z" transform="translate(82.26 28.05)"/><path d="M8758.87,1620.55c-.12-11-.67-21.88-1.71-32.78q-.89-9.27-2.22-18.49c-.6-4.12-.28-10.28-5.47-11.09-4.84-.76-10.95,1.25-15.74,2q-9,1.44-18,3.08-18.48,3.36-36.8,7.53c-2,.46-9.75,3.78-9,6.63q4,14.88,7.66,29.83c1.57,6.37,3.54,12.92,4.93,19.51-10.15,1.19-21.93,7.69-23.75,17.55-.91,4.91.84,10.47,5,13.36,5,3.45,11.29,1.68,16.3-.85,5.54-2.8,10.83-7,13.48-12.71,3.07-6.64,2-14.34.51-21.24-3.36-16-7.53-31.8-11.74-47.57,7.84-1.69,15.69-3.28,23.58-4.72q8-1.49,16.08-2.79c5.1-.84,11.31-2.78,16.49-2.49s4.73,7.53,5.28,11.43q1.17,8.25,2,16.54c1,9.71,1.49,19.44,1.68,29.18a7,7,0,0,0-1,1.15,37.69,37.69,0,0,0-12.44,7.26c-5.66,4.86-13,15.93-3.21,20.62,8.06,3.85,18.78-2.06,24.58-7.53C8762.19,1637.59,8763.19,1628.35,8758.87,1620.55Zm-77.65,30.81c-2.82,2.64-7.16-.38-9-3.1a12.6,12.6,0,0,1-1.92-10,10.12,10.12,0,0,1,1-2.55c.13-.26.85-1.09,1.18-1.59.56-.1,1.54-.39,1.83-.42a17,17,0,0,1,4.1.12,8.77,8.77,0,0,0,5.2-1.46c.27,1.79.47,3.58.58,5.36C8684.38,1641.63,8684.37,1648.4,8681.22,1651.36Zm68.86-12.56c-.41,2.61-1.84,4.23-2.81,6.51l-.24.06c-.86-.38-2.89.05-3.92-.23-5-1.32-6.86-5.55-4.91-10.17.42-1,2-4.38,3-5,1.84-1.15,5.06,0,6.85.77a2.67,2.67,0,0,0,1.3.07A16.57,16.57,0,0,1,8750.08,1638.8Z" transform="translate(82.26 28.05)"/><path d="M8949.84,1042.07c-3.46-2.49-9.19-3.33-13.21-4.69l-14.78-5-29.54-9.94c-2.32-.78-10.86,3.59-10.86,6.27l0,34.86c0,7.47.22,15,.21,22.52a17,17,0,0,0-8.31-1.72c-6.59.34-14.52,4.68-17.8,10.51-3.16,5.62-1.78,13.13,2.55,17.74s9.92,5.19,15.56,3.33c6.08-2,12.32-6,15.84-11.48,4.41-6.85,3.24-15.69,3.25-23.44l0-21.06c5.55,2.22,11.33,4,16.87,6,2.45.88,28.87,9.92,28.65,10.65s.47.94,1.42.78l-.81,20.22c-8.43.68-16.83,3.55-23.19,9-7.76,6.64-6.65,18.25,1.94,23.73,8.24,5.27,18.46.54,24.9-5.53,7.88-7.42,8.67-17.81,7.48-27.89q.58-14.65,1.18-29.31.3-7.77.62-15.55C8951.92,1048.77,8952.92,1044.3,8949.84,1042.07Zm-85,49.53h0l-.09,0C8863.35,1091.58,8863.36,1091.57,8864.84,1091.6Zm10.91,18.19c-4.36-.62-7.86-4.46-9.47-8.35a14,14,0,0,1-1-7.38,7,7,0,0,1,.34-1.62c.25-.42.31-.7.17-.84a5.19,5.19,0,0,1,.88.13c5.2.81,9.32,4.18,12.27,8.38.36.52,1.19.57,2.25.31C8880.91,1104.26,8880.05,1110.4,8875.75,1109.79Zm62.08,10c-.53,1.64-1.49,3-2.09,4.59-1.14,1-1.18,1.37-.11,1.12,1.09-.09.92-.06-.5.09a14.32,14.32,0,0,1-6.68-2.06,14.58,14.58,0,0,1-6.78-12.7,8.45,8.45,0,0,1,.7-3.58c.84-1.46,2.07-1.6,4.07-2a36.64,36.64,0,0,1,12.49-.23A35.68,35.68,0,0,1,8937.83,1119.79Z" transform="translate(82.26 28.05)"/><path d="M7947.59,1766.5q-14.17.62-28.35,1,1.45-12.69,2.5-25.42,7.92-.1,15.83-.17c2.73,0,6-2.21,8-3.9.92-.77,3.55-3.26.82-3.24q-12.06.08-24.1.25.81-11,1.32-22.11c.1-2-11.17,2.29-11.32,5.46q-.39,8.43-1,16.84-16.36.29-32.73.73,2.51-11.75,4.72-23.56c.39-2.07-4.45.14-5,.4-1.75.82-5.89,2.8-6.31,5.06q-1.73,9.23-3.64,18.41c-5.59.18-11.19.35-16.78.55-2.77.1-6,2.17-8,3.9-.87.73-3.59,3.35-.82,3.25q12.08-.45,24.15-.79-2.7,12.52-5.74,25-6.26,0-12.49-.11c-2.71,0-6,2.24-8,3.9-1,.81-3.53,3.21-.82,3.25q9.78.12,19.55.12-2.88,11.37-6,22.65a3.49,3.49,0,0,0-1.49,2.22l-.09,3.45c-.07,2.47,10.58-2.89,11.32-5.46q3.27-11.4,6.23-22.87,19.2-.08,38.38-.57-1.77,15.09-4.11,30.11c-.26,1.66,10.8-2.12,11.32-5.46q2-12.45,3.49-25,10.17-.32,20.36-.75c2.78-.12,5.95-2.17,8-3.9C7947.63,1769,7950.36,1766.38,7947.59,1766.5Zm-76.45,1.65q3.15-12.59,6-25.26,16.88-.42,33.75-.69-1,12.79-2.37,25.55Q7889.82,1768.16,7871.14,1768.15Z" transform="translate(82.26 28.05)"/><path d="M8793.34,2083.8c3.33-7.06,3.58-15.73,4.28-23.38.83-9,1.18-18.11,1.11-27.18q23.73-6.85,47.4-14l3.93,36.49a34.33,34.33,0,0,0-15.24,8c-4.71,4.33-8.08,13.12-2.4,18.23,6.3,5.68,16.68-.64,21.87-4.92a25.41,25.41,0,0,0,7.7-10c1.47-3.79.2-7.74,0-11.64a1.29,1.29,0,0,0,0-.21c0-.1,0-.21,0-.31q-3.09-28.8-6.19-57.61c-.07-.67-2.21-.14-2.27-.12a425.59,425.59,0,0,1-57.3,9.6c-2.57.26-10.36,3.54-10,6.83a272.24,272.24,0,0,1,0,55.49c-9.37-.28-19.94,4.76-23.61,13m38-54.21c-.59.17-1.2.38-1.82.62q-.19-7.9-.8-15.79a442.64,442.64,0,0,0,46.69-8.32q.54,5.11,1.1,10.23Q8823.08,2021.43,8800.47,2027.94Z" transform="translate(82.26 28.05)"/><path d="M6411.87,925.55c-.12-10.95-.67-21.88-1.71-32.78q-.89-9.27-2.22-18.49c-.6-4.12-.28-10.28-5.47-11.09-4.84-.76-10.95,1.25-15.74,2q-9,1.44-18,3.08-18.48,3.36-36.8,7.53c-2,.46-9.75,3.78-9,6.63q4,14.88,7.66,29.83c1.57,6.37,3.54,12.92,4.93,19.51-10.15,1.19-21.93,7.69-23.75,17.55-.91,4.91.84,10.47,5,13.36,5,3.45,11.29,1.68,16.3-.85,5.54-2.8,10.83-7,13.48-12.71,3.07-6.64,2-14.34.51-21.24-3.36-16-7.53-31.8-11.74-47.57,7.84-1.69,15.69-3.28,23.58-4.72q8-1.49,16.08-2.79c5.1-.84,11.31-2.78,16.49-2.49s4.73,7.53,5.28,11.43q1.17,8.25,2,16.54c.95,9.71,1.49,19.44,1.68,29.18a7,7,0,0,0-1,1.15,37.69,37.69,0,0,0-12.44,7.26c-5.66,4.86-13,15.93-3.21,20.62,8.06,3.85,18.78-2.06,24.58-7.53C6415.19,942.59,6416.19,933.35,6411.87,925.55Zm-77.65,30.81c-2.82,2.64-7.16-.38-9-3.1a12.6,12.6,0,0,1-1.92-10,10.12,10.12,0,0,1,1-2.55c.13-.26.85-1.09,1.18-1.59.56-.1,1.54-.39,1.83-.42a17,17,0,0,1,4.1.12,8.77,8.77,0,0,0,5.2-1.46c.27,1.79.47,3.58.58,5.36C6337.38,946.63,6337.37,953.4,6334.22,956.36Zm68.86-12.56c-.41,2.61-1.84,4.23-2.81,6.51l-.24.06c-.86-.38-2.89,0-3.92-.23-4.95-1.32-6.86-5.55-4.91-10.17.42-1,2.05-4.38,3-5,1.84-1.15,5.06,0,6.85.77a2.67,2.67,0,0,0,1.3.07A16.57,16.57,0,0,1,6403.08,943.8Z" transform="translate(82.26 28.05)"/><path d="M7162.28,994.37c-4.13-11.5-18.44-15.35-28.95-18.24-6.13-1.68-12.37-3.22-18.13-6-4.45-2.11-10.59-5.85-12.41-11l-.54-4.1c-.18-1.44-11.11,3.27-11.29,6a11.71,11.71,0,0,0,.58,4.55q3.3,24.92,7.88,49.63c1.51,8.07,3.4,16.1,4.76,24.2a16.24,16.24,0,0,0-8.35.29c-6.62,2-13.77,7-15.34,14.14s2.84,12.87,9.05,15.55a20.21,20.21,0,0,0,21.29-3.56c3.58-3.14,4.76-7.79,5.5-12.32,1-6,.43-12-.46-18-1-6.67-2.55-13.23-3.87-19.84-.08-.39-.15-.79-.23-1.18q-1.25-6.47-2.4-13c1.9.52,3.77,1,5.43,1.46,5.56,1.63,23.94,4.67,21.66,13-.56,2,4.56-.19,5-.4,1.92-.91,5.67-2.74,6.31-5.06,2.38-8.66-11.64-11.23-17.32-13-7.33-2.28-20.33-3.41-23.47-11.62a.54.54,0,0,0-.33-.29c-.43-2.65-.84-5.31-1.25-8a99.71,99.71,0,0,0,12.34,4.19c11.59,3.27,28.6,6.09,33.27,19.08C7151.67,1002.67,7163.33,997.29,7162.28,994.37Zm-65.65,66.1a12,12,0,0,1-5.05-9.46,39.08,39.08,0,0,1,1.08-4.73l.61,0a18.29,18.29,0,0,1,3,.71c3.27,1.06,6.2,3,9.19,4.67a44,44,0,0,1-.18,5,41.82,41.82,0,0,1-1.11,7.2A20.55,20.55,0,0,1,7096.63,1060.47Z" transform="translate(82.26 28.05)"/><path d="M7322.8,537.68a493.69,493.69,0,0,0-7.2-57.73c-.23-1.28-11.89,3.05-11.26,6.5,4,21.5,7,43.57,7.72,65.49-9.73-.68-20.43,5.51-24.7,14.16-3,6-1.86,13.68,4.85,16.51,5.93,2.5,12.66-.17,17.79-3.26C7325.43,570,7323.84,553.51,7322.8,537.68ZM7299.51,559l-.06,0C7298.75,559.13,7298.78,559.12,7299.51,559Zm10.08,14.13a16.36,16.36,0,0,1-1.84,3l-.25.27-.84,0c-2.22-.63-3.93-.5-5.92-2-4.21-3.11-4.48-9-2.18-13.42a10,10,0,0,0,1.07-2l1.38-.19,2.26.09a15.23,15.23,0,0,1,7.74,3.5,1.74,1.74,0,0,0,1.07.38A27.41,27.41,0,0,1,7309.59,573.14Z" transform="translate(82.26 28.05)"/><path d="M6602.84,347.07c-3.46-2.49-9.19-3.33-13.21-4.69l-14.78-5-29.54-9.94c-2.32-.78-10.86,3.59-10.86,6.27l0,34.86c0,7.47.22,15,.21,22.52a17,17,0,0,0-8.31-1.72c-6.59.34-14.52,4.68-17.8,10.51-3.16,5.62-1.78,13.13,2.55,17.74s9.92,5.19,15.56,3.33c6.08-2,12.32-6,15.84-11.48,4.41-6.85,3.24-15.69,3.25-23.44l0-21.06c5.55,2.22,11.33,4,16.87,6,2.45.88,28.87,9.92,28.65,10.65s.47.94,1.42.78l-.81,20.22c-8.43.68-16.83,3.55-23.19,9-7.76,6.64-6.65,18.25,1.94,23.73,8.24,5.27,18.46.54,24.9-5.53,7.88-7.42,8.67-17.81,7.48-27.89q.59-14.65,1.18-29.31.3-7.77.62-15.55C6604.92,353.77,6605.92,349.3,6602.84,347.07Zm-85,49.53h0l-.09,0C6516.35,396.58,6516.36,396.57,6517.84,396.6Zm10.91,18.19c-4.36-.62-7.86-4.46-9.47-8.35a14,14,0,0,1-1-7.38,7,7,0,0,1,.34-1.62c.25-.42.31-.7.17-.84a5.19,5.19,0,0,1,.88.13c5.2.81,9.32,4.18,12.27,8.38.36.52,1.19.57,2.25.31C6533.91,409.26,6533.05,415.4,6528.75,414.79Zm62.08,10c-.53,1.64-1.49,3-2.09,4.59-1.14,1-1.18,1.37-.11,1.12,1.09-.09.92-.06-.5.09a14.32,14.32,0,0,1-6.68-2.06,14.58,14.58,0,0,1-6.78-12.7,8.45,8.45,0,0,1,.7-3.58c.84-1.46,2.07-1.6,4.07-2a36.64,36.64,0,0,1,12.49-.23A35.68,35.68,0,0,1,6590.83,424.79Z" transform="translate(82.26 28.05)"/><path d="M8013.59,911.5q-14.17.62-28.35,1,1.45-12.69,2.5-25.42,7.92-.11,15.83-.17c2.73,0,6-2.21,8-3.9.92-.77,3.55-3.26.82-3.24q-12.06.07-24.1.25.81-11,1.32-22.11c.1-2-11.17,2.29-11.32,5.46q-.39,8.43-1,16.84-16.36.28-32.73.73,2.51-11.74,4.72-23.56c.39-2.07-4.45.14-5,.4-1.75.82-5.89,2.8-6.31,5.06q-1.73,9.23-3.64,18.41c-5.59.18-11.19.35-16.78.55-2.77.1-6,2.17-8,3.9-.87.73-3.59,3.35-.82,3.25q12.08-.45,24.15-.79-2.7,12.52-5.74,25-6.26,0-12.49-.11c-2.71,0-6,2.24-8,3.9-1,.81-3.53,3.21-.82,3.25q9.78.12,19.55.12-2.88,11.37-6,22.65a3.49,3.49,0,0,0-1.49,2.22l-.09,3.45c-.07,2.47,10.58-2.89,11.32-5.46q3.27-11.4,6.23-22.87,19.2-.07,38.38-.57-1.77,15.09-4.11,30.11c-.26,1.66,10.8-2.12,11.32-5.46q2-12.45,3.49-25,10.17-.31,20.36-.75c2.78-.12,5.95-2.17,8-3.9C8013.63,914,8016.36,911.38,8013.59,911.5Zm-76.45,1.65q3.15-12.58,6-25.26,16.88-.42,33.75-.69-1,12.79-2.37,25.55Q7955.82,913.16,7937.14,913.15Z" transform="translate(82.26 28.05)"/><path d="M6891.79,1416.4l1.8-63.14c.06-2.1-11.24,2.31-11.33,5.46l-1.17,41.44c-.24,8.26-.22,16.6-.44,24.92-12.2-2.29-26.72,3.83-31.87,15.31-2.85,6.33-1.89,14.09,3.93,18.38s13.43,3.63,19.82.83c6.72-2.94,13.13-7.82,16.31-14.58C6892.83,1436.55,6891.54,1425.53,6891.79,1416.4Z" transform="translate(82.26 28.05)"/><path d="M8036.4,1363.43l-17.29.55a24.15,24.15,0,0,0-5.13-10.26c-10.4-11.34-24.73-15.73-39.81-15.74-13.68,0-29.2,8.78-35.52,21.11a30.5,30.5,0,0,0-2.32,6.05c-3.39-.28-6.77-.66-10.15-1.17-2.52-.38-5.56,1.57-7.54,2.94-.42.29-4.78,3.85-2.85,4.14a174.38,174.38,0,0,0,19.6,1.73,24.13,24.13,0,0,0,1,6.53c2.27,7.69,10.87,10.78,17.83,13,14.52,4.63,31.29,4.39,45.29-1.91,6.89-3.09,14.3-7.73,18-14.56a16.87,16.87,0,0,0,1.75-5l8.32-.26c2.77-.09,6-2.18,8-3.9C8036.46,1365.94,8039.16,1363.35,8036.4,1363.43Zm-87.53-7.44c3-7.15,7.94-10.79,15.69-10.86,14.42-.12,28.25,4.27,38.16,15.09a28.18,28.18,0,0,1,2.88,4.18l-24.64.78c-11.41.36-22.86.86-34.26.53A28,28,0,0,1,7948.87,1356Zm58.2,23.43c-2.75,6.38-9.19,7.6-15.47,8.38a62.91,62.91,0,0,1-22.91-1.4c-6.67-1.66-16.65-4.4-20-11a16,16,0,0,1-1-2.5c7.5,0,15-.32,22.52-.55l37.88-1.19A14.5,14.5,0,0,1,8007.07,1379.42Z" transform="translate(82.26 28.05)"/><path d="M5935.27,1194.51c-9-2.27-19.13,2.77-25.89,9.27q3-34.86,6.1-69.71c.16-1.9-11,2.21-11.32,5.46q-4.4,50.13-8.78,100.26c-.31,2.91-.55,5.77-.74,8.51-.14,2,11-2.27,11.32-5.46,0-.28.05-.55.08-.83l.27,0c12.42-2.71,25-9.65,33.11-19.59C5946.25,1214,5948.76,1197.93,5935.27,1194.51Zm-28.93,44.06.06-.68c1.05-10.39,2.92-22,9.55-30.44,1.42-1.83,2.94-3.12,5.27-2.23a10,10,0,0,1,4.92,4.23c3,5.3.48,13.16-2.23,18.08-2.4,4.36-6.23,6.55-10.81,8C5912,1235.94,5906.46,1237.14,5906.34,1238.57Z" transform="translate(82.26 28.05)"/><path d="M7483.65,1496.79c-4.44,2.38-11.35,7.56-11.17,13.37-5.8-3.13-11-7.54-16.71-10.78-6.87-3.89-14.4-7-22.32-7.67-13.11-1.17-27.34,4.13-36.24,13.94-3.85,4.24-7.06,10.46-4.33,16.22,2.8,5.92,9.21,5.58,14.36,3.25,4.95-2.25,12.13-6.94,9.56-13.35-2.12-5.28-7.52-5.88-12.57-5a14,14,0,0,1,1.42-2.57c2.62-3.74,6.32-4.81,10.69-5.31,8.74-1,17.44,1.66,25.19,5.52,8,4,14.69,10.18,22.74,13.94,12.54,5.85,31.6-2.09,32.46-17C7497.24,1492.44,7489.41,1493.7,7483.65,1496.79Zm-73.86,23,.17-.07S7409.89,1519.75,7409.79,1519.76Z" transform="translate(82.26 28.05)"/><path d="M6615.22,1685.87c-4.93-3.82-11.45-2.92-16.78-.54-6.23,2.78-11.81,7.27-14.87,13.45-3.69,7.46-2.95,16-2.48,24q.77,13.34,1.54,26.66l-44.77,14.63-1.18.41q-2.6-18.33-5.18-36.67a48,48,0,0,0,19.91-11.15c6.14-5.7,12.57-19.05.65-22.6-9.08-2.71-20.21,3.83-26.33,10.06-6.69,6.81-9.7,16.59-6.43,25.74a.51.51,0,0,0,.36.3q4,28.32,8,56.66c.29,2,8.66-3.12,9.23-3.58,2-1.64,7.29-1.09,9.87-1.13,3.55,0,7.11.13,10.66,0a64.86,64.86,0,0,0,22.69-5.27c5.28-2.24,13.95-5.66,14.92-12.18.53-3.59-.31-7.71-.52-11.32q-.39-6.81-.79-13.62c-.39-6.62-.79-13.25-1.16-19.87,10-1.53,20.16-8.46,24.46-17C6619.68,1697.53,6620.43,1689.91,6615.22,1685.87ZM6580,1772.55c-9.09,3-18.1,2-27.45,2.5a39.2,39.2,0,0,0-13.9,3.33l-1.35-9.57,43.69-14.28c.61-.2,1.26-.43,1.91-.69.23,3.92.47,7.83.68,11.74a21,21,0,0,1,0,5.14c-.08.4,0,.57.1.6A29.38,29.38,0,0,1,6580,1772.55Z" transform="translate(82.26 28.05)"/><path d="M6571.16-21.46c6.08,8.11,19.09,9.74,28.09,6.36m5.2-8.17c-.39.6-1,1.24-1.35,1.87l-.45.4c-.37.07-.88.18-1.58.35A24.31,24.31,0,0,1,6587-24.06" transform="translate(82.26 28.05)"/><path d="M7104.57-21.22c-3.69,7.46-2.95,16-2.48,24q.77,13.34,1.54,26.66l-44.77,14.63-1.18.41q-2.6-18.33-5.18-36.67a48,48,0,0,0,19.91-11.15c6.14-5.7,12.57-19,.65-22.6-9.08-2.71-20.21,3.83-26.33,10.06C7040-9.07,7037,.71,7040.3,9.86a.51.51,0,0,0,.36.3q4,28.32,8,56.66c.29,2,8.66-3.12,9.23-3.58,2-1.64,7.29-1.09,9.87-1.13,3.55,0,7.11.13,10.66,0a64.86,64.86,0,0,0,22.69-5.27c5.28-2.24,13.95-5.66,14.92-12.18.53-3.59-.31-7.71-.52-11.32q-.39-6.81-.79-13.62c-.39-6.62-.79-13.25-1.16-19.87,10-1.53,20.16-8.46,24.46-17m-37,69.72c-9.09,3-18.1,2-27.45,2.5a39.2,39.2,0,0,0-13.9,3.33l-1.35-9.57L7102,34.53c.61-.2,1.26-.43,1.91-.69.23,3.92.47,7.83.68,11.74a21,21,0,0,1,0,5.14c-.08.4,0,.57.1.6A29.38,29.38,0,0,1,7101,52.55Z" transform="translate(82.26 28.05)"/><path d="M2792.09,221.34q12.6,29,25.19,57.94c.83,1.92,9.19-6.87,7.93-9.75l-16.53-38c-3.29-7.58-6.85-15.13-10.18-22.75,12-3.1,22.57-14.81,22.36-27.39-.12-7-4.28-13.56-11.37-15s-13.7,2.41-18.3,7.66c-4.83,5.51-8.56,12.66-8.57,20.12C2782.6,203.55,2788.45,213,2792.09,221.34Z" transform="translate(82.26 28.05)"/><path d="M3157,112a.76.76,0,0,0,.13.17c0,.09.07.2.12.29L3187.36,162c.35.57,2-.81,2.1-.85a426.65,426.65,0,0,1,47.8-33c2.22-1.32,7.89-7.6,6.2-10.44a272.46,272.46,0,0,1-23.52-50.27c8.6-3.72,16-12.76,15.85-21.82-.09-4.45-2.88-9.2-7-11-5.53-2.45-10.63,1.11-14.21,5.18-4.26,4.83-7.41,10.94-7.42,17.48,0,7.8,3.44,15.77,6,23q4.64,12.81,10.54,25.08-18.58,16.27-37,32.76l-19-31.37A34.46,34.46,0,0,0,3178.08,93c2.42-5.93,1.74-15.31-5.57-17.53-8.11-2.47-14.82,7.67-17.71,13.74a25.34,25.34,0,0,0-2.73,12.32C3152.35,105.56,3155.17,108.58,3157,112Zm67.35-1.2c.46-.4.92-.85,1.38-1.33q3.54,7.08,7.43,14a444.71,444.71,0,0,0-38.74,27.35l-5.34-8.79Q3206.69,126.32,3224.39,110.82Z" transform="translate(82.26 28.05)"/><path d="M5699.08-2.4c.65,1.79,9.05-6.69,7.93-9.75" transform="translate(82.26 28.05)"/><path d="M5808,423.92c17.83,3.81,35.75-9.1,39.9-26.66,2.12-8.93-1-21.24-9.56-25.87-8.76-4.74-16.44,1.09-21.08,8.49-4.76,7.6-6.28,18.94,3.25,23.66,7.1,3.51,14.83.45,20.35-4.46a14.79,14.79,0,0,1-.92,6.65c-2.6,6.33-12.67,8.25-18.75,8.16-16.63-.24-30.2-13.34-34-29-4.33-17.81,2.41-35.2,15.62-47.32,2.12-1.94,4.52-4.68,5.26-7.54.51-2-.05-3.24-2-1.42-14.74,13.53-27.31,32-28.05,52.64C5777.31,400.48,5788.32,419.71,5808,423.92Z" transform="translate(82.26 28.05)"/><path d="M5773.81,417a5,5,0,0,0-2.62,1.66,20.76,20.76,0,0,0-4.25,5.84,7.65,7.65,0,0,0-.34,6.23,4.32,4.32,0,0,0,2.56,2.7,3.49,3.49,0,0,0,1.83.07c.84,1.19,3.86-2.34,4.23-2.81a21.19,21.19,0,0,0,2.72-4.21c.38-.84,1.1-2.1.85-3.05,0-.08-.05-.17-.08-.26a2.72,2.72,0,0,0,0-.64,8.8,8.8,0,0,0-1.43-2.94C5776.39,418.05,5775.25,416.82,5773.81,417Z" transform="translate(82.26 28.05)"/><path d="M5752,402c.8,1.33,2.13,3.5,3.93,3.44,1.16,0,2.09-1,2.89-1.72a19.89,19.89,0,0,0,4.24-5.84,7.55,7.55,0,0,0,.09-7,12.87,12.87,0,0,0-1.69-2.73,16.39,16.39,0,0,0-.9-1.66c-1.32-2.07-3.32-.72-4.73.59-2.43,2.26-5,5.9-5.48,9.29C5750,398.34,5751,400.26,5752,402Z" transform="translate(82.26 28.05)"/><path d="M5117.7-25.15c-4.25,4.83-7.41,10.94-7.42,17.48,0,7.8,3.44,15.77,6.05,23,3.09,8.54,6.63,16.9,10.54,25.07q-18.59,16.29-37,32.77l-19.05-31.37a34.33,34.33,0,0,0,10.4-13.72c2.43-5.92,1.74-15.3-5.56-17.52-8.12-2.47-14.83,7.67-17.72,13.74a25.45,25.45,0,0,0-2.73,12.32c.28,4.06,3.11,7.08,5,10.52a.79.79,0,0,0,.14.17,1.72,1.72,0,0,0,.11.29q15,24.76,30.07,49.53c.35.57,2.06-.81,2.11-.85a424.83,424.83,0,0,1,47.8-33c2.22-1.32,7.88-7.6,6.2-10.44a271.85,271.85,0,0,1-23.53-50.27c8.61-3.72,16-12.76,15.85-21.82m-11.4,65.22c.46-.4.93-.85,1.39-1.33q3.52,7.08,7.42,14a444.56,444.56,0,0,0-38.73,27.35l-5.34-8.79Q5109.83,61.43,5127.54,45.93Z" transform="translate(82.26 28.05)"/></g></g></g></g></svg>