<svg xmlns="http://www.w3.org/2000/svg" viewBox="0 0 730.99 193.37"><defs><style>.cls-1{isolation:isolate;}.cls-2{fill:#3b3b3b;}.cls-3{fill:#f2f2f2;}.cls-4{fill:#d4d4d4;}.cls-5{fill:#333;}.cls-6{fill:#1a1a1a;}.cls-7{fill:#4d4d4d;}.cls-8{fill:#999;}.cls-9{fill:#edba6f;}.cls-10{fill:#a6a6a6;}.cls-11{fill:#949494;}.cls-12{fill:#7d7d7d;}.cls-13{fill:#737373;}.cls-14{fill:#ccc;}.cls-15{fill:#666;}.cls-16{fill:#e18e16;}.cls-17{fill:#ffa347;}.cls-18{fill:#81573f;}.cls-19{fill:#704c37;}.cls-20{fill:#e6c33a;}.cls-21{fill:#ffdc50;}.cls-22{fill:#543e30;}.cls-23{fill:#bf6b3d;}.cls-24{fill:#402301;}.cls-25{fill:#fff;}.cls-26{fill:#c75c08;}.cls-27{fill:#9c4500;}.cls-28{fill:#8a3d00;}.cls-29{fill:#eb8332;}.cls-30{fill:#e36f14;}.cls-31{fill:#e6e6e6;mix-blend-mode:multiply;}</style></defs><g class="cls-1"><g id="Capa_2" data-name="Capa 2"><g id="Capa_1-2" data-name="Capa 1"><path class="cls-2" d="M346.88,104.4c5,0,1.66,14.67,7.62,14.67,3.68,0,7.16-7.51,7.16-8.08,0,2.85,2.64,19.43,8.81,19.43s4.66-10.1,8-10.1c3.78,0,5.54,7.62,5.54,10.1,0,10-4.35,14.57-4.35,18.46s8.14,13.16,8.14,23.06-12.39,10.42-15.29,10.42c-23.79,0-36.28-7.32-36.28-21.67,0-6.17,8.7-19.43,8.91-24.62S341,125,341,116.07C341,112.33,342.32,104.4,346.88,104.4Z"/><path class="cls-3" d="M362,154.52c-5.8,0-12.31-.72-12.31-6.94,0-2.73,4.91-11.54,5-14.46s-5.48-11.56-.21-11.56c2.18,0,10.05,11.35,16,11.35,7.82,0,7.84-9.91,8.42-9.91,1.81,0,2.62,4.92,2.62,7.42a30.75,30.75,0,0,1-2.74,12.46,16.35,16.35,0,0,0-1.62,6c0,2.11,1.25,4.48,3,7.77,2.3,4.38,7.32,11.74,4.24,13.48C379.71,172.76,375,154.52,362,154.52Z"/><rect class="cls-4" x="356.76" y="176.09" width="11.38" height="1.09"/><path class="cls-5" d="M375.72,154.34a1.84,1.84,0,0,1-1.84,1.84,2.05,2.05,0,0,1-.61-.1,1.81,1.81,0,0,1-.69-.44,1.83,1.83,0,0,1-.55-1.3,1.79,1.79,0,0,1,.19-.81,1.76,1.76,0,0,1,.47-.61,1.83,1.83,0,0,1,1.19-.43,1.86,1.86,0,0,1,1.84,1.85Z"/><path class="cls-4" d="M373.88,154.34l-1.66-.81a1.76,1.76,0,0,1,.47-.61Z"/><path class="cls-6" d="M375.72,154.34a1.84,1.84,0,0,1-1.84,1.84,2.05,2.05,0,0,1-.61-.1,1.81,1.81,0,0,1-.69-.44l2.6-2.6A1.81,1.81,0,0,1,375.72,154.34Z"/><path class="cls-7" d="M373.88,154.34l-.61,1.74a1.85,1.85,0,0,1-1.15-1.18Z"/><path class="cls-5" d="M375.12,154.34a1.25,1.25,0,0,1-1.24,1.24,1.3,1.3,0,0,1-.41-.07,1.24,1.24,0,0,1-.78-.8,1.15,1.15,0,0,1-.06-.37,1.24,1.24,0,0,1,.13-.55,1.14,1.14,0,0,1,.31-.41,1.27,1.27,0,0,1,.81-.29A1.25,1.25,0,0,1,375.12,154.34Z"/><path class="cls-7" d="M372.92,154.83a1.59,1.59,0,0,1-.06-.38,1.2,1.2,0,0,1,.13-.54,1.17,1.17,0,0,1,.32-.41,1.19,1.19,0,0,1,.8-.29,1.22,1.22,0,0,1,.43.08,1.17,1.17,0,0,0-.66-.2,1.22,1.22,0,0,0-.8.29,1.07,1.07,0,0,0-.32.41,1.24,1.24,0,0,0-.13.55,1.15,1.15,0,0,0,.06.37,1.22,1.22,0,0,0,.74.78A1.24,1.24,0,0,1,372.92,154.83Z"/><path class="cls-5" d="M378.6,158.53a1.85,1.85,0,0,1-1.84,1.85,2.05,2.05,0,0,1-.61-.1,1.81,1.81,0,0,1-.69-.44,1.86,1.86,0,0,1-.55-1.31,1.78,1.78,0,0,1,.19-.8,1.67,1.67,0,0,1,.47-.61,1.83,1.83,0,0,1,1.19-.43,1.86,1.86,0,0,1,1.84,1.84Z"/><path class="cls-4" d="M376.76,158.53l-1.66-.8a1.67,1.67,0,0,1,.47-.61Z"/><path class="cls-6" d="M378.6,158.53a1.85,1.85,0,0,1-1.84,1.85,2.05,2.05,0,0,1-.61-.1,1.81,1.81,0,0,1-.69-.44l2.6-2.6A1.81,1.81,0,0,1,378.6,158.53Z"/><path class="cls-7" d="M376.76,158.53l-.61,1.75a1.84,1.84,0,0,1-1.15-1.19Z"/><path class="cls-5" d="M378,158.53a1.24,1.24,0,0,1-1.24,1.24,1.35,1.35,0,0,1-.41-.06,1.27,1.27,0,0,1-.78-.8,1.16,1.16,0,0,1-.06-.38,1.23,1.23,0,0,1,.13-.54,1.07,1.07,0,0,1,.32-.41,1.22,1.22,0,0,1,.8-.29A1.25,1.25,0,0,1,378,158.53Z"/><path class="cls-7" d="M375.8,159a1.59,1.59,0,0,1-.06-.38,1.27,1.27,0,0,1,.13-.55,1.13,1.13,0,0,1,.32-.4,1.2,1.2,0,0,1,.8-.3,1.22,1.22,0,0,1,.43.09,1.17,1.17,0,0,0-.66-.2,1.22,1.22,0,0,0-.8.29,1.07,1.07,0,0,0-.32.41,1.23,1.23,0,0,0-.13.54,1.16,1.16,0,0,0,.06.38,1.22,1.22,0,0,0,.74.78A1.28,1.28,0,0,1,375.8,159Z"/><path class="cls-5" d="M381.48,162.73a1.84,1.84,0,0,1-1.84,1.84,1.77,1.77,0,0,1-.61-.1,1.67,1.67,0,0,1-.69-.43,1.76,1.76,0,0,1-.46-.75,1.69,1.69,0,0,1-.09-.56,1.86,1.86,0,0,1,.19-.81,1.72,1.72,0,0,1,.47-.6,1.83,1.83,0,0,1,1.19-.43,1.86,1.86,0,0,1,1.84,1.84Z"/><path class="cls-4" d="M379.64,162.73l-1.66-.81a1.72,1.72,0,0,1,.47-.6Z"/><path class="cls-6" d="M381.48,162.73a1.84,1.84,0,0,1-1.84,1.84,1.77,1.77,0,0,1-.61-.1,1.67,1.67,0,0,1-.69-.43l2.6-2.6A1.79,1.79,0,0,1,381.48,162.73Z"/><path class="cls-7" d="M379.64,162.73l-.61,1.74a1.81,1.81,0,0,1-1.15-1.18Z"/><path class="cls-5" d="M380.88,162.73a1.24,1.24,0,0,1-1.24,1.24,1.35,1.35,0,0,1-.41-.06,1.27,1.27,0,0,1-.78-.8,1.16,1.16,0,0,1-.06-.38,1.2,1.2,0,0,1,.13-.54,1.07,1.07,0,0,1,.32-.41,1.22,1.22,0,0,1,.8-.29A1.24,1.24,0,0,1,380.88,162.73Z"/><path class="cls-7" d="M378.68,163.22a1.43,1.43,0,0,1-.06-.37,1.27,1.27,0,0,1,.13-.55,1.05,1.05,0,0,1,.32-.4,1.2,1.2,0,0,1,.8-.3,1.22,1.22,0,0,1,.43.08,1.24,1.24,0,0,0-.66-.19,1.22,1.22,0,0,0-.8.29,1.07,1.07,0,0,0-.32.41,1.2,1.2,0,0,0-.13.54,1.16,1.16,0,0,0,.06.38,1.24,1.24,0,0,0,.74.78A1.27,1.27,0,0,1,378.68,163.22Z"/><path class="cls-5" d="M384.36,166.93a1.84,1.84,0,0,1-1.84,1.84,2.05,2.05,0,0,1-.61-.1,1.67,1.67,0,0,1-.69-.43,1.76,1.76,0,0,1-.46-.75,1.69,1.69,0,0,1-.09-.56,1.86,1.86,0,0,1,.19-.81,1.72,1.72,0,0,1,.47-.6,1.83,1.83,0,0,1,1.19-.44,1.81,1.81,0,0,1,1.3.56A1.79,1.79,0,0,1,384.36,166.93Z"/><path class="cls-4" d="M382.52,166.93l-1.66-.81a1.72,1.72,0,0,1,.47-.6Z"/><path class="cls-6" d="M384.36,166.93a1.84,1.84,0,0,1-1.84,1.84,2.05,2.05,0,0,1-.61-.1,1.67,1.67,0,0,1-.69-.43l2.6-2.6A1.79,1.79,0,0,1,384.36,166.93Z"/><path class="cls-7" d="M382.52,166.93l-.61,1.74a1.83,1.83,0,0,1-1.15-1.18Z"/><path class="cls-5" d="M383.76,166.93a1.24,1.24,0,0,1-1.24,1.24,1.1,1.1,0,0,1-.41-.07,1.23,1.23,0,0,1-.78-.79,1.21,1.21,0,0,1-.06-.38,1.2,1.2,0,0,1,.13-.54,1.07,1.07,0,0,1,.32-.41,1.18,1.18,0,0,1,.8-.3A1.25,1.25,0,0,1,383.76,166.93Z"/><path class="cls-7" d="M381.56,167.42a1.43,1.43,0,0,1-.06-.37,1.24,1.24,0,0,1,.13-.55,1.17,1.17,0,0,1,.32-.41,1.24,1.24,0,0,1,.8-.29,1.22,1.22,0,0,1,.43.08,1.25,1.25,0,0,0-.66-.2,1.18,1.18,0,0,0-.8.3,1.11,1.11,0,0,0-.32.4,1.27,1.27,0,0,0-.13.55,1.21,1.21,0,0,0,.06.38,1.24,1.24,0,0,0,.74.78A1.27,1.27,0,0,1,381.56,167.42Z"/><rect class="cls-4" x="356.76" y="169.97" width="11.38" height="5.39"/><rect class="cls-8" x="356.76" y="172.28" width="11.38" height="2.02"/><path class="cls-9" d="M365.37,38.73h-5.46l-2.25,94.4a1.75,1.75,0,0,0,1.76,1.8h6.44a1.75,1.75,0,0,0,1.76-1.8Z"/><rect class="cls-5" x="359.48" y="131.41" width="6.32" height="0.73"/><rect class="cls-5" x="359.48" y="126.43" width="6.32" height="0.73"/><rect class="cls-5" x="359.48" y="121.2" width="6.32" height="0.73"/><rect class="cls-5" x="359.48" y="114.65" width="6.32" height="1.3"/><rect class="cls-5" x="359.48" y="103.75" width="6.32" height="1.3"/><rect class="cls-5" x="359.84" y="90.68" width="5.6" height="1.79"/><rect class="cls-5" x="360.05" y="80.65" width="5.18" height="2.1"/><rect class="cls-5" x="360.05" y="69.46" width="5.18" height="2.41"/><rect class="cls-5" x="360.28" y="56.55" width="4.72" height="2.57"/><rect class="cls-5" x="360.44" y="42.24" width="4.41" height="2.99"/><path class="cls-9" d="M370.62,9.4a5.38,5.38,0,0,0-5.39-5,4.89,4.89,0,0,0-4.79,4.2c-1.89,8.94-5.26,25.53-5.26,25.86,0,2.52,4.73,2.21,4.73,4.25h5.46c0-1.22,3.51-6.55,4.73-8,2.57-3-3.85-11.58-3.11-15.44C367.36,13.39,370.64,11.81,370.62,9.4Z"/><path class="cls-10" d="M358.66,7.6h0a.37.37,0,0,1-.26-.44v0a1.2,1.2,0,0,0-.86-1.46l-.2,0a1.2,1.2,0,0,0-1.46.86v0a.36.36,0,0,1-.44.25h0a1.21,1.21,0,0,0-1.46.86l-.05.2a1.19,1.19,0,0,0,.86,1.46h0a.36.36,0,0,1,.25.44h0a1.21,1.21,0,0,0,.86,1.47l.2,0a1.2,1.2,0,0,0,1.46-.86v0a.36.36,0,0,1,.44-.26h0a.35.35,0,0,0,.44-.26L358.91,8A.36.36,0,0,0,358.66,7.6Z"/><path class="cls-11" d="M358.66,7.6h0a.36.36,0,0,1-.25-.26,1.06,1.06,0,0,1,0,.19A3.33,3.33,0,0,1,355,10a1.22,1.22,0,0,0,.9,1.19l.2,0a1.2,1.2,0,0,0,1.46-.86v0a.36.36,0,0,1,.44-.26h0a.35.35,0,0,0,.44-.26L358.91,8A.36.36,0,0,0,358.66,7.6Z"/><path class="cls-4" d="M358.88,7.77a.34.34,0,0,0-.18-.15A.34.34,0,0,0,358.88,7.77Z"/><path class="cls-4" d="M354.17,8l.05-.2A1.2,1.2,0,0,1,355.68,7h0a.36.36,0,0,0,.44-.26h0a1.2,1.2,0,0,1,1.46-.86l.2,0a.93.93,0,0,1,.25.1,1.08,1.08,0,0,0-.52-.3l-.2,0a1.2,1.2,0,0,0-1.46.86v0a.36.36,0,0,1-.44.25h0a1.21,1.21,0,0,0-1.46.86l-.05.2a1.2,1.2,0,0,0,.61,1.37A1.19,1.19,0,0,1,354.17,8Z"/><path class="cls-4" d="M355.3,9.94h0a.36.36,0,0,0-.26-.44H355a.34.34,0,0,1,0,.26h0a1.2,1.2,0,0,0,.61,1.37A1.22,1.22,0,0,1,355.3,9.94Z"/><rect class="cls-10" x="358.85" y="8.28" width="1.42" height="1.84" transform="translate(260.73 355.04) rotate(-75.52)"/><rect class="cls-12" x="359.21" y="8.59" width="0.54" height="1.84" transform="translate(260.37 355.19) rotate(-75.52)"/><rect class="cls-4" x="359.5" y="7.98" width="0.28" height="1.84" transform="translate(261.05 354.88) rotate(-75.51)"/><path class="cls-10" d="M357.16,14.83h0a.37.37,0,0,1-.26-.44v0a1.21,1.21,0,0,0-.86-1.46l-.2-.05a1.2,1.2,0,0,0-1.47.86v0a.37.37,0,0,1-.44.26h0a1.21,1.21,0,0,0-1.47.86l-.05.2a1.22,1.22,0,0,0,.86,1.47h0a.37.37,0,0,1,.26.44h0a1.21,1.21,0,0,0,.87,1.47l.2,0a1.21,1.21,0,0,0,1.46-.86v0a.37.37,0,0,1,.44-.26h0a.36.36,0,0,0,.44-.26l.47-1.82A.37.37,0,0,0,357.16,14.83Z"/><path class="cls-11" d="M357.16,14.83h0a.38.38,0,0,1-.25-.26,1.06,1.06,0,0,1,0,.19,3.32,3.32,0,0,1-3.36,2.49,1.22,1.22,0,0,0,.9,1.19l.2,0a1.21,1.21,0,0,0,1.46-.86v0a.37.37,0,0,1,.44-.26h0a.36.36,0,0,0,.44-.26l.47-1.82A.37.37,0,0,0,357.16,14.83Z"/><path class="cls-4" d="M357.38,15a.31.31,0,0,0-.18-.16A.4.4,0,0,0,357.38,15Z"/><path class="cls-4" d="M352.67,15.25l.06-.2a1.19,1.19,0,0,1,1.46-.86h0a.35.35,0,0,0,.44-.26h0a1.19,1.19,0,0,1,1.46-.86l.2,0a1.09,1.09,0,0,1,.25.1,1.13,1.13,0,0,0-.52-.3l-.2-.05a1.2,1.2,0,0,0-1.47.86v0a.37.37,0,0,1-.44.26h0a1.21,1.21,0,0,0-1.47.86l-.05.2a1.21,1.21,0,0,0,.61,1.37A1.22,1.22,0,0,1,352.67,15.25Z"/><path class="cls-4" d="M353.81,17.17h0a.36.36,0,0,0-.26-.44h0a.39.39,0,0,1,0,.26h0a1.21,1.21,0,0,0,.62,1.37A1.17,1.17,0,0,1,353.81,17.17Z"/><rect class="cls-10" x="357.36" y="15.51" width="1.42" height="1.84" transform="translate(252.6 359.01) rotate(-75.52)"/><rect class="cls-12" x="357.72" y="15.82" width="0.54" height="1.84" transform="matrix(0.25, -0.97, 0.97, 0.25, 252.24, 359.16)"/><rect class="cls-4" x="358.01" y="15.22" width="0.28" height="1.84" transform="translate(252.95 358.86) rotate(-75.52)"/><path class="cls-10" d="M355.66,22.06h0a.36.36,0,0,1-.26-.44v0a1.2,1.2,0,0,0-.86-1.46l-.2-.05a1.19,1.19,0,0,0-1.46.86v0a.36.36,0,0,1-.43.26h0a1.2,1.2,0,0,0-1.46.86l0,.2a1.2,1.2,0,0,0,.86,1.47h0a.36.36,0,0,1,.26.44h0a1.2,1.2,0,0,0,.86,1.47l.2,0a1.2,1.2,0,0,0,1.46-.86v0a.36.36,0,0,1,.44-.26h0a.36.36,0,0,0,.44-.25l.47-1.83A.36.36,0,0,0,355.66,22.06Z"/><path class="cls-11" d="M355.66,22.06h0a.35.35,0,0,1-.25-.25,1.16,1.16,0,0,0,0,.18A3.33,3.33,0,0,1,352,24.48a1.22,1.22,0,0,0,.9,1.19l.2,0a1.2,1.2,0,0,0,1.46-.86v0a.36.36,0,0,1,.44-.26h0a.36.36,0,0,0,.44-.25l.47-1.83A.36.36,0,0,0,355.66,22.06Z"/><path class="cls-4" d="M355.89,22.24a.35.35,0,0,0-.18-.16A.36.36,0,0,0,355.89,22.24Z"/><path class="cls-4" d="M351.18,22.48l.05-.2a1.2,1.2,0,0,1,1.46-.86h0a.36.36,0,0,0,.44-.26h0a1.2,1.2,0,0,1,1.46-.86l.2.05a1.09,1.09,0,0,1,.25.1,1.08,1.08,0,0,0-.52-.3l-.2-.05a1.19,1.19,0,0,0-1.46.86v0a.36.36,0,0,1-.43.26h0a1.2,1.2,0,0,0-1.46.86l0,.2a1.19,1.19,0,0,0,.61,1.37A1.19,1.19,0,0,1,351.18,22.48Z"/><path class="cls-4" d="M352.31,24.4h0a.35.35,0,0,0-.25-.44H352a.34.34,0,0,1,0,.26h0a1.2,1.2,0,0,0,.61,1.37A1.19,1.19,0,0,1,352.31,24.4Z"/><rect class="cls-10" x="355.86" y="22.74" width="1.42" height="1.84" transform="translate(244.46 362.98) rotate(-75.51)"/><rect class="cls-12" x="356.22" y="23.05" width="0.54" height="1.84" transform="translate(244.12 363.14) rotate(-75.52)"/><rect class="cls-4" x="356.51" y="22.45" width="0.28" height="1.84" transform="translate(244.81 362.83) rotate(-75.51)"/><path class="cls-10" d="M354.17,29.29h0a.37.37,0,0,1-.26-.44v0a1.2,1.2,0,0,0-.87-1.46l-.19-.05a1.2,1.2,0,0,0-1.47.86v0a.37.37,0,0,1-.44.26h0a1.21,1.21,0,0,0-1.46.86l0,.2a1.2,1.2,0,0,0,.86,1.47h0a.37.37,0,0,1,.26.44h0a1.21,1.21,0,0,0,.86,1.47l.2.05a1.21,1.21,0,0,0,1.47-.86v0a.37.37,0,0,1,.44-.26h0a.36.36,0,0,0,.44-.25l.47-1.83A.37.37,0,0,0,354.17,29.29Z"/><path class="cls-11" d="M354.17,29.29h0a.35.35,0,0,1-.25-.25,1.16,1.16,0,0,1,0,.18,3.32,3.32,0,0,1-3.36,2.49,1.22,1.22,0,0,0,.89,1.19l.2.05a1.21,1.21,0,0,0,1.47-.86v0a.37.37,0,0,1,.44-.26h0a.36.36,0,0,0,.44-.25l.47-1.83A.37.37,0,0,0,354.17,29.29Z"/><path class="cls-4" d="M354.39,29.47a.35.35,0,0,0-.18-.16A.4.4,0,0,0,354.39,29.47Z"/><path class="cls-4" d="M349.68,29.71l.05-.2a1.21,1.21,0,0,1,1.47-.86h0a.36.36,0,0,0,.44-.25v0a1.21,1.21,0,0,1,1.47-.86l.2.05a1.09,1.09,0,0,1,.25.1,1.26,1.26,0,0,0-.53-.3l-.19-.05a1.2,1.2,0,0,0-1.47.86v0a.37.37,0,0,1-.44.26h0a1.21,1.21,0,0,0-1.46.86l0,.2a1.21,1.21,0,0,0,.61,1.37A1.22,1.22,0,0,1,349.68,29.71Z"/><path class="cls-4" d="M350.81,31.63h0a.36.36,0,0,0-.26-.44h-.05a.39.39,0,0,1,0,.26h0a1.21,1.21,0,0,0,.61,1.37A1.22,1.22,0,0,1,350.81,31.63Z"/><rect class="cls-10" x="354.37" y="29.97" width="1.42" height="1.84" transform="translate(236.34 366.95) rotate(-75.51)"/><rect class="cls-12" x="354.73" y="30.28" width="0.54" height="1.84" transform="translate(236 367.11) rotate(-75.52)"/><rect class="cls-4" x="355.01" y="29.68" width="0.28" height="1.84" transform="translate(236.69 366.8) rotate(-75.51)"/><path class="cls-13" d="M365.8,11.3a1.56,1.56,0,1,1-1.55-1.56A1.55,1.55,0,0,1,365.8,11.3Z"/><path class="cls-10" d="M365.61,11.48a1.37,1.37,0,1,1-1.36-1.36A1.36,1.36,0,0,1,365.61,11.48Z"/><path class="cls-14" d="M364.25,12.58a1.1,1.1,0,0,1-1.1-1.1.15.15,0,0,1,.15-.15.16.16,0,0,1,.16.15.79.79,0,0,0,.79.79.16.16,0,0,1,.15.16A.15.15,0,0,1,364.25,12.58Z"/><path class="cls-14" d="M365.19,11.64a.16.16,0,0,1-.15-.16.79.79,0,0,0-.79-.78.87.87,0,0,0-.32.06.15.15,0,0,1-.2-.08.17.17,0,0,1,.08-.21,1.1,1.1,0,0,1,1.54,1A.16.16,0,0,1,365.19,11.64Z"/><path class="cls-13" d="M364.21,18.68a1.56,1.56,0,1,1-1.55-1.55A1.55,1.55,0,0,1,364.21,18.68Z"/><path class="cls-10" d="M364,18.87a1.37,1.37,0,1,1-1.36-1.36A1.36,1.36,0,0,1,364,18.87Z"/><path class="cls-14" d="M362.66,20a1.1,1.1,0,0,1-1.1-1.1.15.15,0,0,1,.15-.15.16.16,0,0,1,.16.15.79.79,0,0,0,.79.79.15.15,0,0,1,.15.16A.15.15,0,0,1,362.66,20Z"/><path class="cls-14" d="M363.6,19a.16.16,0,0,1-.15-.16.8.8,0,0,0-.79-.79.67.67,0,0,0-.31.07.18.18,0,0,1-.21-.08.17.17,0,0,1,.08-.21,1.12,1.12,0,0,1,.44-.09,1.1,1.1,0,0,1,1.1,1.1A.16.16,0,0,1,363.6,19Z"/><path class="cls-13" d="M362.63,26.07a1.56,1.56,0,1,1-1.56-1.56A1.55,1.55,0,0,1,362.63,26.07Z"/><circle class="cls-10" cx="361.07" cy="26.26" r="1.37"/><path class="cls-14" d="M361.07,27.36a1.1,1.1,0,0,1-1.1-1.1.16.16,0,0,1,.16-.16.16.16,0,0,1,.15.16.8.8,0,0,0,.79.79.16.16,0,0,1,.16.15A.16.16,0,0,1,361.07,27.36Z"/><path class="cls-14" d="M362,26.41a.15.15,0,0,1-.16-.15.79.79,0,0,0-.79-.79.81.81,0,0,0-.31.06.15.15,0,1,1-.12-.28,1,1,0,0,1,.43-.09,1.1,1.1,0,0,1,1.1,1.1A.15.15,0,0,1,362,26.41Z"/><path class="cls-13" d="M361,33.46a1.56,1.56,0,1,1-1.56-1.56A1.55,1.55,0,0,1,361,33.46Z"/><path class="cls-10" d="M360.85,33.65a1.37,1.37,0,1,1-1.37-1.37A1.36,1.36,0,0,1,360.85,33.65Z"/><path class="cls-14" d="M359.48,34.75a1.11,1.11,0,0,1-1.1-1.1.16.16,0,0,1,.16-.16.15.15,0,0,1,.15.16.8.8,0,0,0,.79.79.16.16,0,0,1,.16.15A.16.16,0,0,1,359.48,34.75Z"/><path class="cls-14" d="M360.43,33.8a.16.16,0,0,1-.16-.15.79.79,0,0,0-.79-.79.85.85,0,0,0-.31.06.15.15,0,0,1-.12-.28,1.07,1.07,0,0,1,.43-.09,1.1,1.1,0,0,1,1.1,1.1A.15.15,0,0,1,360.43,33.8Z"/><path class="cls-15" d="M369.05,160.5h-2.66a1.29,1.29,0,0,0-1.29-1.22h0a1.31,1.31,0,0,0-1.3,1.22h-3.89a1.31,1.31,0,0,0-1.3-1.22h0a1.31,1.31,0,0,0-1.3,1.22h-2.66v2.63h2.66a1.31,1.31,0,0,0,1.3,1.22h0a1.31,1.31,0,0,0,1.3-1.22h3.89a1.31,1.31,0,0,0,1.3,1.22h0a1.29,1.29,0,0,0,1.29-1.22h2.66Z"/><rect class="cls-8" x="289.31" y="102.9" width="140.46" height="0.62" transform="translate(250.74 461.1) rotate(-89.11)"/><rect class="cls-8" x="288.13" y="99.62" width="147" height="0.62" transform="translate(260.02 461.08) rotate(-89.73)"/><rect class="cls-8" x="363.4" y="19.04" width="0.62" height="154.39" transform="translate(-0.57 2.19) rotate(-0.34)"/><rect class="cls-8" x="365.48" y="10.74" width="0.62" height="162.7" transform="translate(-1.38 5.69) rotate(-0.89)"/><rect class="cls-12" x="356.76" y="172.67" width="11.38" height="1.06"/><path class="cls-16" d="M556.88,175.5l-.4.22a38,38,0,0,1-36.34,0l-.4-.22a23.51,23.51,0,0,1-8.82-32.95l7.71-12.61a5.9,5.9,0,0,0-.09-6.31l-.2-.3A17.35,17.35,0,0,1,532.87,96.5h10.88a17.35,17.35,0,0,1,14.53,26.83l-.2.3a5.9,5.9,0,0,0-.09,6.31l7.71,12.61A23.53,23.53,0,0,1,556.88,175.5Z"/><path class="cls-17" d="M540,179.76c-7.09,0-13-1.33-18-4.08l-.39-.21a23.82,23.82,0,0,1-8.89-33.3l7.51-12.3a5,5,0,0,0-.08-5.28l-.2-.31a17.05,17.05,0,0,1-1.74-15.72A17.53,17.53,0,0,1,530.28,98a.82.82,0,1,1,.4,1.6,15.89,15.89,0,0,0-11,9.52,15.45,15.45,0,0,0,1.6,14.23l.19.31a6.61,6.61,0,0,1,.1,7l-7.5,12.3a22.17,22.17,0,0,0,8.27,31l.39.22c4.78,2.61,10.42,3.88,17.23,3.88h.14a.82.82,0,1,1,0,1.64Z"/><path class="cls-18" d="M547.3,156.21h-18a4.25,4.25,0,0,1-4.25-4.25v-1.78h26.48V152A4.25,4.25,0,0,1,547.3,156.21Z"/><rect class="cls-19" x="530.68" y="150.18" width="15.26" height="4.12"/><rect class="cls-20" x="540.6" y="25.51" width="5.44" height="1.55"/><rect class="cls-21" x="546.04" y="24.09" width="1.6" height="4.39" rx="0.79"/><rect class="cls-20" x="539.8" y="30.76" width="5.44" height="1.55"/><rect class="cls-21" x="545.24" y="29.34" width="1.6" height="4.39" rx="0.79"/><rect class="cls-20" x="539" y="36.01" width="5.44" height="1.55"/><rect class="cls-21" x="544.44" y="34.59" width="1.6" height="4.39" rx="0.79"/><rect class="cls-20" x="530.94" y="25.51" width="5.44" height="1.55"/><rect class="cls-21" x="529.34" y="24.09" width="1.6" height="4.39" rx="0.79"/><rect class="cls-20" x="531.74" y="30.76" width="5.44" height="1.55"/><rect class="cls-21" x="530.14" y="29.34" width="1.6" height="4.39" rx="0.79"/><rect class="cls-20" x="532.54" y="36.01" width="5.44" height="1.55"/><rect class="cls-21" x="530.94" y="34.59" width="1.6" height="4.39" rx="0.79"/><path class="cls-22" d="M545.12,17.33a13.73,13.73,0,0,0-13.63,0,1.33,1.33,0,0,0-.69,1.33l3.25,25.05h8.52l3.24-25.06A1.3,1.3,0,0,0,545.12,17.33Zm-9.8,21.1h0a.94.94,0,0,1-.94-.87l-1-12.41a1,1,0,0,1,1-1h0a.94.94,0,0,1,.94.87l1,12.41A1,1,0,0,1,535.32,38.43Zm6.94-.87a1,1,0,0,1-1,.87h0a.94.94,0,0,1-.94-1L541.3,25a1,1,0,0,1,.94-.87h0a1,1,0,0,1,1,1Z"/><circle class="cls-23" cx="538.31" cy="124.6" r="10.02" transform="translate(304.11 625.05) rotate(-77.95)"/><path class="cls-24" d="M545.58,124.6a7.27,7.27,0,1,1-7.27-7.27A7.26,7.26,0,0,1,545.58,124.6Z"/><path class="cls-22" d="M538.31,117.33a7.26,7.26,0,0,1,5.47,2.49l-1.21-76.11h-8.52l-1.21,76.11A7.26,7.26,0,0,1,538.31,117.33Z"/><rect class="cls-8" x="478.68" y="98.5" width="110.77" height="0.82" transform="matrix(0.02, -1, 1, 0.02, 426.8, 631.36)"/><rect class="cls-8" x="480.38" y="98.5" width="110.76" height="0.82" transform="translate(431.97 633.75) rotate(-89.48)"/><rect class="cls-8" x="482.08" y="98.5" width="110.76" height="0.82" transform="translate(437.18 636.12) rotate(-89.85)"/><rect class="cls-8" x="538.75" y="43.53" width="0.82" height="110.76" transform="translate(-0.3 1.63) rotate(-0.17)"/><rect class="cls-8" x="540.45" y="43.53" width="0.82" height="110.76" transform="translate(-0.87 4.89) rotate(-0.52)"/><rect class="cls-8" x="542.14" y="43.53" width="0.82" height="110.77" transform="translate(-1.43 8.19) rotate(-0.86)"/><path class="cls-21" d="M532.85,157.27h-.07a1,1,0,0,1-1-1.05h2.17A1,1,0,0,1,532.85,157.27Z"/><path class="cls-21" d="M535.05,157.27H535a1,1,0,0,1-1.05-1.05h2.17A1,1,0,0,1,535.05,157.27Z"/><path class="cls-21" d="M537.24,157.27h-.06a1,1,0,0,1-1-1.05h2.16A1,1,0,0,1,537.24,157.27Z"/><path class="cls-21" d="M539.44,157.27h-.06a1,1,0,0,1-1-1.05h2.16A1,1,0,0,1,539.44,157.27Z"/><path class="cls-21" d="M541.64,157.27h-.07a1,1,0,0,1-1.05-1.05h2.17A1,1,0,0,1,541.64,157.27Z"/><path class="cls-21" d="M543.84,157.27h-.07a1,1,0,0,1-1-1.05h2.17A1,1,0,0,1,543.84,157.27Z"/><rect class="cls-6" x="687.75" y="11.89" width="43.24" height="170"/><rect class="cls-25" x="690.59" y="15.27" width="35.78" height="10.75"/><rect class="cls-25" x="690.59" y="27.01" width="35.78" height="10.75"/><rect class="cls-25" x="690.59" y="38.74" width="35.78" height="10.75"/><rect class="cls-25" x="690.59" y="50.48" width="35.78" height="10.75"/><rect class="cls-25" x="690.59" y="62.22" width="35.78" height="10.75"/><rect class="cls-25" x="690.59" y="73.95" width="35.78" height="10.75"/><rect class="cls-25" x="690.59" y="85.69" width="35.78" height="10.75"/><rect class="cls-25" x="690.59" y="97.42" width="35.78" height="10.75"/><rect class="cls-25" x="690.59" y="109.16" width="35.78" height="10.75"/><rect class="cls-25" x="690.59" y="120.89" width="35.78" height="10.75"/><rect class="cls-25" x="690.59" y="132.63" width="35.78" height="10.75"/><rect class="cls-25" x="690.59" y="144.37" width="35.78" height="10.75"/><rect class="cls-25" x="690.59" y="156.1" width="35.78" height="10.75"/><rect class="cls-25" x="690.59" y="167.84" width="35.78" height="10.75"/><rect class="cls-7" x="698.12" y="23.48" width="28.75" height="6.07"/><rect class="cls-7" x="698.12" y="35.21" width="28.75" height="6.07"/><rect class="cls-7" x="698.12" y="46.95" width="28.75" height="6.07"/><rect class="cls-7" x="698.12" y="70.42" width="28.75" height="6.07"/><rect class="cls-7" x="698.12" y="82.16" width="28.75" height="6.07"/><rect class="cls-7" x="698.12" y="152.57" width="28.75" height="6.07"/><rect class="cls-7" x="698.12" y="164.31" width="28.75" height="6.07"/><rect class="cls-7" x="698.12" y="105.63" width="28.75" height="6.07"/><rect class="cls-7" x="698.12" y="117.37" width="28.75" height="6.07"/><rect class="cls-7" x="698.12" y="129.1" width="28.75" height="6.07"/><path class="cls-6" d="M697.62,30.06V23h29.74v7.09Zm1-6.08V29h27.75V24Z"/><path class="cls-6" d="M697.62,41.79V34.71h29.74v7.08Zm1-6.07v5.06h27.75V35.72Z"/><path class="cls-6" d="M697.62,53.53V46.44h29.74v7.09Zm1-6.07v5.06h27.75V47.46Z"/><path class="cls-6" d="M697.62,77V69.92h29.74V77Zm1-6.07V76h27.75V70.93Z"/><path class="cls-6" d="M697.62,88.74V81.65h29.74v7.09Zm1-6.08v5.06h27.75V82.66Z"/><path class="cls-6" d="M697.62,159.15v-7.08h29.74v7.08Zm1-6.07v5.06h27.75v-5.06Z"/><path class="cls-6" d="M697.62,170.89V163.8h29.74v7.09Zm1-6.08v5.07h27.75v-5.07Z"/><path class="cls-6" d="M697.62,112.21v-7.09h29.74v7.09Zm1-6.07v5.06h27.75v-5.06Z"/><path class="cls-6" d="M697.62,123.94v-7.08h29.74v7.08Zm1-6.07v5.06h27.75v-5.06Z"/><path class="cls-6" d="M697.62,135.68V128.6h29.74v7.08Zm1-6.07v5.06h27.75v-5.06Z"/><path class="cls-26" d="M38.07,182.66C9.56,182.66-7,169.37,6.72,140.17c.37-.77-.23-2.37-.9-3.76-.43-.88.41-1.81,1.47-1.64,5.38.86,11.12-2.17,11.12-13.4,0-6-.66-12.74-7.57-12.2-1.16.09-1.91-1-1.22-1.89,1.25-1.54,2.42-3.34,2-4.29C2.81,84.89,14,69.36,38.07,69.36Z"/><path class="cls-27" d="M38.07,182.66c28.52,0,45.12-13.29,31.35-42.49-.36-.77.24-2.37.91-3.76.43-.88-.41-1.81-1.47-1.64-5.39.86-11.13-2.17-11.13-13.4,0-6,.67-12.74,7.57-12.2,1.17.09,1.92-1,1.23-1.89-1.25-1.54-2.42-3.34-2-4.29,8.78-18.1-2.43-33.63-26.49-33.63Z"/><path class="cls-28" d="M38.07,184.25c-16.29,0-28-4.18-33.88-12.09s-5.57-18.88.89-32.6a7.38,7.38,0,0,0-.89-2.51,2.54,2.54,0,0,1,.24-2.64A3.27,3.27,0,0,1,7.6,133.2a9.38,9.38,0,0,0,1.38.11c4.86,0,7.65-4.35,7.65-11.94,0-8.07-1.54-10.93-5.63-10.62l-.29,0a3.2,3.2,0,0,1-2.8-1.53,2.54,2.54,0,0,1,.27-2.9c1.73-2.11,1.73-2.86,1.73-2.86-4.41-9-4.11-17.85.88-24.64C16,71.7,25.72,67.77,38.07,67.77s22,3.93,27.29,11.07c5,6.79,5.29,15.59.84,24.77A9.36,9.36,0,0,0,68,106.34a2.54,2.54,0,0,1,.26,2.9,3.2,3.2,0,0,1-2.8,1.53l-.28,0c-4.05-.3-5.64,2.65-5.64,10.62,0,4.25.89,7.56,2.56,9.59a6.59,6.59,0,0,0,6.48,2.24,3.24,3.24,0,0,1,3.16,1.21,2.52,2.52,0,0,1,.25,2.64,5.94,5.94,0,0,0-.87,2.59c6.44,13.63,6.74,24.6.87,32.52S54.37,184.25,38.07,184.25ZM7.75,136.43c.89,2,1.08,3.36.61,4.35-6,12.68-6.38,22.65-1.21,29.62S23,181.07,38.07,181.07,63.81,177.38,69,170.4s4.77-16.94-1.21-29.62c-.46-1-.28-2.35.62-4.35-.41,0-.83.06-1.24.06a10.09,10.09,0,0,1-7.95-3.64c-2.16-2.62-3.25-6.48-3.25-11.48,0-4.14,0-13.82,8.58-13.82h0c-1.75-2.3-2.25-3.92-1.64-5.19,4-8.17,3.77-15.91-.54-21.78C57.83,74.37,49.19,71,38.07,71s-19.75,3.42-24.31,9.63c-4.31,5.87-4.51,13.61-.55,21.78.62,1.27.11,2.89-1.63,5.19h0c8.58,0,8.58,9.68,8.58,13.82,0,14-8.58,15.12-11.21,15.12C8.58,136.49,8.16,136.47,7.75,136.43Z"/><path class="cls-22" d="M30,122.08a.24.24,0,0,0,0-.08.94.94,0,0,0-.14-.5,1.63,1.63,0,0,0-.1-.25,2.5,2.5,0,0,0-.37-.63,3.4,3.4,0,0,0-1.69-1.11,5.44,5.44,0,0,0-.63-.13l-.27,0a2.36,2.36,0,0,0-.4,0,1.88,1.88,0,0,0-.73.13,2.12,2.12,0,0,0-.71.34,4.88,4.88,0,0,0-1.69,2.37,16.83,16.83,0,0,0-.77,2.81,28.88,28.88,0,0,0-.41,3c-.1,1-.15,2-.2,3s-.11,2-.22,3a18.58,18.58,0,0,1-.42,2.78,8,8,0,0,1-.86,2.29A3,3,0,0,1,19,140.32c-.15,0-.18.11-.42.13l-.59.08a1,1,0,0,1-.54-.09,1.61,1.61,0,0,1-.53-.39,1.4,1.4,0,0,0,1.18-1.33,1.47,1.47,0,0,0-1.54-1.38A1.51,1.51,0,0,0,15,138.47h0a1.66,1.66,0,0,0,0,.23v0s0,.05,0,.08a.38.38,0,0,0,0,.1,4.18,4.18,0,0,0,.27,1.14,3.3,3.3,0,0,0,1.28,1.62,2.91,2.91,0,0,0,1.56.45l.6,0a4.09,4.09,0,0,0,.8-.14,4.78,4.78,0,0,0,2.71-1.85,8.86,8.86,0,0,0,1.34-2.83,28.69,28.69,0,0,0,.88-6.12c.14-2.06.1-4.09.14-6a16.32,16.32,0,0,1,.24-2.61,3.28,3.28,0,0,1,.92-1.89,1,1,0,0,1,.37-.23.93.93,0,0,1,.41-.12l.19,0,.28,0a2.15,2.15,0,0,1,.42.07,2,2,0,0,1,1,.52,1.15,1.15,0,0,0-.93,1.08,1.28,1.28,0,0,0,2.5.18h0Z"/><path class="cls-22" d="M46.14,122.08s0,0,0-.08a1,1,0,0,1,.15-.5,1,1,0,0,1,.1-.25,2.23,2.23,0,0,1,.37-.63,3.41,3.41,0,0,1,1.68-1.11,5.91,5.91,0,0,1,.63-.13l.28,0a2.18,2.18,0,0,1,.39,0,2,2,0,0,1,.74.13,2.07,2.07,0,0,1,.7.34,4.76,4.76,0,0,1,1.69,2.37,15.94,15.94,0,0,1,.78,2.81,28.88,28.88,0,0,1,.41,3c.1,1,.15,2,.2,3s.11,2,.21,3a21.58,21.58,0,0,0,.42,2.78,8.34,8.34,0,0,0,.87,2.29,2.89,2.89,0,0,0,1.43,1.24c.14,0,.18.11.41.13l.6.08a1,1,0,0,0,.53-.09,1.43,1.43,0,0,0,.53-.39,1.4,1.4,0,0,1-1.17-1.33,1.46,1.46,0,0,1,1.54-1.38,1.51,1.51,0,0,1,1.51,1.13h0a1.22,1.22,0,0,1,0,.23v0s0,.05,0,.08a.31.31,0,0,0,0,.1,4.18,4.18,0,0,1-.27,1.14,3.36,3.36,0,0,1-1.28,1.62,3,3,0,0,1-1.57.45l-.6,0a4.13,4.13,0,0,1-.79-.14,4.78,4.78,0,0,1-2.71-1.85,8.86,8.86,0,0,1-1.34-2.83,28.69,28.69,0,0,1-.88-6.12c-.14-2.06-.1-4.09-.15-6a15.24,15.24,0,0,0-.24-2.61,3.21,3.21,0,0,0-.91-1.89,1,1,0,0,0-.37-.23,1,1,0,0,0-.42-.12l-.18,0-.28,0a2.4,2.4,0,0,0-1.4.59,1.15,1.15,0,0,1,.93,1.08,1.28,1.28,0,0,1-2.51.18h0Z"/><polygon class="cls-22" points="41.61 27.92 34.53 27.92 30.52 112.89 45.63 112.89 41.61 27.92"/><rect class="cls-6" x="40.56" y="13.48" width="5.58" height="2.37"/><path class="cls-7" d="M50,17.7H47.06a.88.88,0,0,1-.93-.82V12.45a.88.88,0,0,1,.93-.82H50a3.2,3.2,0,0,1,3.36,3v.06A3.19,3.19,0,0,1,50,17.7Z"/><rect class="cls-6" x="42.36" y="20.64" width="5.58" height="2.37"/><path class="cls-7" d="M51.77,24.87H48.86a.89.89,0,0,1-.93-.83V19.62a.89.89,0,0,1,.93-.83h2.91a3.2,3.2,0,0,1,3.36,3v.06A3.2,3.2,0,0,1,51.77,24.87Z"/><rect class="cls-6" x="30.26" y="16.52" width="5.58" height="2.37"/><path class="cls-7" d="M26.43,20.74h2.91a.88.88,0,0,0,.92-.82V15.49a.88.88,0,0,0-.92-.82H26.43a3.2,3.2,0,0,0-3.37,3v.07A3.2,3.2,0,0,0,26.43,20.74Z"/><rect class="cls-6" x="28.46" y="23.68" width="5.58" height="2.37"/><path class="cls-7" d="M24.63,27.9h2.91a.88.88,0,0,0,.92-.82V22.65a.88.88,0,0,0-.92-.82H24.63a3.2,3.2,0,0,0-3.37,3v.06A3.2,3.2,0,0,0,24.63,27.9Z"/><path class="cls-26" d="M42.06,10.36h-8L32,26.58a1.26,1.26,0,0,0,1.34,1.34h9.55a1.26,1.26,0,0,0,1.34-1.34Z"/><polygon class="cls-22" points="41.55 27.92 40.27 10.54 35.87 10.54 34.6 27.92 41.55 27.92"/><path class="cls-29" d="M45.41,4.54V6.15a.75.75,0,0,1-.8.71H31.53a.75.75,0,0,1-.79-.71V4.54a.75.75,0,0,1,.79-.72H44.61A.76.76,0,0,1,45.41,4.54Z"/><path class="cls-30" d="M43.47,8.3H32.68a.76.76,0,0,1-.79-1l.18-.49.53-1.51.52-1.53.38-1.06a.81.81,0,0,1,.78-.52h7.58a.82.82,0,0,1,.79.52L43,3.82l.54,1.53.52,1.51.18.49A.75.75,0,0,1,43.47,8.3Z"/><path class="cls-26" d="M42.63,9.51a.92.92,0,0,1-1,1H34.48a.91.91,0,0,1-1-1l.25-1.21.3-1.44.33-1.51.32-1.53.33-1.58L35.37.71a1,1,0,0,1,1-.71h3.49a1,1,0,0,1,1,.71l.32,1.53.33,1.58.32,1.53.33,1.51.3,1.44Z"/><path class="cls-31" d="M45.41,5.35v.8a.75.75,0,0,1-.8.71h-.54l.18.49a.75.75,0,0,1-.78,1H42.38l.25,1.21a.92.92,0,0,1-1,1H34.48a.91.91,0,0,1-1-1l.25-1.21H32.68a.76.76,0,0,1-.79-1l.18-.49h-.54a.75.75,0,0,1-.79-.71v-.8Z"/><path class="cls-21" d="M46.12,130.39H30a1,1,0,1,1,0-1.93h16.1a1,1,0,1,1,0,1.93Z"/><polygon class="cls-14" points="40.25 145.73 39.39 145.7 40.05 129.3 38.22 10.55 39.09 10.54 40.92 129.31 40.25 145.73"/><polygon class="cls-14" points="43.75 145.76 42.89 145.68 44.88 129.23 39.39 10.56 40.25 10.53 45.74 129.26 43.75 145.76"/><polygon class="cls-14" points="35.89 145.73 35.23 129.29 37.06 10.54 37.92 10.55 36.09 129.28 36.76 145.7 35.89 145.73"/><polygon class="cls-14" points="32.4 145.76 30.41 129.32 35.89 10.53 36.76 10.56 31.27 129.29 33.26 145.68 32.4 145.76"/><path class="cls-22" d="M46.19,144.92H30.87a62,62,0,0,0,3,15,38.54,38.54,0,0,1,2,12.25s.8,15.51,1.51,20.3a1.13,1.13,0,0,0,2.19,0c.71-4.79,1.5-20.49,1.5-20.49a38.6,38.6,0,0,1,2-12.13A61.75,61.75,0,0,0,46.19,144.92Z"/><path class="cls-26" d="M207.07,161.65c-16,0-25.38-8.36-17.63-26.74a4.09,4.09,0,0,0-.51-2.36.74.74,0,0,1,.82-1c3,.54,6.26-1.37,6.26-8.43,0-3.76-.37-8-4.26-7.68a.75.75,0,0,1-.69-1.19c.71-1,1.37-2.1,1.11-2.69-4.93-11.39,1.37-21.16,14.9-21.16Z"/><path class="cls-27" d="M207.07,161.65c16,0,25.38-8.36,17.64-26.74a4,4,0,0,1,.51-2.36.75.75,0,0,0-.83-1c-3,.54-6.26-1.37-6.26-8.43,0-3.76.38-8,4.26-7.68a.75.75,0,0,0,.69-1.19c-.7-1-1.36-2.1-1.1-2.69,4.93-11.39-1.37-21.16-14.91-21.16Z"/><path class="cls-28" d="M207.07,162.65c-9.16,0-15.75-2.63-19.06-7.61s-3.13-11.88.5-20.51A5.13,5.13,0,0,0,188,133a1.75,1.75,0,0,1,1.92-2.42,4.11,4.11,0,0,0,.78.07c2.73,0,4.3-2.74,4.3-7.51,0-5.08-.86-6.88-3.17-6.68h-.16a1.76,1.76,0,0,1-1.43-2.78c1-1.34,1-1.8,1-1.81-2.48-5.69-2.31-11.22.49-15.5,2.95-4.49,8.4-7,15.35-7s12.41,2.47,15.35,7c2.81,4.27,3,9.81.48,15.58a5.42,5.42,0,0,0,1,1.72,1.76,1.76,0,0,1-1.42,2.79h-.17c-2.27-.19-3.17,1.66-3.17,6.68,0,2.67.5,4.76,1.44,6a3.52,3.52,0,0,0,3.65,1.41,1.72,1.72,0,0,1,1.78.77,1.76,1.76,0,0,1,.14,1.65,4,4,0,0,0-.49,1.63c3.62,8.58,3.79,15.48.48,20.46S216.24,162.65,207.07,162.65ZM190,132.56a3.72,3.72,0,0,1,.35,2.74c-3.36,8-3.59,14.25-.68,18.63s8.93,6.72,17.39,6.72,14.48-2.32,17.4-6.72,2.68-10.65-.68-18.63a3.7,3.7,0,0,1,.34-2.74,5.22,5.22,0,0,1-.69,0,5.45,5.45,0,0,1-4.48-2.29c-1.21-1.65-1.83-4.08-1.83-7.22,0-2.6,0-8.7,4.83-8.7h0c-1-1.44-1.27-2.46-.92-3.26,2.23-5.14,2.12-10-.31-13.7-2.56-3.91-7.42-6.06-13.68-6.06S196,93.52,193.4,97.43c-2.43,3.69-2.54,8.56-.31,13.7.34.8.06,1.82-.92,3.26h0c4.83,0,4.83,6.1,4.83,8.7,0,8.83-4.82,9.51-6.3,9.51A5.58,5.58,0,0,1,190,132.56Z"/><path class="cls-22" d="M202.53,123.53a.07.07,0,0,0,0,0,.65.65,0,0,0-.08-.31,1.42,1.42,0,0,0-.05-.16,1.67,1.67,0,0,0-.21-.39,1.93,1.93,0,0,0-.95-.7,1.73,1.73,0,0,0-.35-.08l-.16,0a1.41,1.41,0,0,0-.22,0,1,1,0,0,0-.41.08,1.18,1.18,0,0,0-.4.21,3.09,3.09,0,0,0-1,1.49,11.45,11.45,0,0,0-.44,1.77,18.93,18.93,0,0,0-.23,1.88c-.06.63-.08,1.27-.11,1.91s-.06,1.26-.12,1.87a15.39,15.39,0,0,1-.24,1.75,5.07,5.07,0,0,1-.49,1.44,1.66,1.66,0,0,1-.8.78c-.08,0-.1.07-.23.08l-.34,0a.59.59,0,0,1-.3,0,.87.87,0,0,1-.3-.25.86.86,0,1,0-1-1h0a.66.66,0,0,0,0,.14h0a.43.43,0,0,0,0,.05v.06a3,3,0,0,0,.16.73,2,2,0,0,0,.72,1,1.41,1.41,0,0,0,.87.28h.34a2.26,2.26,0,0,0,.45-.08,2.69,2.69,0,0,0,1.52-1.17,5.74,5.74,0,0,0,.76-1.78,19.79,19.79,0,0,0,.49-3.85c.08-1.29.06-2.57.08-3.74a12.08,12.08,0,0,1,.14-1.65,2.19,2.19,0,0,1,.51-1.19.7.7,0,0,1,.21-.14.48.48,0,0,1,.24-.07l.1,0h.16a1.14,1.14,0,0,1,.23,0,1.22,1.22,0,0,1,.56.32.71.71,0,0,0,.19,1.4.7.7,0,0,0,.69-.6h0Z"/><path class="cls-22" d="M211.61,123.53a.43.43,0,0,1,0,0,.65.65,0,0,1,.08-.31,1.66,1.66,0,0,1,.06-.16,1.15,1.15,0,0,1,.21-.39,1.93,1.93,0,0,1,1-.7,1.73,1.73,0,0,1,.35-.08l.16,0a1.48,1.48,0,0,1,.22,0,1,1,0,0,1,.41.08,1.28,1.28,0,0,1,.4.21,3.16,3.16,0,0,1,.95,1.49,11.43,11.43,0,0,1,.43,1.77c.11.61.18,1.24.24,1.88s.08,1.27.11,1.91.06,1.26.12,1.87a13.46,13.46,0,0,0,.23,1.75,5.4,5.4,0,0,0,.49,1.44,1.75,1.75,0,0,0,.8.78c.09,0,.11.07.24.08l.33,0a.59.59,0,0,0,.3,0,.72.72,0,0,0,.3-.25.86.86,0,1,1,1.06-1h0a.47.47,0,0,1,0,.14h0v.05a.13.13,0,0,1,0,.06,2.54,2.54,0,0,1-.15.73,2,2,0,0,1-.72,1,1.47,1.47,0,0,1-.88.28H218a2.18,2.18,0,0,1-.44-.08,2.74,2.74,0,0,1-1.53-1.17,5.71,5.71,0,0,1-.75-1.78,19.8,19.8,0,0,1-.5-3.85c-.07-1.29-.06-2.57-.08-3.74a10.72,10.72,0,0,0-.13-1.65,2.19,2.19,0,0,0-.52-1.19.6.6,0,0,0-.21-.14.48.48,0,0,0-.23-.07l-.1,0h-.16a1.11,1.11,0,0,0-.24,0,1.23,1.23,0,0,0-.55.32.71.71,0,1,1-.89.8h0Z"/><path class="cls-22" d="M211.33,138.41h-8.51a37.81,37.81,0,0,0,1.68,8.86,24.15,24.15,0,0,1,1.13,7.22v5.71a1.43,1.43,0,0,0,1.43,1.42h0a1.43,1.43,0,0,0,1.43-1.42v-5.83a24,24,0,0,1,1.11-7.14A39.1,39.1,0,0,0,211.33,138.41Z"/><polygon class="cls-22" points="209.06 64.3 205.08 64.3 202.82 117.75 211.32 117.75 209.06 64.3"/><rect class="cls-6" x="208.47" y="55.21" width="3.14" height="1.49"/><path class="cls-7" d="M213.77,57.87h-1.64a.52.52,0,0,1-.52-.52V54.57a.52.52,0,0,1,.52-.52h1.64a1.89,1.89,0,0,1,1.89,1.89v0A1.89,1.89,0,0,1,213.77,57.87Z"/><rect class="cls-6" x="209.48" y="59.72" width="3.14" height="1.49"/><path class="cls-7" d="M214.78,62.37h-1.64a.51.51,0,0,1-.52-.51V59.07a.52.52,0,0,1,.52-.52h1.64a1.89,1.89,0,0,1,1.89,1.89v0A1.89,1.89,0,0,1,214.78,62.37Z"/><rect class="cls-6" x="202.68" y="57.12" width="3.14" height="1.49"/><path class="cls-7" d="M200.52,59.78h1.64a.52.52,0,0,0,.52-.52V56.48a.52.52,0,0,0-.52-.52h-1.64a1.89,1.89,0,0,0-1.89,1.89v0A1.89,1.89,0,0,0,200.52,59.78Z"/><rect class="cls-6" x="201.67" y="61.63" width="3.14" height="1.49"/><path class="cls-7" d="M199.51,64.29h1.64a.53.53,0,0,0,.52-.52V61a.53.53,0,0,0-.52-.52h-1.64a1.89,1.89,0,0,0-1.89,1.9v0A1.89,1.89,0,0,0,199.51,64.29Z"/><path class="cls-26" d="M209.32,53.25h-4.49l-1.2,10.2a.76.76,0,0,0,.76.85h5.37a.76.76,0,0,0,.75-.85Z"/><polygon class="cls-22" points="209.03 64.3 208.31 53.37 205.84 53.37 205.12 64.3 209.03 64.3"/><path class="cls-29" d="M211.2,49.59v1a.45.45,0,0,1-.45.45h-7.36a.45.45,0,0,1-.44-.45v-1a.45.45,0,0,1,.44-.45h7.36A.45.45,0,0,1,211.2,49.59Z"/><path class="cls-30" d="M210.11,52H204a.47.47,0,0,1-.44-.61l.09-.3.3-.95.3-1,.21-.67a.46.46,0,0,1,.44-.33h4.26a.46.46,0,0,1,.45.33l.2.67.31,1,.29.95.1.3A.47.47,0,0,1,210.11,52Z"/><path class="cls-26" d="M209.63,52.71a.55.55,0,0,1-.54.65h-4a.55.55,0,0,1-.54-.65l.14-.75.17-.91.19-.95.18-1,.18-1,.18-1a.56.56,0,0,1,.54-.45h2a.56.56,0,0,1,.54.45l.18,1,.18,1,.18,1,.18.95.17.91Z"/><path class="cls-31" d="M211.2,50.1v.5a.45.45,0,0,1-.45.45h-.3l.1.3a.47.47,0,0,1-.44.61h-.62l.14.75a.55.55,0,0,1-.54.65h-4a.55.55,0,0,1-.54-.65l.14-.75H204a.47.47,0,0,1-.44-.61l.09-.3h-.3a.45.45,0,0,1-.44-.45v-.5Z"/><path class="cls-21" d="M211.6,128.76h-9.06a.61.61,0,0,1,0-1.21h9.06a.61.61,0,1,1,0,1.21Z"/><polygon class="cls-14" points="208.3 138.41 207.81 138.4 208.19 128.08 207.16 53.37 207.64 53.36 208.67 128.09 208.3 138.41"/><polygon class="cls-14" points="210.26 138.43 209.78 138.38 210.9 128.04 207.81 53.38 208.3 53.35 211.39 128.05 210.26 138.43"/><polygon class="cls-14" points="205.85 138.41 205.47 128.07 206.5 53.36 206.99 53.37 205.96 128.07 206.33 138.4 205.85 138.41"/><polygon class="cls-14" points="203.88 138.43 202.76 128.09 205.85 53.35 206.33 53.38 203.25 128.07 204.36 138.38 203.88 138.43"/><path class="cls-22" d="M190.08,145.7a5.36,5.36,0,0,1,3.1-.71,7.34,7.34,0,0,1,4.43,1.81c1.21,1,1.28,1.93,3.33,7.65,1.33,3.7,1.58,4.47,1.11,5.07-1.08,1.39-4.85.21-6.66-.61a14.07,14.07,0,0,1-4.27-3.22,12.7,12.7,0,0,1-1.59-2,9.63,9.63,0,0,1-1-2,5.37,5.37,0,0,1-.42-3.67A4.48,4.48,0,0,1,190.08,145.7Z"/></g></g></g></svg>