<svg xmlns="http://www.w3.org/2000/svg" viewBox="0 0 902.35 200.37"><defs><style>.cls-1{fill-rule:evenodd;}.cls-2{fill:#fff;}</style></defs><g id="Capa_2" data-name="Capa 2"><g id="Capa_1-2" data-name="Capa 1"><path d="M37,177.11a5.07,5.07,0,0,0-2.31-1.66,15.42,15.42,0,0,0-4-1,25.92,25.92,0,0,0-5.12-.13l-.4,0-.4,0-.41,0-.41.05-.33-.44-.34-.43-.34-.42-.34-.42-.23-.23-.28-.28A.52.52,0,0,1,22,172c0-.09,0-.17.18-.23.38-.17.76-.34,1.11-.52l1-.54c.33-.18.63-.36.92-.55s.57-.37.82-.57a7.83,7.83,0,0,0,1.47-1.36,3.74,3.74,0,0,0,.74-1.36,2.33,2.33,0,0,0,0-1.31,3,3,0,0,0-.81-1.23c-.19-.19-.39-.38-.62-.57s-.46-.37-.72-.56a9.78,9.78,0,0,0-.86-.52,10.35,10.35,0,0,0-1.05-.45,3,3,0,0,0-.4-.12,2.79,2.79,0,0,0-.4-.07,4,4,0,0,0-.8,0,5.21,5.21,0,0,0-.69.1,6.55,6.55,0,0,0-.67.18,5.7,5.7,0,0,0-.62.24,5.85,5.85,0,0,0-.56.26A7.41,7.41,0,0,0,18.27,164a3.79,3.79,0,0,0-.9,1.32,3.1,3.1,0,0,0-.23,1.36,3.84,3.84,0,0,0,.34,1.32,2.66,2.66,0,0,0,.39.51,7.72,7.72,0,0,1,.54.62,1.15,1.15,0,0,1,.27.62c0,.2-.12.37-.43.5l-1.35.56-1.33.58-1.32.59-1.28.61c-.77.38-1.53.78-2.23,1.19A17.76,17.76,0,0,0,8.82,175a7.27,7.27,0,0,0-1.36,1.36,2.72,2.72,0,0,0-.57,1.43,3.09,3.09,0,0,0,1.21,2.47,11,11,0,0,0,3.7,1.95,26.71,26.71,0,0,0,5.61,1.17,40.73,40.73,0,0,0,6.85.11l1.1-.1q.55,0,1.11-.12l1.11-.15,1.11-.19c.34.43.81.9,1.28,1.4a13.64,13.64,0,0,1,1.32,1.56,3,3,0,0,1,.62,1.64,2,2,0,0,1-.83,1.62,5.75,5.75,0,0,1-.93.6,10.67,10.67,0,0,1-1.22.5c-.45.15-.93.28-1.44.4s-1,.21-1.58.29l-.36,0-.38,0-.42,0-.44,0c-.46,0-.94.05-1.4.05a11.57,11.57,0,0,1-1.34-.05,5.7,5.7,0,0,1-1.08-.22,1.18,1.18,0,0,1-.62-.41h.55a9.89,9.89,0,0,0,2.8-.56,3.56,3.56,0,0,0,1.57-1,.91.91,0,0,0,.07-1.13,2.86,2.86,0,0,0-1.61-1c-.27-.07-.54-.14-.81-.19s-.56-.09-.84-.12l-.84,0-.84,0a10.47,10.47,0,0,0-1.9.3,9.54,9.54,0,0,0-1.64.56,5.25,5.25,0,0,0-1.21.76,1.68,1.68,0,0,0-.57.89,1.45,1.45,0,0,0,.56,1.46,5.46,5.46,0,0,0,2.11,1,17.44,17.44,0,0,0,3.16.44,30.59,30.59,0,0,0,3.7,0c1-.07,2-.19,2.95-.35a23.75,23.75,0,0,0,2.69-.61,12.37,12.37,0,0,0,2.14-.86,4.07,4.07,0,0,0,1.34-1.07,2.06,2.06,0,0,0,.42-1.51,3.36,3.36,0,0,0-.62-1.46,12.87,12.87,0,0,0-1.12-1.39c-.4-.45-.8-.88-1.13-1.3a4.52,4.52,0,0,1-.28-.4.2.2,0,0,1,0-.24.86.86,0,0,1,.36-.19l.83-.27.65-.21.63-.21.59-.24.56-.23c.34-.16.65-.31.95-.48a8.48,8.48,0,0,0,.8-.5,5.15,5.15,0,0,0,.64-.53,3.27,3.27,0,0,0,.46-.55A1.79,1.79,0,0,0,37,177.11ZM19.18,166.8a2.79,2.79,0,0,1,.44-.88,3,3,0,0,1,.51-.54,5.82,5.82,0,0,1,.86-.64,6.56,6.56,0,0,1,1.19-.55,5.63,5.63,0,0,1,1.48-.29l.28,0h.59l.3,0a2.5,2.5,0,0,1,1.2.39.75.75,0,0,1,.32.64,1.48,1.48,0,0,1-.23.72,3.36,3.36,0,0,1-.47.62,6,6,0,0,1-.9.8,12.27,12.27,0,0,1-1.22.77c-.45.26-.94.5-1.47.75s-1.08.47-1.67.7l-.06,0-.08,0-.08,0-.11,0a3.56,3.56,0,0,1-.66-.85,2.49,2.49,0,0,1-.3-.88A2.09,2.09,0,0,1,19.18,166.8Zm8.9,15.45a1.26,1.26,0,0,1-.63.23l-.8.12-.82.11-.83.08-.84.07c-.87.06-1.75.09-2.62.09s-1.73,0-2.57-.08-1.64-.15-2.4-.26a18.6,18.6,0,0,1-2.11-.44c-1.94-.52-3.08-1.16-3.6-1.88a1.89,1.89,0,0,1,.06-2.26,8.49,8.49,0,0,1,2.47-2.27,24.71,24.71,0,0,1,3.73-2l.87-.37.89-.36.9-.36.9-.35.29.36c.1.12.19.24.28.37l.27.36.28.37a1.85,1.85,0,0,0,.28.28,2.16,2.16,0,0,1,.26.28.21.21,0,0,1,0,.27,1,1,0,0,1-.5.23c-.46.11-.9.24-1.31.37s-.81.28-1.17.44a11,11,0,0,0-1,.48,10.24,10.24,0,0,0-.88.53,3,3,0,0,0-1.05,1.11,1.3,1.3,0,0,0,0,1.12,2.44,2.44,0,0,0,.95,1,6.91,6.91,0,0,0,1.9.84l.62.14c.32.07.72.15,1.15.22l1.3.19a8.66,8.66,0,0,0,1.06.05l.19,0a.39.39,0,0,0,.14,0l.09-.06a.11.11,0,0,0,0-.08c0-.07-.21-.14-.52-.22l-1.15-.24c-.43-.08-.88-.16-1.24-.24a4.42,4.42,0,0,1-.81-.21c-.62-.3-.91-.65-.94-1a1.37,1.37,0,0,1,.61-1.07,6.16,6.16,0,0,1,1.73-1,12.24,12.24,0,0,1,2.43-.67c.18.24.37.48.55.73s.37.5.56.74l.57.76.59.76.32.43c.11.14.22.28.32.43l.33.43.33.44a3.44,3.44,0,0,0,.33.34,1.91,1.91,0,0,1,.31.34A.23.23,0,0,1,28.08,182.25Zm5.55-2.12a5.69,5.69,0,0,1-1.49,1,13.48,13.48,0,0,1-2.28.86l-1.14-1.46-1.12-1.43c-.36-.47-.72-.93-1.09-1.39s-.71-.91-1.06-1.36a0,0,0,0,1,0,0l.05,0h.21c.23,0,.6,0,1,0s.92,0,1.39.07l1.28.08.71.07c.4.07.78.16,1.13.25a9.35,9.35,0,0,1,1,.33,6.12,6.12,0,0,1,.81.39,3.24,3.24,0,0,1,.6.45,1.42,1.42,0,0,1,.53,1.08A1.83,1.83,0,0,1,33.63,180.13Z"/><path d="M50.28,174.45a.51.51,0,0,0-.17-.26,1.85,1.85,0,0,0-.53-.32,5.19,5.19,0,0,0-.78-.24,7,7,0,0,0-1-.13,8.43,8.43,0,0,0-1.12,0l-.25,0-.26,0-.26,0-.26,0-.5.11-.47.13-.43.14-.39.13,0,0-.05,0,0,0h-.09l-.45-1.31c-.14-.43-.29-.86-.43-1.28l-.43-1.26c-.14-.41-.27-.82-.41-1.22h-.27l-.27,0-.27,0-.26,0,0,0,.7,2.12c.24.72.48,1.46.73,2.2s.49,1.52.75,2.29.51,1.57.78,2.37l.12,0,.09-.05.08,0,.09-.05.65-.34c.21-.12.43-.23.66-.34l.69-.33.72-.31.87-.37c.29-.11.57-.23.84-.35s.52-.25.74-.38a3.91,3.91,0,0,0,.58-.4,1.26,1.26,0,0,0,.22-.24.91.91,0,0,0,.13-.26A.5.5,0,0,0,50.28,174.45Zm-2.8.67a1.62,1.62,0,0,1-.1.18l-.13.17a3.72,3.72,0,0,1-.46.41,6.6,6.6,0,0,1-.58.41l-.65.39-.67.38,0,0-.05,0,0,0-.09,0-.15-.44-.15-.45c-.05-.15-.11-.3-.16-.46l-.15-.45-.06-.15a1,1,0,0,1-.07-.15.48.48,0,0,1,0-.14.19.19,0,0,1,0-.13c0-.05.07-.11.16-.17a1.82,1.82,0,0,1,.32-.18c.12-.06.26-.11.39-.16l.38-.11.13,0,.13,0h.25a3,3,0,0,1,.67,0,2.42,2.42,0,0,1,.56.13,1.42,1.42,0,0,1,.41.21.61.61,0,0,1,.23.26.63.63,0,0,1,0,.19A.59.59,0,0,1,47.48,175.12Z"/><path class="cls-1" d="M670.52,74.64l1.89-.6L677,79.29c1-.43,1.83-.88,2.83-1.31.82,1,1.65,1.9,2.46,2.85l-2.81,1.32c1.15,1.34,2.31,2.67,3.47,4,.92-.36,1.9-.93,2.85-1.29l2.52,2.92-2.81,1.32L690,94.38c-.65.19-1.38.47-2,.61l-4.37-5-3.93,1.86c1.57,1.83,3.16,3.66,4.74,5.48a19.1,19.1,0,0,1-2,.63L678,92.67c-1,.42-1.91.93-2.82,1.31l-2.53-2.92c.94-.44,1.85-.88,2.82-1.32l-3.49-4c-1,.43-1.82.87-2.83,1.3l-2.46-2.83c.89-.45,1.9-.89,2.81-1.34l-4.75-5.48a18.92,18.92,0,0,1,2-.63L671.22,82c1.34-.61,2.65-1.24,3.95-1.86-1.56-1.8-3.13-3.6-4.69-5.41C670.45,74.69,670.47,74.67,670.52,74.64Zm3.19,10.22,3.46,4c1.38-.61,2.59-1.23,4-1.84l-3.07-3.55c-.15-.18-.24-.38-.5-.45C676.28,83.63,675,84.24,673.71,84.86Z"/><path class="cls-1" d="M177,154.32a10,10,0,0,1,1.21,0c.27,2,1.74,3.11,3.65,4a58,58,0,0,1,5.39,2.79,12.34,12.34,0,0,1,4.15,3.67,6.25,6.25,0,0,1,.67,4.69c0,.2-.23.45-.2.61s.27.32.41.5a5.69,5.69,0,0,1,1.31,4.38,7.27,7.27,0,0,1-1.42,3.36c-.17.24-.47.9-1.17.73-.23-.05,0-.21.13-.41a6.15,6.15,0,0,0,.92-6.2c-1-2.15-4-3.16-6.71-4.05-1.92-.62-3.78-1.18-5.74-1.83.45,3.9.86,7.54,1.31,11.47.15,1.33.41,2.59-.14,3.49-1,1.68-3.52,3-6.59,3.69-3.61.76-7.77.16-8.06-2.15a2.91,2.91,0,0,1,1.17-2.31,12.67,12.67,0,0,1,5.74-2.83,13,13,0,0,1,6.58.16q-1.34-11.84-2.69-23.67S177,154.34,177,154.32Zm7.05,11a40.25,40.25,0,0,1,6.67,3.7c.1.08.22.3.34.21.36-3-1.7-4.69-3.93-6.05A36.76,36.76,0,0,0,179,160h-.13C179.48,162.43,181.6,164.14,184.05,165.36Z"/><path d="M503.58,117.71c-.09-.21-.26-.44-.23-.59s.33-.4.46-.6a6.85,6.85,0,0,0,1.23-5,9.46,9.46,0,0,0-2.81-4.45,48.22,48.22,0,0,0-4.47-3.73,5.06,5.06,0,0,1-2.24-3l.26-.93-1.41-.14-7,25.34c-1.78-1.31-5.67-1.78-9.59-1-4.73.91-7.72,3.24-6.69,5.21s5.69,2.83,10.41,1.92c4.19-.8,7-2.72,6.88-4.53l4-14.37c1.64.9,3.25,1.72,4.88,2.6,2.5,1.34,5.2,2.84,5.32,5.23s-1.59,4.85-3.49,6.32c-.25.19-.52.31-.31.41.65.28,1.24-.36,1.52-.59a10.84,10.84,0,0,0,2.86-3.28A5.73,5.73,0,0,0,503.58,117.71Zm-.75-1.55c-.16.08-.19-.17-.26-.27-1.33-1.79-3.47-3.28-5.42-4.86a7.78,7.78,0,0,1-3.21-5l.35-1.28a28.89,28.89,0,0,1,6.95,4.48C503,111,504.42,113.15,502.83,116.16Z"/><path d="M867.62,31a7.84,7.84,0,0,1-1.56-1c-.26-.37-.12-1-.23-1.52a20.11,20.11,0,0,0-7-10.76c-3.8-3-8.85-5.17-14-6.88s-10.55-3-15.93-4.3C825,5.59,821.45,4.34,818.68,2l-1.25-2-3.06.69,34.07,55.24c-6-1.36-14.64.41-21,4.65-7.68,5.09-9.21,11.81-3.44,15s16.67,1.66,24.33-3.43c6.81-4.52,8.77-10.31,5.11-13.79L834.11,27c5,.64,9.71,1.14,14.62,1.75,7.5.93,15.72,2,20.48,6.7,5,4.88,6,10.75,5,15-.13.56-.43,1,.17,1,1.84.1,1.8-1.58,1.92-2.22a15.51,15.51,0,0,0-.54-8.51A20,20,0,0,0,867.62,31Zm-4.41-2.57c-.17.28-.7-.19-1-.33-6-2.63-13.13-4.12-20-5.89-5.87-1.51-11.58-3.87-15.81-7.66l-1.72-2.78c7.63.86,15.57,1.83,22.31,4.08S860.67,21.33,863.21,28.42Z"/><path d="M587.93,163c.08.23.28.48.25.65s-.36.44-.5.66a7.51,7.51,0,0,0-1.35,5.46,10.25,10.25,0,0,0,3.08,4.88,50.51,50.51,0,0,0,4.9,4.09,5.57,5.57,0,0,1,2.45,3.35l-.27,1,1.53.15,7.68-27.79c1.95,1.44,6.21,1.95,10.52,1.12,5.18-1,8.46-3.55,7.34-5.71s-6.24-3.1-11.42-2.11c-4.59.88-7.7,3-7.55,5l-4.35,15.76c-1.82-1-3.57-1.88-5.36-2.84-2.74-1.48-5.7-3.13-5.84-5.74s1.76-5.32,3.84-6.93c.27-.21.57-.35.34-.45-.73-.31-1.37.39-1.68.64a11.85,11.85,0,0,0-3.13,3.6A6.24,6.24,0,0,0,587.93,163Zm.81,1.71c.18-.09.22.18.3.28,1.45,2,3.8,3.61,5.94,5.34a8.53,8.53,0,0,1,3.52,5.46l-.39,1.4c-2.81-1.46-5.71-3-7.62-4.93S587,168,588.74,164.68Z"/><path d="M329.9,184.73c.07.17.22.36.19.49s-.28.34-.39.51a5.81,5.81,0,0,0-1,4.22,7.9,7.9,0,0,0,2.38,3.77,40.23,40.23,0,0,0,3.78,3.16,4.28,4.28,0,0,1,1.9,2.58l-.22.79,1.2.12,5.92-21.47c1.51,1.11,4.8,1.51,8.13.87,4-.77,6.54-2.74,5.66-4.41s-4.81-2.4-8.82-1.63c-3.54.68-5.94,2.31-5.83,3.84l-3.36,12.17c-1.4-.76-2.75-1.45-4.14-2.19-2.11-1.14-4.4-2.42-4.51-4.44s1.36-4.11,3-5.35c.21-.16.44-.27.26-.35-.56-.24-1.06.31-1.29.5a9.1,9.1,0,0,0-2.42,2.78A4.84,4.84,0,0,0,329.9,184.73Zm.62,1.31c.14-.07.17.14.23.22a26,26,0,0,0,4.59,4.12,6.55,6.55,0,0,1,2.72,4.22l-.29,1.08a24.5,24.5,0,0,1-5.89-3.8C330.39,190.39,329.18,188.59,330.52,186Z"/><path d="M272.23,162.91l6.51-23.58-1.19-.13-6.17,22.38c-1.51-1.11-4.8-1.51-8.12-.87-4,.77-6.52,2.74-5.65,4.41s4.81,2.39,8.8,1.62C270,166.06,272.34,164.43,272.23,162.91Z"/><polygon points="254.34 160.15 276.45 159.86 276.48 160.82 254.37 161.11 254.34 160.15 254.34 160.15"/><polygon points="255.44 156.16 277.55 155.88 277.58 156.83 255.47 157.12 255.44 156.16 255.44 156.16"/><path d="M113.53,173.9,109,150.4l-.85.06,4.37,22.63a8.53,8.53,0,0,0-5.79.38c-2.46,1-3.54,2.64-2.4,3.67s4,1.05,6.5.05C113,176.3,114.1,174.91,113.53,173.9Z"/><path d="M150.5,169.35,146,145.86l-.84.06,4.37,22.63a8.47,8.47,0,0,0-5.79.38c-2.46,1-3.54,2.64-2.41,3.67s4,1,6.5.05C150,171.76,151.07,170.37,150.5,169.35Z"/><path d="M124.82,163.45l-2.73-14.08-.84.06,2.56,13.22A8.47,8.47,0,0,0,118,163c-2.46,1-3.54,2.64-2.41,3.66s4,1.05,6.5.05C124.3,165.86,125.39,164.47,124.82,163.45Z"/><path d="M138.14,159.44,135.93,148l-.84.06,2,10.53a8.53,8.53,0,0,0-5.79.38c-2.46,1-3.54,2.64-2.41,3.67s4,1,6.5,0C137.61,161.84,138.7,160.45,138.14,159.44Z"/><polygon points="108.25 150.48 145.31 145.87 145.87 147.53 108.8 152.14 108.25 150.48 108.25 150.48"/><polygon points="108.71 153.97 122.55 152.11 123.16 153.76 109.31 155.62 108.71 153.97 108.71 153.97"/><polygon points="102.31 176.53 117.22 173.69 117.56 174.34 102.65 177.18 102.31 176.53 102.31 176.53"/><path d="M76,153.72l3.28-11.91-.62-.06L75.51,153a6.16,6.16,0,0,0-4.27-.46c-2.1.41-3.43,1.44-3,2.32s2.53,1.26,4.63.86C74.76,155.38,76,154.52,76,153.72Z"/><path d="M86.12,150.61l2.32-8.43-.63-.06-2.14,7.79a6.12,6.12,0,0,0-4.27-.46c-2.1.4-3.44,1.44-3,2.32s2.53,1.26,4.64.85C84.92,152.27,86.17,151.41,86.12,150.61Z"/><path d="M63.86,158.19l4.8-17.38-.63-.07-4.62,16.75a6.11,6.11,0,0,0-4.27-.46c-2.1.4-3.43,1.44-3,2.32s2.53,1.26,4.63.85C62.66,159.85,63.92,159,63.86,158.19Z"/><path d="M690.9,147l-7.32-42.75-2.16.14,7,40.55c-3.5-1.48-9.49-1.21-14.75.85-6.31,2.49-9.14,6.64-6.32,9.28s10.22,2.74,16.53.26C689.43,153.14,692.29,149.63,690.9,147Z"/><path d="M718.84,100.62,685.09,44l-2,.45L715.57,99c-4-.92-9.7.21-14,3-5.14,3.33-6.25,7.78-2.46,9.92s11,1.17,16.15-2.16C719.85,106.76,721.22,102.94,718.84,100.62Z"/><path d="M806.15,79,772.41,22.33l-2,.45,32.51,54.54c-4-.93-9.7.21-14,3-5.14,3.34-6.24,7.78-2.46,9.92s11,1.17,16.16-2.17C807.17,85.1,808.54,81.28,806.15,79Z"/><path d="M736.54,72.81,716.3,38.88l-2,.45,19,31.85c-4-.93-9.7.21-14,3-5.14,3.33-6.24,7.77-2.46,9.92s11,1.17,16.16-2.17C737.55,79,738.92,75.14,736.54,72.81Z"/><path d="M767.15,59.39,750.78,31.93l-2,.45,15.14,25.38c-4-.93-9.69.2-14,3-5.14,3.34-6.24,7.78-2.45,9.92s11,1.17,16.15-2.16C768.16,65.54,769.54,61.71,767.15,59.39Z"/><polygon points="687.18 50.76 683.33 44.23 770.55 19.39 773.95 25.57 687.18 50.76"/><polygon points="693.04 60.2 689.18 53.67 776.41 28.84 779.81 35.02 693.04 60.2"/><path d="M304.35,157.56l-7.12-18.8-1,.13L303,156.73a9.33,9.33,0,0,0-6.49.87c-2.59,1.31-3.47,3.26-2,4.34s4.8.88,7.39-.44C304.25,160.34,305.2,158.68,304.35,157.56Z"/><path d="M398.66,142.39l-8-30.42-1.09.1,7.73,29.31c-1.86-.7-4.91-.46-7.5.69-3.11,1.38-4.36,3.54-2.8,4.84s5.35,1.23,8.46-.15C398.2,145.54,399.49,143.69,398.66,142.39Z"/><path d="M446,136.58l-8-30.43-1.09.11,7.72,29.3c-1.85-.69-4.91-.45-7.49.69-3.11,1.38-4.36,3.55-2.8,4.85s5.35,1.23,8.46-.15C445.51,139.73,446.8,137.88,446,136.58Z"/><path d="M412,129.45l-4.81-18.24-1.1.11,4.52,17.11c-1.86-.69-4.91-.45-7.5.69-3.11,1.38-4.36,3.55-2.8,4.85s5.36,1.23,8.47-.15C411.48,132.59,412.78,130.75,412,129.45Z"/><path d="M429.46,124.48l-3.89-14.76-1.1.11,3.6,13.63c-1.85-.69-4.91-.45-7.49.69-3.11,1.38-4.37,3.55-2.8,4.85s5.34,1.23,8.46-.15C429,127.62,430.29,125.78,429.46,124.48Z"/><polygon points="390.62 115.49 389.72 111.98 437.48 104.57 438.22 107.87 390.62 115.49"/><polygon points="392.08 120.58 391.17 117.07 438.94 109.66 439.67 112.96 392.08 120.58"/><path d="M610.88,114.81l8.57-31.08-1.5-.15-8.15,29.54c-1.92-1.41-6.08-1.91-10.29-1.1-5.06,1-8.28,3.47-7.17,5.58s6.1,3,11.16,2.06C608,118.8,611,116.74,610.88,114.81Z"/><path class="cls-2" d="M594.34,117.28c-.49-.88,2.19-2.22,6-3s7.25-.65,7.74.23-2.19,2.23-6,3S594.83,118.17,594.34,117.28Z"/><polygon points="554.57 129.46 541.63 128.14 542.81 123.84 555.75 125.16 554.57 129.46"/><path d="M513.3,146.26l8.51-30.86-1.42-.14-8.11,29.41c-1.81-1.32-5.72-1.79-9.69-1-4.75.91-7.78,3.27-6.73,5.25s5.73,2.86,10.49,1.94C510.58,150,513.43,148.08,513.3,146.26Z"/><path d="M573.92,152.85l8.77-31.76-1.42-.14-8.36,30.31c-1.81-1.32-5.72-1.79-9.69-1-4.76.91-7.78,3.26-6.75,5.25s5.75,2.86,10.51,1.94C571.21,156.61,574.06,154.67,573.92,152.85Z"/><path d="M552.39,140.58l5.91-21.43-1.42-.14-5.51,20c-1.8-1.32-5.72-1.79-9.68-1-4.76.92-7.78,3.27-6.75,5.25s5.74,2.86,10.51,1.94C549.67,144.34,552.52,142.4,552.39,140.58Z"/><polygon points="581.56 125.46 519.33 119.13 520.52 114.83 582.75 121.16 581.56 125.46"/><path d="M185.69,147.37l-9.38-15.27-.7.15,8.94,14.56a6.77,6.77,0,0,0-4.81,1.06c-1.76,1.17-2.12,2.7-.8,3.44s3.82.38,5.57-.78C186.07,149.49,186.53,148.17,185.69,147.37Z"/><path d="M216,141l-9.66-15.71-.7.16,9.22,15a6.72,6.72,0,0,0-4.81,1.06c-1.76,1.16-2.12,2.7-.8,3.43s3.82.39,5.57-.78C216.4,143.13,216.86,141.8,216,141Z"/><path d="M232.15,142.27a10.07,10.07,0,0,1-1.32,1.39,14.77,14.77,0,0,1-6.61,3.12,23,23,0,0,1-7.54.26,20.64,20.64,0,0,1-4.17-1,25.77,25.77,0,0,0,11.3,0,20.7,20.7,0,0,0,6.66-2.58,9.83,9.83,0,0,0,1.61-1.25c.18-.16.48-.5.48-.5S232.3,142.09,232.15,142.27Z"/><polygon points="207.72 127.43 176.92 134.39 175.61 132.26 206.42 125.31 207.72 127.43"/><polygon points="209.36 130.78 202.95 132.23 201.64 130.1 208.05 128.65 209.36 130.78"/><polygon points="245.99 122.51 239.58 123.95 238.28 121.83 244.68 120.38 245.99 122.51"/><path d="M234.56,136.6l-9.38-15.27-.7.16,8.94,14.56a6.72,6.72,0,0,0-4.81,1.06c-1.76,1.16-2.12,2.7-.8,3.43s3.82.38,5.58-.78C235,138.73,235.4,137.4,234.56,136.6Z"/><path d="M264.76,130,255.1,114.3l-.7.16,9.22,15a6.74,6.74,0,0,0-4.82,1.06c-1.76,1.16-2.11,2.7-.79,3.43s3.81.39,5.57-.78C265.14,132.14,265.59,130.81,264.76,130Z"/><path d="M249.78,127.87l-6.52-10.61-.7.16,6.07,9.9a6.73,6.73,0,0,0-4.81,1.06c-1.76,1.16-2.11,2.7-.79,3.43s3.81.39,5.57-.78C250.16,130,250.61,128.67,249.78,127.87Z"/><polygon points="256.46 116.44 225.66 123.4 224.35 121.27 255.16 114.32 256.46 116.44"/><path d="M82.41,163.23l-4.49,16.28.82.08L83,164.15c1.05.77,3.32,1,5.6.6,2.76-.53,4.51-1.89,3.91-3s-3.32-1.65-6.08-1.11C84,161.06,82.33,162.19,82.41,163.23Z"/><path d="M455.21,143.34l-6.35,23,1.16.12,6-21.83c1.47,1.09,4.68,1.47,7.92.85,3.89-.75,6.36-2.67,5.52-4.29s-4.69-2.34-8.59-1.59C457.43,140.27,455.1,141.86,455.21,143.34Z"/><polygon points="451.06 145.38 472.63 145.1 472.66 146.04 451.09 146.32 451.06 145.38 451.06 145.38"/><polygon points="449.99 149.27 471.55 149 471.59 149.93 450.02 150.21 449.99 149.27 449.99 149.27"/><path d="M308.1,170.23l-7.46,27.05,1.28.13L309,171.76c1.62,1.26,5.19,1.69,8.81.94,4.35-.9,7.13-3.18,6.21-5.08s-5.19-2.71-9.54-1.81C310.62,166.62,308,168.49,308.1,170.23Z"/><polygon points="303.44 172.65 327.47 172.19 327.5 173.29 303.46 173.75 303.44 172.65 303.44 172.65"/><polygon points="302.18 177.23 326.2 176.77 326.23 177.87 302.2 178.32 302.18 177.23 302.18 177.23"/><path d="M635.18,131.17l9.48-34.36-1.73-.17-9,32.59c-2.2-1.61-7-2.19-11.82-1.26-5.82,1.12-9.51,4-8.24,6.41s7,3.49,12.83,2.37C631.86,135.76,635.34,133.39,635.18,131.17Z"/><polygon points="609.11 127.15 641.32 126.73 641.37 128.13 609.16 128.54 609.11 127.15 609.11 127.15"/><polygon points="610.71 121.34 642.93 120.92 642.98 122.32 610.76 122.73 610.71 121.34 610.71 121.34"/><path d="M348.07,162.74,344.29,135l-1.12.06,3.62,26.55c-1.8-.79-4.93-.69-7.7.35-3.33,1.26-4.89,3.4-3.47,4.79s5.28,1.5,8.62.25C347.2,165.92,348.75,164.1,348.07,162.74Z"/><path d="M373.73,149l-2.41-17.67-1.13.06,2.26,16.52c-1.8-.79-4.93-.7-7.7.35-3.34,1.25-4.89,3.4-3.47,4.79s5.28,1.5,8.62.25C372.85,152.14,374.41,150.33,373.73,149Z"/><polygon points="343.53 137.95 343.05 134.25 371.3 129.95 371.65 133.43 343.53 137.95"/><path d="M224.18,157.72l-7.08,25.66,1.24.12,6.73-24.38c1.58,1.16,5,1.57,8.49.91,4.18-.81,6.83-2.87,5.92-4.61s-5-2.51-9.21-1.71C226.56,154.43,224.06,156.13,224.18,157.72Z"/><path class="cls-2" d="M237.83,155.68c.4.73-1.81,1.84-4.94,2.47s-6,.54-6.38-.19,1.8-1.84,4.93-2.47S237.43,154.94,237.83,155.68Z"/><path d="M.56,191.48c8.11-4,18.4-6.73,27.78-9.38a273.46,273.46,0,0,1,42.24-8.88c9.65-1.14,25.49-2.13,29.44,5.05,3.18,5.76-4.32,13.48,4.83,18.11,7.16,3.63,19.42.87,26.83-.88,13.18-3.11,25.45-7.66,37.34-12.25,9-3.47,17.6-7.33,26.73-10.66,19.91-7.26,45-15,68.82-11.05a50.81,50.81,0,0,1,29.13,15.33c5.33,5.58,10.34,11.38,18.52,15.66,17.28,9,43.55,4.79,61.23-1.37,32.15-11.19,51.8-34.28,89.76-39.57a102.19,102.19,0,0,1,30.65.72c12.24,2.05,22.45,7.17,32.51,11.63a117.05,117.05,0,0,0,32.09,9.49,148,148,0,0,0,35.63.13c25.14-2.65,49.11-10.45,71.14-17.93,23.37-7.93,45.73-16.9,68.45-25.47,13.88-5.24,28-10.28,41.57-15.78,14.43-5.83,28.55-12,42.62-18.11,27.58-12,55-24.23,84.32-34.73.36-.12,0-.46-.32-.33-48.11,17.24-91.22,39-138.18,57.29-22.53,8.79-45.53,17.2-68.28,25.78-23,8.69-46.58,17-71.67,23.32s-53.86,9.61-79.68,2.53c-11.13-3-20.46-8.11-30.46-12.27A97.34,97.34,0,0,0,483,150.61c-37.27-2.76-63.53,16.6-88.32,30.22-17.59,9.66-39.86,18.33-64.71,16.06-27.12-2.47-31.19-20.93-49.12-30.46-29.13-15.48-71.47.06-97.68,10.73-11.63,4.73-23.38,9.37-35.72,13.4-10.41,3.4-23.81,7.89-36.11,7-14.23-1.05-9.42-11.05-9.91-16.83s-8.33-8.34-17.1-8.63c-16.6-.54-34,3.83-49,7.7C23.44,182.87,10.23,186.23.11,191.2c-.32.16.14.43.45.28Z"/><path d="M2,186.42c7.83-4,17.84-6.79,27-9.48a264.83,264.83,0,0,1,41.15-9.15c9.43-1.21,24.93-2.35,29,4.64,3.27,5.62-3.86,13.26,5.24,17.71,7.12,3.49,19.06.65,26.27-1.15,12.83-3.18,24.74-7.77,36.26-12.39,8.71-3.49,17-7.37,25.9-10.73,19.31-7.32,43.7-15.11,67.16-11.54a51,51,0,0,1,29,14.72c5.38,5.42,10.46,11,18.59,15.16,17.19,8.69,42.83,4.25,60-2,31.19-11.31,49.81-34.15,86.87-39.73a100.36,100.36,0,0,1,30.07.4c12,1.87,22.2,6.79,32.19,11.05a116,116,0,0,0,31.73,9,145.18,145.18,0,0,0,34.92-.23c24.57-2.86,47.84-10.76,69.23-18.32,22.68-8,44.35-17,66.38-25.68,13.46-5.28,27.1-10.36,40.3-15.9,14-5.86,27.65-12,41.27-18.19,26.69-12.09,53.26-24.33,81.67-34.92.35-.13,0-.46-.32-.33C835.17,66.77,793.52,88.53,748,107c-21.84,8.85-44.14,17.34-66.21,26-22.33,8.75-45.18,17.15-69.6,23.6s-52.52,10-78,3.31c-11-2.87-20.28-7.74-30.2-11.71a96.89,96.89,0,0,0-30.24-6.79C437.11,139,411.92,158.28,388,171.89c-17,9.65-38.56,18.38-63,16.42-26.65-2.15-31.15-20.2-49-29.36-29-14.86-70.06.81-95.45,11.53-11.26,4.77-22.66,9.44-34.64,13.52-10.1,3.44-23.11,8-35.19,7.22-14-.88-9.55-10.74-10.19-16.39s-8.41-8.1-17-8.28c-16.29-.36-33.26,4.1-47.8,8-11.54,3.14-24.39,6.57-34.18,11.55-.31.16.15.42.46.27Z"/><path d="M3.3,181.44c7.56-4,17.3-6.84,26.16-9.57a256.41,256.41,0,0,1,40.08-9.39c9.21-1.29,24.37-2.57,28.57,4.24,3.37,5.48-3.41,13,5.63,17.31,7.08,3.34,18.7.43,25.73-1.4,12.48-3.25,24-7.87,35.19-12.52,8.44-3.52,16.5-7.4,25.08-10.79,18.73-7.37,42.41-15.27,65.51-12a51,51,0,0,1,28.82,14.13c5.43,5.26,10.56,10.72,18.66,14.67,17.1,8.33,42.09,3.71,58.74-2.56,30.26-11.41,47.86-34,84-39.84a98.82,98.82,0,0,1,29.49.07c11.87,1.72,22,6.43,31.87,10.5a115.6,115.6,0,0,0,31.35,8.47,142,142,0,0,0,34.23-.6c24-3.05,46.59-11,67.34-18.67,22-8.09,43-17.16,64.35-25.86,13-5.31,26.27-10.44,39-16,13.55-5.89,26.76-12.07,40-18.26C808.94,61.23,834.65,49,862.2,38.28c.34-.13,0-.45-.33-.32C816.61,55.51,776.4,77.28,732.31,95.81c-21.16,8.9-42.78,17.45-64.17,26.16-21.65,8.81-43.8,17.28-67.56,23.85s-51.2,10.33-76.39,4.06c-10.86-2.71-20.09-7.38-29.94-11.17a96.32,96.32,0,0,0-29.83-6.35c-36-1.89-60.11,17.25-83.17,30.83C364.89,172.83,344,181.62,320,179.94c-26.19-1.83-31.12-19.48-48.87-28.26-28.83-14.28-68.65,1.51-93.24,12.29-10.91,4.78-21.94,9.48-33.57,13.6-9.8,3.48-22.43,8.07-34.29,7.45-13.73-.72-9.67-10.43-10.45-16s-8.47-7.85-16.91-7.94c-16-.19-32.49,4.37-46.63,8.39C24.79,172.7,12.3,176.2,2.84,181.18c-.3.16.16.42.46.26Z"/><path d="M4.41,176.55c7.31-4,16.77-6.89,25.38-9.66a249.21,249.21,0,0,1,39-9.62c9-1.35,23.82-2.76,28.12,3.87,3.46,5.33-3,12.82,6,16.91,7,3.19,18.34.23,25.17-1.64,12.15-3.32,23.33-8,34.15-12.64,8.17-3.54,16-7.43,24.28-10.84,18.15-7.42,41.14-15.41,63.87-12.45A51,51,0,0,1,279.07,154c5.48,5.1,10.66,10.4,18.7,14.18,17,8,41.37,3.21,57.52-3.12,29.34-11.49,45.95-33.81,81.24-39.92a96.6,96.6,0,0,1,28.91-.23c11.68,1.55,21.7,6.07,31.53,10a114.55,114.55,0,0,0,31,8,138.7,138.7,0,0,0,33.53-.94c23.44-3.24,45.36-11.3,65.49-19,21.34-8.16,41.66-17.27,62.35-26,12.63-5.34,25.46-10.5,37.82-16.09,13.11-5.91,25.9-12.1,38.64-18.31,25-12.16,49.83-24.45,76.53-35.21.33-.13,0-.44-.33-.3-43.87,17.66-82.67,39.42-125.37,58.05-20.5,8.93-41.45,17.55-62.16,26.3-21,8.86-42.45,17.4-65.55,24.08s-49.9,10.66-74.78,4.77c-10.72-2.54-19.9-7-29.66-10.63A95.17,95.17,0,0,0,455,123.65c-35.3-1.48-58.43,17.53-80.65,31.09-15.77,9.61-36,18.44-59.6,17-25.72-1.52-31-18.77-48.69-27.2-28.67-13.69-67.26,2.2-91.05,13-10.56,4.8-21.25,9.52-32.53,13.69-9.52,3.51-21.76,8.13-33.4,7.65-13.48-.57-9.77-10.12-10.7-15.54s-8.52-7.6-16.79-7.61c-15.67,0-31.73,4.62-45.48,8.71C25.24,167.76,13.08,171.32,4,176.3c-.29.16.16.4.45.25Z"/><path d="M5.37,171.74c7.05-4,16.24-6.92,24.6-9.72a240.81,240.81,0,0,1,38-9.84c8.78-1.42,23.27-3,27.68,3.5,3.53,5.19-2.56,12.59,6.37,16.5,7,3.07,18,0,24.63-1.86,11.81-3.38,22.64-8,33.11-12.75,7.91-3.55,15.44-7.44,23.5-10.87,17.58-7.47,39.89-15.53,62.26-12.87a51,51,0,0,1,28.46,13c5.52,4.94,10.74,10.08,18.73,13.71,16.89,7.65,40.65,2.71,56.3-3.66,28.43-11.57,44.09-33.62,78.51-40a95,95,0,0,1,28.33-.53c11.5,1.41,21.44,5.73,31.19,9.45a114.36,114.36,0,0,0,30.59,7.49A136.47,136.47,0,0,0,550.45,132c22.9-3.42,44.15-11.55,63.66-19.31,20.7-8.22,40.35-17.36,60.38-26.15C686.73,81.2,699.15,76,711.12,70.41c12.68-5.94,25-12.14,37.36-18.36,24.13-12.18,48.15-24.48,74-35.3.32-.13,0-.43-.33-.3C779.67,34.22,742.24,56,700.91,74.66c-19.84,9-40.13,17.63-60.19,26.42-20.31,8.91-41.12,17.5-63.57,24.29s-48.62,11-73.17,5.45c-10.58-2.37-19.71-6.68-29.37-10.11a94.29,94.29,0,0,0-29-5.49c-34.64-1.09-56.79,17.78-78.18,31.3-15.19,9.59-34.79,18.46-57.94,17.34-25.25-1.22-31-18.08-48.5-26.16-28.49-13.12-65.87,2.85-88.88,13.71-10.22,4.81-20.56,9.55-31.5,13.75-9.23,3.54-21.1,8.2-32.53,7.85-13.23-.41-9.86-9.82-10.92-15.12s-8.57-7.37-16.68-7.29c-15.36.15-31,4.87-44.33,9-10.61,3.29-22.42,6.91-31.22,11.89-.28.15.17.39.45.23Z"/></g></g></svg>