<svg xmlns="http://www.w3.org/2000/svg" viewBox="0 0 108.78 43.7"><defs><style>.cls-1{fill-rule:evenodd;}.cls-2{fill:#fff;}</style></defs><g id="Capa_2" data-name="Capa 2"><g id="Layer_1" data-name="Layer 1"><path d="M20.36,24.3c-.39-1.34-1.81-2.14-2.82-3-.41-.34-.41-.32-.22-.8a4.69,4.69,0,0,0,.24-.89,3.46,3.46,0,0,0-.12-1.72,3.39,3.39,0,0,0-5.66-1.34l-1.23-1c-.17-.14-.69-.41-.66-.66a9,9,0,0,0,0-2.2,6.7,6.7,0,0,0-2.5-4.4A7.24,7.24,0,0,0,5.12,7c-.8-.23-.94.5-.94,1.14a7.17,7.17,0,0,0,2.31,4.62c.39.38,1.56,1,1.48,1.58-.11.83-.21,1.66-.25,2.49a6.8,6.8,0,0,0,1,4.45,5.05,5.05,0,0,0,8.11.13c1.06.85,2.86,1.81,3.05,3.3a2.15,2.15,0,0,1-.56,1.67c-.33.37-1.12,1-1.63.55a1.36,1.36,0,0,0-.64-2.5,1.5,1.5,0,0,0-1.24,2.39C17.33,29.21,21.05,26.62,20.36,24.3ZM8.1,13.37a.14.14,0,0,1,0,.12A6.08,6.08,0,0,1,6,10.84c-.24-.63-.64-2.29.42-2.44C7.24,8.27,7.78,9.57,8,10.21A6.88,6.88,0,0,1,8.1,13.37Zm8.26,7.94a4.25,4.25,0,0,1-3.48,1.63c-3-.17-3.65-3.44-3.35-5.85.07-.51.17-1,.26-1.54.36.28.71.58,1.06.87s.71.38.54.73A3.45,3.45,0,0,0,11.08,19a2.72,2.72,0,0,0,2.4,2.39c.15,0,1.65,0,1.36-.41-.11-.15-1.12.05-1.37,0a2,2,0,0,1-.71-3l2,1.64,1.1.91C16.11,20.78,16.62,21,16.36,21.31Zm.42-.62-3.67-3c-.13-.14,1.18-.56,1.33-.57a2.39,2.39,0,0,1,1.57.45A2.57,2.57,0,0,1,16.78,20.69Z"/><path class="cls-1" d="M92.37,21.26l.22,0,.12,1,.35-.11.06.54-.34.1.09.75c.11,0,.24-.08.35-.1,0,.18,0,.36.07.55l-.35.1c0,.33.09.66.13,1l-.23,0c0-.31-.08-.63-.11-.94l-.49.15c0,.34.09.69.13,1l-.22,0c0-.33-.08-.66-.13-1l-.34.11c0-.19-.05-.37-.07-.55l.34-.11L91.86,23l-.35.11-.06-.53.34-.11c0-.35-.09-.69-.13-1l.23,0,.12,1,.48-.16c0-.33-.08-.67-.13-1ZM92.08,23l.09.75.49-.15-.09-.66s0-.07,0-.09Z"/><path d="M72.24,16.41a.3.3,0,0,1,0-.1l.1-.06a1.91,1.91,0,0,0,.61-.69,2.1,2.1,0,0,0,.19-.84,7.87,7.87,0,0,0,0-.84,1,1,0,0,1,.1-.6l.11-.13-.11-.1-3.18,3.43a1,1,0,0,0-.78-.74c-.53-.15-1,0-1.14.38s.24.78.77.93A1,1,0,0,0,70,16.78l1.8-2c.06.24.13.46.19.69a1.41,1.41,0,0,1,0,1.12,1.88,1.88,0,0,1-1,.75s-.08,0-.07,0,.15,0,.2,0a2,2,0,0,0,.59-.33A1.56,1.56,0,0,0,72.24,16.41Zm.09-.28s0,0,0-.05a5.47,5.47,0,0,0,0-1.07,1.64,1.64,0,0,1,.2-.95l.16-.18A3.86,3.86,0,0,1,72.87,15,1.41,1.41,0,0,1,72.33,16.13Z"/><path d="M26.48,7.1a1.31,1.31,0,0,1,.05.15,1.11,1.11,0,0,1-.07.16,3,3,0,0,0-.1,1.35,3.12,3.12,0,0,0,.54,1.15,10.08,10.08,0,0,0,.79.94,1.42,1.42,0,0,1,.42.79l0,.25.23,0L29,5.08a1.49,1.49,0,0,0,1.57.16c.75-.3,1.19-1,1-1.47s-1-.68-1.72-.39a1.41,1.41,0,0,0-1,1.29L28.4,8.54c-.28-.22-.56-.42-.84-.63a2,2,0,0,1-1-1.33,2.72,2.72,0,0,1,.45-1.73s.08-.09,0-.11-.2.11-.24.17a3,3,0,0,0-.39.91A2.38,2.38,0,0,0,26.48,7.1Zm.15.4s0,0,.05.07a7,7,0,0,0,1,1.23,2.48,2.48,0,0,1,.62,1.29l0,.34A5.13,5.13,0,0,1,27,9.32,2.06,2.06,0,0,1,26.63,7.5Z"/><path d="M79.72,22.25l-2.11,3.51.08,0,2-3.38a.56.56,0,0,0,.52.32c.31,0,.57-.13.59-.35s-.23-.4-.54-.42A.54.54,0,0,0,79.72,22.25Z"/><path d="M76.17,20.5,74.06,24l.08,0,2-3.38a.55.55,0,0,0,.52.31c.31,0,.57-.13.58-.34s-.22-.41-.53-.43A.56.56,0,0,0,76.17,20.5Z"/><path d="M77.68,23l-1.26,2.1.07.05,1.19-2a.56.56,0,0,0,.52.32c.31,0,.57-.14.58-.35s-.22-.4-.53-.42A.54.54,0,0,0,77.68,23Z"/><path d="M76.15,22.65l-1,1.71.07,0,1-1.57a.56.56,0,0,0,.52.32c.31,0,.57-.14.58-.35s-.22-.4-.53-.43A.56.56,0,0,0,76.15,22.65Z"/><polygon points="74.25 23.79 77.81 25.53 77.69 25.8 74.12 24.05 74.25 23.79 74.25 23.79"/><polygon points="76.79 24.39 78.14 25.02 78.01 25.29 76.67 24.66 76.79 24.39 76.79 24.39"/><polygon points="79.43 21.93 80.97 22.5 80.93 22.61 79.39 22.04 79.43 21.93 79.43 21.93"/><path d="M53.88,26.72l-.15,7h.21l.14-6.6a1.37,1.37,0,0,0,1.46,0c.66-.32,1-.95.8-1.41s-.94-.57-1.61-.24A1.28,1.28,0,0,0,53.88,26.72Z"/><polygon points="53.22 27.43 57.07 26.78 57.12 27.06 53.27 27.7 53.22 27.43 53.22 27.43"/><polygon points="53.2 28.6 57.05 27.96 57.09 28.23 53.24 28.88 53.2 28.6 53.2 28.6"/><path d="M35.53,31.36l-6.34-5.63-.17.19,6,5.34a1.66,1.66,0,0,0-1.19,1.32c-.22.87.08,1.7.68,1.86S35.79,34,36,33.14A1.58,1.58,0,0,0,35.53,31.36Z"/><polygon points="32.65 34.1 35.09 30.02 35.39 30.19 32.94 34.27 32.65 34.1 32.65 34.1"/><polygon points="31.58 33.15 34.02 29.06 34.31 29.24 31.87 33.32 31.58 33.15 31.58 33.15"/><path d="M44.16,30l-2.07-7.18-.22.06,2,6.8a1.53,1.53,0,0,0-1.57.44c-.6.56-.77,1.36-.39,1.77s1.2.3,1.8-.27A1.44,1.44,0,0,0,44.16,30Z"/><path d="M106.87,9.39l-3.06-3.08-.07.08,2.93,3a.69.69,0,0,0-.53.51c-.11.35,0,.7.23.78s.54-.14.65-.49A.66.66,0,0,0,106.87,9.39Z"/><path d="M107.28,7l-2-2-.07.08L107.08,7a.65.65,0,0,0-.52.51c-.12.35,0,.7.23.78s.53-.14.65-.49A.65.65,0,0,0,107.28,7Z"/><path d="M108.58,5.11l-2.17-2.19-.08.08,2,2.05a.71.71,0,0,0-.53.52c-.11.35,0,.7.23.78s.54-.14.65-.5A.66.66,0,0,0,108.58,5.11Z"/><polygon points="104.01 6.68 103.6 6.27 106.37 2.89 106.74 3.29 104.01 6.68"/><path d="M49,27.13l-3.28-9-.22.08,3.14,8.6a1.49,1.49,0,0,0-1.51.53c-.56.6-.68,1.4-.26,1.78s1.19.21,1.75-.39A1.44,1.44,0,0,0,49,27.13Z"/><path d="M52.9,21.15l-2.09-5.72-.22.08,1.95,5.35A1.5,1.5,0,0,0,51,21.4c-.56.6-.67,1.39-.26,1.78s1.19.2,1.75-.4A1.44,1.44,0,0,0,52.9,21.15Z"/><polygon points="45.83 19.17 45.4 17.97 50.68 14.99 51.07 16.12 45.83 19.17"/><path d="M88.19,23.52,86.8,19.13l-.1,0L88,23.37a.73.73,0,0,0-.74.23c-.28.28-.35.66-.16.85s.57.13.85-.15A.69.69,0,0,0,88.19,23.52Z"/><path d="M90.2,20.73l-.88-2.81-.11,0L90,20.58a.72.72,0,0,0-.74.22.65.65,0,0,0-.16.86c.19.19.57.12.85-.16A.68.68,0,0,0,90.2,20.73Z"/><polygon points="86.84 19.62 86.65 19.03 89.27 17.71 89.43 18.26 86.84 19.62"/><path d="M44.9,33.49l2.2,7.88.2-.06-2.12-7.55a1.28,1.28,0,0,0,1.33-.36c.52-.47.67-1.15.34-1.5s-1-.25-1.52.22A1.22,1.22,0,0,0,44.9,33.49Z"/><path d="M41.08,37.88l1.41,5,.19,0-1.32-4.7a1.29,1.29,0,0,0,1.33-.36c.52-.48.67-1.15.34-1.5s-1-.26-1.52.22A1.22,1.22,0,0,0,41.08,37.88Z"/><polygon points="47.13 40.45 47.42 41.51 42.7 43.7 42.45 42.71 47.13 40.45"/><polygon points="46.63 38.93 46.92 39.98 42.21 42.18 41.95 41.19 46.63 38.93"/><path d="M103.75,13l4.12,3,.07-.09L104,13a.69.69,0,0,0,.44-.61c.06-.38-.11-.72-.37-.76s-.52.24-.57.62A.67.67,0,0,0,103.75,13Z"/><path d="M101.11,17l4.12,3,.06-.09-4-2.84a.72.72,0,0,0,.45-.61c0-.38-.11-.72-.37-.76s-.52.24-.58.62A.68.68,0,0,0,101.11,17Z"/><path d="M104.33,15.43l2.47,1.77.07-.09-2.32-1.67a.69.69,0,0,0,.44-.61c.06-.38-.1-.72-.37-.76s-.51.24-.57.62A.69.69,0,0,0,104.33,15.43Z"/><path d="M103.69,17.24l2,1.43.07-.08-1.85-1.33a.71.71,0,0,0,.45-.61c.05-.38-.11-.72-.37-.76s-.52.24-.58.62A.66.66,0,0,0,103.69,17.24Z"/><polygon points="107.46 15.53 107.94 15.87 105.45 20.12 105.01 19.79 107.46 15.53"/><polygon points="106.77 15.04 107.24 15.38 104.75 19.63 104.31 19.3 106.77 15.04"/><path d="M67.2,19.9l-1.4,7.7.22,0,1.34-7.31a1.47,1.47,0,0,0,1.54.29c.77-.23,1.26-.84,1.1-1.37s-.9-.77-1.67-.54A1.42,1.42,0,0,0,67.2,19.9Z"/><path class="cls-2" d="M69.7,19.33c.07.22-.34.54-.91.72s-1.09.15-1.16-.07.33-.55.91-.73S69.63,19.1,69.7,19.33Z"/><path d="M98,21.58,96.81,17.2l-.11,0,1.12,4.2a.74.74,0,0,0-.74.19c-.29.26-.38.63-.2.83s.56.15.85-.11A.7.7,0,0,0,98,21.58Z"/><path d="M100.08,18.92l-.74-2.8-.11,0,.69,2.62a.7.7,0,0,0-.74.19c-.29.26-.38.63-.2.83s.56.14.85-.12A.69.69,0,0,0,100.08,18.92Z"/><polygon points="96.82 17.68 96.67 17.09 99.3 15.91 99.43 16.46 96.82 17.68"/><path d="M94.46,23l1.12,4.21.13,0-1.07-4a.81.81,0,0,0,.85-.22c.33-.3.44-.72.23-.95s-.64-.17-1,.12A.8.8,0,0,0,94.46,23Z"/><path class="cls-2" d="M95.59,22.16c.09.09,0,.35-.29.58s-.52.34-.6.24,0-.36.28-.58S95.5,22.06,95.59,22.16Z"/><path d="M97.39,21a2.92,2.92,0,0,0-.36-.17,2.05,2.05,0,0,0-1.25-.05,2.1,2.1,0,0,0-1,.59,2.74,2.74,0,0,0-.37.56,2.58,2.58,0,0,1,.44-.49,2.51,2.51,0,0,1,.94-.49A2.61,2.61,0,0,1,97,20.93a1.58,1.58,0,0,1,.37.11l.13.06Z"/><path d="M34.21,11.4,39,15.52l.12-.15-4.52-3.91a1.22,1.22,0,0,0,.87-1c.16-.65-.08-1.26-.52-1.37s-.94.33-1.1,1A1.18,1.18,0,0,0,34.21,11.4Z"/><path d="M32.09,22.48l3.24,2.8.12-.15-3-2.58a1.26,1.26,0,0,0,.87-1c.15-.65-.08-1.27-.53-1.38s-.93.33-1.09,1A1.16,1.16,0,0,0,32.09,22.48Z"/><path d="M27.52,21.65l6.68,5.76.13-.14-6.44-5.56a1.22,1.22,0,0,0,.87-1c.16-.65-.07-1.26-.52-1.37s-.94.33-1.1,1A1.19,1.19,0,0,0,27.52,21.65Z"/><path d="M32.54,14.74l6.68,5.77.13-.14-6.44-5.56a1.23,1.23,0,0,0,.87-1c.16-.65-.07-1.27-.52-1.38s-.94.33-1.1,1A1.18,1.18,0,0,0,32.54,14.74Z"/><path d="M33.29,19.34l4,3.46.13-.15-3.76-3.24a1.24,1.24,0,0,0,.86-1c.16-.65-.07-1.27-.52-1.38s-.94.33-1.09,1A1.16,1.16,0,0,0,33.29,19.34Z"/><polygon points="33.8 26.94 38.82 20 39.33 20.37 34.31 27.31 33.8 26.94 33.8 26.94"/><polygon points="36.01 21.75 37.85 19.12 38.37 19.49 36.53 22.11 36.01 21.75 36.01 21.75"/><polygon points="31.76 15.24 33.53 12.18 33.75 12.3 31.98 15.36 31.76 15.24 31.76 15.24"/><polygon points="34.33 12.27 36.1 9.21 36.32 9.33 34.54 12.39 34.33 12.27 34.33 12.27"/><polygon points="35.13 12.96 36.9 9.9 37.12 10.03 35.35 13.09 35.13 12.96 35.13 12.96"/><path d="M103.55,7.75h-.07l-.07,0a1.22,1.22,0,0,0-.57-.2,1.35,1.35,0,0,0-.57.11,3.91,3.91,0,0,0-.51.24.73.73,0,0,1-.39.09l-.11,0,0,.1,2.92,1.07a.66.66,0,0,0-.25.67c0,.36.28.63.53.6s.41-.35.37-.71a.64.64,0,0,0-.45-.6l-1.66-.61.38-.29a.91.91,0,0,1,.69-.27,1.26,1.26,0,0,1,.71.39s0,.05,0,0,0-.09-.05-.12a1.44,1.44,0,0,0-.35-.28A1.28,1.28,0,0,0,103.55,7.75Zm-.19,0s0,0,0,0a2.66,2.66,0,0,0-.65.28,1.12,1.12,0,0,1-.64.12l-.14,0a2.06,2.06,0,0,1,.62-.4A1,1,0,0,1,103.36,7.77Z"/><path d="M20.17,13.07,17.73,2.84l-.25.06,2.34,9.81a1.65,1.65,0,0,0-1.73.4c-.68.58-.91,1.44-.51,1.91s1.28.38,2-.21A1.58,1.58,0,0,0,20.17,13.07Z"/><path d="M25.21,7,23.65.5l-.26.06,1.46,6.1a1.67,1.67,0,0,0-1.72.4c-.69.59-.92,1.44-.52,1.92s1.29.37,2-.21A1.59,1.59,0,0,0,25.21,7Z"/><polygon points="17.72 3.96 17.4 2.59 23.57 0 23.84 1.29 17.72 3.96"/><rect x="59.34" y="14.36" width="1.69" height="0.93" transform="translate(-1.48 8.54) rotate(-8.02)"/><path d="M57.08,20.18l-.92-6.6-.19,0,.89,6.28a1.18,1.18,0,0,0-1.26.17c-.53.37-.75,1-.49,1.33s.88.35,1.41,0A1.11,1.11,0,0,0,57.08,20.18Z"/><path d="M65,19.16l-1-6.79-.18,0,.91,6.47a1.21,1.21,0,0,0-1.26.17c-.52.37-.74,1-.49,1.33s.89.35,1.42,0A1.14,1.14,0,0,0,65,19.16Z"/><path d="M61.53,17.5l-.64-4.58-.19,0,.61,4.27a1.18,1.18,0,0,0-1.26.17c-.53.37-.75,1-.5,1.33s.89.35,1.42,0A1.13,1.13,0,0,0,61.53,17.5Z"/><rect x="55.98" y="12.95" width="8.15" height="0.93" transform="translate(-1.28 8.49) rotate(-8)"/><path d="M13.09,25.22c2.12-4.61,6.57-7.5,10.68-9.72a49.3,49.3,0,0,1,7.65-3.43c2.58-.88,5.5-1.62,8.19-1.19a3.9,3.9,0,0,1,3.11,2.21,5.89,5.89,0,0,1,0,3.62,29.83,29.83,0,0,1-3.17,7.08A28.39,28.39,0,0,0,36.5,31a8.87,8.87,0,0,0,0,4.9c.79,2.16,3.12,1.95,4.85,1.41A28.74,28.74,0,0,0,49.1,33c2-1.45,4-3,5.94-4.66,3.7-3.16,7.37-6.48,11.78-8.38a16.52,16.52,0,0,1,8.52-1.38A7,7,0,0,1,79,20.06a21.29,21.29,0,0,1,2.43,2.5A9.54,9.54,0,0,0,87,25.75a13.15,13.15,0,0,0,6.82-1c7.56-3,13.1-11,14.23-19.56,0-.06-.08-.06-.08,0a26.17,26.17,0,0,1-6.9,14.43C97.63,23.24,92.81,26,88,25.75a9.22,9.22,0,0,1-6.41-3.15c-.74-.8-1.43-1.64-2.24-2.37a6.54,6.54,0,0,0-3-1.53c-5.24-1.25-10.69,1.27-15,4.39-2.82,2-5.37,4.45-8.07,6.65A66.19,66.19,0,0,1,46,35a24.51,24.51,0,0,1-4,2,7,7,0,0,1-3.33.58c-3.24-.42-2.5-5.31-1.83-7.61a40.12,40.12,0,0,1,3.49-7.41A21.39,21.39,0,0,0,43,15.92a5.34,5.34,0,0,0-.25-3A3.74,3.74,0,0,0,40.47,11,8.33,8.33,0,0,0,37,10.73a23.08,23.08,0,0,0-4.11.77,45.88,45.88,0,0,0-11.77,5.4c-3.21,2-6.44,4.59-8.13,8.27,0,.06.05.11.07,0Z"/><path d="M9.78,22c2.3-4.53,6.93-7.24,11.19-9.31A51.68,51.68,0,0,1,28.88,9.5c2.65-.77,5.65-1.41,8.38-.87A4,4,0,0,1,40.36,11a5.78,5.78,0,0,1-.09,3.63,29.46,29.46,0,0,1-3.45,7,28.14,28.14,0,0,0-3.38,7.11,8.79,8.79,0,0,0-.12,4.9c.74,2.19,3.12,2.07,4.9,1.59a29.2,29.2,0,0,0,8-4c2.14-1.37,4.2-2.87,6.21-4.43,3.87-3,7.71-6.2,12.28-7.93a16.93,16.93,0,0,1,8.72-1.05,7.27,7.27,0,0,1,3.63,1.57,24.74,24.74,0,0,1,2.41,2.6,9.82,9.82,0,0,0,5.6,3.41,13.7,13.7,0,0,0,7-.74c7.81-2.72,13.71-10.54,15.14-19a.05.05,0,0,0-.1,0,25.76,25.76,0,0,1-7.48,14.16c-3.62,3.49-8.62,6-13.56,5.63A9.52,9.52,0,0,1,79.63,22c-.74-.82-1.42-1.69-2.22-2.45a6.69,6.69,0,0,0-3-1.64c-5.3-1.45-10.94.85-15.45,3.81C56.07,23.6,53.4,25.92,50.57,28A66,66,0,0,1,43,33a25.17,25.17,0,0,1-4.1,1.86,7.26,7.26,0,0,1-3.41.44c-3.29-.54-2.38-5.4-1.62-7.67a39.31,39.31,0,0,1,3.79-7.28,21.33,21.33,0,0,0,2.92-6.53,5.4,5.4,0,0,0-.16-3,3.83,3.83,0,0,0-2.27-2,8.59,8.59,0,0,0-3.49-.4A24.14,24.14,0,0,0,30.42,9,46.77,46.77,0,0,0,18.26,14c-3.34,1.87-6.72,4.34-8.56,8,0,.05.05.11.08.05Z"/><path d="M6.5,18.55c2.49-4.44,7.3-7,11.7-8.87a51.64,51.64,0,0,1,8.17-2.84c2.72-.67,5.8-1.19,8.57-.55A4.15,4.15,0,0,1,38,8.74a5.73,5.73,0,0,1-.2,3.63,29,29,0,0,1-3.75,6.81,27.53,27.53,0,0,0-3.66,7,8.63,8.63,0,0,0-.29,4.9c.68,2.22,3.12,2.19,4.95,1.78a29.89,29.89,0,0,0,8.28-3.67c2.22-1.29,4.37-2.71,6.47-4.2,4-2.87,8.06-5.9,12.77-7.46a17.81,17.81,0,0,1,8.92-.71,7.53,7.53,0,0,1,3.65,1.72,23.38,23.38,0,0,1,2.37,2.69,10.09,10.09,0,0,0,5.61,3.62,14.1,14.1,0,0,0,7.14-.47c8-2.42,14.31-10,16-18.42,0-.06-.08-.07-.1,0A25.44,25.44,0,0,1,98.14,19.8c-3.79,3.35-9,5.7-14,5.11a9.88,9.88,0,0,1-6.45-3.65c-.72-.85-1.38-1.75-2.17-2.54a7.11,7.11,0,0,0-3-1.76c-5.36-1.65-11.18.44-15.87,3.22-3.06,1.81-5.86,4-8.8,6A66.87,66.87,0,0,1,40,30.87a25.36,25.36,0,0,1-4.24,1.7,7.54,7.54,0,0,1-3.49.32c-3.34-.68-2.26-5.5-1.41-7.74A38.3,38.3,0,0,1,35,18a20.78,20.78,0,0,0,3.18-6.41,5.26,5.26,0,0,0-.06-3,4,4,0,0,0-2.25-2.11,8.92,8.92,0,0,0-3.55-.53A24,24,0,0,0,28,6.4,48,48,0,0,0,15.4,10.87c-3.47,1.75-7,4.09-9,7.63,0,.05,0,.11.08.05Z"/><path d="M3.26,15C6,10.68,10.93,8.33,15.48,6.6a53.81,53.81,0,0,1,8.41-2.51c2.8-.57,6-1,8.75-.22a4.22,4.22,0,0,1,3.07,2.57,5.56,5.56,0,0,1-.33,3.61,28.37,28.37,0,0,1-4,6.67,27.48,27.48,0,0,0-4,6.84,8.53,8.53,0,0,0-.45,4.89c.63,2.24,3.11,2.3,5,2a30.71,30.71,0,0,0,8.56-3.36c2.3-1.2,4.54-2.53,6.72-3.94,4.21-2.72,8.41-5.59,13.26-7a18.51,18.51,0,0,1,9.11-.37,7.74,7.74,0,0,1,3.67,1.86,23.82,23.82,0,0,1,2.33,2.78,10.42,10.42,0,0,0,5.6,3.84,14.69,14.69,0,0,0,7.3-.2c8.27-2.1,14.9-9.46,16.93-17.8,0-.06-.08-.07-.1,0a25.19,25.19,0,0,1-8.68,13.56c-4,3.2-9.33,5.35-14.43,4.56a10.18,10.18,0,0,1-6.46-3.89c-.7-.88-1.35-1.81-2.13-2.62a7.22,7.22,0,0,0-3-1.87c-5.41-1.87-11.41,0-16.28,2.6-3.17,1.69-6.1,3.8-9.16,5.68A70.07,70.07,0,0,1,37,28.64a26.45,26.45,0,0,1-4.38,1.53,7.71,7.71,0,0,1-3.57.18c-3.37-.8-2.12-5.58-1.18-7.79a38.19,38.19,0,0,1,4.41-7,20.53,20.53,0,0,0,3.44-6.29,5.07,5.07,0,0,0,0-3,4,4,0,0,0-2.22-2.2,9.43,9.43,0,0,0-3.6-.67,26,26,0,0,0-4.41.29,49.32,49.32,0,0,0-12.95,4C9,9.31,5.33,11.51,3.19,15c0,0,0,.11.07.06Z"/><path d="M.08,11.38C3,7.14,8.11,5,12.8,3.43a55,55,0,0,1,8.66-2.2,20.49,20.49,0,0,1,8.92.12A4.33,4.33,0,0,1,33.43,4,5.49,5.49,0,0,1,33,7.64a28.24,28.24,0,0,1-4.32,6.51,27,27,0,0,0-4.26,6.69,8.33,8.33,0,0,0-.61,4.87c.56,2.27,3.09,2.43,5,2.16a31.62,31.62,0,0,0,8.83-3c2.38-1.12,4.71-2.36,7-3.69,4.38-2.55,8.74-5.26,13.73-6.45a19,19,0,0,1,9.3,0,8,8,0,0,1,3.68,2,23.43,23.43,0,0,1,2.29,2.87,10.67,10.67,0,0,0,5.58,4.05,15.27,15.27,0,0,0,7.45.09c8.5-1.79,15.49-8.89,17.82-17.15,0-.06-.07-.08-.09,0a24.91,24.91,0,0,1-9.29,13.22c-4.15,3.05-9.68,5-14.85,4a10.5,10.5,0,0,1-6.46-4.15c-.69-.91-1.32-1.86-2.09-2.7a7.56,7.56,0,0,0-3-2c-5.45-2.07-11.63-.43-16.67,2-3.29,1.57-6.34,3.56-9.52,5.32A69,69,0,0,1,34,26.29a26.32,26.32,0,0,1-4.51,1.36,8.14,8.14,0,0,1-3.64.05c-3.42-.94-2-5.66-1-7.84a37.75,37.75,0,0,1,4.71-6.81A20.21,20.21,0,0,0,33.36,6.9a5,5,0,0,0,.12-3A4.05,4.05,0,0,0,31.29,1.6,9.94,9.94,0,0,0,27.64.79a27,27,0,0,0-4.5.12A50.64,50.64,0,0,0,9.81,4.41C6.1,5.88,2.3,7.94,0,11.32c0,0,0,.11.07.06Z"/></g></g></svg>